<svg width="570" height="510" viewBox="0 0 570 510" fill="none" xmlns="http://www.w3.org/2000/svg">
<path d="M103.274 219.822C2.90858 277.764 2.90858 371.715 103.274 429.657C203.64 487.6 366.374 487.61 466.73 429.657C567.085 371.705 567.095 277.764 466.73 219.822C366.364 161.88 203.629 161.848 103.274 219.822Z" fill="#F5F5F5"/>
<path d="M492.347 219.79C491.824 220.303 490.987 221.015 489.919 221.883C483.233 227.576 467.651 240.814 465.684 259.273L463.528 258.719C463.339 238.491 477.603 217.76 487.418 213.564C487.474 213.541 487.524 213.508 487.566 213.465C487.608 213.423 487.642 213.372 487.664 213.316C487.687 213.261 487.698 213.201 487.697 213.142C487.696 213.082 487.683 213.022 487.659 212.968C487.611 212.858 487.521 212.771 487.41 212.726C487.298 212.681 487.174 212.681 487.063 212.727C477.163 216.913 462.513 237.256 462.617 258.488L461.163 258.112C460.619 256.27 457.417 243.461 466.322 226.561C467.813 223.739 469.528 221.041 471.45 218.493L471.544 218.388C477.739 210.32 485.074 205.716 490.108 207.359C491.271 207.666 492.331 208.278 493.179 209.132C494.027 209.985 494.632 211.049 494.932 212.214C495.195 213.593 495.096 215.016 494.643 216.344C494.189 217.673 493.398 218.86 492.347 219.79Z" fill="white"/>
<path d="M480.888 200.871C476.859 206.647 472.684 212.622 470.748 217.97C468.773 220.554 467.023 223.302 465.516 226.184C463.016 230.86 461.204 235.872 460.137 241.065C459.321 210.331 476.179 186.231 481.328 181.93C481.373 181.891 481.411 181.844 481.438 181.792C481.466 181.739 481.482 181.681 481.487 181.621C481.492 181.562 481.485 181.502 481.467 181.446C481.448 181.389 481.419 181.337 481.38 181.291C481.303 181.2 481.193 181.142 481.074 181.131C480.954 181.119 480.835 181.154 480.742 181.229C475.258 185.791 456.767 212.35 459.457 245.512C459.45 245.529 459.45 245.548 459.457 245.565C458.978 249.668 459.205 253.823 460.127 257.85L457.584 257.076C456.904 254.774 451.608 235.278 455.962 209.451C458.274 195.649 466.269 182.244 474.976 177.493C479.005 175.316 482.95 175.034 486.707 176.666C487.575 176.962 488.364 177.455 489.01 178.107C489.657 178.759 490.143 179.551 490.432 180.423C491.803 185.226 486.497 192.823 480.888 200.871Z" fill="white"/>
<path d="M495.821 212.078C495.479 210.762 494.797 209.559 493.844 208.59C492.891 207.62 491.7 206.918 490.39 206.553C485.556 204.973 478.806 208.646 472.779 215.51C472.098 216.295 471.418 217.122 470.748 217.99C468.774 220.575 467.023 223.323 465.516 226.205C463.016 230.881 461.205 235.893 460.137 241.086C459.823 242.666 459.614 244.225 459.468 245.586C458.989 249.689 459.215 253.844 460.137 257.871C460.263 258.394 460.357 258.687 460.368 258.708C460.408 258.813 460.487 258.899 460.587 258.949H460.671L462.869 259.514L465.945 260.299C466.003 260.314 466.065 260.314 466.123 260.299C466.194 260.288 466.261 260.263 466.322 260.225C466.374 260.188 466.418 260.139 466.451 260.083C466.483 260.027 466.503 259.965 466.51 259.901C468.195 241.536 483.819 228.256 490.495 222.584C491.541 221.674 492.421 220.952 492.965 220.408C494.115 219.38 494.981 218.075 495.482 216.616C495.982 215.158 496.099 213.595 495.821 212.078ZM492.347 219.811C491.824 220.324 490.987 221.036 489.919 221.904C483.233 227.597 467.651 240.835 465.684 259.294L463.528 258.74L462.617 258.509L461.163 258.133C460.619 256.291 457.417 243.482 466.322 226.582C467.813 223.76 469.528 221.062 471.45 218.514L471.544 218.409C477.739 210.341 485.074 205.736 490.108 207.379C491.271 207.687 492.331 208.299 493.179 209.153C494.027 210.006 494.632 211.07 494.932 212.235C495.192 213.61 495.09 215.03 494.637 216.354C494.184 217.678 493.395 218.862 492.347 219.79V219.811Z" fill="#34A573"/>
<path d="M487.418 213.606C477.603 217.792 463.35 238.532 463.528 258.761V259.169C463.531 259.277 463.495 259.383 463.425 259.466C463.356 259.549 463.258 259.603 463.151 259.619H463.078H462.889C462.813 259.581 462.748 259.523 462.702 259.451C462.656 259.379 462.63 259.296 462.628 259.211C462.628 259.012 462.628 258.813 462.628 258.614C462.523 237.381 477.174 217.059 487.073 212.852C487.184 212.807 487.309 212.806 487.42 212.851C487.532 212.896 487.621 212.983 487.669 213.093C487.693 213.194 487.681 213.301 487.636 213.394C487.59 213.488 487.513 213.563 487.418 213.606Z" fill="#34A573"/>
<path d="M481.631 201.394C478.331 205.863 475.371 210.575 472.778 215.49C472.318 216.473 471.91 217.425 471.575 218.367C471.575 218.367 471.156 218.702 470.989 218.639C470.876 218.597 470.784 218.512 470.733 218.402C470.682 218.292 470.676 218.167 470.717 218.053V217.97C472.653 212.622 476.828 206.647 480.857 200.871C486.466 192.823 491.772 185.226 490.411 180.423C490.122 179.551 489.636 178.759 488.989 178.107C488.343 177.455 487.555 176.962 486.686 176.666C482.929 175.034 478.984 175.316 474.955 177.493C466.248 182.212 458.212 195.649 455.941 209.451C451.588 235.278 456.883 254.774 457.563 257.076L460.106 257.85L460.901 258.091C461.018 258.127 461.115 258.208 461.172 258.316C461.229 258.424 461.24 258.55 461.205 258.666C461.177 258.747 461.129 258.819 461.065 258.874C461 258.929 460.922 258.966 460.838 258.98C460.773 258.996 460.705 258.996 460.639 258.98H460.556L457.061 257.934C456.989 257.912 456.924 257.872 456.871 257.82C456.818 257.767 456.779 257.702 456.757 257.63C456.694 257.432 450.384 236.931 455.03 209.347C457.406 195.293 465.589 181.574 474.515 176.739C478.806 174.416 483.023 174.123 487.073 175.881C488.055 176.236 488.943 176.811 489.668 177.562C490.394 178.313 490.938 179.22 491.259 180.213C492.787 185.393 487.376 193.169 481.631 201.394Z" fill="#34A573"/>
<path d="M481.328 181.93C476.179 186.231 459.352 210.331 460.137 241.065C460.137 242.509 460.252 243.974 460.367 245.439C460.379 245.554 460.347 245.669 460.277 245.76C460.207 245.852 460.104 245.913 459.991 245.931C459.878 245.938 459.767 245.903 459.678 245.834C459.59 245.765 459.53 245.665 459.509 245.554C459.503 245.537 459.503 245.519 459.509 245.502C456.82 212.34 475.311 185.781 480.794 181.218C480.888 181.143 481.007 181.108 481.126 181.12C481.245 181.132 481.355 181.189 481.433 181.281C481.47 181.33 481.498 181.386 481.513 181.445C481.528 181.505 481.531 181.567 481.521 181.628C481.511 181.689 481.489 181.747 481.456 181.799C481.423 181.851 481.379 181.895 481.328 181.93Z" fill="#34A573"/>
<path d="M313.612 68.8706L303.838 74.511C303.838 74.0715 303.922 73.6424 303.922 73.2134V70.3879C303.922 65.3545 300.385 63.3139 296.021 65.8358C294.148 66.9868 292.545 68.5289 291.323 70.3565C290.611 64.0778 285.64 61.6709 279.613 65.1243C273.093 68.881 267.809 78.0375 267.809 85.572V89.7578C267.766 91.4478 268.106 93.1256 268.803 94.6657L260.703 99.3434C259.427 100.171 258.364 101.289 257.602 102.606C256.84 103.922 256.4 105.401 256.319 106.92C256.319 109.714 258.275 110.844 260.703 109.452L313.602 78.9061C314.876 78.0772 315.937 76.9588 316.697 75.6422C317.457 74.3255 317.895 72.8479 317.976 71.3297C317.986 68.609 316.029 67.4788 313.612 68.8706Z" fill="#EBEBEB"/>
<path d="M373.396 74.9923L366.071 79.241C366.071 78.9166 366.134 78.5922 366.134 78.2678V76.1748C366.134 72.3762 363.465 70.8379 360.18 72.7425C358.76 73.6078 357.546 74.7719 356.622 76.1539C356.088 71.3716 352.342 69.5926 347.79 72.2297C342.871 75.0656 338.874 81.9722 338.874 87.6545V90.7938C338.839 92.0711 339.1 93.3391 339.638 94.4983L333.474 98.0144C332.511 98.6378 331.709 99.4806 331.134 100.474C330.559 101.467 330.228 102.582 330.167 103.728C330.167 105.821 331.643 106.69 333.474 105.643L373.396 82.621C374.358 81.9929 375.158 81.1475 375.732 80.1532C376.307 79.1589 376.639 78.0434 376.703 76.8969C376.703 74.7726 375.217 73.9459 373.396 74.9923Z" fill="#EBEBEB"/>
<path d="M314.303 396.516L306.475 391.995L312.168 388.71C313.189 388.214 314.051 387.441 314.653 386.478C315.256 385.516 315.576 384.403 315.576 383.268C315.576 382.132 315.256 381.02 314.653 380.058C314.051 379.095 313.189 378.322 312.168 377.826L297.999 369.643C296.287 368.743 294.382 368.273 292.447 368.273C290.513 368.273 288.608 368.743 286.896 369.643L277.331 375.168L227.918 346.631C226.22 345.699 224.308 345.226 222.371 345.261C220.431 345.219 218.513 345.692 216.815 346.631L196.618 358.299C195.175 359.038 193.932 360.115 192.997 361.439C192.085 363.022 191.808 364.892 192.223 366.671L202.688 418.994C203.294 421.621 205.262 423.912 208.537 425.806L222.675 433.927C224.365 434.868 226.276 435.341 228.211 435.298C230.138 435.337 232.041 434.864 233.725 433.927L273.92 410.727L285.619 417.477C287.332 418.373 289.237 418.842 291.171 418.842C293.104 418.842 295.009 418.373 296.722 417.477L314.303 407.399C315.327 406.906 316.192 406.134 316.798 405.172C317.403 404.209 317.724 403.095 317.724 401.958C317.724 400.821 317.403 399.706 316.798 398.744C316.192 397.781 315.327 397.009 314.303 396.516ZM236.467 398.756L234.123 386.972L245.498 393.544L236.467 398.756Z" fill="#E0E0E0"/>
<path d="M89.6179 392.435C97.7087 395.386 105.408 399.315 112.546 404.134C120.562 409.555 127.897 416.137 136.405 420.606C147.518 426.455 160.306 428.569 172.822 427.931C179.906 427.585 187.619 426.037 192.181 420.449C193.415 419.047 194.15 417.278 194.274 415.415C194.274 412.694 192.464 410.35 190.538 408.467C180.356 398.484 165.967 394.36 152.102 391.127C138.236 387.893 129.938 383.875 116.344 376.613C110.526 373.473 104.833 370.156 98.9314 367.194L98.7849 367.121C95.8955 365.539 92.9227 364.114 89.8796 362.852C85.8716 361.376 82.5544 360.298 78.1174 360.633C73.6804 360.968 68.6993 360.895 65.6436 364.484C64.3811 365.997 63.5797 367.841 63.3349 369.796C63.09 371.752 63.4119 373.736 64.2623 375.514C68.5737 385.455 80.3463 389.055 89.6179 392.435Z" fill="#E0E0E0"/>
<path d="M392.986 315.102C389.438 312.852 385.525 310.487 381.339 308.07C377.153 305.652 372.967 303.371 368.875 301.194C363.347 298.365 357.539 296.117 351.546 294.487C345.142 292.743 338.541 291.829 331.904 291.766H331.046C324.344 291.802 317.67 292.631 311.163 294.235C303.713 296.104 296.567 299.025 289.941 302.911C282.731 307.096 277.656 311.282 274.443 315.646C271.084 320.261 269.462 324.928 269.619 329.532C269.887 334.378 271.778 338.993 274.987 342.634C278.438 346.688 282.489 350.189 287.001 353.015C290.663 355.338 294.671 357.755 298.909 360.204C303.148 362.653 307.281 364.913 311.101 366.933C316.635 369.755 322.446 371.999 328.44 373.63C334.84 375.379 341.438 376.294 348.072 376.351H348.993C355.695 376.318 362.369 375.489 368.875 373.881C376.327 372.015 383.473 369.094 390.098 365.206C397.318 361.02 402.393 356.835 405.596 352.471C408.965 347.866 410.587 343.189 410.42 338.584C410.154 333.738 408.263 329.122 405.051 325.483C401.581 321.429 397.512 317.928 392.986 315.102ZM368.917 342.812C368.551 343.367 367.536 344.528 364.731 346.14C362.625 347.396 360.338 348.321 357.95 348.881C356.253 349.256 354.52 349.449 352.781 349.457C352.32 349.457 351.86 349.457 351.4 349.457C349.262 349.323 347.15 348.908 345.121 348.222C342.886 347.456 340.716 346.511 338.633 345.397C331.02 341.512 323.615 337.234 316.448 332.578C314.819 331.602 313.315 330.432 311.969 329.093C311.277 328.453 310.768 327.64 310.494 326.738C310.494 326.613 310.379 326.205 310.944 325.336C311.31 324.792 312.325 323.63 315.129 322.008C317.234 320.751 319.522 319.829 321.91 319.277C323.532 318.916 325.188 318.73 326.85 318.723C327.362 318.723 327.896 318.723 328.346 318.775C330.485 318.932 332.595 319.361 334.625 320.052C336.884 320.816 339.089 321.728 341.228 322.783C348.836 326.738 356.318 331.05 363.486 335.56C365.144 336.57 366.691 337.752 368.101 339.087C368.767 339.657 369.25 340.41 369.493 341.253C369.472 341.41 369.556 341.839 368.938 342.812H368.917Z" fill="#E0E0E0"/>
<path d="M509.634 283.729L501.807 279.208L507.499 275.923C508.521 275.427 509.382 274.654 509.985 273.691C510.588 272.729 510.907 271.616 510.907 270.481C510.907 269.345 510.588 268.233 509.985 267.271C509.382 266.308 508.521 265.535 507.499 265.039L493.32 256.856C491.608 255.956 489.703 255.486 487.769 255.486C485.834 255.486 483.929 255.956 482.217 256.856L472.652 262.371L423.239 233.844C421.527 232.944 419.622 232.474 417.687 232.474C415.753 232.474 413.848 232.944 412.136 233.844L391.95 245.502C390.502 246.237 389.255 247.315 388.319 248.641C387.404 250.223 387.127 252.095 387.544 253.874L398.009 306.197C398.616 308.823 400.583 311.115 403.858 313.009L418.038 321.192C419.728 322.133 421.639 322.606 423.574 322.563C425.511 322.608 427.426 322.134 429.12 321.192L469.314 297.982L481.014 304.742C482.726 305.642 484.631 306.112 486.565 306.112C488.499 306.112 490.405 305.642 492.117 304.742L509.624 294.633C510.649 294.14 511.513 293.368 512.119 292.405C512.724 291.443 513.045 290.329 513.045 289.192C513.045 288.054 512.724 286.94 512.119 285.978C511.513 285.015 510.649 284.243 509.624 283.75L509.634 283.729ZM431.799 285.958L429.413 274.185L440.788 280.747L431.799 285.958Z" fill="#E0E0E0"/>
<path d="M396.439 395.208C396.716 395.079 397.017 395.012 397.323 395.012C397.628 395.012 397.93 395.079 398.207 395.208L401.671 397.217C401.772 397.257 401.86 397.326 401.923 397.416C401.986 397.505 402.022 397.61 402.027 397.719C402.021 397.829 401.984 397.935 401.921 398.026C401.858 398.116 401.772 398.188 401.671 398.232L386.183 407.179C385.909 407.317 385.606 407.388 385.299 407.388C384.992 407.388 384.689 407.317 384.415 407.179L363.297 394.988C363.197 394.942 363.11 394.871 363.045 394.781C362.981 394.691 362.942 394.585 362.931 394.475C362.943 394.365 362.982 394.26 363.047 394.171C363.111 394.081 363.197 394.009 363.297 393.963L378.534 385.172C378.806 385.034 379.107 384.963 379.413 384.963C379.718 384.963 380.019 385.034 380.292 385.172L383.756 387.171C383.858 387.215 383.946 387.286 384.011 387.376C384.075 387.467 384.114 387.573 384.122 387.684C384.113 387.794 384.074 387.9 384.009 387.99C383.945 388.081 383.857 388.152 383.756 388.197L373.689 394.004L377.226 396.045L386.571 390.645C386.845 390.508 387.148 390.437 387.455 390.437C387.762 390.437 388.065 390.508 388.339 390.645L391.803 392.644C391.904 392.688 391.99 392.76 392.053 392.85C392.116 392.941 392.153 393.047 392.159 393.157C392.151 393.266 392.114 393.372 392.052 393.462C391.989 393.553 391.903 393.624 391.803 393.67L382.448 399.059L386.11 401.152L396.439 395.208Z" fill="#455A64"/>
<path d="M401.608 378.674C401.883 378.537 402.186 378.465 402.493 378.465C402.8 378.465 403.102 378.537 403.377 378.674L406.673 380.578C406.774 380.623 406.861 380.694 406.923 380.785C406.986 380.875 407.023 380.981 407.029 381.091C407.022 381.201 406.985 381.306 406.922 381.397C406.859 381.487 406.773 381.559 406.673 381.604L403.701 383.32C401.692 384.471 401.692 385.633 403.701 386.784L411.738 391.43C411.84 391.474 411.928 391.545 411.993 391.635C412.058 391.726 412.096 391.832 412.104 391.943C412.095 392.053 412.056 392.159 411.991 392.25C411.927 392.34 411.839 392.411 411.738 392.456L407.625 394.831C407.351 394.968 407.048 395.04 406.741 395.04C406.434 395.04 406.131 394.968 405.857 394.831L390.621 386.03C390.507 385.998 390.407 385.929 390.336 385.835C390.264 385.74 390.226 385.625 390.226 385.507C390.226 385.389 390.264 385.274 390.336 385.179C390.407 385.085 390.507 385.016 390.621 384.984L394.419 382.797C394.692 382.659 394.993 382.587 395.298 382.587C395.604 382.587 395.905 382.659 396.177 382.797L396.931 383.226C396.976 382.602 397.198 382.003 397.569 381.499C398.135 380.781 398.849 380.192 399.662 379.773L401.608 378.674Z" fill="#455A64"/>
<path d="M417.431 369.538C417.701 369.393 418.004 369.321 418.31 369.329C418.619 369.321 418.926 369.393 419.199 369.538L422.496 371.443C422.596 371.487 422.683 371.558 422.746 371.649C422.809 371.739 422.845 371.846 422.851 371.956C422.844 372.065 422.807 372.171 422.744 372.261C422.682 372.352 422.596 372.423 422.496 372.468L419.524 374.185C417.514 375.336 417.514 376.494 419.524 377.659L427.56 382.295C427.663 382.337 427.751 382.408 427.814 382.499C427.877 382.59 427.913 382.697 427.916 382.807C427.909 382.917 427.872 383.023 427.809 383.113C427.747 383.203 427.661 383.275 427.56 383.32L423.448 385.696C423.173 385.833 422.871 385.904 422.564 385.904C422.257 385.904 421.954 385.833 421.679 385.696L406.443 376.895C406.343 376.852 406.257 376.783 406.194 376.694C406.131 376.605 406.094 376.501 406.087 376.393C406.093 376.283 406.13 376.176 406.193 376.086C406.255 375.995 406.342 375.924 406.443 375.88L410.242 373.693C410.511 373.547 410.814 373.474 411.121 373.483C411.427 373.475 411.73 373.548 412 373.693L412.753 374.122C412.799 373.498 413.02 372.899 413.391 372.395C413.958 371.677 414.671 371.088 415.484 370.668L417.431 369.538Z" fill="#455A64"/>
<path d="M445.539 361.721C445.894 361.899 446.323 362.129 446.836 362.422C447.349 362.715 447.747 362.967 448.061 363.176C448.95 363.695 449.709 364.411 450.279 365.269C450.743 365.985 450.956 366.835 450.886 367.686C450.766 368.625 450.369 369.506 449.745 370.218C448.889 371.201 447.865 372.023 446.721 372.646C445.407 373.407 444 373.994 442.535 374.394C441.107 374.78 439.64 375.001 438.161 375.053C436.757 375.099 435.352 374.979 433.975 374.697C432.7 374.449 431.466 374.019 430.313 373.421C429.967 373.243 429.538 373.002 429.025 372.709C428.513 372.416 428.105 372.165 427.801 371.966C426.893 371.457 426.118 370.74 425.541 369.873C425.081 369.148 424.875 368.29 424.955 367.435C425.084 366.494 425.484 365.61 426.106 364.892C426.943 363.896 427.962 363.068 429.109 362.454C430.421 361.691 431.829 361.107 433.295 360.717C434.738 360.335 436.219 360.114 437.711 360.057C439.115 360.002 440.521 360.118 441.897 360.403C443.168 360.665 444.394 361.109 445.539 361.721ZM435.995 369.946C436.879 370.381 437.857 370.59 438.841 370.553C439.832 370.514 440.798 370.234 441.656 369.737C442.525 369.235 442.996 368.691 443.058 368.115C443.121 367.54 442.776 366.995 442.012 366.472C441.677 366.225 441.327 365.998 440.966 365.792C440.582 365.572 440.187 365.373 439.783 365.195C438.905 364.754 437.929 364.545 436.947 364.589C435.957 364.622 434.99 364.899 434.132 365.394C433.264 365.907 432.793 366.441 432.73 367.027C432.667 367.613 433.013 368.147 433.776 368.67C434.11 368.916 434.459 369.14 434.823 369.339C435.201 369.555 435.593 369.748 435.995 369.915V369.946Z" fill="#455A64"/>
<path d="M454.036 348.4C454.31 348.263 454.613 348.191 454.92 348.191C455.227 348.191 455.53 348.263 455.804 348.4L459.111 350.305C459.211 350.35 459.297 350.421 459.36 350.512C459.423 350.602 459.46 350.708 459.467 350.817C459.461 350.927 459.424 351.033 459.361 351.124C459.299 351.214 459.212 351.286 459.111 351.33L456.129 353.046C454.134 354.197 454.134 355.355 456.129 356.52L464.176 361.156C464.276 361.202 464.362 361.273 464.425 361.363C464.488 361.454 464.524 361.559 464.532 361.669C464.526 361.779 464.489 361.885 464.426 361.976C464.364 362.066 464.277 362.138 464.176 362.182L460.053 364.557C459.783 364.702 459.48 364.775 459.174 364.767C458.868 364.776 458.564 364.703 458.295 364.557L443.017 355.767C442.915 355.722 442.828 355.651 442.763 355.561C442.699 355.471 442.66 355.365 442.65 355.254C442.659 355.143 442.697 355.037 442.762 354.947C442.826 354.856 442.915 354.785 443.017 354.741L446.805 352.554C447.079 352.417 447.382 352.346 447.689 352.346C447.996 352.346 448.299 352.417 448.573 352.554L449.327 352.983C449.368 352.358 449.59 351.758 449.965 351.257C450.529 350.536 451.243 349.946 452.058 349.53L454.036 348.4Z" fill="#455A64"/>
<path d="M310.787 386.397L293.269 396.506C292.151 397.07 290.916 397.363 289.664 397.363C288.412 397.363 287.177 397.07 286.059 396.506L272.455 388.636L230.283 412.998C229.159 413.556 227.922 413.846 226.667 413.846C225.413 413.846 224.175 413.556 223.052 412.998L208.883 404.804C206.56 403.479 205.22 402.038 204.864 400.482L194.4 348.285C194.346 347.978 194.322 347.666 194.327 347.354C194.327 348.4 194.327 361.387 194.327 362.004C194.332 362.274 194.356 362.543 194.4 362.81L204.864 415.007C205.22 416.556 206.56 417.996 208.883 419.329L223.052 427.512C224.174 428.076 225.412 428.37 226.667 428.37C227.923 428.37 229.161 428.076 230.283 427.512L272.445 403.182L286.048 411.051C287.167 411.615 288.401 411.909 289.654 411.909C290.906 411.909 292.141 411.615 293.259 411.051L310.776 400.943C311.191 400.764 311.549 400.474 311.809 400.104C312.07 399.735 312.223 399.301 312.252 398.85V384.304C312.223 384.754 312.071 385.187 311.812 385.556C311.554 385.925 311.199 386.216 310.787 386.397Z" fill="#34A573"/>
<path d="M310.117 380.17V365.625C310.084 366.075 309.929 366.507 309.669 366.875C309.409 367.244 309.054 367.535 308.642 367.718L297.131 374.352L309.552 381.52C309.897 381.153 310.097 380.674 310.117 380.17Z" fill="#34A573"/>
<path d="M230.356 378.12L239.073 383.174L251.683 375.901L227.07 361.68L230.345 378.12H230.356Z" fill="#34A573"/>
<path opacity="0.35" d="M230.356 378.12L239.073 383.174L251.683 375.901L227.07 361.68L230.345 378.12H230.356Z" fill="black"/>
<path opacity="0.2" d="M310.117 380.17V365.625C310.084 366.075 309.929 366.507 309.669 366.875C309.409 367.244 309.054 367.535 308.642 367.718L297.131 374.352L309.552 381.52C309.897 381.153 310.097 380.674 310.117 380.17Z" fill="black"/>
<path opacity="0.2" d="M310.787 386.397L293.269 396.506C292.164 397.111 290.917 397.407 289.659 397.364V411.951C290.917 411.995 292.164 411.698 293.269 411.093L310.787 400.985C311.202 400.806 311.559 400.516 311.82 400.146C312.08 399.777 312.233 399.343 312.262 398.892V384.346C312.225 384.789 312.068 385.214 311.808 385.575C311.548 385.937 311.195 386.221 310.787 386.397Z" fill="black"/>
<path opacity="0.25" d="M204.864 400.44L194.4 348.243C194.346 347.936 194.322 347.624 194.327 347.312C194.327 348.358 194.327 361.345 194.327 361.962C194.332 362.232 194.356 362.502 194.4 362.768L204.864 414.965C204.935 415.271 205.044 415.566 205.189 415.844V401.299C205.046 401.027 204.937 400.739 204.864 400.44Z" fill="black"/>
<path opacity="0.35" d="M226.672 413.814C225.413 413.848 224.165 413.556 223.052 412.967L208.882 404.773C207.333 404.023 206.046 402.823 205.188 401.33V415.876C206.046 417.369 207.333 418.568 208.882 419.319L223.052 427.502C224.162 428.101 225.411 428.397 226.672 428.36C226.804 428.375 226.938 428.375 227.07 428.36V413.814C226.938 413.83 226.804 413.83 226.672 413.814Z" fill="black"/>
<path opacity="0.2" d="M230.283 412.998C229.296 413.532 228.192 413.812 227.07 413.814V428.36C228.193 428.36 229.299 428.075 230.283 427.533L272.444 403.182V388.636L230.283 412.998Z" fill="black"/>
<path opacity="0.35" d="M286.049 396.506L272.445 388.636V403.182L286.049 411.052C287.149 411.658 288.393 411.954 289.648 411.91V397.364C288.393 397.409 287.149 397.112 286.049 396.506Z" fill="black"/>
<path d="M293.269 396.506C292.149 397.07 290.913 397.364 289.659 397.364C288.405 397.364 287.168 397.07 286.048 396.506L272.444 388.636L230.283 412.998C229.161 413.556 227.925 413.846 226.672 413.846C225.42 413.846 224.184 413.556 223.062 412.998L208.883 404.815C206.573 403.475 205.238 402.035 204.875 400.493L194.41 348.296C194.201 347.492 194.294 346.639 194.672 345.899C195.286 345.121 196.065 344.489 196.953 344.047L217.139 332.389C218.25 331.793 219.499 331.5 220.76 331.542C222.014 331.5 223.256 331.793 224.36 332.389L275.72 362.035L287.231 355.401C288.351 354.837 289.587 354.543 290.841 354.543C292.095 354.543 293.332 354.837 294.451 355.401L308.631 363.584C309.069 363.732 309.45 364.013 309.72 364.388C309.99 364.764 310.135 365.215 310.135 365.677C310.135 366.14 309.99 366.59 309.72 366.966C309.45 367.341 309.069 367.623 308.631 367.77L297.12 374.415L310.724 382.284C311.157 382.437 311.533 382.72 311.798 383.095C312.064 383.47 312.207 383.918 312.207 384.377C312.207 384.837 312.064 385.285 311.798 385.66C311.533 386.035 311.157 386.318 310.724 386.47L293.269 396.506ZM251.672 375.891L227.07 361.722L232.156 387.203L251.672 375.891Z" fill="#34A573"/>
<path d="M404.947 321.82C404.884 325.326 403.503 328.905 400.845 332.546C397.998 336.46 393.23 340.346 386.54 344.204C380.236 347.908 373.435 350.692 366.343 352.471C359.841 354.088 353.161 354.879 346.46 354.825C340.159 354.77 333.891 353.902 327.812 352.241C322.072 350.686 316.51 348.536 311.216 345.826C307.386 343.817 303.388 341.64 299.181 339.181C294.975 336.722 291.071 334.409 287.419 332.086C283.252 329.483 279.51 326.254 276.327 322.511C273.655 319.534 272.075 315.736 271.848 311.743C271.921 314.045 271.754 323.735 271.848 326.289C272.075 330.282 273.655 334.08 276.327 337.057C279.51 340.799 283.252 344.029 287.419 346.632C291.068 348.955 294.989 351.32 299.181 353.727C303.367 356.144 307.386 358.362 311.216 360.382C316.512 363.084 322.074 365.231 327.812 366.786C333.891 368.447 340.159 369.316 346.46 369.371C353.161 369.425 359.841 368.634 366.343 367.017C373.435 365.238 380.236 362.454 386.54 358.75C393.237 354.885 398.005 350.999 400.845 347.092C403.702 343.189 405.031 339.359 404.926 335.633C404.853 333.467 404.989 325.096 404.947 321.82Z" fill="#34A573"/>
<path opacity="0.35" d="M350.05 354.752C348.857 354.752 347.664 354.846 346.481 354.825C340.18 354.77 333.912 353.902 327.833 352.241C322.093 350.686 316.531 348.536 311.237 345.826C307.407 343.817 303.409 341.64 299.202 339.181C294.996 336.722 291.092 334.409 287.44 332.086C283.273 329.483 279.531 326.254 276.348 322.511C273.676 319.534 272.096 315.736 271.869 311.743C271.942 314.045 271.775 323.735 271.869 326.289C272.096 330.282 273.676 334.08 276.348 337.057C279.531 340.799 283.273 344.029 287.44 346.632C291.089 348.955 295.01 351.32 299.202 353.727C303.388 356.144 307.407 358.362 311.237 360.382C316.533 363.084 322.095 365.231 327.833 366.786C333.912 368.447 340.18 369.316 346.481 369.371C347.664 369.371 348.857 369.371 350.05 369.298V354.752Z" fill="black"/>
<path opacity="0.2" d="M404.947 321.82C404.884 325.326 403.503 328.905 400.845 332.546C397.998 336.46 393.23 340.346 386.54 344.204C380.236 347.908 373.435 350.692 366.343 352.471C361.007 353.78 355.551 354.544 350.06 354.752V369.298C355.551 369.085 361.006 368.32 366.343 367.017C373.435 365.238 380.236 362.454 386.54 358.75C393.237 354.885 398.005 350.999 400.845 347.092C403.702 343.189 405.031 339.359 404.926 335.633C404.853 333.467 404.989 325.096 404.947 321.82Z" fill="black"/>
<path d="M307.637 314.097C308.446 314.926 309.317 315.692 310.243 316.389C310.693 316.096 311.143 315.803 311.645 315.51C314.102 314.072 316.762 313.014 319.535 312.371C322.017 311.819 324.565 311.628 327.101 311.806C329.563 311.985 331.992 312.473 334.332 313.26C336.783 314.091 339.181 315.073 341.511 316.201C349.262 320.282 356.751 324.611 363.978 329.187C364.92 329.773 365.789 330.38 366.584 330.966C368.176 330.031 369.561 328.781 370.655 327.293C371.573 326.021 371.949 324.437 371.701 322.888C371.319 321.275 370.458 319.816 369.231 318.702C367.62 317.169 365.848 315.815 363.947 314.662C356.712 310.058 349.234 305.722 341.511 301.655C339.192 300.518 336.805 299.526 334.363 298.683C332.024 297.896 329.594 297.408 327.132 297.228C324.596 297.05 322.047 297.244 319.567 297.804C316.791 298.441 314.13 299.5 311.676 300.943C309.537 302.036 307.667 303.591 306.203 305.495C305.739 306.112 305.407 306.818 305.226 307.569C305.046 308.319 305.023 309.099 305.157 309.859C305.59 311.468 306.446 312.932 307.637 314.097Z" fill="#34A573"/>
<path opacity="0.35" d="M307.637 314.097C308.446 314.926 309.317 315.692 310.243 316.389C310.693 316.096 311.143 315.803 311.645 315.51C314.102 314.072 316.762 313.014 319.535 312.371C322.017 311.819 324.565 311.628 327.101 311.806C329.563 311.985 331.992 312.473 334.332 313.26C336.783 314.091 339.181 315.073 341.511 316.201C349.262 320.282 356.751 324.611 363.978 329.187C364.92 329.773 365.789 330.38 366.584 330.966C368.176 330.031 369.561 328.781 370.655 327.293C371.573 326.021 371.949 324.437 371.701 322.888C371.319 321.275 370.458 319.816 369.231 318.702C367.62 317.169 365.848 315.815 363.947 314.662C356.712 310.058 349.234 305.722 341.511 301.655C339.192 300.518 336.805 299.526 334.363 298.683C332.024 297.896 329.594 297.408 327.132 297.228C324.596 297.05 322.047 297.244 319.567 297.804C316.791 298.441 314.13 299.5 311.676 300.943C309.537 302.036 307.667 303.591 306.203 305.495C305.739 306.112 305.407 306.818 305.226 307.569C305.046 308.319 305.023 309.099 305.157 309.859C305.59 311.468 306.446 312.932 307.637 314.097Z" fill="black"/>
<path d="M290.234 288.616C296.536 284.908 303.338 282.124 310.431 280.349C316.934 278.737 323.614 277.946 330.314 277.995C336.618 278.054 342.889 278.923 348.972 280.579C354.715 282.137 360.28 284.287 365.579 286.994C369.591 289.087 373.693 291.351 377.886 293.786C382.078 296.22 385.915 298.536 389.397 300.734C393.562 303.339 397.303 306.569 400.489 310.309C403.153 313.292 404.735 317.085 404.978 321.077C405.111 324.81 403.751 328.647 400.897 332.588C398.044 336.53 393.248 340.402 386.508 344.204C380.205 347.908 373.404 350.692 366.312 352.471C359.809 354.083 353.129 354.874 346.429 354.825C340.124 354.768 333.852 353.896 327.771 352.23C322.034 350.679 316.475 348.533 311.184 345.826C307.354 343.817 303.343 341.605 299.15 339.191C294.957 336.777 291.033 334.409 287.378 332.086C283.214 329.477 279.474 326.248 276.285 322.511C273.619 319.525 272.037 315.728 271.796 311.732C271.67 308.007 273.031 304.17 275.877 300.221C278.723 296.273 283.509 292.404 290.234 288.616ZM363.947 314.631C356.712 310.054 349.223 305.733 341.479 301.665C339.159 300.521 336.768 299.525 334.322 298.683C331.985 297.897 329.559 297.405 327.101 297.218C324.564 297.048 322.016 297.245 319.535 297.804C316.76 298.441 314.099 299.5 311.645 300.943C309.505 302.036 307.636 303.591 306.172 305.495C305.705 306.111 305.371 306.816 305.19 307.567C305.01 308.319 304.988 309.099 305.125 309.859C305.547 311.455 306.402 312.904 307.595 314.045C309.168 315.614 310.925 316.988 312.827 318.137C320.086 322.846 327.585 327.174 335.295 331.102C337.549 332.309 339.897 333.331 342.317 334.158C346.058 335.447 350.036 335.904 353.972 335.497C357.909 335.09 361.709 333.83 365.108 331.803C367.256 330.714 369.13 329.154 370.592 327.241C371.509 325.972 371.885 324.391 371.638 322.846C371.259 321.229 370.394 319.768 369.158 318.66C367.572 317.132 365.825 315.781 363.947 314.631Z" fill="#34A573"/>
<path d="M506.139 273.61L488.621 283.719C487.503 284.283 486.269 284.576 485.016 284.576C483.764 284.576 482.529 284.283 481.411 283.719L467.807 275.839L425.677 300.169C424.557 300.733 423.321 301.027 422.067 301.027C420.813 301.027 419.576 300.733 418.456 300.169L404.277 291.986C401.954 290.657 400.625 289.213 400.259 287.664L389.794 235.467C389.741 235.159 389.716 234.847 389.721 234.535C389.721 235.582 389.721 248.568 389.721 249.186C389.727 249.456 389.751 249.725 389.794 249.991L400.259 302.178C400.625 303.737 401.954 305.171 404.277 306.51L418.456 314.694C419.576 315.258 420.813 315.552 422.067 315.552C423.321 315.552 424.557 315.258 425.677 314.694L467.807 290.364L481.411 298.243C482.529 298.807 483.764 299.101 485.016 299.101C486.269 299.101 487.503 298.807 488.621 298.243L506.139 288.135C506.554 287.956 506.912 287.666 507.172 287.296C507.433 286.927 507.586 286.493 507.615 286.042V271.517C507.585 271.968 507.431 272.401 507.171 272.771C506.91 273.14 506.553 273.43 506.139 273.61Z" fill="#34A573"/>
<path d="M505.48 267.373V252.827C505.447 253.277 505.292 253.709 505.032 254.078C504.772 254.447 504.417 254.738 504.005 254.92L492.494 261.555L504.915 268.713C505.264 268.352 505.466 267.875 505.48 267.373Z" fill="#34A573"/>
<path d="M425.708 265.333L434.425 270.387L447.035 263.114L422.423 248.893L425.698 265.333H425.708Z" fill="#34A573"/>
<path opacity="0.35" d="M425.708 265.333L434.425 270.387L447.035 263.114L422.423 248.893L425.698 265.333H425.708Z" fill="black"/>
<path opacity="0.2" d="M505.48 267.373V252.827C505.447 253.277 505.292 253.709 505.032 254.078C504.772 254.447 504.417 254.738 504.005 254.92L492.494 261.555L504.915 268.713C505.264 268.352 505.466 267.875 505.48 267.373Z" fill="black"/>
<path opacity="0.2" d="M506.139 273.61L488.621 283.719C487.517 284.324 486.27 284.62 485.011 284.577V299.123C486.27 299.166 487.517 298.87 488.621 298.264L506.139 288.156C506.554 287.977 506.912 287.687 507.172 287.318C507.433 286.948 507.586 286.514 507.615 286.063V271.517C507.585 271.968 507.431 272.402 507.171 272.771C506.911 273.14 506.554 273.43 506.139 273.61Z" fill="black"/>
<path opacity="0.25" d="M400.217 287.664L389.752 235.467C389.699 235.159 389.675 234.847 389.679 234.535C389.679 235.582 389.679 248.568 389.679 249.186C389.685 249.456 389.709 249.725 389.752 249.991L400.217 302.178C400.285 302.489 400.398 302.789 400.552 303.068V288.522C400.401 288.253 400.289 287.964 400.217 287.664Z" fill="black"/>
<path opacity="0.35" d="M422.025 301.027C420.767 301.064 419.522 300.768 418.415 300.169L404.235 291.986C402.686 291.239 401.401 290.038 400.552 288.543V303.12C401.401 304.615 402.686 305.816 404.235 306.563L418.415 314.746C419.522 315.345 420.767 315.641 422.025 315.604C422.157 315.62 422.291 315.62 422.423 315.604V301.027C422.291 301.043 422.157 301.043 422.025 301.027Z" fill="black"/>
<path opacity="0.2" d="M425.635 300.169C424.652 300.712 423.546 300.997 422.423 300.996V315.541C423.546 315.542 424.652 315.258 425.635 314.715L467.766 290.385V275.839L425.635 300.169Z" fill="black"/>
<path opacity="0.35" d="M481.412 283.719L467.808 275.839V290.385L481.412 298.264C482.512 298.871 483.756 299.167 485.011 299.122V284.577C483.756 284.621 482.512 284.325 481.412 283.719Z" fill="black"/>
<path d="M488.632 283.719C487.523 284.32 486.272 284.613 485.011 284.566C483.754 284.606 482.509 284.314 481.401 283.719L467.797 275.849L425.667 300.169C424.545 300.727 423.309 301.017 422.057 301.017C420.804 301.017 419.568 300.727 418.446 300.169L404.267 291.986C401.958 290.646 400.622 289.206 400.259 287.664L389.794 235.467C389.59 234.662 389.683 233.811 390.056 233.07C390.671 232.292 391.45 231.66 392.337 231.218L412.523 219.56C413.645 218.996 414.883 218.703 416.139 218.703C417.394 218.703 418.633 218.996 419.754 219.56L471.104 249.207L482.615 242.562C483.737 242.004 484.973 241.714 486.225 241.714C487.478 241.714 488.714 242.004 489.836 242.562L504.005 250.797C504.443 250.945 504.824 251.226 505.094 251.601C505.364 251.977 505.509 252.428 505.509 252.89C505.509 253.353 505.364 253.803 505.094 254.179C504.824 254.554 504.443 254.836 504.005 254.983L492.494 261.628L506.098 269.497C506.531 269.65 506.906 269.933 507.172 270.308C507.438 270.683 507.58 271.131 507.58 271.59C507.58 272.05 507.438 272.498 507.172 272.873C506.906 273.248 506.531 273.531 506.098 273.683L488.632 283.719ZM447.036 263.104L422.423 248.903L427.509 274.374L447.036 263.104Z" fill="#34A573"/>
<path d="M349.098 211.513C350.008 207.265 332.668 217.279 331.758 221.528L337.325 236.565C337.527 237.001 337.855 237.365 338.267 237.612C339.491 238.365 344.012 240.919 344.399 241.159C344.713 241.351 345.066 241.469 345.432 241.505C345.798 241.54 346.167 241.492 346.511 241.364C346.856 241.236 347.167 241.032 347.421 240.766C347.675 240.5 347.866 240.18 347.978 239.83L355.219 214.998C355.68 212.957 349.098 211.513 349.098 211.513Z" fill="#34A573"/>
<path opacity="0.25" d="M349.098 211.513C350.008 207.265 332.668 217.279 331.758 221.528L337.325 236.565C337.527 237.001 337.855 237.365 338.267 237.612C339.491 238.365 344.012 240.919 344.399 241.159C344.713 241.351 345.066 241.469 345.432 241.505C345.798 241.54 346.167 241.492 346.511 241.364C346.856 241.236 347.167 241.032 347.421 240.766C347.675 240.5 347.866 240.18 347.978 239.83L355.219 214.998C355.68 212.957 349.098 211.513 349.098 211.513Z" fill="black"/>
<path d="M403.336 98.8098L258.642 182.286C257.963 182.726 257.398 183.32 256.993 184.021C256.587 184.721 256.353 185.507 256.308 186.315V265.845C256.353 266.653 256.587 267.439 256.993 268.139C257.398 268.839 257.963 269.434 258.642 269.874L260.097 270.701C260.818 271.067 261.616 271.259 262.425 271.259C263.234 271.259 264.032 271.067 264.753 270.701L409.457 187.131C410.135 186.688 410.698 186.091 411.102 185.389C411.506 184.687 411.738 183.9 411.78 183.091V103.655C411.738 102.848 411.506 102.062 411.102 101.362C410.698 100.662 410.135 100.067 409.457 99.626L408.003 98.7993C407.278 98.435 406.479 98.2461 405.668 98.2479C404.857 98.2497 404.058 98.4422 403.336 98.8098Z" fill="#34A573"/>
<path opacity="0.25" d="M403.336 98.8098L258.642 182.286C257.963 182.726 257.398 183.32 256.993 184.021C256.587 184.721 256.353 185.507 256.308 186.315V265.845C256.353 266.653 256.587 267.439 256.993 268.139C257.398 268.839 257.963 269.434 258.642 269.874L260.097 270.701C260.818 271.067 261.616 271.259 262.425 271.259C263.234 271.259 264.032 271.067 264.753 270.701L409.457 187.131C410.135 186.688 410.698 186.091 411.102 185.389C411.506 184.687 411.738 183.9 411.78 183.091V103.655C411.738 102.848 411.506 102.062 411.102 101.362C410.698 100.662 410.135 100.067 409.457 99.626L408.003 98.7993C407.278 98.435 406.479 98.2461 405.668 98.2479C404.857 98.2497 404.058 98.4422 403.336 98.8098Z" fill="black"/>
<path d="M411.791 103.655V104.565C411.788 104.188 411.687 103.818 411.496 103.492C411.306 103.167 411.034 102.897 410.707 102.709C410.379 102.522 410.008 102.424 409.631 102.424C409.254 102.425 408.884 102.524 408.557 102.713L265.632 185.289C264.654 185.84 263.843 186.647 263.288 187.622V187.696L257.009 184.065C257.406 183.341 257.983 182.732 258.684 182.296L403.377 98.8097C404.101 98.4502 404.898 98.2631 405.706 98.2631C406.513 98.2631 407.31 98.4502 408.034 98.8097L409.488 99.6364C410.159 100.08 410.717 100.674 411.117 101.372C411.517 102.07 411.747 102.852 411.791 103.655Z" fill="#34A573"/>
<path opacity="0.45" d="M411.791 103.655V104.565C411.788 104.188 411.687 103.818 411.496 103.492C411.306 103.167 411.034 102.897 410.707 102.709C410.379 102.522 410.008 102.424 409.631 102.424C409.254 102.425 408.884 102.524 408.557 102.713L265.632 185.289C264.654 185.84 263.843 186.647 263.288 187.622V187.696L257.009 184.065C257.406 183.341 257.983 182.732 258.684 182.296L403.377 98.8097C404.101 98.4502 404.898 98.2631 405.706 98.2631C406.513 98.2631 407.31 98.4502 408.034 98.8097L409.488 99.6364C410.159 100.08 410.717 100.674 411.117 101.372C411.517 102.07 411.747 102.852 411.791 103.655Z" fill="white"/>
<path d="M409.635 103.247C409.407 103.247 409.183 103.309 408.986 103.425L266.051 186.011C265.206 186.499 264.504 187.201 264.015 188.045C263.527 188.89 263.269 189.849 263.267 190.825V268.346C263.267 268.786 263.362 269.811 264.209 269.811C264.582 269.795 264.943 269.679 265.256 269.476L339.418 226.655L344.054 239.516C344.252 239.964 344.581 240.341 344.998 240.598C345.414 240.854 345.899 240.979 346.388 240.954C346.877 240.929 347.347 240.756 347.735 240.458C348.124 240.16 348.413 239.752 348.564 239.286L354.843 217.75L408.212 186.942C410.148 185.833 411.006 184.703 411.006 183.29V104.565C411.008 104.387 410.973 104.211 410.904 104.046C410.835 103.882 410.733 103.734 410.605 103.611C410.477 103.487 410.324 103.391 410.158 103.329C409.991 103.266 409.813 103.238 409.635 103.247Z" fill="white"/>
<path d="M264.209 270.68C263.163 270.68 262.441 269.78 262.441 268.388V190.825C262.444 189.704 262.74 188.603 263.3 187.632C263.859 186.661 264.664 185.853 265.632 185.289L408.568 102.724C408.885 102.535 409.246 102.434 409.614 102.431C410.165 102.444 410.69 102.669 411.08 103.058C411.469 103.448 411.694 103.973 411.707 104.523V183.248C411.707 185.509 409.866 186.827 408.495 187.623L355.533 218.357L349.349 239.569C349.154 240.203 348.77 240.763 348.247 241.172C347.724 241.581 347.089 241.82 346.426 241.857C345.763 241.893 345.105 241.726 344.54 241.376C343.976 241.027 343.532 240.513 343.269 239.904L338.947 227.932L265.643 270.198C265.217 270.484 264.722 270.651 264.209 270.68ZM409.667 104.136C409.583 104.137 409.5 104.159 409.426 104.199L266.501 186.764C265.781 187.18 265.182 187.778 264.765 188.498C264.348 189.218 264.128 190.035 264.125 190.867V268.388C264.106 268.613 264.154 268.839 264.261 269.037C264.467 268.99 264.665 268.913 264.848 268.807L339.868 225.483L344.818 239.286C344.948 239.571 345.162 239.809 345.431 239.97C345.7 240.131 346.012 240.206 346.325 240.186C346.647 240.171 346.958 240.058 347.214 239.862C347.47 239.665 347.66 239.395 347.758 239.087L354.121 217.248L354.403 217.08L407.773 186.273C409.866 185.069 410.159 184.117 410.159 183.343V104.565C410.157 104.499 410.143 104.434 410.115 104.374C410.088 104.314 410.048 104.26 409.999 104.216C409.95 104.172 409.893 104.138 409.83 104.117C409.767 104.096 409.701 104.089 409.635 104.094L409.667 104.136Z" fill="#34A573"/>
<path d="M279.446 211.032C279.537 208.508 279.888 206.001 280.492 203.55C281.087 201.092 281.954 198.709 283.077 196.444C284.177 194.241 285.544 192.181 287.147 190.312C288.719 188.482 290.587 186.929 292.673 185.718C294.326 184.658 296.227 184.048 298.188 183.949C299.677 183.906 301.13 184.413 302.269 185.373C303.493 186.479 304.387 187.902 304.854 189.485C305.503 191.517 305.856 193.631 305.9 195.764C305.963 197.606 305.994 199.542 305.994 201.593C305.994 203.644 305.994 205.559 305.9 207.38C305.807 209.903 305.456 212.41 304.854 214.862C304.261 217.327 303.394 219.717 302.269 221.988C301.181 224.208 299.809 226.276 298.188 228.141C296.615 229.952 294.751 231.486 292.673 232.683C291.02 233.759 289.116 234.387 287.147 234.504C285.659 234.551 284.207 234.039 283.077 233.07C281.854 231.933 280.961 230.487 280.492 228.884C279.844 226.852 279.492 224.738 279.446 222.606C279.393 220.858 279.362 218.964 279.362 216.923C279.362 214.883 279.393 212.915 279.446 211.032ZM298.041 211.576C298.041 210.781 298.104 209.891 298.135 208.918C298.167 207.945 298.135 206.961 298.135 205.956C298.135 204.952 298.135 204 298.135 203.079C298.135 202.158 298.072 201.342 298.041 200.619C298.01 199.691 297.862 198.77 297.602 197.878C297.41 197.199 297.05 196.58 296.555 196.078C296.114 195.659 295.531 195.423 294.923 195.419C294.106 195.456 293.314 195.713 292.631 196.162C291.767 196.66 290.995 197.305 290.35 198.066C289.696 198.838 289.147 199.693 288.717 200.609C288.261 201.555 287.91 202.548 287.671 203.57C287.429 204.644 287.279 205.736 287.221 206.835C287.168 207.599 287.127 208.457 287.116 209.399C287.106 210.341 287.116 211.314 287.116 212.319C287.116 213.323 287.116 214.297 287.116 215.238C287.116 216.18 287.116 217.038 287.221 217.792C287.178 219.435 287.695 221.043 288.686 222.354C289.544 223.296 290.848 223.261 292.6 222.25C294.347 221.247 295.717 219.699 296.503 217.844C297.389 215.857 297.91 213.727 298.041 211.555V211.576Z" fill="#455A64"/>
<path d="M332.448 189.611C332.448 190.239 332.448 191.076 332.448 192.091C332.448 193.106 332.448 193.964 332.448 194.634C332.382 196.797 332.07 198.946 331.517 201.038C330.964 203.164 330.181 205.224 329.184 207.181C328.219 209.09 327.017 210.869 325.605 212.476C324.266 214.012 322.686 215.32 320.927 216.348C319.518 217.244 317.905 217.77 316.239 217.876C314.944 217.939 313.671 217.525 312.66 216.714C311.589 215.798 310.786 214.608 310.337 213.271C309.734 211.555 309.416 209.753 309.395 207.934C309.395 207.296 309.395 206.469 309.395 205.444C309.395 204.418 309.395 203.581 309.395 202.911C309.438 200.756 309.736 198.613 310.285 196.528C310.842 194.397 311.632 192.334 312.639 190.375C313.624 188.46 314.832 186.668 316.239 185.038C317.572 183.481 319.157 182.158 320.927 181.124C322.332 180.233 323.943 179.721 325.605 179.638C326.905 179.607 328.176 180.025 329.204 180.821C330.288 181.733 331.096 182.928 331.538 184.274C332.119 185.994 332.427 187.795 332.448 189.611ZM317.024 203.215C317.107 204.826 317.495 205.894 318.185 206.427C318.876 206.961 319.797 206.898 320.927 206.249C322.11 205.544 323.059 204.507 323.658 203.267C324.371 201.852 324.768 200.299 324.82 198.715C324.872 198.035 324.904 197.281 324.904 196.455C324.904 195.628 324.904 194.906 324.82 194.278C324.736 192.68 324.349 191.613 323.658 191.076C322.968 190.542 322.057 190.594 320.927 191.254C319.746 191.96 318.795 192.992 318.185 194.226C317.474 195.645 317.077 197.201 317.024 198.788C316.971 199.468 316.94 200.222 316.94 201.049C316.94 201.875 316.971 202.587 317.024 203.204V203.215Z" fill="#455A64"/>
<path d="M349.736 199.72C349.07 200.131 348.337 200.421 347.57 200.578C347.039 200.69 346.49 200.69 345.959 200.578C345.537 200.46 345.147 200.249 344.818 199.96C344.531 199.717 344.274 199.439 344.054 199.134V213.031C344.047 213.527 343.933 214.016 343.719 214.464C343.559 214.868 343.278 215.211 342.913 215.448L337.577 218.587C337.457 218.675 337.31 218.718 337.162 218.706C337.014 218.694 336.875 218.63 336.771 218.524C336.644 218.383 336.549 218.217 336.489 218.037C336.43 217.857 336.408 217.667 336.425 217.478V174.584C336.432 174.086 336.55 173.596 336.771 173.15C336.931 172.747 337.212 172.403 337.577 172.166L342.704 169.205C342.824 169.117 342.971 169.075 343.119 169.086C343.267 169.098 343.406 169.162 343.51 169.268C343.633 169.411 343.726 169.577 343.783 169.757C343.841 169.937 343.862 170.126 343.845 170.314V171.821C344.096 171.235 344.379 170.618 344.672 169.969C344.975 169.3 345.343 168.662 345.77 168.064C346.247 167.4 346.787 166.783 347.382 166.222C348.095 165.559 348.886 164.982 349.736 164.506C350.828 163.835 352.06 163.423 353.336 163.303C353.875 163.266 354.416 163.34 354.925 163.52C355.435 163.7 355.902 163.982 356.298 164.349C357.285 165.306 358.007 166.503 358.391 167.824C358.974 169.822 359.267 171.895 359.259 173.977C359.259 174.605 359.259 175.484 359.259 176.593C359.259 177.702 359.259 178.592 359.259 179.261C359.223 181.668 358.932 184.064 358.391 186.409C357.906 188.428 357.204 190.39 356.298 192.258C355.522 193.884 354.525 195.395 353.336 196.748C352.299 197.92 351.084 198.923 349.736 199.72ZM351.641 182.83C351.725 181.614 351.725 180.394 351.641 179.178C351.637 177.973 351.3 176.792 350.668 175.766C350.103 174.96 349.15 174.939 347.821 175.703C347.207 176.065 346.664 176.537 346.22 177.095C345.768 177.663 345.389 178.286 345.09 178.947C344.797 179.623 344.566 180.323 344.399 181.04C344.226 181.727 344.11 182.427 344.054 183.133C344.002 183.813 343.97 184.598 343.97 185.467C343.97 186.335 343.97 187.078 344.054 187.696C344.098 188.273 344.214 188.843 344.399 189.391C344.541 189.856 344.776 190.286 345.09 190.657C345.383 190.979 345.787 191.177 346.22 191.212C346.789 191.221 347.348 191.057 347.821 190.741C349.132 189.997 350.14 188.815 350.668 187.403C351.235 185.94 351.563 184.396 351.641 182.83Z" fill="#455A64"/>
<path d="M375.74 173.872C375.74 173.391 375.636 173.087 375.427 172.941C375.09 172.81 374.717 172.81 374.38 172.941C373.695 173.114 373.021 173.327 372.36 173.579C371.534 173.883 370.498 174.228 369.221 174.625C367.072 175.253 365.419 174.988 364.261 173.83C363.099 172.679 362.524 170.618 362.524 167.667C362.532 166.128 362.776 164.6 363.246 163.135C363.741 161.567 364.415 160.06 365.255 158.646C366.138 157.177 367.192 155.818 368.394 154.596C369.602 153.37 370.972 152.314 372.465 151.457C373.707 150.689 375.086 150.17 376.525 149.929C377.602 149.736 378.71 149.816 379.748 150.159C380.614 150.478 381.349 151.074 381.841 151.855C382.376 152.691 382.676 153.656 382.71 154.649C382.734 155.143 382.626 155.634 382.396 156.072C382.232 156.496 381.944 156.861 381.569 157.118L376.525 160.027C376.211 160.205 375.971 160.247 375.782 160.132C375.574 160.005 375.357 159.894 375.134 159.797C374.818 159.671 374.478 159.621 374.139 159.651C373.525 159.744 372.938 159.972 372.423 160.32C371.8 160.669 371.246 161.13 370.791 161.681C370.366 162.176 370.133 162.807 370.131 163.46C370.09 163.822 370.164 164.188 370.341 164.506C370.487 164.681 370.77 164.723 371.188 164.632C371.79 164.485 372.384 164.307 372.967 164.098C373.731 163.826 374.736 163.491 375.981 163.052C378.545 162.225 380.418 162.476 381.59 163.826C382.878 165.524 383.503 167.634 383.348 169.759C383.337 171.304 383.094 172.839 382.626 174.312C382.125 175.932 381.422 177.482 380.533 178.926C379.572 180.479 378.435 181.916 377.143 183.206C375.79 184.553 374.266 185.718 372.612 186.67C371.247 187.521 369.729 188.096 368.143 188.365C367.048 188.546 365.924 188.416 364.899 187.989C364.05 187.606 363.345 186.96 362.89 186.147C362.412 185.309 362.143 184.369 362.105 183.405C362.08 182.911 362.188 182.42 362.419 181.982C362.583 181.558 362.871 181.193 363.246 180.936L368.478 177.901C368.792 177.723 369.012 177.713 369.158 177.901C369.319 178.077 369.502 178.232 369.702 178.361C369.996 178.534 370.336 178.61 370.676 178.581C371.363 178.486 372.019 178.232 372.591 177.838C373.415 177.365 374.158 176.76 374.788 176.049C375.378 175.476 375.72 174.694 375.74 173.872Z" fill="#455A64"/>
<path d="M394.88 157.233C394.873 157.73 394.759 158.219 394.545 158.667C394.385 159.071 394.104 159.414 393.74 159.651L388.403 162.738C388.283 162.826 388.136 162.868 387.988 162.857C387.84 162.845 387.701 162.781 387.597 162.675C387.472 162.533 387.378 162.367 387.32 162.187C387.262 162.007 387.243 161.817 387.262 161.629V133.521C387.263 133.024 387.378 132.533 387.597 132.087C387.757 131.684 388.039 131.34 388.403 131.103L393.74 127.964C393.859 127.876 394.006 127.834 394.154 127.845C394.302 127.857 394.441 127.921 394.545 128.027C394.669 128.17 394.762 128.336 394.82 128.516C394.877 128.696 394.898 128.885 394.88 129.073V157.233ZM394.88 171.256C394.874 171.753 394.76 172.242 394.545 172.69C394.385 173.093 394.104 173.437 393.74 173.673L388.403 176.76C388.283 176.848 388.136 176.891 387.988 176.879C387.84 176.868 387.701 176.803 387.597 176.698C387.471 176.556 387.377 176.39 387.319 176.21C387.261 176.029 387.242 175.839 387.262 175.651V169.058C387.263 168.561 387.378 168.071 387.597 167.625C387.757 167.221 388.039 166.877 388.403 166.641L393.74 163.502C393.859 163.414 394.006 163.371 394.154 163.383C394.302 163.394 394.441 163.459 394.545 163.565C394.668 163.708 394.761 163.874 394.819 164.054C394.876 164.234 394.897 164.423 394.88 164.611V171.256Z" fill="#455A64"/>
<path d="M189.377 205.046C190.157 206.561 190.734 208.173 191.093 209.839C191.868 213.962 190.382 218.116 189.555 222.218C189.283 223.61 189.189 224.887 190.183 225.975C190.271 226.096 190.388 226.192 190.524 226.256C190.659 226.32 190.808 226.349 190.957 226.341C191.208 226.279 191.376 226.027 191.512 225.808C192.499 224.119 193.286 222.321 193.856 220.45C193.97 222.22 193.91 223.997 193.678 225.755C193.373 227.134 193.373 228.563 193.678 229.941C194.118 231.281 195.624 232.358 196.817 231.699C197.552 231.141 198.049 230.326 198.209 229.418L199.182 226.279C199.66 224.819 200.054 223.335 200.365 221.831C200.863 219.121 200.82 216.339 200.24 213.646C199.66 210.952 198.554 208.399 196.985 206.134C196.227 204.917 195.138 203.94 193.845 203.319C193.236 203.077 192.581 202.971 191.927 203.009C191.273 203.047 190.634 203.228 190.057 203.539C189.252 203.979 188.99 204.261 189.377 205.046Z" fill="#F28F8F"/>
<path d="M202.772 212.246C202.322 206.752 202.134 200.996 201.108 195.795C200.082 190.594 197.906 170.597 196.922 165.04C195.635 157.715 193.887 153.131 192.82 148.6C191.617 143.535 190.612 136.608 188.488 125.578C186.363 114.548 183.758 108.374 178.306 104.816C174.291 102.093 169.553 100.635 164.702 100.63C163.467 104.021 164.608 115.888 164.608 115.888C164.608 115.888 169.84 141.191 170.405 144.299C170.97 147.407 176.569 161.628 180.315 173.202C182.46 179.847 185.704 189.192 185.704 189.192C186.688 193.326 187.033 194.644 186.206 197.92C185.861 199.301 185.307 200.619 184.961 202.001C184.585 203.507 184.354 205.045 184.271 206.595C184.218 207.641 184.271 208.688 184.176 209.734C184.082 211.67 183.768 213.595 183.538 215.521C183.381 216.934 184.197 217.802 185.631 217.363C186.666 216.966 187.509 216.187 187.985 215.186C188.586 213.769 189.005 212.282 189.231 210.76C189.398 210.037 190.277 205.695 191.648 206.877C192.82 207.871 194.065 211.262 195.604 213.564C196.436 214.576 197.052 215.749 197.412 217.009C197.772 218.269 197.869 219.59 197.697 220.889C197.435 224.395 195.761 229.083 196.326 232.044C196.891 235.006 198.544 235.644 199.141 234.42C199.737 233.196 201.548 226.048 202.154 223.568C202.979 219.853 203.187 216.028 202.772 212.246Z" fill="#FFA8A7"/>
<path d="M189.199 208.353C195.572 211.157 203.515 212.685 206.989 226.289C210.463 239.893 214.576 289.882 214.576 289.882C212.919 291.972 210.802 293.65 208.389 294.786C205.977 295.923 203.334 296.486 200.668 296.433L201.233 310.696C201.233 310.696 191.92 315.175 178.044 311.669C171.315 309.974 167.171 303.821 167.171 303.821C167.171 303.821 168.751 263.459 169.85 248.045C170.949 232.63 172.351 200.829 189.199 208.353Z" fill="#455A64"/>
<path d="M198.418 241.536C198.418 241.536 200.114 282.348 200.668 296.433C202.217 296.434 203.76 296.244 205.262 295.868L198.418 241.536Z" fill="#37474F"/>
<path d="M184.155 209.703C184.061 211.639 183.747 213.564 183.517 215.49C183.36 216.902 184.176 217.771 185.61 217.331C186.645 216.935 187.487 216.155 187.964 215.155C188.565 213.738 188.983 212.25 189.209 210.728C189.335 210.174 189.869 207.505 190.737 206.814L184.26 206.574C184.197 207.61 184.207 208.656 184.155 209.703ZM190.727 206.814H191.616C191.557 206.757 191.486 206.711 191.408 206.682C191.331 206.652 191.248 206.638 191.165 206.641C191.082 206.644 191 206.663 190.925 206.699C190.85 206.734 190.782 206.784 190.727 206.846V206.814Z" fill="#FFA8A7"/>
<path d="M170.562 99.8875C180.89 104.136 184.166 107.558 186.164 113.816C188.163 120.074 191.313 135.896 192.349 142.771C193.385 149.647 195.98 155.831 197.424 164.82C198.868 173.809 200.292 186.963 200.292 186.963C200.292 186.963 198.418 189.37 192.768 189.705C187.117 190.04 184.176 187.999 184.176 187.999C184.176 187.999 178.17 170.052 175.899 164.056C173.628 158.06 168.427 143.127 168.427 143.127L170.562 99.8875Z" fill="#E6E6E6"/>
<path d="M82.199 349.635L89.0951 351.749L90.1311 346.778L84.4803 347.312L82.199 349.635Z" fill="black"/>
<path d="M84.0824 335.738C84.0824 335.738 81.1942 339.055 80.3047 340.112C79.4152 341.169 81.4663 348.18 82.1883 349.635L84.4696 347.312C84.6998 349.08 84.3231 350.817 83.9568 353.528C83.6534 355.778 82.5232 359.618 83.4441 363.542C84.8149 369.371 89.367 375.294 95.0493 380.003C100.732 384.712 105.169 385.842 107.806 385.863C110.443 385.884 112.107 384.817 112.829 382.996C113.551 381.175 84.0824 335.738 84.0824 335.738Z" fill="#263238"/>
<path d="M108.863 335.884L110.495 333.917C111.594 334.712 109.449 337.737 109.061 341.514C108.385 347.109 108.43 352.768 109.198 358.352C110.966 368.304 113.634 375.765 114.43 380.223C115.476 386.198 105.273 386.585 96.1587 378.716C91.6275 374.802 85.0558 365.96 84.8465 361.345C84.6372 356.73 86.5417 351.257 86.2069 347.741C85.872 344.225 83.4024 339.076 84.1139 335.706C84.5116 333.854 87.2533 330.956 89.7439 328.559C91.9938 326.372 93.9297 321.632 95.0494 323.002L94.2123 324.635C93.9506 326.152 94.9448 329.679 98.262 333.258C99.8945 335.079 105.451 339.62 108.863 335.884Z" fill="#455A64"/>
<path opacity="0.15" d="M101.223 335.748C103.17 336.994 105.587 337.894 107.617 336.847C107.617 336.847 107.67 336.847 107.69 336.847C107.048 337.466 106.556 338.223 106.251 339.061C105.947 339.899 105.838 340.795 105.932 341.682C106.1 344.989 106.037 367.341 106.037 367.341C106.037 367.341 104.991 348.023 104.708 344.319C104.352 338.898 103.745 337.831 101.213 335.738L101.223 335.748Z" fill="black"/>
<path d="M114.43 380.223C113.781 376.456 111.772 370.543 110.097 362.799C109.867 365.196 110.38 367.582 110.097 368.23C109.459 369.842 104.122 368.659 101.244 367.456C98.3666 366.253 98.3038 360.748 97.1631 354.899C96.0225 349.049 90.1414 350.315 85.6521 353.737C85.1252 356.221 84.8622 358.753 84.8673 361.292C85.0766 365.907 91.6483 374.75 96.1795 378.664C105.252 386.585 115.476 386.198 114.43 380.223Z" fill="#37474F"/>
<path opacity="0.15" d="M100.732 341.305C100.629 341.406 100.498 341.474 100.356 341.501C100.215 341.528 100.068 341.513 99.9353 341.457C99.8023 341.401 99.6888 341.307 99.609 341.187C99.5292 341.067 99.4866 340.926 99.4866 340.782C99.4866 340.638 99.5292 340.497 99.609 340.376C99.6888 340.256 99.8023 340.162 99.9353 340.107C100.068 340.051 100.215 340.035 100.356 340.062C100.498 340.089 100.629 340.158 100.732 340.259C100.801 340.327 100.857 340.408 100.894 340.498C100.932 340.588 100.952 340.684 100.952 340.782C100.952 340.879 100.932 340.976 100.894 341.066C100.857 341.155 100.801 341.237 100.732 341.305Z" fill="black"/>
<path opacity="0.15" d="M101.15 346.579C101.047 346.68 100.917 346.748 100.775 346.775C100.633 346.803 100.487 346.787 100.354 346.731C100.221 346.675 100.107 346.582 100.027 346.461C99.9476 346.341 99.905 346.2 99.905 346.056C99.905 345.912 99.9476 345.771 100.027 345.651C100.107 345.53 100.221 345.437 100.354 345.381C100.487 345.325 100.633 345.309 100.775 345.336C100.917 345.364 101.047 345.432 101.15 345.533C101.22 345.601 101.275 345.682 101.313 345.772C101.351 345.862 101.37 345.959 101.37 346.056C101.37 346.153 101.351 346.25 101.313 346.34C101.275 346.43 101.22 346.511 101.15 346.579Z" fill="black"/>
<path opacity="0.15" d="M101.569 351.853C101.5 351.922 101.418 351.977 101.329 352.014C101.239 352.051 101.143 352.07 101.045 352.07C100.948 352.07 100.852 352.051 100.762 352.014C100.672 351.977 100.591 351.922 100.522 351.853C100.453 351.785 100.399 351.703 100.362 351.613C100.325 351.523 100.305 351.427 100.305 351.33C100.305 351.233 100.325 351.137 100.362 351.047C100.399 350.957 100.453 350.876 100.522 350.807C100.661 350.669 100.849 350.591 101.045 350.591C101.241 350.591 101.429 350.669 101.569 350.807C101.638 350.875 101.694 350.956 101.731 351.046C101.769 351.136 101.788 351.233 101.788 351.33C101.788 351.428 101.769 351.524 101.731 351.614C101.694 351.704 101.638 351.785 101.569 351.853Z" fill="black"/>
<path opacity="0.15" d="M101.998 357.127C101.859 357.266 101.671 357.343 101.475 357.343C101.279 357.343 101.09 357.266 100.951 357.127C100.882 357.059 100.826 356.978 100.789 356.888C100.751 356.798 100.731 356.702 100.731 356.604C100.731 356.507 100.751 356.41 100.789 356.321C100.826 356.231 100.882 356.149 100.951 356.081C101.09 355.942 101.278 355.864 101.475 355.864C101.671 355.864 101.859 355.942 101.998 356.081C102.137 356.22 102.214 356.408 102.214 356.604C102.214 356.801 102.137 356.989 101.998 357.127Z" fill="black"/>
<path opacity="0.15" d="M102.416 362.412C102.277 362.55 102.089 362.628 101.893 362.628C101.697 362.628 101.509 362.55 101.37 362.412C101.3 362.344 101.245 362.262 101.207 362.173C101.17 362.083 101.15 361.986 101.15 361.889C101.15 361.791 101.17 361.695 101.207 361.605C101.245 361.515 101.3 361.434 101.37 361.366C101.512 361.247 101.694 361.186 101.879 361.194C102.065 361.202 102.24 361.28 102.371 361.411C102.502 361.542 102.58 361.717 102.588 361.903C102.596 362.088 102.535 362.27 102.416 362.412Z" fill="black"/>
<path d="M100.009 341.012C99.9813 340.991 99.9582 340.965 99.9419 340.934C99.9255 340.903 99.9164 340.869 99.9152 340.834C99.9093 340.796 99.9112 340.756 99.9207 340.718C99.9301 340.681 99.9471 340.645 99.9705 340.614C99.9939 340.583 100.023 340.557 100.057 340.537C100.091 340.517 100.128 340.504 100.166 340.499C100.376 340.499 105.263 339.934 108.768 342.969C108.828 343.02 108.865 343.093 108.871 343.172C108.877 343.25 108.851 343.328 108.8 343.387C108.748 343.447 108.675 343.484 108.597 343.49C108.518 343.496 108.441 343.47 108.381 343.419C105.074 340.552 100.292 341.085 100.24 341.085C100.198 341.096 100.155 341.094 100.114 341.081C100.074 341.068 100.037 341.044 100.009 341.012Z" fill="#263238"/>
<path d="M100.439 346.286C100.411 346.263 100.389 346.234 100.373 346.202C100.356 346.169 100.347 346.134 100.344 346.098C100.339 346.06 100.34 346.021 100.35 345.984C100.36 345.947 100.377 345.912 100.4 345.882C100.424 345.851 100.453 345.826 100.487 345.807C100.52 345.789 100.557 345.777 100.596 345.774C100.805 345.774 105.692 345.198 109.197 348.233C109.257 348.284 109.294 348.357 109.3 348.435C109.306 348.514 109.28 348.592 109.229 348.651C109.177 348.711 109.105 348.748 109.026 348.754C108.948 348.76 108.87 348.734 108.81 348.683C105.503 345.815 100.721 346.349 100.669 346.36C100.627 346.364 100.585 346.36 100.546 346.348C100.506 346.335 100.47 346.314 100.439 346.286Z" fill="#263238"/>
<path d="M100.826 351.571C100.775 351.52 100.741 351.454 100.732 351.382C100.726 351.344 100.728 351.306 100.737 351.269C100.747 351.231 100.764 351.197 100.788 351.166C100.811 351.136 100.841 351.111 100.874 351.092C100.908 351.073 100.945 351.062 100.983 351.058C101.192 351.058 106.079 350.482 109.585 353.517C109.645 353.569 109.681 353.641 109.687 353.72C109.693 353.798 109.668 353.876 109.616 353.936C109.565 353.995 109.492 354.032 109.413 354.038C109.335 354.044 109.257 354.018 109.198 353.967C105.891 351.1 101.109 351.634 101.056 351.644C101.015 351.648 100.973 351.644 100.934 351.631C100.894 351.619 100.857 351.598 100.826 351.571Z" fill="#263238"/>
<path d="M101.265 356.845C101.214 356.794 101.181 356.728 101.171 356.657C101.162 356.58 101.184 356.504 101.231 356.443C101.277 356.382 101.346 356.343 101.422 356.332C101.632 356.332 106.519 355.757 110.024 358.791C110.078 358.848 110.108 358.923 110.108 359.001C110.108 359.079 110.078 359.153 110.024 359.21C109.997 359.238 109.964 359.26 109.928 359.275C109.892 359.29 109.854 359.298 109.815 359.298C109.776 359.298 109.737 359.29 109.701 359.275C109.665 359.26 109.633 359.238 109.606 359.21C106.299 356.343 101.517 356.876 101.464 356.887C101.395 356.896 101.325 356.881 101.265 356.845Z" fill="#263238"/>
<path d="M101.684 362.119C101.632 362.069 101.599 362.002 101.59 361.931C101.584 361.892 101.586 361.852 101.596 361.815C101.606 361.777 101.624 361.741 101.649 361.711C101.674 361.68 101.704 361.655 101.739 361.637C101.774 361.619 101.812 361.609 101.851 361.606C102.05 361.606 106.937 361.031 110.443 364.066C110.496 364.12 110.525 364.193 110.525 364.27C110.525 364.346 110.496 364.419 110.443 364.474C110.415 364.502 110.383 364.524 110.347 364.539C110.311 364.554 110.272 364.562 110.233 364.562C110.194 364.562 110.156 364.554 110.12 364.539C110.084 364.524 110.051 364.502 110.024 364.474C106.728 361.617 101.935 362.14 101.883 362.151C101.815 362.163 101.745 362.152 101.684 362.119Z" fill="#263238"/>
<path d="M179.059 183.29C179.059 183.29 179.812 196.36 179.164 223.537C178.619 246.276 181.131 258.07 172.006 272.553C163.854 285.477 112.975 334.848 109.302 339.327C109.302 339.327 93.1972 340.792 92.4124 324.29C92.4124 324.29 107.408 297.511 114.482 282.327C121.556 267.143 131.225 259.859 131.225 259.859L118.009 193.66L179.059 183.29Z" fill="#263238"/>
<path d="M123.628 192.708L118.04 193.65V193.891L130.776 257.725L131.205 259.326H131.1L131.205 259.818C131.205 259.818 124.329 265.05 117.925 275.766C120.185 281.542 124.622 291.609 124.622 291.609C125.02 293.168 120.52 299.552 123.084 318.764C123.272 320.146 123.607 322.155 123.995 324.321C135.443 312.747 151.056 296.998 161.52 285.33C162.033 282.327 163.613 272.438 162.692 264.882C161.772 257.327 158.381 220.261 158.381 220.261C161.655 218.214 164.522 215.578 166.836 212.486C168.795 209.976 170.145 207.046 170.782 203.926C172.54 198.966 173.991 193.902 175.124 188.763L123.628 192.708Z" fill="black"/>
<path d="M143.71 403.904L150.564 401.654L148.555 396.997L144.233 400.681L143.71 403.904Z" fill="black"/>
<path d="M137.263 391.43C137.263 391.43 136.803 395.815 136.688 397.196C136.573 398.578 142.276 403.13 143.709 403.904L144.233 400.681C145.447 402 146.127 403.632 147.372 406.06C148.419 408.08 149.706 411.878 152.719 414.547C157.188 418.523 164.325 420.752 171.671 421.338C179.017 421.924 183.318 420.292 185.484 418.785C187.65 417.278 188.383 415.436 187.943 413.553C187.504 411.669 137.263 391.43 137.263 391.43Z" fill="#263238"/>
<path d="M157.607 377.303L157.805 374.76C159.166 374.76 159.166 378.475 161.008 381.793C163.488 386.261 167.161 391.88 170.802 395.491C177.971 402.617 184.406 407.18 187.65 410.382C191.941 414.672 183.82 420.846 171.838 419.664C165.884 419.067 155.419 415.614 152.594 411.962C149.769 408.31 148.168 402.732 145.897 400.074C143.626 397.416 138.572 394.612 137.263 391.43C136.52 389.693 137.127 385.727 137.755 382.358C138.341 379.218 137.159 374.3 138.896 374.76L139.158 376.571C139.817 377.963 142.642 380.275 147.425 381.301C149.81 381.803 156.958 382.326 157.607 377.303Z" fill="#455A64"/>
<path opacity="0.15" d="M151.275 381.604C153.577 381.5 156.089 380.851 157.135 378.821V378.758C156.964 379.632 156.996 380.534 157.228 381.394C157.46 382.254 157.887 383.049 158.475 383.718C160.568 386.324 173.335 404.647 173.335 404.647C173.335 404.647 161.332 389.484 159.019 386.627C155.618 382.441 154.498 381.876 151.223 381.615L151.275 381.604Z" fill="black"/>
<path d="M187.682 410.382C184.982 407.671 179.938 403.998 174.078 398.63C175.281 400.723 177.071 402.376 177.217 403.057C177.615 404.741 172.571 406.845 169.526 407.514C166.481 408.184 163.247 403.726 158.988 399.635C154.729 395.543 150.616 399.928 148.879 405.327C149.877 407.663 151.119 409.887 152.584 411.962C155.409 415.614 165.874 419.067 171.828 419.664C183.82 420.846 191.941 414.672 187.682 410.382Z" fill="#37474F"/>
<path opacity="0.15" d="M154.08 386.418C154.051 386.611 153.946 386.784 153.789 386.9C153.632 387.016 153.436 387.064 153.243 387.035C153.05 387.006 152.877 386.902 152.761 386.745C152.645 386.588 152.596 386.391 152.625 386.198C152.638 386.102 152.67 386.009 152.719 385.925C152.769 385.842 152.835 385.769 152.913 385.711C152.991 385.654 153.08 385.612 153.174 385.59C153.269 385.567 153.367 385.564 153.463 385.581C153.655 385.612 153.827 385.717 153.942 385.873C154.058 386.03 154.107 386.225 154.08 386.418Z" fill="black"/>
<path opacity="0.15" d="M157.449 390.488C157.437 390.585 157.405 390.678 157.355 390.761C157.306 390.845 157.24 390.918 157.162 390.975C157.084 391.033 156.995 391.074 156.901 391.097C156.806 391.119 156.708 391.122 156.612 391.106C156.469 391.084 156.336 391.02 156.23 390.922C156.123 390.824 156.048 390.697 156.013 390.557C155.979 390.416 155.987 390.269 156.036 390.133C156.085 389.997 156.174 389.878 156.29 389.793C156.406 389.707 156.546 389.657 156.69 389.65C156.834 389.644 156.978 389.68 157.102 389.754C157.226 389.828 157.325 389.938 157.387 390.069C157.449 390.199 157.47 390.345 157.449 390.488Z" fill="black"/>
<path opacity="0.15" d="M160.83 394.57C160.799 394.763 160.693 394.935 160.535 395.05C160.377 395.165 160.18 395.212 159.987 395.182C159.794 395.151 159.621 395.046 159.507 394.888C159.392 394.73 159.344 394.532 159.375 394.34C159.408 394.147 159.516 393.974 159.674 393.859C159.832 393.744 160.029 393.695 160.223 393.722C160.318 393.737 160.41 393.771 160.493 393.822C160.575 393.873 160.647 393.94 160.703 394.019C160.76 394.098 160.8 394.187 160.822 394.282C160.843 394.376 160.846 394.474 160.83 394.57Z" fill="black"/>
<path opacity="0.15" d="M164.21 398.64C164.179 398.833 164.073 399.006 163.915 399.121C163.757 399.236 163.56 399.283 163.367 399.252C163.174 399.222 163.002 399.116 162.887 398.958C162.772 398.8 162.725 398.603 162.755 398.41C162.77 398.315 162.804 398.223 162.855 398.141C162.905 398.058 162.971 397.986 163.05 397.93C163.128 397.873 163.216 397.832 163.31 397.809C163.404 397.787 163.502 397.783 163.598 397.798C163.693 397.813 163.785 397.847 163.867 397.897C163.95 397.948 164.021 398.014 164.078 398.092C164.135 398.171 164.176 398.259 164.198 398.353C164.221 398.447 164.225 398.545 164.21 398.64Z" fill="black"/>
<path opacity="0.15" d="M167.59 402.711C167.568 402.854 167.504 402.987 167.406 403.094C167.308 403.2 167.181 403.276 167.041 403.31C166.9 403.345 166.753 403.337 166.617 403.288C166.481 403.238 166.362 403.15 166.277 403.034C166.191 402.917 166.141 402.778 166.134 402.633C166.128 402.489 166.164 402.346 166.238 402.222C166.312 402.098 166.422 401.999 166.553 401.937C166.683 401.875 166.829 401.853 166.973 401.874C167.068 401.888 167.16 401.921 167.243 401.971C167.326 402.02 167.398 402.086 167.456 402.164C167.513 402.242 167.554 402.33 167.577 402.424C167.601 402.518 167.605 402.616 167.59 402.711Z" fill="black"/>
<path d="M153.316 386.606C153.242 386.598 153.174 386.56 153.128 386.502C153.074 386.445 153.044 386.37 153.044 386.292C153.044 386.214 153.074 386.139 153.128 386.083C153.285 385.947 156.968 382.692 161.583 383.153C161.622 383.157 161.659 383.168 161.693 383.187C161.727 383.205 161.757 383.23 161.782 383.26C161.806 383.291 161.824 383.325 161.835 383.363C161.846 383.4 161.849 383.439 161.845 383.477C161.837 383.556 161.798 383.628 161.738 383.679C161.677 383.73 161.599 383.755 161.52 383.749C157.167 383.31 153.557 386.491 153.525 386.523C153.467 386.574 153.393 386.603 153.316 386.606Z" fill="#263238"/>
<path d="M156.696 390.656C156.66 390.655 156.624 390.647 156.591 390.631C156.558 390.614 156.53 390.591 156.508 390.562C156.454 390.505 156.424 390.43 156.424 390.352C156.424 390.274 156.454 390.2 156.508 390.143C156.665 390.007 160.348 386.753 164.963 387.213C165.002 387.217 165.039 387.228 165.073 387.247C165.107 387.265 165.137 387.29 165.162 387.321C165.186 387.351 165.204 387.386 165.215 387.423C165.226 387.46 165.229 387.499 165.225 387.537C165.217 387.616 165.178 387.689 165.118 387.739C165.057 387.79 164.979 387.815 164.9 387.81C160.558 387.37 156.937 390.551 156.905 390.583C156.878 390.609 156.845 390.629 156.809 390.642C156.773 390.654 156.734 390.659 156.696 390.656Z" fill="#263238"/>
<path d="M160.066 394.748C159.997 394.738 159.934 394.705 159.888 394.653C159.859 394.627 159.835 394.595 159.819 394.559C159.803 394.523 159.795 394.484 159.795 394.444C159.795 394.405 159.803 394.366 159.819 394.33C159.835 394.294 159.859 394.261 159.888 394.235C160.045 394.099 163.718 390.834 168.333 391.305C168.411 391.313 168.482 391.352 168.531 391.413C168.58 391.474 168.603 391.551 168.594 391.629C168.586 391.707 168.547 391.778 168.486 391.827C168.426 391.876 168.348 391.899 168.27 391.891C163.917 391.451 160.306 394.643 160.275 394.674C160.217 394.724 160.142 394.75 160.066 394.748Z" fill="#263238"/>
<path d="M163.446 398.818C163.377 398.809 163.314 398.776 163.268 398.724C163.24 398.697 163.218 398.664 163.203 398.628C163.187 398.592 163.18 398.554 163.18 398.515C163.18 398.476 163.187 398.437 163.203 398.401C163.218 398.365 163.24 398.333 163.268 398.306C163.414 398.169 167.098 394.905 171.713 395.375C171.789 395.386 171.857 395.426 171.904 395.486C171.951 395.547 171.973 395.624 171.964 395.7C171.961 395.739 171.951 395.777 171.933 395.812C171.915 395.847 171.89 395.877 171.859 395.902C171.829 395.927 171.793 395.945 171.755 395.955C171.718 395.965 171.678 395.967 171.639 395.961C167.296 395.522 163.686 398.714 163.644 398.745C163.618 398.77 163.587 398.789 163.552 398.802C163.518 398.814 163.482 398.82 163.446 398.818Z" fill="#263238"/>
<path d="M166.826 402.889C166.789 402.889 166.753 402.88 166.721 402.864C166.688 402.847 166.66 402.824 166.637 402.795C166.584 402.738 166.554 402.663 166.554 402.586C166.554 402.508 166.584 402.433 166.637 402.376C166.784 402.24 170.467 398.986 175.082 399.446C175.158 399.457 175.227 399.496 175.274 399.557C175.321 399.618 175.342 399.694 175.333 399.771C175.331 399.81 175.32 399.849 175.302 399.884C175.285 399.919 175.26 399.951 175.229 399.976C175.199 400.001 175.164 400.02 175.126 400.032C175.088 400.043 175.048 400.047 175.009 400.043C170.666 399.603 167.056 402.784 167.014 402.816C166.963 402.863 166.896 402.89 166.826 402.889Z" fill="#263238"/>
<path d="M105.796 179.073C105.796 179.073 105.43 195.816 105.503 203.33C105.65 218.755 108.643 225.107 112.452 238.083C115.591 248.61 128.222 287.266 129.195 291.002C127.856 299.164 126.443 306.385 129.195 324.206C133.14 349.928 137.567 380.474 137.567 380.474C139.921 383.739 155.974 384.921 160.641 380.191C160.641 380.191 162.022 297.898 161.52 281.082C161.091 266.431 154.268 218.535 154.268 218.535C154.268 218.535 176.139 209.336 178.023 183.604L105.796 179.073Z" fill="#263238"/>
<path d="M133.057 92.0078C133.057 92.0078 157.02 93.6298 170.562 99.8876C173.586 101.279 182.585 113.073 181.518 129.324C178.818 170.262 179.896 193.033 179.896 193.033C179.153 195.126 171.388 206.427 149.957 208.457C127.877 210.55 115.424 208.269 105.043 199.154C105.116 181.773 105.42 159.577 105.608 144.665C105.755 133.154 105.932 125.829 107.272 117.688C108.161 112.278 110.411 104.189 114.126 102.106C118.311 99.7206 122.653 97.6228 127.123 95.8273C129.344 94.9792 131.365 93.6784 133.057 92.0078Z" fill="#FAFAFA"/>
<path d="M133.454 93.0856C136.834 93.3472 157.941 95.1785 170.08 100.829C172.843 102.106 181.466 113.46 180.419 129.251C177.897 167.604 178.692 190.322 178.797 192.855C178.368 193.786 176.443 196.779 172.026 199.908C168.019 202.754 160.913 206.365 149.81 207.421C144.724 207.903 140.329 208.144 136.374 208.144C122.853 208.144 113.739 205.308 106.026 198.725C106.089 183.332 106.34 164.014 106.518 149.877L106.581 144.718C106.728 133.395 106.916 125.882 108.234 117.897C109.281 111.723 111.615 104.733 114.576 103.058C118.721 100.674 123.025 98.5757 127.458 96.7796C129.653 95.9321 131.666 94.675 133.391 93.0751M132.994 92.0287C131.302 93.6994 129.281 95.0001 127.06 95.8483C122.59 97.6437 118.248 99.7415 114.063 102.127C110.39 104.22 108.098 112.299 107.209 117.709C105.869 125.819 105.692 133.228 105.545 144.686C105.357 159.598 105.053 181.794 104.98 199.175C113.006 206.239 122.309 209.2 136.374 209.2C140.455 209.2 144.934 208.949 149.904 208.478C171.336 206.448 179.101 195.136 179.843 193.054C179.843 193.054 178.797 170.283 181.466 129.345C182.512 113.094 173.533 101.3 170.509 99.9085C156.968 93.6298 133.004 92.0287 133.004 92.0287H132.994Z" fill="#E0E0E0"/>
<path d="M133.527 45.9218C127.029 53.247 129.132 61.8907 131.434 70.5554C134.155 80.4234 134.323 83.6151 139.994 86.0848C138.718 55.0992 148.617 93.0646 173.481 68.9752C177.97 64.6219 178.253 51.1854 172.811 45.0323C165.12 36.3885 146.231 32.0876 133.527 45.9218Z" fill="#37474F"/>
<path d="M132.219 80.2874C136.74 82.1711 138.791 79.0631 138.791 79.0631L134.794 90.5741C134.794 90.5741 132.219 97.7109 138.038 101.154C154.132 110.823 150.491 114.894 155.932 119.592C157.774 117.28 157.533 106.92 157.826 104.189L161.353 93.1065C163.191 93.1706 165.032 93.0866 166.857 92.8554C171.169 92.2484 173.607 89.1823 174.967 84.557C177.133 77.1062 176.809 65.8673 174.141 51.311C169.379 47.5543 153.599 46.738 143.396 53.0168C143.762 61.5768 141.439 62.9686 141.439 66.6207C141.439 70.7542 141.156 71.7065 139.89 72.2611C138.624 72.8157 137.494 70.8798 136.981 69.6659C136.123 67.573 135.39 66.2963 133.371 65.794C131.351 65.2917 129.091 65.6161 127.238 68.3369C124.371 72.5646 128.892 78.927 132.219 80.2874Z" fill="#FFA8A7"/>
<path d="M161.353 93.1484C156.257 92.8973 149.099 90.2184 146.211 87.5185C143.322 84.8186 141.439 79.5654 141.439 79.5654C141.572 83.137 142.865 86.568 145.122 89.3393C148.889 93.9228 160.285 96.5076 160.285 96.5076L161.353 93.1484Z" fill="#F28F8F"/>
<path d="M158.643 55.4339C158.507 55.4339 158.339 55.5177 158.329 55.6537C158.318 55.7897 158.465 55.8316 158.569 55.8944C158.745 55.9938 158.912 56.1057 159.072 56.2292C159.239 56.3436 159.378 56.4937 159.48 56.6688C159.537 56.8031 159.579 56.9435 159.605 57.0873C159.638 57.3231 159.656 57.5608 159.658 57.7989C159.658 57.9978 159.825 58.1338 160.013 57.9664C160.083 57.9031 160.137 57.8242 160.17 57.7361C160.282 57.472 160.329 57.1849 160.306 56.899C160.286 56.7405 160.243 56.5856 160.181 56.4385C160.048 56.141 159.832 55.8879 159.56 55.7098C159.287 55.5316 158.968 55.4358 158.643 55.4339ZM166.428 55.7479C166.446 55.6713 166.443 55.5914 166.421 55.5161C166.398 55.4408 166.356 55.3728 166.299 55.3188C166.242 55.2648 166.171 55.2267 166.095 55.2084C166.019 55.19 165.939 55.192 165.863 55.2142C165.605 55.339 165.378 55.519 165.197 55.7414C165.016 55.9638 164.886 56.2232 164.817 56.5013C164.66 56.8765 164.617 57.289 164.691 57.6885C164.766 58.0881 164.955 58.4573 165.235 58.7512C165.329 58.8349 165.465 58.9082 165.56 58.8454C165.654 58.7826 165.56 57.7989 165.633 57.5792C165.645 57.2105 165.749 56.8507 165.936 56.5327C166.062 56.292 166.345 56.0618 166.428 55.7479ZM162.19 53.9166C162.172 53.904 162.152 53.8959 162.13 53.8929C162.109 53.8899 162.087 53.892 162.067 53.8992C162.046 53.9064 162.028 53.9183 162.013 53.9341C161.998 53.9499 161.987 53.969 161.981 53.9898C161.958 54.0851 161.957 54.1841 161.977 54.2799C161.997 54.3757 162.037 54.466 162.096 54.5444C162.191 54.744 162.272 54.9503 162.337 55.1619C162.475 55.5848 162.552 56.0252 162.567 56.4699C162.576 56.8867 162.548 57.3034 162.483 57.7152C162.42 58.1024 162.305 58.4791 162.242 58.8663C162.242 58.8663 162.242 59.0128 162.326 58.971C162.631 58.6649 162.865 58.295 163.009 57.8878C163.154 57.4806 163.207 57.0464 163.163 56.6164C163.158 56.134 163.084 55.6547 162.944 55.1933C162.833 54.699 162.569 54.2523 162.19 53.9166Z" fill="#F28F8F"/>
<path d="M153.012 59.0338L157.617 57.2653C157.841 57.8934 157.814 58.5838 157.541 59.1923C157.268 59.8007 156.77 60.2801 156.152 60.5302C155.848 60.6455 155.524 60.698 155.199 60.6846C154.875 60.6713 154.556 60.5923 154.263 60.4525C153.969 60.3126 153.707 60.1149 153.492 59.871C153.277 59.6272 153.114 59.3424 153.012 59.0338Z" fill="#37474F"/>
<path d="M167.642 56.5642L172.1 58.7618C171.972 59.0598 171.784 59.3285 171.548 59.5515C171.313 59.7746 171.034 59.9472 170.729 60.0588C170.425 60.1705 170.101 60.2188 169.777 60.201C169.453 60.1831 169.136 60.0993 168.845 59.9548C168.247 59.6527 167.789 59.1319 167.565 58.5005C167.341 57.8692 167.368 57.1757 167.642 56.5642Z" fill="#37474F"/>
<path d="M157.617 63.7847C157.188 62.7383 156.57 64.2138 155.314 64.737C154.059 65.2602 152.688 64.6114 153.117 65.6474C153.434 66.1282 153.909 66.4835 154.46 66.6524C155.011 66.8212 155.603 66.793 156.135 66.5727C156.668 66.3524 157.107 65.9536 157.377 65.4449C157.647 64.9361 157.732 64.3491 157.617 63.7847Z" fill="#263238"/>
<path d="M172.131 64.8102C172.393 63.7638 171.085 64.5486 169.714 64.2452C168.343 63.9417 167.621 62.6127 167.391 63.701C167.356 64.2827 167.527 64.8581 167.875 65.3254C168.224 65.7927 168.726 66.1219 169.293 66.2547C169.861 66.3875 170.457 66.3153 170.976 66.051C171.495 65.7866 171.905 65.3471 172.131 64.8102Z" fill="#263238"/>
<path d="M161.186 61.2838L163.048 74.8877L169.829 73.318C168.333 69.3729 164.126 63.0837 161.186 61.2838Z" fill="#F28F8F"/>
<path d="M158.077 78.0584C157.763 78.253 157.497 78.5181 157.303 78.8328C156.706 79.8165 157.554 80.3188 158.454 80.4025C159.445 80.4954 160.41 80.7722 161.3 81.2187C161.681 81.4938 162.139 81.6404 162.608 81.6373C162.757 81.6158 162.901 81.5649 163.03 81.4877C163.159 81.4105 163.272 81.3084 163.362 81.1873C163.498 80.9308 163.549 80.6377 163.508 80.3502C163.418 79.7668 163.178 79.2169 162.811 78.7545C162.444 78.2921 161.963 77.9332 161.415 77.7131C160.87 77.5111 160.285 77.4372 159.706 77.4971C159.127 77.557 158.57 77.749 158.077 78.0584Z" fill="#B16668"/>
<path d="M161.3 81.271C161.51 81.3916 161.727 81.4999 161.949 81.5954C161.729 80.6652 161.203 79.8359 160.455 79.2401C159.708 78.6443 158.782 78.3167 157.826 78.3096C157.617 78.467 157.44 78.6623 157.303 78.8851C156.706 79.8688 157.554 80.3711 158.454 80.4548C159.445 80.5478 160.41 80.8246 161.3 81.271Z" fill="#F28F8F"/>
<path d="M154.048 126.363C149.14 122.951 139.953 115.427 132.334 93.0961L129.321 95.189C129.321 95.189 134.155 118.138 153.316 129.795L154.048 126.363Z" fill="#34A573"/>
<path d="M158.736 125.923C160.149 123.998 163.404 110.886 160.149 96.8005L162.818 99.3643C165.559 113.125 162.587 125.934 160.023 129.774L158.736 125.923Z" fill="#34A573"/>
<path d="M158.517 133.039C158.517 133.039 164.283 173.558 164.513 177.535C164.743 181.511 158.496 191.139 157.648 191.672C156.801 192.206 151.202 182.777 151.129 179.638C151.056 176.499 155.179 133.029 155.179 133.029L158.517 133.039Z" fill="#34A573"/>
<path d="M158.736 125.923C157.163 125.636 155.541 125.788 154.048 126.363C153.169 127.943 152.855 130.392 153.546 131.543C154.236 132.694 155.534 134.473 157.125 134.4C158.715 134.327 160.055 132.307 160.264 130.371C160.473 128.278 158.736 125.923 158.736 125.923Z" fill="#34A573"/>
<path opacity="0.2" d="M158.736 125.923C157.163 125.636 155.541 125.788 154.048 126.363C153.169 127.943 152.855 130.392 153.546 131.543C154.236 132.694 155.534 134.473 157.125 134.4C158.715 134.327 160.055 132.307 160.264 130.371C160.473 128.278 158.736 125.923 158.736 125.923Z" fill="white"/>
<path d="M155.859 119.634C153.044 116.422 152.06 106.763 149.978 105.141C147.895 103.519 135.809 96.1307 134.668 90.8252L136.008 86.9637C134.563 86.3045 132.617 90.9194 127.123 95.8272C127.123 95.8272 126.443 101.436 130.65 107.809C135.599 115.333 139.942 117.855 139.942 117.855C139.942 117.855 145.991 110.049 146.985 109.745C147.979 109.442 152.489 118.483 155.859 119.634Z" fill="#F0F0F0"/>
<path d="M155.859 119.634C157.366 116.997 157.125 106.156 157.554 104.722C158.454 101.708 161.101 93.9123 161.101 93.9123C161.545 94.2532 161.946 94.6467 162.294 95.0843C167.296 101.551 167.139 110.886 165.769 113.764C164.324 110.697 160.892 106.742 160.275 107.485C159.657 108.228 158.443 118.347 155.859 119.634Z" fill="#F0F0F0"/>
<path d="M137.169 252.053L139.618 301.906C139.733 304.324 138.1 305.799 136.07 307.138L130.974 310.445C130.411 310.899 129.758 311.228 129.057 311.408C128.357 311.589 127.626 311.617 126.914 311.492C125.918 311.275 124.957 310.923 124.057 310.445C124.023 310.455 123.987 310.455 123.952 310.445L123.659 310.288L68.5529 282.034C66.5738 281.021 64.897 279.503 63.6917 277.634C62.4864 275.766 61.7954 273.612 61.6882 271.391L59.4592 225.996C59.4628 225.429 59.6002 224.871 59.8603 224.368C60.1203 223.864 60.4956 223.429 60.9557 223.098L69.6413 217.499C70.1307 217.217 70.6802 217.056 71.2443 217.029C71.8084 217.001 72.3709 217.109 72.8853 217.342L135.359 249.322C135.854 249.597 136.272 249.993 136.573 250.473C136.902 250.941 137.107 251.484 137.169 252.053Z" fill="#37474F"/>
<path d="M137.169 252.053L139.618 301.906C139.733 304.324 138.101 305.799 136.07 307.138L130.974 310.445C130.411 310.899 129.758 311.228 129.057 311.408C128.357 311.589 127.626 311.617 126.914 311.492C125.918 311.275 124.957 310.923 124.057 310.445C126.15 311.324 127.793 310.152 127.667 307.683L125.365 260.718C125.292 259.86 125 259.034 124.518 258.321L136.615 250.525C136.921 250.982 137.111 251.506 137.169 252.053Z" fill="#263238"/>
<path d="M125.365 260.665C125.282 259.807 124.997 258.98 124.533 258.252C124.069 257.525 123.44 256.917 122.697 256.479L63.6137 226.132C61.2801 224.929 59.4279 226.132 59.6058 228.717L61.6987 271.214C61.8062 273.436 62.4973 275.59 63.7024 277.461C64.9076 279.331 66.5842 280.85 68.5635 281.866L123.67 310.121C126.004 311.324 127.856 310.121 127.678 307.536L125.365 260.665Z" fill="#455A64"/>
<path d="M66.8265 219.184L129.467 251.697C130.35 252.159 131.097 252.843 131.634 253.682C132.172 254.521 132.482 255.485 132.533 256.48L135.055 307.756L134.155 308.342L131.602 256.49C131.558 255.659 131.298 254.853 130.849 254.152C130.399 253.451 129.775 252.88 129.038 252.493L65.9265 219.738L66.8265 219.184Z" fill="#34A573"/>
<path opacity="0.2" d="M131.633 253.686C132.173 254.522 132.483 255.486 132.533 256.48L135.055 307.756L134.155 308.342L131.602 256.49C131.561 255.659 131.301 254.854 130.849 254.156L131.633 253.686Z" fill="black"/>
<path opacity="0.2" d="M130.849 254.188C130.403 253.483 129.778 252.908 129.038 252.524L65.9265 219.77L66.8265 219.184L129.467 251.697C130.347 252.164 131.093 252.849 131.634 253.686" fill="black"/>
<path d="M88.7706 224.5L89.1473 232.212L86.1754 234.106L85.6731 223.851C85.6731 223.328 85.9975 223.098 86.4684 223.338L88.7706 224.5Z" fill="#34A573"/>
<path opacity="0.4" d="M88.7706 224.5L89.1473 232.212L86.1754 234.106L85.6731 223.851C85.6731 223.328 85.9975 223.098 86.4684 223.338L88.7706 224.5Z" fill="black"/>
<path d="M110.359 231.082L110.976 243.577L108.151 245.387L106.162 244.341L105.65 234.085C105.62 233.8 105.524 233.526 105.37 233.284C105.215 233.043 105.007 232.84 104.76 232.694L89.6598 224.95L86.5205 223.338C86.0496 223.098 85.6938 223.338 85.7252 223.851L86.2275 234.106L84.2287 233.06L83.6113 220.565C83.6061 220.51 83.6061 220.453 83.6113 220.398C83.6361 220.139 83.7161 219.888 83.8461 219.662C83.9761 219.436 84.153 219.241 84.3648 219.09L85.5577 218.315C85.8115 218.177 86.0937 218.1 86.3823 218.089C86.6709 218.078 86.9582 218.134 87.2216 218.253L109.469 229.69C109.718 229.834 109.928 230.036 110.083 230.278C110.238 230.52 110.332 230.796 110.359 231.082Z" fill="#34A573"/>
<path opacity="0.2" d="M107.565 232.892L108.151 245.387L106.162 244.341L105.65 234.085C105.62 233.8 105.524 233.526 105.37 233.284C105.215 233.042 105.007 232.84 104.76 232.693L89.6598 224.95L86.5205 223.338C86.0496 223.097 85.6938 223.338 85.7252 223.851L86.2275 234.106L84.2287 233.06L83.6113 220.565C83.6061 220.509 83.6061 220.453 83.6113 220.398C83.6636 219.99 83.9881 219.833 84.4066 220.042L106.665 231.48C106.915 231.628 107.127 231.833 107.284 232.078C107.44 232.324 107.536 232.603 107.565 232.892Z" fill="black"/>
<path d="M97.0793 223.317L106.56 228.194C106.523 226.711 106.09 225.266 105.304 224.008C104.258 222.961 100.072 218.775 98.67 219.205C98.0107 219.403 97.3933 221.224 97.0793 223.317Z" fill="#F28F8F"/>
<path d="M97.0793 228.821C97.1515 229.116 97.2495 229.403 97.3724 229.68C98.3676 231.522 99.7447 233.131 101.412 234.399C102.573 234.097 103.625 233.473 104.446 232.599L97.0793 228.821Z" fill="#F28F8F"/>
<path d="M111.677 106.648C104.792 109.672 99.8001 114.956 96.2422 126.185C92.6842 137.413 88.331 150.745 86.5938 162.434C84.8567 174.123 83.3394 198.537 82.9103 206.103C82.6212 209.153 82.5408 212.219 82.6696 215.28C82.9822 218.744 83.5382 222.181 84.3335 225.567C84.4573 226.366 84.7799 227.121 85.2718 227.763C85.7637 228.405 86.409 228.913 87.1485 229.24C87.5679 229.351 87.9747 229.505 88.3624 229.7C89.0635 230.13 89.4088 230.988 89.9634 231.574C90.6761 232.212 91.6022 232.559 92.5587 232.547C92.9877 232.547 93.4167 232.547 93.8353 232.599C95.3945 232.829 96.5352 234.211 98.0212 234.692C99.1175 235.168 100.356 235.198 101.474 234.776C102.049 234.478 102.596 234.127 103.107 233.729C103.389 233.52 104.153 232.756 104.394 232.536C102.301 232.725 100.763 230.988 99.9676 229.397C99.0645 227.489 98.5589 225.417 98.4816 223.307C98.445 222.809 98.5164 222.309 98.6909 221.842C98.7315 221.727 98.8026 221.625 98.8966 221.548C98.9907 221.47 99.1041 221.42 99.2246 221.402C99.4967 221.402 99.6746 221.664 99.8211 221.894C100.652 223.55 101.788 225.034 103.17 226.268C103.742 226.797 104.484 227.104 105.263 227.137C105.645 227.14 106.014 226.999 106.296 226.74C106.578 226.482 106.751 226.126 106.78 225.745C106.746 225.441 106.653 225.146 106.508 224.876C105.454 222.666 104.603 220.365 103.965 218.001C103.487 215.784 102.724 213.638 101.694 211.618C100.533 209.525 97.8119 206.678 98.1049 204.293C98.5862 200.201 106.152 168.273 106.152 168.273C106.152 168.273 115.277 140.333 117.464 132.945C120.206 123.768 118.291 111.985 111.677 106.648Z" fill="#FFA8A7"/>
<path d="M114.126 102.106C103.117 107.715 100.449 112.142 97.4351 120.482C94.7247 127.943 88.7076 148.401 87.2007 155.685C84.5218 168.713 83.0149 193.629 83.0149 193.629C83.0149 193.629 84.3125 197.208 90.8319 198.778C97.3513 200.347 99.957 198.349 99.957 198.349L107.282 166.704C107.282 166.704 118.615 140.438 119.536 136.733C121.451 129.293 123.031 107.119 114.126 102.106Z" fill="#E6E6E6"/>
<path d="M197.926 81.1979C198.198 81.899 198.334 82.642 198.648 83.2908C198.957 83.9507 199.363 84.5609 199.852 85.1012C200.865 86.2243 202.26 86.9295 203.766 87.079C206.978 87.3615 210.547 84.6826 209.814 81.1979C209.804 81.1173 209.811 81.0354 209.834 80.9576C209.858 80.8798 209.897 80.8079 209.951 80.7466C210.004 80.6853 210.07 80.636 210.144 80.602C210.218 80.5679 210.298 80.5499 210.379 80.5491C212.472 80.3398 213.634 78.2259 213.613 76.2586C213.689 75.2093 213.374 74.169 212.728 73.3382C212.083 72.5074 211.153 71.9448 210.118 71.7588C209.671 71.6876 209.219 71.663 208.768 71.6856C208.335 71.7551 207.898 71.7935 207.459 71.8007C206.622 71.7274 206.539 70.6705 206.183 70.0845C205.815 69.4369 205.292 68.8906 204.662 68.4942C204.031 68.0978 203.312 67.8638 202.569 67.813C201.826 67.7623 201.082 67.8963 200.403 68.2032C199.724 68.5101 199.132 68.9802 198.68 69.5717C198.04 70.5021 197.657 71.5852 197.57 72.7111C197.57 72.8367 197.246 73.2029 197.173 72.9204C196.973 71.8801 197.112 70.8033 197.567 69.8471C198.023 68.8908 198.772 68.105 199.705 67.6044C200.701 67.0443 201.844 66.8022 202.982 66.9107C204.119 67.0192 205.196 67.4731 206.068 68.2113C206.471 68.542 206.823 68.9298 207.114 69.3624C207.269 69.5937 207.402 69.839 207.512 70.095C207.575 70.2205 207.7 70.8066 207.805 70.8693C208.009 70.8734 208.213 70.8523 208.412 70.8066C208.673 70.8066 208.945 70.8066 209.207 70.8066C209.81 70.8024 210.411 70.8727 210.997 71.0158C212.112 71.3157 213.093 71.9851 213.779 72.9145C214.465 73.8439 214.816 74.9785 214.774 76.133C214.841 77.3132 214.505 78.481 213.823 79.4464C213.141 80.4117 212.152 81.1176 211.017 81.449C211.457 85.3 207.637 88.2091 203.996 88.115C202.185 88.0632 200.464 87.3133 199.192 86.022C198.083 84.9128 196.848 83.0292 197.152 81.3967C197.183 81.0304 197.78 80.8107 197.926 81.1979Z" fill="#455A64"/>
<path d="M184.825 76.0388C186.49 75.5155 188.205 75.1649 189.942 74.9923L192.181 74.6365C192.963 74.4742 193.758 74.3797 194.557 74.354C194.923 74.354 194.714 74.8563 194.494 74.94C193.676 75.2123 192.835 75.4119 191.982 75.5365L189.607 75.9551L187.336 76.3213C186.497 76.4935 185.638 76.5569 184.783 76.5097C184.542 76.5201 184.668 76.112 184.825 76.0388Z" fill="#455A64"/>
<path d="M186.174 80.8317C186.473 80.7329 186.782 80.6696 187.095 80.6433C187.451 80.591 187.796 80.5596 188.142 80.5282L189.973 80.4235C190.59 80.4235 191.197 80.4235 191.815 80.3607C192.543 80.289 193.278 80.3065 194.002 80.4131C194.347 80.4863 194.002 80.9782 193.824 81.0305C193.222 81.1299 192.613 81.1824 192.003 81.1874L190.099 81.2921L188.215 81.4072L187.336 81.4595C186.916 81.5172 186.49 81.5172 186.07 81.4595C185.787 81.334 185.997 80.9049 186.174 80.8317Z" fill="#455A64"/>
</svg>
