<svg width="56" height="56" viewBox="0 0 56 56" fill="none" xmlns="http://www.w3.org/2000/svg">
<path opacity="0.5" d="M7.88087 11.859C7 13.114 7 16.8445 7 24.3056V27.9799C7 41.1354 16.8909 47.5195 23.0966 50.2303C24.78 50.9657 25.6217 51.3334 28 51.3334C30.3783 51.3334 31.22 50.9657 32.9034 50.2303C39.1091 47.5195 49 41.1354 49 27.9799V24.3056C49 16.8445 49 13.114 48.1191 11.859C47.2383 10.6039 43.7306 9.40325 36.7152 7.00187L35.3786 6.54436C31.7217 5.29258 29.8932 4.66669 28 4.66669C26.1068 4.66669 24.2783 5.29258 20.6214 6.54436L19.2848 7.00187L19.2848 7.00187C12.2694 9.40325 8.76174 10.6039 7.88087 11.859Z" fill="#5E6DE2"/>
<path d="M25.343 19.5145L25.0372 20.0632C24.7012 20.6658 24.5333 20.9672 24.2714 21.166C24.0095 21.3648 23.6833 21.4386 23.0309 21.5862L22.437 21.7206C20.1413 22.24 18.9934 22.4997 18.7203 23.3779C18.4473 24.2561 19.2298 25.1712 20.7948 27.0013L21.1997 27.4748C21.6445 27.9948 21.8668 28.2549 21.9669 28.5766C22.0669 28.8983 22.0333 29.2452 21.9661 29.9391L21.9049 30.5708C21.6682 33.0126 21.5499 34.2335 22.2649 34.7762C22.9798 35.319 24.0546 34.8241 26.204 33.8344L26.7601 33.5784L26.7602 33.5784C27.371 33.2972 27.6764 33.1566 28.0001 33.1566C28.3238 33.1566 28.6292 33.2972 29.24 33.5784L29.7961 33.8345L29.7961 33.8345C31.9456 34.8241 33.0203 35.319 33.7353 34.7762C34.4502 34.2335 34.3319 33.0126 34.0953 30.5708L34.0341 29.9391L34.0341 29.939C33.9669 29.2452 33.9332 28.8982 34.0333 28.5766C34.1333 28.2549 34.3557 27.9948 34.8004 27.4748L35.2053 27.0013C36.7704 25.1712 37.5529 24.2561 37.2798 23.3779C37.0067 22.4997 35.8589 22.24 33.5632 21.7206L32.9693 21.5862C32.3169 21.4386 31.9907 21.3648 31.7288 21.166C31.4669 20.9672 31.2989 20.6658 30.963 20.0632L30.6571 19.5145L30.6571 19.5145C29.4749 17.3937 28.8838 16.3334 28.0001 16.3334C27.1163 16.3334 26.5252 17.3937 25.343 19.5145L25.343 19.5145Z" fill="#5E6DE2"/>
</svg>
