<svg width="56" height="56" viewBox="0 0 56 56" fill="none" xmlns="http://www.w3.org/2000/svg">
<path opacity="0.5" d="M22.382 7.46742C21.8138 7.95159 21.5297 8.19371 21.2263 8.39708C20.5307 8.86329 19.7496 9.18685 18.9281 9.34904C18.5697 9.41979 18.1976 9.44949 17.4534 9.50888L17.4533 9.50888C15.5835 9.6581 14.6485 9.73271 13.8685 10.0082C12.0644 10.6455 10.6453 12.0645 10.008 13.8687C9.73252 14.6487 9.65792 15.5836 9.5087 17.4535L9.5087 17.4535C9.44931 18.1978 9.41961 18.5699 9.34886 18.9283C9.18667 19.7498 8.8631 20.5309 8.39689 21.2265C8.19352 21.5299 7.9514 21.814 7.46717 22.3823L7.46714 22.3823C6.25045 23.81 5.64208 24.5239 5.28534 25.2703C4.46023 26.9966 4.46023 29.0035 5.28534 30.7298C5.64208 31.4761 6.25043 32.19 7.46712 33.6177L7.46714 33.6177L7.46726 33.6179C7.95137 34.186 8.19354 34.4701 8.39689 34.7735C8.8631 35.4691 9.18667 36.2503 9.34886 37.0718C9.41961 37.4302 9.44931 37.8023 9.5087 38.5465C9.65791 40.4164 9.73252 41.3513 10.008 42.1314C10.6453 43.9355 12.0644 45.3546 13.8685 45.9918C14.6485 46.2673 15.5834 46.3419 17.4532 46.4911L17.4534 46.4912C18.1976 46.5506 18.5697 46.5802 18.9281 46.651C19.7496 46.8132 20.5307 47.1368 21.2263 47.603C21.5298 47.8063 21.8139 48.0485 22.3821 48.5327C23.8098 49.7494 24.5237 50.3578 25.2701 50.7145C26.9964 51.5396 29.0033 51.5396 30.7296 50.7145C31.476 50.3578 32.1898 49.7494 33.6176 48.5327C34.1858 48.0485 34.4699 47.8063 34.7734 47.603C35.4689 47.1368 36.2501 46.8132 37.0716 46.651C37.43 46.5802 37.8021 46.5506 38.5463 46.4912L38.5465 46.4911C40.4163 46.3419 41.3512 46.2673 42.1312 45.9918C43.9353 45.3546 45.3544 43.9355 45.9916 42.1314C46.2671 41.3514 46.3417 40.4164 46.491 38.5466L46.491 38.5465C46.5504 37.8023 46.5801 37.4302 46.6508 37.0718C46.813 36.2503 47.1366 35.4691 47.6028 34.7735C47.8062 34.4701 48.0483 34.186 48.5325 33.6177C49.7492 32.19 50.3576 31.4761 50.7143 30.7298C51.5395 29.0035 51.5395 26.9966 50.7143 25.2703C50.3576 24.5239 49.7492 23.81 48.5325 22.3823C48.0483 21.8141 47.8062 21.5299 47.6028 21.2265C47.1366 20.5309 46.813 19.7498 46.6508 18.9283C46.5801 18.5699 46.5504 18.1978 46.491 17.4535L46.491 17.4534C46.3417 15.5836 46.2671 14.6487 45.9916 13.8687C45.3544 12.0645 43.9353 10.6455 42.1312 10.0082C41.3512 9.73271 40.4162 9.6581 38.5463 9.50888C37.8021 9.44949 37.43 9.41979 37.0716 9.34904C36.2501 9.18685 35.4689 8.86329 34.7734 8.39708C34.4699 8.1937 34.1858 7.95157 33.6176 7.46732L33.6175 7.4673C32.1898 6.25061 31.476 5.64226 30.7296 5.28552C29.0033 4.46041 26.9964 4.46041 25.2701 5.28552C24.5237 5.64226 23.8098 6.25063 22.3821 7.46732L22.382 7.46742Z" fill="#5E6DE2"/>
<path d="M38.2051 23.0136C38.9467 22.272 38.9467 21.0696 38.2051 20.328C37.4635 19.5864 36.2611 19.5864 35.5195 20.328L24.2023 31.6453L20.4811 27.9241C19.7395 27.1825 18.5371 27.1825 17.7955 27.9241C17.0539 28.6657 17.0539 29.8681 17.7955 30.6097L22.8595 35.6737C23.6011 36.4153 24.8035 36.4153 25.5451 35.6737L38.2051 23.0136Z" fill="#5E6DE2"/>
</svg>
