<svg width="56" height="56" viewBox="0 0 56 56" fill="none" xmlns="http://www.w3.org/2000/svg">
<g opacity="0.5">
<path fill-rule="evenodd" clip-rule="evenodd" d="M32.6667 51.3334H23.3334C14.5339 51.3334 10.1341 51.3334 7.40042 48.5997C4.66675 45.866 4.66675 41.4662 4.66675 32.6667V23.3334C4.66675 14.5338 4.66675 10.134 7.40042 7.40036C10.1341 4.66669 14.557 4.66669 23.4029 4.66669C24.8169 4.66669 25.95 4.66669 26.9034 4.70556C26.8721 4.89207 26.8556 5.08232 26.855 5.27467L26.8334 11.8883C26.8332 14.4482 26.833 16.7105 27.0782 18.5341C27.3439 20.5107 27.9541 22.487 29.5671 24.0999C31.1801 25.7129 33.1564 26.3231 35.133 26.5888C36.9565 26.834 39.2188 26.8338 41.7788 26.8336L42.0001 26.8336H51.234C51.3334 28.0802 51.3334 29.6102 51.3334 31.6468V32.6667C51.3334 41.4662 51.3334 45.866 48.5997 48.5997C45.8661 51.3334 41.4663 51.3334 32.6667 51.3334Z" fill="#5E6DE2"/>
</g>
<path d="M14 32.0834C13.0335 32.0834 12.25 32.8669 12.25 33.8334C12.25 34.7999 13.0335 35.5834 14 35.5834H32.6667C33.6332 35.5834 34.4167 34.7999 34.4167 33.8334C34.4167 32.8669 33.6332 32.0834 32.6667 32.0834H14Z" fill="#5E6DE2"/>
<path d="M14 40.25C13.0335 40.25 12.25 41.0335 12.25 42C12.25 42.9665 13.0335 43.75 14 43.75H26.8333C27.7998 43.75 28.5833 42.9665 28.5833 42C28.5833 41.0335 27.7998 40.25 26.8333 40.25H14Z" fill="#5E6DE2"/>
<path d="M26.8548 5.27358L26.8333 11.8872C26.8331 14.4471 26.8329 16.7094 27.0781 18.533C27.3438 20.5096 27.954 22.4859 29.5669 24.0988C31.1799 25.7118 33.1562 26.322 35.1328 26.5877C36.9563 26.8329 39.2186 26.8327 41.7785 26.8325L51.2339 26.8325C51.2628 27.1955 51.2833 27.5824 51.2979 27.9989H51.3333C51.3333 27.3748 51.3333 27.0627 51.3101 26.6953C51.1782 24.608 50.3105 22.2163 49.0734 20.5299C48.8556 20.2331 48.7067 20.0549 48.4089 19.6984C46.5596 17.4851 44.1256 14.7278 41.9999 12.8323C40.1079 11.1451 37.5168 9.2992 35.2569 7.78985C33.3154 6.49309 32.3446 5.84471 31.0135 5.36281C30.6606 5.23505 30.1951 5.09394 29.8307 5.00423C28.9347 4.78366 28.0625 4.70695 26.8333 4.68036L26.8548 5.27358Z" fill="#5E6DE2"/>
</svg>
