<svg width="56" height="56" viewBox="0 0 56 56" fill="none" xmlns="http://www.w3.org/2000/svg">
<path fill-rule="evenodd" clip-rule="evenodd" d="M41.9998 32.6667C41.9998 42.976 33.6425 51.3334 23.3332 51.3334C20.4503 51.3334 17.7201 50.6799 15.2826 49.5129C14.4448 49.1118 13.4957 48.971 12.5984 49.2111L9.73765 49.9765C7.48287 50.5798 5.42006 48.517 6.02336 46.2622L6.7888 43.4015C7.02888 42.5042 6.88806 41.555 6.48697 40.7173C5.32001 38.2798 4.6665 35.5495 4.6665 32.6667C4.6665 22.3574 13.0239 14 23.3332 14C33.6425 14 41.9998 22.3574 41.9998 32.6667ZM15.1665 35C16.4552 35 17.4998 33.9554 17.4998 32.6667C17.4998 31.378 16.4552 30.3334 15.1665 30.3334C13.8778 30.3334 12.8332 31.378 12.8332 32.6667C12.8332 33.9554 13.8778 35 15.1665 35ZM23.3332 35C24.6218 35 25.6665 33.9554 25.6665 32.6667C25.6665 31.378 24.6218 30.3334 23.3332 30.3334C22.0445 30.3334 20.9998 31.378 20.9998 32.6667C20.9998 33.9554 22.0445 35 23.3332 35ZM31.4998 35C32.7885 35 33.8332 33.9554 33.8332 32.6667C33.8332 31.378 32.7885 30.3334 31.4998 30.3334C30.2112 30.3334 29.1665 31.378 29.1665 32.6667C29.1665 33.9554 30.2112 35 31.4998 35Z" fill="#5E6DE2"/>
<path opacity="0.6" d="M41.9629 33.8531C42.2147 33.7488 42.463 33.6381 42.7078 33.5209C43.3885 33.195 44.1596 33.0806 44.8887 33.2757L47.213 33.8976C49.045 34.3878 50.7211 32.7117 50.2309 30.8797L49.609 28.5554C49.4139 27.8263 49.5283 27.0551 49.8542 26.3744C50.8024 24.394 51.3333 22.1757 51.3333 19.8334C51.3333 11.457 44.543 4.66669 36.1667 4.66669C29.8432 4.66669 24.4236 8.53652 22.147 14.0371C22.5393 14.0125 22.9348 14 23.3333 14C33.6427 14 42 22.3574 42 32.6667C42 33.0652 41.9875 33.4608 41.9629 33.8531Z" fill="#5E6DE2"/>
</svg>
