<svg width="1440" height="347" viewBox="0 0 1440 347" fill="none" xmlns="http://www.w3.org/2000/svg">
<g clip-path="url(#clip0_904_17494)">
<rect width="1440" height="347" fill="#F5F5F7"/>
<path d="M0 622.863V244.765L108.631 208.99L190.149 235.825V328.594L230.893 315.177V279.419L271.667 266.002V129.911L393.928 89.6751L448.274 107.554V149.333L502.619 131.454L556.964 149.333V226.818L611.28 244.663V170.35L665.625 152.471L733.571 174.828V264.221L801.488 241.881V98.8349L883.006 72L978.095 103.296V219.355L1018.84 232.772V279.759L1073.18 297.637V136.899L1141.1 114.542L1222.62 141.36V179.543L1263.36 192.944V296.094L1317.71 313.972V244.188L1399.23 217.37L1440 230.771V622.863H0Z" fill="#F0F0F0" fill-opacity="0.7"/>
<path d="M492.053 348.797L480.506 344.997V339.264L492.053 343.046V348.797Z" fill="white" fill-opacity="0.7"/>
<path d="M492.053 338.212L480.506 334.412V328.679L492.053 332.479V338.212Z" fill="white" fill-opacity="0.7"/>
<path d="M492.053 327.627L480.506 323.845V318.094L492.053 321.894V327.627Z" fill="white" fill-opacity="0.7"/>
<path d="M492.053 196.947L480.506 193.147V187.414L492.053 191.214V196.947Z" fill="white" fill-opacity="0.7"/>
<path d="M492.053 186.362L480.506 182.563V176.829L492.053 180.629V186.362Z" fill="white" fill-opacity="0.7"/>
<path d="M492.053 175.794L480.506 171.995V166.261L492.053 170.061V175.794Z" fill="white" fill-opacity="0.7"/>
<path d="M492.053 228.684L480.506 224.884V219.151L492.053 222.934V228.684Z" fill="white" fill-opacity="0.7"/>
<path d="M492.053 283.813L480.506 280.013V274.28L492.053 278.08V283.813Z" fill="white" fill-opacity="0.7"/>
<path d="M492.053 272.499L480.506 268.699V262.966L492.053 266.765V272.499Z" fill="white" fill-opacity="0.7"/>
<path d="M492.053 295.907L480.506 292.108V286.374L492.053 290.174V295.907Z" fill="white" fill-opacity="0.7"/>
<path d="M492.053 260.404L480.506 256.605V250.871L492.053 254.671V260.404Z" fill="white" fill-opacity="0.7"/>
<path d="M492.053 306.475L480.506 302.675V296.942L492.053 300.742V306.475Z" fill="white" fill-opacity="0.7"/>
<path d="M492.053 317.06L480.506 313.26V307.526L492.053 311.326V317.06Z" fill="white" fill-opacity="0.7"/>
<path d="M492.053 207.515L480.506 203.732V197.982L492.053 201.781V207.515Z" fill="white" fill-opacity="0.7"/>
<path d="M492.053 218.099L480.506 214.3V208.566L492.053 212.366V218.099Z" fill="white" fill-opacity="0.7"/>
<path d="M492.053 249.836L480.506 246.037V240.303L492.053 244.086V249.836Z" fill="white" fill-opacity="0.7"/>
<path d="M492.053 239.252L480.506 235.452V229.719L492.053 233.519V239.252Z" fill="white" fill-opacity="0.7"/>
<path d="M291.101 204.037L279.583 200.255V194.521L291.101 198.304V204.037Z" fill="white" fill-opacity="0.7"/>
<path d="M291.101 310.783L279.583 306.984V301.25L291.101 305.033V310.783Z" fill="white" fill-opacity="0.7"/>
<path d="M291.101 333.445L279.583 329.646V323.912L291.101 327.712V333.445Z" fill="white" fill-opacity="0.7"/>
<path d="M291.101 322.861L279.583 319.078V313.345L291.101 317.128V322.861Z" fill="white" fill-opacity="0.7"/>
<path d="M291.101 344.03L279.583 340.231V334.497L291.101 338.28V344.03Z" fill="white" fill-opacity="0.7"/>
<path d="M291.101 354.598L279.583 350.798V345.065L291.101 348.865V354.598Z" fill="white" fill-opacity="0.7"/>
<path d="M291.101 214.622L279.583 210.822V205.089L291.101 208.889V214.622Z" fill="white" fill-opacity="0.7"/>
<path d="M291.101 151.165L279.583 147.365V141.632L291.101 145.431V151.165Z" fill="white" fill-opacity="0.7"/>
<path d="M291.101 300.199L279.583 296.399V290.666L291.101 294.465V300.199Z" fill="white" fill-opacity="0.7"/>
<path d="M291.101 161.732L279.583 157.933V152.199L291.101 155.999V161.732Z" fill="white" fill-opacity="0.7"/>
<path d="M291.101 182.885L279.583 179.102V173.352L291.101 177.152V182.885Z" fill="white" fill-opacity="0.7"/>
<path d="M291.101 172.317L279.583 168.518V162.784L291.101 166.584V172.317Z" fill="white" fill-opacity="0.7"/>
<path d="M291.101 268.258L279.583 264.475V258.725L291.101 262.525V268.258Z" fill="white" fill-opacity="0.7"/>
<path d="M291.101 257.69L279.583 253.89V248.157L291.101 251.957V257.69Z" fill="white" fill-opacity="0.7"/>
<path d="M291.101 289.41L279.583 285.628V279.877L291.101 283.677V289.41Z" fill="white" fill-opacity="0.7"/>
<path d="M291.101 278.843L279.583 275.043V269.31L291.101 273.109V278.843Z" fill="white" fill-opacity="0.7"/>
<path d="M291.101 193.47L279.583 189.67V183.937L291.101 187.736V193.47Z" fill="white" fill-opacity="0.7"/>
<path d="M291.101 246.359L279.583 242.56V236.826L291.101 240.626V246.359Z" fill="white" fill-opacity="0.7"/>
<path d="M291.101 225.207L279.583 221.407V215.674L291.101 219.456V225.207Z" fill="white" fill-opacity="0.7"/>
<path d="M291.101 235.774L279.583 231.975V226.241L291.101 230.041V235.774Z" fill="white" fill-opacity="0.7"/>
<path d="M890.803 171.791L879.256 167.992V162.258L890.803 166.058V171.791Z" fill="white" fill-opacity="0.7"/>
<path d="M890.803 320.724L879.256 316.924V311.191L890.803 314.973V320.724Z" fill="white" fill-opacity="0.7"/>
<path d="M890.803 341.876L879.256 338.076V332.343L890.803 336.143V341.876Z" fill="white" fill-opacity="0.7"/>
<path d="M890.803 352.444L879.256 348.644V342.911L890.803 346.71V352.444Z" fill="white" fill-opacity="0.7"/>
<path d="M890.803 331.291L879.256 327.492V321.758L890.803 325.558V331.291Z" fill="white" fill-opacity="0.7"/>
<path d="M890.803 256.401L879.256 252.602V246.868L890.803 250.668V256.401Z" fill="white" fill-opacity="0.7"/>
<path d="M890.803 266.986L879.256 263.186V257.453L890.803 261.252V266.986Z" fill="white" fill-opacity="0.7"/>
<path d="M890.803 277.554L879.256 273.771V268.021L890.803 271.82V277.554Z" fill="white" fill-opacity="0.7"/>
<path d="M890.803 288.986L879.256 285.187V279.453L890.803 283.253V288.986Z" fill="white" fill-opacity="0.7"/>
<path d="M890.803 299.554L879.256 295.771V290.021L890.803 293.821V299.554Z" fill="white" fill-opacity="0.7"/>
<path d="M890.803 310.139L879.256 306.339V300.606L890.803 304.405V310.139Z" fill="white" fill-opacity="0.7"/>
<path d="M890.803 245.833L879.256 242.034V236.3L890.803 240.083V245.833Z" fill="white" fill-opacity="0.7"/>
<path d="M890.803 140.054L879.256 136.255V130.521L890.803 134.321V140.054Z" fill="white" fill-opacity="0.7"/>
<path d="M890.803 214.096L879.256 210.297V204.563L890.803 208.363V214.096Z" fill="white" fill-opacity="0.7"/>
<path d="M890.803 203.512L879.256 199.729V193.979L890.803 197.778V203.512Z" fill="white" fill-opacity="0.7"/>
<path d="M890.803 235.249L879.256 231.449V225.716L890.803 229.515V235.249Z" fill="white" fill-opacity="0.7"/>
<path d="M890.803 224.681L879.256 220.881V215.148L890.803 218.931V224.681Z" fill="white" fill-opacity="0.7"/>
<path d="M890.803 192.944L879.256 189.144V183.411L890.803 187.21V192.944Z" fill="white" fill-opacity="0.7"/>
<path d="M890.803 161.207L879.256 157.407V151.674L890.803 155.473V161.207Z" fill="white" fill-opacity="0.7"/>
<path d="M890.803 182.359L879.256 178.56V172.826L890.803 176.626V182.359Z" fill="white" fill-opacity="0.7"/>
<path d="M890.803 150.639L879.256 146.839V141.106L890.803 144.889V150.639Z" fill="white" fill-opacity="0.7"/>
<path d="M468.125 340.909L456.607 337.109V331.376L468.125 335.176V340.909Z" fill="white" fill-opacity="0.7"/>
<path d="M468.125 351.477L456.607 347.694V341.944L468.125 345.743V351.477Z" fill="white" fill-opacity="0.7"/>
<path d="M468.125 309.172L456.607 305.373V299.639L468.125 303.439V309.172Z" fill="white" fill-opacity="0.7"/>
<path d="M468.125 298.604L456.607 294.805V289.071L468.125 292.854V298.604Z" fill="white" fill-opacity="0.7"/>
<path d="M468.125 288.02L456.607 284.22V278.487L468.125 282.286V288.02Z" fill="white" fill-opacity="0.7"/>
<path d="M468.125 319.757L456.607 315.957V310.224L468.125 314.023V319.757Z" fill="white" fill-opacity="0.7"/>
<path d="M468.125 330.324L456.607 326.525V320.791L468.125 324.591V330.324Z" fill="white" fill-opacity="0.7"/>
<path d="M468.125 275.925L456.607 272.126V266.392L468.125 270.192V275.925Z" fill="white" fill-opacity="0.7"/>
<path d="M468.125 231.364L456.607 227.582V221.831L468.125 225.631V231.364Z" fill="white" fill-opacity="0.7"/>
<path d="M468.125 241.949L456.607 238.149V232.416L468.125 236.216V241.949Z" fill="white" fill-opacity="0.7"/>
<path d="M468.125 252.517L456.607 248.734V243.001L468.125 246.783V252.517Z" fill="white" fill-opacity="0.7"/>
<path d="M468.125 264.611L456.607 260.812V255.078L468.125 258.878V264.611Z" fill="white" fill-opacity="0.7"/>
<path d="M468.125 220.796L456.607 216.997V211.263L468.125 215.063V220.796Z" fill="white" fill-opacity="0.7"/>
<path d="M468.125 178.491L456.607 174.692V168.941L468.125 172.741V178.491Z" fill="white" fill-opacity="0.7"/>
<path d="M468.125 189.059L456.607 185.26V179.526L468.125 183.326V189.059Z" fill="white" fill-opacity="0.7"/>
<path d="M468.125 167.907L456.607 164.107V158.374L468.125 162.173V167.907Z" fill="white" fill-opacity="0.7"/>
<path d="M468.125 210.212L456.607 206.412V200.679L468.125 204.478V210.212Z" fill="white" fill-opacity="0.7"/>
<path d="M468.125 199.644L456.607 195.844V190.111L468.125 193.911V199.644Z" fill="white" fill-opacity="0.7"/>
<path d="M46.0413 281.184L34.4937 277.384V271.651L46.0413 275.45V281.184Z" fill="white" fill-opacity="0.7"/>
<path d="M46.0413 291.751L34.4937 287.952V282.218L46.0413 286.018V291.751Z" fill="white" fill-opacity="0.7"/>
<path d="M46.0413 270.565L34.4937 266.765V261.032L46.0413 264.831V270.565Z" fill="white" fill-opacity="0.7"/>
<path d="M46.0413 302.692L34.4937 298.91V293.159L46.0413 296.959V302.692Z" fill="white" fill-opacity="0.7"/>
<path d="M46.0413 355.582L34.4937 351.782V346.049L46.0413 349.848V355.582Z" fill="white" fill-opacity="0.7"/>
<path d="M46.0413 313.277L34.4937 309.477V303.744L46.0413 307.543V313.277Z" fill="white" fill-opacity="0.7"/>
<path d="M46.0413 323.845L34.4937 320.062V314.312L46.0413 318.111V323.845Z" fill="white" fill-opacity="0.7"/>
<path d="M46.0413 334.429L34.4937 330.63V324.896L46.0413 328.696V334.429Z" fill="white" fill-opacity="0.7"/>
<path d="M46.0413 345.014L34.4937 341.214V335.481L46.0413 339.264V345.014Z" fill="white" fill-opacity="0.7"/>
<path d="M69.9407 310.58L58.4229 306.78V301.047L69.9407 304.847V310.58Z" fill="white" fill-opacity="0.7"/>
<path d="M69.9407 299.639L58.4229 295.839V290.106L69.9407 293.906V299.639Z" fill="white" fill-opacity="0.7"/>
<path d="M69.9407 331.732L58.4229 327.933V322.199L69.9407 325.999V331.732Z" fill="white" fill-opacity="0.7"/>
<path d="M69.9407 342.317L58.4229 338.517V332.784L69.9407 336.584V342.317Z" fill="white" fill-opacity="0.7"/>
<path d="M69.9407 278.436L58.4229 274.653V268.903L69.9407 272.702V278.436Z" fill="white" fill-opacity="0.7"/>
<path d="M69.9407 352.885L58.4229 349.085V343.352L69.9407 347.151V352.885Z" fill="white" fill-opacity="0.7"/>
<path d="M69.9407 289.071L58.4229 285.272V279.521L69.9407 283.321V289.071Z" fill="white" fill-opacity="0.7"/>
<path d="M69.9407 321.165L58.4229 317.365V311.632L69.9407 315.414V321.165Z" fill="white" fill-opacity="0.7"/>
<path d="M315.03 308.086L303.512 304.287V298.553L315.03 302.353V308.086Z" fill="white" fill-opacity="0.7"/>
<path d="M315.03 330.749L303.512 326.949V321.216L315.03 325.015V330.749Z" fill="white" fill-opacity="0.7"/>
<path d="M315.03 318.654L303.512 314.871V309.121L315.03 312.921V318.654Z" fill="white" fill-opacity="0.7"/>
<path d="M315.03 341.333L303.512 337.534V331.8L315.03 335.6V341.333Z" fill="white" fill-opacity="0.7"/>
<path d="M315.03 351.901L303.512 348.118V342.368L315.03 346.167V351.901Z" fill="white" fill-opacity="0.7"/>
<path d="M315.03 169.62L303.512 165.821V160.087L315.03 163.887V169.62Z" fill="white" fill-opacity="0.7"/>
<path d="M315.03 180.188L303.512 176.405V170.672L315.03 174.454V180.188Z" fill="white" fill-opacity="0.7"/>
<path d="M315.03 297.298L303.512 293.498V287.765L315.03 291.565V297.298Z" fill="white" fill-opacity="0.7"/>
<path d="M315.03 265.561L303.512 261.778V256.045L315.03 259.828V265.561Z" fill="white" fill-opacity="0.7"/>
<path d="M315.03 254.23L303.512 250.447V244.697L315.03 248.496V254.23Z" fill="white" fill-opacity="0.7"/>
<path d="M315.03 276.145L303.512 272.346V266.612L315.03 270.412V276.145Z" fill="white" fill-opacity="0.7"/>
<path d="M315.03 243.662L303.512 239.863V234.129L315.03 237.929V243.662Z" fill="white" fill-opacity="0.7"/>
<path d="M315.03 286.73L303.512 282.931V277.197L315.03 280.98V286.73Z" fill="white" fill-opacity="0.7"/>
<path d="M315.03 201.357L303.512 197.558V191.824L315.03 195.607V201.357Z" fill="white" fill-opacity="0.7"/>
<path d="M315.03 190.773L303.512 186.973V181.24L315.03 185.039V190.773Z" fill="white" fill-opacity="0.7"/>
<path d="M315.03 211.925L303.512 208.125V202.392L315.03 206.192V211.925Z" fill="white" fill-opacity="0.7"/>
<path d="M315.03 222.51L303.512 218.71V212.977L315.03 216.776V222.51Z" fill="white" fill-opacity="0.7"/>
<path d="M315.03 233.077L303.512 229.295V223.544L315.03 227.344V233.077Z" fill="white" fill-opacity="0.7"/>
<path d="M315.03 159.035L303.512 155.236V149.502L315.03 153.302V159.035Z" fill="white" fill-opacity="0.7"/>
<path d="M22.1135 326.542L10.5659 322.759V317.009L22.1135 320.808V326.542Z" fill="white" fill-opacity="0.7"/>
<path d="M22.1135 315.974L10.5659 312.174V306.441L22.1135 310.224V315.974Z" fill="white" fill-opacity="0.7"/>
<path d="M22.1135 305.389L10.5659 301.59V295.856L22.1135 299.656V305.389Z" fill="white" fill-opacity="0.7"/>
<path d="M22.1135 337.126L10.5659 333.327V327.593L22.1135 331.393V337.126Z" fill="white" fill-opacity="0.7"/>
<path d="M22.1135 347.694L10.5659 343.911V338.161L22.1135 341.961V347.694Z" fill="white" fill-opacity="0.7"/>
<path d="M22.1135 262.677L10.5659 258.878V253.144L22.1135 256.944V262.677Z" fill="white" fill-opacity="0.7"/>
<path d="M22.1135 294.821L10.5659 291.022V285.288L22.1135 289.071V294.821Z" fill="white" fill-opacity="0.7"/>
<path d="M22.1135 273.296L10.5659 269.496V263.763L22.1135 267.563V273.296Z" fill="white" fill-opacity="0.7"/>
<path d="M22.1135 283.881L10.5659 280.081V274.348L22.1135 278.13V283.881Z" fill="white" fill-opacity="0.7"/>
<path d="M1093.84 201.714L1082.29 197.914V192.181L1093.84 195.98V201.714Z" fill="white" fill-opacity="0.7"/>
<path d="M1093.84 212.298L1082.29 208.499V202.765L1093.84 206.565V212.298Z" fill="white" fill-opacity="0.7"/>
<path d="M1093.84 191.146L1082.29 187.346V181.613L1093.84 185.413V191.146Z" fill="white" fill-opacity="0.7"/>
<path d="M1093.84 222.866L1082.29 219.066V213.333L1093.84 217.133V222.866Z" fill="white" fill-opacity="0.7"/>
<path d="M1093.84 233.45L1082.29 229.651V223.917L1093.84 227.717V233.45Z" fill="white" fill-opacity="0.7"/>
<path d="M1093.84 244.035L1082.29 240.236V234.502L1093.84 238.285V244.035Z" fill="white" fill-opacity="0.7"/>
<path d="M1093.84 169.977L1082.29 166.194V160.46L1093.84 164.243V169.977Z" fill="white" fill-opacity="0.7"/>
<path d="M1093.84 180.561L1082.29 176.761V171.028L1093.84 174.828V180.561Z" fill="white" fill-opacity="0.7"/>
<path d="M1093.84 328.645L1082.29 324.845V319.112L1093.84 322.912V328.645Z" fill="white" fill-opacity="0.7"/>
<path d="M1093.84 254.603L1082.29 250.803V245.07L1093.84 248.87V254.603Z" fill="white" fill-opacity="0.7"/>
<path d="M1093.84 339.23L1082.29 335.43V329.697L1093.84 333.479V339.23Z" fill="white" fill-opacity="0.7"/>
<path d="M1093.84 349.797L1082.29 345.998V340.264L1093.84 344.064V349.797Z" fill="white" fill-opacity="0.7"/>
<path d="M1093.84 307.493L1082.29 303.693V297.96L1093.84 301.759V307.493Z" fill="white" fill-opacity="0.7"/>
<path d="M1093.84 318.06L1082.29 314.278V308.527L1093.84 312.327V318.06Z" fill="white" fill-opacity="0.7"/>
<path d="M1093.84 265.188L1082.29 261.388V255.655L1093.84 259.437V265.188Z" fill="white" fill-opacity="0.7"/>
<path d="M1093.84 275.755L1082.29 271.956V266.222L1093.84 270.022V275.755Z" fill="white" fill-opacity="0.7"/>
<path d="M1093.84 296.908L1082.29 293.108V287.375L1093.84 291.175V296.908Z" fill="white" fill-opacity="0.7"/>
<path d="M1093.84 286.34L1082.29 282.541V276.807L1093.84 280.607V286.34Z" fill="white" fill-opacity="0.7"/>
<path d="M1428.87 340.96L1417.32 344.76V339.009L1428.87 335.227V340.96Z" fill="white" fill-opacity="0.7"/>
<path d="M1428.87 319.808L1417.32 323.607V317.857L1428.87 314.074V319.808Z" fill="white" fill-opacity="0.7"/>
<path d="M1428.87 351.528L1417.32 355.327V349.594L1428.87 345.794V351.528Z" fill="white" fill-opacity="0.7"/>
<path d="M1428.87 330.375L1417.32 334.175V328.442L1428.87 324.642V330.375Z" fill="white" fill-opacity="0.7"/>
<path d="M1428.87 309.223L1417.32 313.022V307.289L1428.87 303.489V309.223Z" fill="white" fill-opacity="0.7"/>
<path d="M1117.77 273.058L1106.22 269.276V263.525L1117.77 267.325V273.058Z" fill="white" fill-opacity="0.7"/>
<path d="M1117.77 262.491L1106.22 258.691V252.958L1117.77 256.757V262.491Z" fill="white" fill-opacity="0.7"/>
<path d="M1117.77 283.643L1106.22 279.843V274.11L1117.77 277.91V283.643Z" fill="white" fill-opacity="0.7"/>
<path d="M1117.77 294.211L1106.22 290.428V284.678L1117.77 288.478V294.211Z" fill="white" fill-opacity="0.7"/>
<path d="M1117.77 304.796L1106.22 300.996V295.263L1117.77 299.062V304.796Z" fill="white" fill-opacity="0.7"/>
<path d="M1117.77 209.601L1106.22 205.801V200.068L1117.77 203.868V209.601Z" fill="white" fill-opacity="0.7"/>
<path d="M1117.77 251.906L1106.22 248.106V242.373L1117.77 246.173V251.906Z" fill="white" fill-opacity="0.7"/>
<path d="M1117.77 315.38L1106.22 311.581V305.847L1117.77 309.63V315.38Z" fill="white" fill-opacity="0.7"/>
<path d="M1117.77 241.338L1106.22 237.539V231.805L1117.77 235.605V241.338Z" fill="white" fill-opacity="0.7"/>
<path d="M1117.77 230.754L1106.22 226.954V221.221L1117.77 225.02V230.754Z" fill="white" fill-opacity="0.7"/>
<path d="M1117.77 199.016L1106.22 195.234V189.483L1117.77 193.283V199.016Z" fill="white" fill-opacity="0.7"/>
<path d="M1117.77 336.533L1106.22 332.733V327L1117.77 330.799V336.533Z" fill="white" fill-opacity="0.7"/>
<path d="M1117.77 325.948L1106.22 322.148V316.415L1117.77 320.215V325.948Z" fill="white" fill-opacity="0.7"/>
<path d="M1117.77 347.101L1106.22 343.301V337.568L1117.77 341.367V347.101Z" fill="white" fill-opacity="0.7"/>
<path d="M1117.77 220.186L1106.22 216.386V210.636L1117.77 214.435V220.186Z" fill="white" fill-opacity="0.7"/>
<path d="M1117.77 188.449L1106.22 184.649V178.916L1117.77 182.715V188.449Z" fill="white" fill-opacity="0.7"/>
<path d="M1117.77 177.864L1106.22 174.064V168.331L1117.77 172.13V177.864Z" fill="white" fill-opacity="0.7"/>
<path d="M1381.01 271.26L1369.49 275.06V269.31L1381.01 265.527V271.26Z" fill="white" fill-opacity="0.7"/>
<path d="M1381.01 260.676L1369.49 264.475V258.742L1381.01 254.942V260.676Z" fill="white" fill-opacity="0.7"/>
<path d="M1381.01 346.15L1369.49 349.933V344.2L1381.01 340.417V346.15Z" fill="white" fill-opacity="0.7"/>
<path d="M1381.01 335.566L1369.49 339.365V333.632L1381.01 329.832V335.566Z" fill="white" fill-opacity="0.7"/>
<path d="M1381.01 314.413L1369.49 318.213V312.48L1381.01 308.68V314.413Z" fill="white" fill-opacity="0.7"/>
<path d="M1381.01 292.413L1369.49 296.212V290.479L1381.01 286.679V292.413Z" fill="white" fill-opacity="0.7"/>
<path d="M1381.01 303.829L1369.49 307.628V301.895L1381.01 298.095V303.829Z" fill="white" fill-opacity="0.7"/>
<path d="M1381.01 281.828L1369.49 285.628V279.894L1381.01 276.095V281.828Z" fill="white" fill-opacity="0.7"/>
<path d="M1381.01 324.998L1369.49 328.781V323.047L1381.01 319.248V324.998Z" fill="white" fill-opacity="0.7"/>
<path d="M1428.87 266.07L1417.32 269.869V264.136L1428.87 260.336V266.07Z" fill="white" fill-opacity="0.7"/>
<path d="M1428.87 255.485L1417.32 259.285V253.552L1428.87 249.752V255.485Z" fill="white" fill-opacity="0.7"/>
<path d="M1428.87 276.654L1417.32 280.437V274.704L1428.87 270.904V276.654Z" fill="white" fill-opacity="0.7"/>
<path d="M1428.87 288.07L1417.32 291.87V286.137L1428.87 282.337V288.07Z" fill="white" fill-opacity="0.7"/>
<path d="M1428.87 244.917L1417.32 248.717V242.967L1428.87 239.184V244.917Z" fill="white" fill-opacity="0.7"/>
<path d="M1404.94 317.11L1393.39 320.91V315.16L1404.94 311.377V317.11Z" fill="white" fill-opacity="0.7"/>
<path d="M1404.94 306.526L1393.39 310.325V304.592L1404.94 300.792V306.526Z" fill="white" fill-opacity="0.7"/>
<path d="M1404.94 327.678L1393.39 331.478V325.744L1404.94 321.945V327.678Z" fill="white" fill-opacity="0.7"/>
<path d="M1404.94 338.263L1393.39 342.063V336.329L1404.94 332.53V338.263Z" fill="white" fill-opacity="0.7"/>
<path d="M1404.94 295.958L1393.39 299.758V294.007L1404.94 290.225V295.958Z" fill="white" fill-opacity="0.7"/>
<path d="M1404.94 348.848L1393.39 352.63V346.897L1404.94 343.097V348.848Z" fill="white" fill-opacity="0.7"/>
<path d="M1404.94 284.525L1393.39 288.325V282.591L1404.94 278.792V284.525Z" fill="white" fill-opacity="0.7"/>
<path d="M1404.94 252.805L1393.39 256.588V250.854L1404.94 247.055V252.805Z" fill="white" fill-opacity="0.7"/>
<path d="M1404.94 273.957L1393.39 277.74V272.007L1404.94 268.224V273.957Z" fill="white" fill-opacity="0.7"/>
<path d="M1404.94 263.373L1393.39 267.172V261.439L1404.94 257.639V263.373Z" fill="white" fill-opacity="0.7"/>
<path d="M1428.87 298.655L1417.32 302.438V296.704L1428.87 292.905V298.655Z" fill="white" fill-opacity="0.7"/>
<path d="M842.947 326.101L831.429 322.301V316.568L842.947 320.367V326.101Z" fill="white" fill-opacity="0.7"/>
<path d="M842.947 336.685L831.429 332.886V327.152L842.947 330.952V336.685Z" fill="white" fill-opacity="0.7"/>
<path d="M842.947 347.253L831.429 343.47V337.72L842.947 341.52V347.253Z" fill="white" fill-opacity="0.7"/>
<path d="M842.947 283.796L831.429 279.996V274.263L842.947 278.062V283.796Z" fill="white" fill-opacity="0.7"/>
<path d="M842.947 273.211L831.429 269.428V263.678L842.947 267.478V273.211Z" fill="white" fill-opacity="0.7"/>
<path d="M842.947 304.948L831.429 301.149V295.415L842.947 299.215V304.948Z" fill="white" fill-opacity="0.7"/>
<path d="M842.947 294.381L831.429 290.581V284.848L842.947 288.63V294.381Z" fill="white" fill-opacity="0.7"/>
<path d="M842.947 315.533L831.429 311.733V306L842.947 309.783V315.533Z" fill="white" fill-opacity="0.7"/>
<path d="M842.947 261.795L831.429 257.995V252.262L842.947 256.062V261.795Z" fill="white" fill-opacity="0.7"/>
<path d="M842.947 124.279L831.429 120.496V114.763L842.947 118.546V124.279Z" fill="white" fill-opacity="0.7"/>
<path d="M842.947 134.864L831.429 131.064V125.331L842.947 129.13V134.864Z" fill="white" fill-opacity="0.7"/>
<path d="M842.947 251.211L831.429 247.428V241.678L842.947 245.477V251.211Z" fill="white" fill-opacity="0.7"/>
<path d="M842.947 145.448L831.429 141.649V135.915L842.947 139.715V145.448Z" fill="white" fill-opacity="0.7"/>
<path d="M842.947 198.338L831.429 194.538V188.805L842.947 192.588V198.338Z" fill="white" fill-opacity="0.7"/>
<path d="M842.947 208.906L831.429 205.106V199.373L842.947 203.172V208.906Z" fill="white" fill-opacity="0.7"/>
<path d="M842.947 240.643L831.429 236.843V231.11L842.947 234.909V240.643Z" fill="white" fill-opacity="0.7"/>
<path d="M842.947 230.058L831.429 226.259V220.525L842.947 224.325V230.058Z" fill="white" fill-opacity="0.7"/>
<path d="M842.947 219.491L831.429 215.691V209.958L842.947 213.74V219.491Z" fill="white" fill-opacity="0.7"/>
<path d="M842.947 166.601L831.429 162.801V157.068L842.947 160.867V166.601Z" fill="white" fill-opacity="0.7"/>
<path d="M842.947 187.753L831.429 183.953V178.22L842.947 182.02V187.753Z" fill="white" fill-opacity="0.7"/>
<path d="M842.947 156.016L831.429 152.217V146.483L842.947 150.283V156.016Z" fill="white" fill-opacity="0.7"/>
<path d="M842.947 177.168L831.429 173.369V167.635L842.947 171.435V177.168Z" fill="white" fill-opacity="0.7"/>
<path d="M866.875 333.988L855.327 330.189V324.455L866.875 328.255V333.988Z" fill="white" fill-opacity="0.7"/>
<path d="M866.875 323.404L855.327 319.621V313.871L866.875 317.67V323.404Z" fill="white" fill-opacity="0.7"/>
<path d="M866.875 355.141L855.327 351.341V345.608L866.875 349.407V355.141Z" fill="white" fill-opacity="0.7"/>
<path d="M866.875 312.836L855.327 309.036V303.303L866.875 307.102V312.836Z" fill="white" fill-opacity="0.7"/>
<path d="M866.875 281.099L855.327 277.299V271.566L866.875 275.365V281.099Z" fill="white" fill-opacity="0.7"/>
<path d="M866.875 291.683L855.327 287.884V282.15L866.875 285.933V291.683Z" fill="white" fill-opacity="0.7"/>
<path d="M866.875 302.251L855.327 298.451V292.718L866.875 296.518V302.251Z" fill="white" fill-opacity="0.7"/>
<path d="M866.875 344.573L855.327 340.774V335.04L866.875 338.823V344.573Z" fill="white" fill-opacity="0.7"/>
<path d="M866.875 142.751L855.327 138.952V133.218L866.875 137.018V142.751Z" fill="white" fill-opacity="0.7"/>
<path d="M866.875 132.167L855.327 128.367V122.634L866.875 126.433V132.167Z" fill="white" fill-opacity="0.7"/>
<path d="M866.875 206.209L855.327 202.409V196.676L866.875 200.475V206.209Z" fill="white" fill-opacity="0.7"/>
<path d="M866.875 216.793L855.327 212.994V207.26L866.875 211.06V216.793Z" fill="white" fill-opacity="0.7"/>
<path d="M866.875 227.361L855.327 223.578V217.828L866.875 221.628V227.361Z" fill="white" fill-opacity="0.7"/>
<path d="M866.875 259.098L855.327 255.299V249.565L866.875 253.365V259.098Z" fill="white" fill-opacity="0.7"/>
<path d="M866.875 248.513L855.327 244.731V238.997L866.875 242.78V248.513Z" fill="white" fill-opacity="0.7"/>
<path d="M866.875 237.946L855.327 234.146V228.413L866.875 232.212V237.946Z" fill="white" fill-opacity="0.7"/>
<path d="M866.875 195.641L855.327 191.841V186.108L866.875 189.908V195.641Z" fill="white" fill-opacity="0.7"/>
<path d="M866.875 163.904L855.327 160.104V154.371L866.875 158.17V163.904Z" fill="white" fill-opacity="0.7"/>
<path d="M866.875 174.488L855.327 170.689V164.938L866.875 168.738V174.488Z" fill="white" fill-opacity="0.7"/>
<path d="M866.875 153.319L855.327 149.519V143.786L866.875 147.586V153.319Z" fill="white" fill-opacity="0.7"/>
<path d="M866.875 185.056L855.327 181.256V175.523L866.875 179.323V185.056Z" fill="white" fill-opacity="0.7"/>
<path d="M866.875 269.683L855.327 265.883V260.15L866.875 263.933V269.683Z" fill="white" fill-opacity="0.7"/>
<path d="M1141.7 323.251L1130.15 319.451V313.718L1141.7 317.518V323.251Z" fill="white" fill-opacity="0.7"/>
<path d="M1141.7 333.836L1130.15 330.036V324.303L1141.7 328.102V333.836Z" fill="white" fill-opacity="0.7"/>
<path d="M1141.7 344.403L1130.15 340.621V334.87L1141.7 338.67V344.403Z" fill="white" fill-opacity="0.7"/>
<path d="M1141.7 354.988L1130.15 351.188V345.455L1141.7 349.255V354.988Z" fill="white" fill-opacity="0.7"/>
<path d="M1141.7 270.361L1130.15 266.579V260.845L1141.7 264.628V270.361Z" fill="white" fill-opacity="0.7"/>
<path d="M1141.7 280.946L1130.15 277.146V271.413L1141.7 275.213V280.946Z" fill="white" fill-opacity="0.7"/>
<path d="M1141.7 312.683L1130.15 308.884V303.15L1141.7 306.95V312.683Z" fill="white" fill-opacity="0.7"/>
<path d="M1141.7 291.531L1130.15 287.731V281.998L1141.7 285.78V291.531Z" fill="white" fill-opacity="0.7"/>
<path d="M1141.7 259.794L1130.15 255.994V250.26L1141.7 254.06V259.794Z" fill="white" fill-opacity="0.7"/>
<path d="M1141.7 249.209L1130.15 245.426V239.676L1141.7 243.476V249.209Z" fill="white" fill-opacity="0.7"/>
<path d="M1141.7 206.904L1130.15 203.104V197.371L1141.7 201.171V206.904Z" fill="white" fill-opacity="0.7"/>
<path d="M1141.7 217.489L1130.15 213.689V207.956L1141.7 211.755V217.489Z" fill="white" fill-opacity="0.7"/>
<path d="M1141.7 228.057L1130.15 224.257V218.524L1141.7 222.323V228.057Z" fill="white" fill-opacity="0.7"/>
<path d="M1141.7 238.641L1130.15 234.842V229.108L1141.7 232.908V238.641Z" fill="white" fill-opacity="0.7"/>
<path d="M1141.7 196.319L1130.15 192.537V186.803L1141.7 190.586V196.319Z" fill="white" fill-opacity="0.7"/>
<path d="M1141.7 185.752L1130.15 181.952V176.219L1141.7 180.018V185.752Z" fill="white" fill-opacity="0.7"/>
<path d="M1093.84 159.544L1082.29 155.745V150.011L1093.84 153.811V159.544Z" fill="white" fill-opacity="0.7"/>
<path d="M1117.77 167.415L1106.22 163.632V157.882L1117.77 161.682V167.415Z" fill="white" fill-opacity="0.7"/>
<path d="M1141.7 175.303L1130.15 171.503V165.77L1141.7 169.569V175.303Z" fill="white" fill-opacity="0.7"/>
<path d="M1141.7 302.098L1130.15 298.299V292.565L1141.7 296.365V302.098Z" fill="white" fill-opacity="0.7"/>
<path d="M819.018 339.382L807.5 335.583V329.849L819.018 333.649V339.382Z" fill="white" fill-opacity="0.7"/>
<path d="M819.018 318.213L807.5 314.43V308.697L819.018 312.48V318.213Z" fill="white" fill-opacity="0.7"/>
<path d="M819.018 328.798L807.5 324.998V319.265L819.018 323.064V328.798Z" fill="white" fill-opacity="0.7"/>
<path d="M819.018 265.34L807.5 261.541V255.807L819.018 259.59V265.34Z" fill="white" fill-opacity="0.7"/>
<path d="M819.018 349.95L807.5 346.15V340.417L819.018 344.217V349.95Z" fill="white" fill-opacity="0.7"/>
<path d="M819.018 275.908L807.5 272.108V266.375L819.018 270.175V275.908Z" fill="white" fill-opacity="0.7"/>
<path d="M819.018 307.645L807.5 303.846V298.112L819.018 301.912V307.645Z" fill="white" fill-opacity="0.7"/>
<path d="M819.018 286.493L807.5 282.693V276.96L819.018 280.759V286.493Z" fill="white" fill-opacity="0.7"/>
<path d="M819.018 297.061L807.5 293.278V287.528L819.018 291.327V297.061Z" fill="white" fill-opacity="0.7"/>
<path d="M819.018 253.908L807.5 250.108V244.375L819.018 248.174V253.908Z" fill="white" fill-opacity="0.7"/>
<path d="M819.018 137.56L807.5 133.761V128.027L819.018 131.827V137.56Z" fill="white" fill-opacity="0.7"/>
<path d="M819.018 126.976L807.5 123.193V117.443L819.018 121.243V126.976Z" fill="white" fill-opacity="0.7"/>
<path d="M819.018 116.408L807.5 112.609V106.875L819.018 110.675V116.408Z" fill="white" fill-opacity="0.7"/>
<path d="M819.018 222.17L807.5 218.388V212.654L819.018 216.437V222.17Z" fill="white" fill-opacity="0.7"/>
<path d="M819.018 201.018L807.5 197.218V191.485L819.018 195.285V201.018Z" fill="white" fill-opacity="0.7"/>
<path d="M819.018 211.603L807.5 207.803V202.07L819.018 205.869V211.603Z" fill="white" fill-opacity="0.7"/>
<path d="M819.018 232.755L807.5 228.956V223.222L819.018 227.022V232.755Z" fill="white" fill-opacity="0.7"/>
<path d="M819.018 243.34L807.5 239.54V233.807L819.018 237.59V243.34Z" fill="white" fill-opacity="0.7"/>
<path d="M819.018 158.713L807.5 154.913V149.18L819.018 152.98V158.713Z" fill="white" fill-opacity="0.7"/>
<path d="M819.018 148.145L807.5 144.346V138.595L819.018 142.395V148.145Z" fill="white" fill-opacity="0.7"/>
<path d="M819.018 169.298L807.5 165.498V159.765L819.018 163.564V169.298Z" fill="white" fill-opacity="0.7"/>
<path d="M819.018 179.866L807.5 176.066V170.333L819.018 174.132V179.866Z" fill="white" fill-opacity="0.7"/>
<path d="M819.018 190.45L807.5 186.651V180.917L819.018 184.717V190.45Z" fill="white" fill-opacity="0.7"/>
<path d="M401.28 222.001L389.762 225.8V220.067L401.28 216.267V222.001Z" fill="#E6E6E6" fill-opacity="0.7"/>
<path d="M401.28 211.416L389.762 215.216V209.482L401.28 205.683V211.416Z" fill="#E6E6E6" fill-opacity="0.7"/>
<path d="M401.28 232.586L389.762 236.368V230.635L401.28 226.835V232.586Z" fill="#E6E6E6" fill-opacity="0.7"/>
<path d="M401.28 244.239L389.762 248.039V242.305L401.28 238.505V244.239Z" fill="#E6E6E6" fill-opacity="0.7"/>
<path d="M401.28 254.823L389.762 258.623V252.89L401.28 249.09V254.823Z" fill="#E6E6E6" fill-opacity="0.7"/>
<path d="M401.28 179.153L389.762 182.953V177.219L401.28 173.42V179.153Z" fill="#E6E6E6" fill-opacity="0.7"/>
<path d="M401.28 158.001L389.762 161.8V156.067L401.28 152.267V158.001Z" fill="#E6E6E6" fill-opacity="0.7"/>
<path d="M401.28 168.585L389.762 172.368V166.635L401.28 162.852V168.585Z" fill="#E6E6E6" fill-opacity="0.7"/>
<path d="M401.28 265.408L389.762 269.191V263.458L401.28 259.658V265.408Z" fill="#E6E6E6" fill-opacity="0.7"/>
<path d="M401.28 189.738L389.762 193.538V187.787L401.28 184.005V189.738Z" fill="#E6E6E6" fill-opacity="0.7"/>
<path d="M401.28 329.714L389.762 333.514V327.763L401.28 323.981V329.714Z" fill="#E6E6E6" fill-opacity="0.7"/>
<path d="M401.28 340.281L389.762 344.081V338.348L401.28 334.548V340.281Z" fill="#E6E6E6" fill-opacity="0.7"/>
<path d="M401.28 275.976L389.762 279.776V274.042L401.28 270.243V275.976Z" fill="#E6E6E6" fill-opacity="0.7"/>
<path d="M401.28 147.433L389.762 151.216V145.482L401.28 141.683V147.433Z" fill="#E6E6E6" fill-opacity="0.7"/>
<path d="M401.28 286.561L389.762 290.343V284.61L401.28 280.81V286.561Z" fill="#E6E6E6" fill-opacity="0.7"/>
<path d="M401.28 297.128L389.762 300.928V295.195L401.28 291.395V297.128Z" fill="#E6E6E6" fill-opacity="0.7"/>
<path d="M401.28 308.561L389.762 312.361V306.611L401.28 302.828V308.561Z" fill="#E6E6E6" fill-opacity="0.7"/>
<path d="M401.28 319.129L389.762 322.929V317.195L401.28 313.396V319.129Z" fill="#E6E6E6" fill-opacity="0.7"/>
<path d="M401.28 200.747L389.762 204.529V198.796L401.28 194.996V200.747Z" fill="#E6E6E6" fill-opacity="0.7"/>
<path d="M401.28 136.848L389.762 140.648V134.915L401.28 131.115V136.848Z" fill="#E6E6E6" fill-opacity="0.7"/>
<path d="M401.28 350.866L389.762 354.666V348.933L401.28 345.133V350.866Z" fill="#E6E6E6" fill-opacity="0.7"/>
<path d="M425.208 203.546L413.69 207.328V201.595L425.208 197.812V203.546Z" fill="#E6E6E6" fill-opacity="0.7"/>
<path d="M425.208 214.113L413.69 217.913V212.18L425.208 208.38V214.113Z" fill="#E6E6E6" fill-opacity="0.7"/>
<path d="M425.208 224.698L413.69 228.497V222.747L425.208 218.964V224.698Z" fill="#E6E6E6" fill-opacity="0.7"/>
<path d="M425.208 257.521L413.69 261.32V255.587L425.208 251.787V257.521Z" fill="#E6E6E6" fill-opacity="0.7"/>
<path d="M425.208 236.368L413.69 240.168V234.418L425.208 230.618V236.368Z" fill="#E6E6E6" fill-opacity="0.7"/>
<path d="M425.208 150.113L413.69 153.913V148.179L425.208 144.38V150.113Z" fill="#E6E6E6" fill-opacity="0.7"/>
<path d="M425.208 171.282L413.69 175.065V169.332L425.208 165.532V171.282Z" fill="#E6E6E6" fill-opacity="0.7"/>
<path d="M425.208 160.698L413.69 164.497V158.764L425.208 154.964V160.698Z" fill="#E6E6E6" fill-opacity="0.7"/>
<path d="M425.208 181.85L413.69 185.65V179.916L425.208 176.117V181.85Z" fill="#E6E6E6" fill-opacity="0.7"/>
<path d="M425.208 192.859L413.69 196.659V190.925L425.208 187.126V192.859Z" fill="#E6E6E6" fill-opacity="0.7"/>
<path d="M425.208 246.936L413.69 250.736V245.002L425.208 241.203V246.936Z" fill="#E6E6E6" fill-opacity="0.7"/>
<path d="M425.208 342.979L413.69 346.778V341.045L425.208 337.245V342.979Z" fill="#E6E6E6" fill-opacity="0.7"/>
<path d="M425.208 321.826L413.69 325.626V319.892L425.208 316.093V321.826Z" fill="#E6E6E6" fill-opacity="0.7"/>
<path d="M425.208 332.411L413.69 336.21V330.46L425.208 326.677V332.411Z" fill="#E6E6E6" fill-opacity="0.7"/>
<path d="M425.208 268.088L413.69 271.888V266.155L425.208 262.355V268.088Z" fill="#E6E6E6" fill-opacity="0.7"/>
<path d="M425.208 289.258L413.69 293.04V287.307L425.208 283.507V289.258Z" fill="#E6E6E6" fill-opacity="0.7"/>
<path d="M425.208 278.673L413.69 282.473V276.739L425.208 272.94V278.673Z" fill="#E6E6E6" fill-opacity="0.7"/>
<path d="M425.208 311.258L413.69 315.041V309.308L425.208 305.508V311.258Z" fill="#E6E6E6" fill-opacity="0.7"/>
<path d="M425.208 300.674L413.69 304.473V298.74L425.208 294.94V300.674Z" fill="#E6E6E6" fill-opacity="0.7"/>
<path d="M425.208 128.961L413.69 132.76V127.027L425.208 123.227V128.961Z" fill="#E6E6E6" fill-opacity="0.7"/>
<path d="M425.208 139.545L413.69 143.345V137.612L425.208 133.812V139.545Z" fill="#E6E6E6" fill-opacity="0.7"/>
<path d="M353.452 248.344L341.905 252.144V246.41L353.452 242.611V248.344Z" fill="#E6E6E6" fill-opacity="0.7"/>
<path d="M353.452 260.014L341.905 263.814V258.064L353.452 254.281V260.014Z" fill="#E6E6E6" fill-opacity="0.7"/>
<path d="M353.452 270.582L341.905 274.382V268.648L353.452 264.849V270.582Z" fill="#E6E6E6" fill-opacity="0.7"/>
<path d="M353.452 281.166L341.905 284.966V279.233L353.452 275.433V281.166Z" fill="#E6E6E6" fill-opacity="0.7"/>
<path d="M353.452 237.759L341.905 241.559V235.825L353.452 232.026V237.759Z" fill="#E6E6E6" fill-opacity="0.7"/>
<path d="M353.452 205.496L341.905 209.296V203.562L353.452 199.763V205.496Z" fill="#E6E6E6" fill-opacity="0.7"/>
<path d="M353.452 227.192L341.905 230.991V225.241L353.452 221.458V227.192Z" fill="#E6E6E6" fill-opacity="0.7"/>
<path d="M353.452 291.751L341.905 295.534V289.801L353.452 286.001V291.751Z" fill="#E6E6E6" fill-opacity="0.7"/>
<path d="M353.452 194.928L341.905 198.711V192.978L353.452 189.195V194.928Z" fill="#E6E6E6" fill-opacity="0.7"/>
<path d="M353.452 216.505L341.905 220.304V214.571L353.452 210.771V216.505Z" fill="#E6E6E6" fill-opacity="0.7"/>
<path d="M353.452 184.343L341.905 188.143V182.41L353.452 178.61V184.343Z" fill="#E6E6E6" fill-opacity="0.7"/>
<path d="M353.452 302.319L341.905 306.119V300.385L353.452 296.586V302.319Z" fill="#E6E6E6" fill-opacity="0.7"/>
<path d="M353.452 345.472L341.905 349.272V343.538L353.452 339.739V345.472Z" fill="#E6E6E6" fill-opacity="0.7"/>
<path d="M353.452 312.904L341.905 316.686V310.953L353.452 307.153V312.904Z" fill="#E6E6E6" fill-opacity="0.7"/>
<path d="M353.452 324.32L341.905 328.119V322.386L353.452 318.586V324.32Z" fill="#E6E6E6" fill-opacity="0.7"/>
<path d="M353.452 334.904L341.905 338.704V332.954L353.452 329.171V334.904Z" fill="#E6E6E6" fill-opacity="0.7"/>
<path d="M353.452 173.776L341.905 177.559V171.825L353.452 168.026V173.776Z" fill="#E6E6E6" fill-opacity="0.7"/>
<path d="M353.452 152.607L341.905 156.406V150.673L353.452 146.873V152.607Z" fill="#E6E6E6" fill-opacity="0.7"/>
<path d="M353.452 163.191L341.905 166.991V161.258L353.452 157.458V163.191Z" fill="#E6E6E6" fill-opacity="0.7"/>
<path d="M377.381 240.456L365.833 244.256V238.523L377.381 234.723V240.456Z" fill="#E6E6E6" fill-opacity="0.7"/>
<path d="M377.381 229.889L365.833 233.671V227.938L377.381 224.155V229.889Z" fill="#E6E6E6" fill-opacity="0.7"/>
<path d="M377.381 262.711L365.833 266.494V260.76L377.381 256.978V262.711Z" fill="#E6E6E6" fill-opacity="0.7"/>
<path d="M377.381 252.127L365.833 255.926V250.193L377.381 246.393V252.127Z" fill="#E6E6E6" fill-opacity="0.7"/>
<path d="M377.381 273.279L365.833 277.079V271.345L377.381 267.546V273.279Z" fill="#E6E6E6" fill-opacity="0.7"/>
<path d="M377.381 219.304L365.833 223.103V217.37L377.381 213.57V219.304Z" fill="#E6E6E6" fill-opacity="0.7"/>
<path d="M377.381 176.456L365.833 180.256V174.522L377.381 170.723V176.456Z" fill="#E6E6E6" fill-opacity="0.7"/>
<path d="M377.381 187.041L365.833 190.84V185.107L377.381 181.307V187.041Z" fill="#E6E6E6" fill-opacity="0.7"/>
<path d="M377.381 208.617L365.833 212.417V206.684L377.381 202.884V208.617Z" fill="#E6E6E6" fill-opacity="0.7"/>
<path d="M377.381 197.625L365.833 201.408V195.675L377.381 191.875V197.625Z" fill="#E6E6E6" fill-opacity="0.7"/>
<path d="M377.381 327.017L365.833 330.816V325.083L377.381 321.283V327.017Z" fill="#E6E6E6" fill-opacity="0.7"/>
<path d="M377.381 283.864L365.833 287.663V281.913L377.381 278.13V283.864Z" fill="#E6E6E6" fill-opacity="0.7"/>
<path d="M377.381 348.169L365.833 351.969V346.235L377.381 342.436V348.169Z" fill="#E6E6E6" fill-opacity="0.7"/>
<path d="M377.381 337.601L365.833 341.384V335.651L377.381 331.851V337.601Z" fill="#E6E6E6" fill-opacity="0.7"/>
<path d="M377.381 305.016L365.833 308.816V303.082L377.381 299.283V305.016Z" fill="#E6E6E6" fill-opacity="0.7"/>
<path d="M377.381 165.888L365.833 169.688V163.938L377.381 160.155V165.888Z" fill="#E6E6E6" fill-opacity="0.7"/>
<path d="M377.381 294.431L365.833 298.231V292.498L377.381 288.698V294.431Z" fill="#E6E6E6" fill-opacity="0.7"/>
<path d="M377.381 155.304L365.833 159.103V153.37L377.381 149.57V155.304Z" fill="#E6E6E6" fill-opacity="0.7"/>
<path d="M377.381 144.736L365.833 148.535V142.785L377.381 139.002V144.736Z" fill="#E6E6E6" fill-opacity="0.7"/>
<path d="M377.381 316.432L365.833 320.231V314.498L377.381 310.698V316.432Z" fill="#E6E6E6" fill-opacity="0.7"/>
<path d="M152.916 322.759L141.369 326.542V320.808L152.916 317.009V322.759Z" fill="#E6E6E6" fill-opacity="0.7"/>
<path d="M152.916 333.327L141.369 337.126V331.393L152.916 327.593V333.327Z" fill="#E6E6E6" fill-opacity="0.7"/>
<path d="M152.916 343.911L141.369 347.694V341.961L152.916 338.161V343.911Z" fill="#E6E6E6" fill-opacity="0.7"/>
<path d="M152.916 312.174L141.369 315.974V310.224L152.916 306.441V312.174Z" fill="#E6E6E6" fill-opacity="0.7"/>
<path d="M152.916 268.411L141.369 272.21V266.477L152.916 262.677V268.411Z" fill="#E6E6E6" fill-opacity="0.7"/>
<path d="M152.916 258.878L141.369 262.677V256.944L152.916 253.144V258.878Z" fill="#E6E6E6" fill-opacity="0.7"/>
<path d="M152.916 301.59L141.369 305.389V299.656L152.916 295.856V301.59Z" fill="#E6E6E6" fill-opacity="0.7"/>
<path d="M152.916 291.022L141.369 294.821V289.071L152.916 285.288V291.022Z" fill="#E6E6E6" fill-opacity="0.7"/>
<path d="M152.916 278.995L141.369 282.795V277.045L152.916 273.262V278.995Z" fill="#E6E6E6" fill-opacity="0.7"/>
<path d="M176.845 250.99L165.297 254.79V249.056L176.845 245.257V250.99Z" fill="#E6E6E6" fill-opacity="0.7"/>
<path d="M176.845 325.439L165.297 329.239V323.505L176.845 319.706V325.439Z" fill="#E6E6E6" fill-opacity="0.7"/>
<path d="M176.845 336.024L165.297 339.824V334.09L176.845 330.291V336.024Z" fill="#E6E6E6" fill-opacity="0.7"/>
<path d="M176.845 346.592L165.297 350.391V344.658L176.845 340.858V346.592Z" fill="#E6E6E6" fill-opacity="0.7"/>
<path d="M176.845 314.871L165.297 318.671V312.921L176.845 309.138V314.871Z" fill="#E6E6E6" fill-opacity="0.7"/>
<path d="M176.845 293.719L165.297 297.502V291.768L176.845 287.986V293.719Z" fill="#E6E6E6" fill-opacity="0.7"/>
<path d="M176.845 304.287L165.297 308.086V302.353L176.845 298.553V304.287Z" fill="#E6E6E6" fill-opacity="0.7"/>
<path d="M176.845 283.134L165.297 286.934V281.2L176.845 277.401V283.134Z" fill="#E6E6E6" fill-opacity="0.7"/>
<path d="M176.845 271.108L165.297 274.907V269.174L176.845 265.374V271.108Z" fill="#E6E6E6" fill-opacity="0.7"/>
<path d="M176.845 260.523L165.297 264.323V258.589L176.845 254.79V260.523Z" fill="#E6E6E6" fill-opacity="0.7"/>
<path d="M105.06 338.517L93.5417 342.317V336.584L105.06 332.784V338.517Z" fill="#E6E6E6" fill-opacity="0.7"/>
<path d="M105.06 284.186L93.5417 287.969V282.235L105.06 278.436V284.186Z" fill="#E6E6E6" fill-opacity="0.7"/>
<path d="M105.06 294.754L93.5417 298.553V292.82L105.06 289.02V294.754Z" fill="#E6E6E6" fill-opacity="0.7"/>
<path d="M105.06 317.365L93.5417 321.165V315.414L105.06 311.632V317.365Z" fill="#E6E6E6" fill-opacity="0.7"/>
<path d="M105.06 327.933L93.5417 331.732V325.999L105.06 322.199V327.933Z" fill="#E6E6E6" fill-opacity="0.7"/>
<path d="M105.06 306.78L93.5417 310.58V304.847L105.06 301.047V306.78Z" fill="#E6E6E6" fill-opacity="0.7"/>
<path d="M105.06 274.653L93.5417 278.436V272.702L105.06 268.903V274.653Z" fill="#E6E6E6" fill-opacity="0.7"/>
<path d="M105.06 349.085L93.5417 352.885V347.151L105.06 343.352V349.085Z" fill="#E6E6E6" fill-opacity="0.7"/>
<path d="M128.989 330.63L117.441 334.429V328.696L128.989 324.896V330.63Z" fill="#E6E6E6" fill-opacity="0.7"/>
<path d="M128.989 341.214L117.441 345.014V339.264L128.989 335.481V341.214Z" fill="#E6E6E6" fill-opacity="0.7"/>
<path d="M128.989 320.062L117.441 323.845V318.111L128.989 314.312V320.062Z" fill="#E6E6E6" fill-opacity="0.7"/>
<path d="M128.989 351.782L117.441 355.582V349.848L128.989 346.049V351.782Z" fill="#E6E6E6" fill-opacity="0.7"/>
<path d="M128.989 276.298L117.441 280.098V274.365L128.989 270.565V276.298Z" fill="#E6E6E6" fill-opacity="0.7"/>
<path d="M128.989 286.866L117.441 290.666V284.932L128.989 281.133V286.866Z" fill="#E6E6E6" fill-opacity="0.7"/>
<path d="M128.989 309.477L117.441 313.277V307.543L128.989 303.744V309.477Z" fill="#E6E6E6" fill-opacity="0.7"/>
<path d="M128.989 298.91L117.441 302.692V296.959L128.989 293.159V298.91Z" fill="#E6E6E6" fill-opacity="0.7"/>
<path d="M128.989 266.765L117.441 270.565V264.831L128.989 261.032V266.765Z" fill="#E6E6E6" fill-opacity="0.7"/>
<path d="M1203.54 174.064L1191.99 177.864V172.13L1203.54 168.331V174.064Z" fill="#E6E6E6" fill-opacity="0.7"/>
<path d="M1203.54 184.649L1191.99 188.449V182.715L1203.54 178.916V184.649Z" fill="#E6E6E6" fill-opacity="0.7"/>
<path d="M1203.54 269.276L1191.99 273.058V267.325L1203.54 263.525V269.276Z" fill="#E6E6E6" fill-opacity="0.7"/>
<path d="M1203.54 258.691L1191.99 262.491V256.757L1203.54 252.958V258.691Z" fill="#E6E6E6" fill-opacity="0.7"/>
<path d="M1203.54 279.843L1191.99 283.643V277.91L1203.54 274.11V279.843Z" fill="#E6E6E6" fill-opacity="0.7"/>
<path d="M1203.54 248.106L1191.99 251.906V246.173L1203.54 242.373V248.106Z" fill="#E6E6E6" fill-opacity="0.7"/>
<path d="M1203.54 290.428L1191.99 294.211V288.478L1203.54 284.678V290.428Z" fill="#E6E6E6" fill-opacity="0.7"/>
<path d="M1203.54 237.539L1191.99 241.338V235.605L1203.54 231.805V237.539Z" fill="#E6E6E6" fill-opacity="0.7"/>
<path d="M1203.54 205.801L1191.99 209.601V203.868L1203.54 200.068V205.801Z" fill="#E6E6E6" fill-opacity="0.7"/>
<path d="M1203.54 195.234L1191.99 199.016V193.283L1203.54 189.483V195.234Z" fill="#E6E6E6" fill-opacity="0.7"/>
<path d="M1203.54 216.386L1191.99 220.186V214.435L1203.54 210.636V216.386Z" fill="#E6E6E6" fill-opacity="0.7"/>
<path d="M1203.54 226.954L1191.99 230.754V225.02L1203.54 221.221V226.954Z" fill="#E6E6E6" fill-opacity="0.7"/>
<path d="M1179.61 319.451L1168.06 323.251V317.518L1179.61 313.718V319.451Z" fill="#E6E6E6" fill-opacity="0.7"/>
<path d="M1179.61 330.036L1168.06 333.836V328.102L1179.61 324.303V330.036Z" fill="#E6E6E6" fill-opacity="0.7"/>
<path d="M1179.61 340.621L1168.06 344.403V338.67L1179.61 334.87V340.621Z" fill="#E6E6E6" fill-opacity="0.7"/>
<path d="M1203.54 300.996L1191.99 304.796V299.062L1203.54 295.263V300.996Z" fill="#E6E6E6" fill-opacity="0.7"/>
<path d="M1179.61 351.188L1168.06 354.988V349.255L1179.61 345.455V351.188Z" fill="#E6E6E6" fill-opacity="0.7"/>
<path d="M1179.61 308.884L1168.06 312.683V306.95L1179.61 303.15V308.884Z" fill="#E6E6E6" fill-opacity="0.7"/>
<path d="M1179.61 277.146L1168.06 280.946V275.213L1179.61 271.413V277.146Z" fill="#E6E6E6" fill-opacity="0.7"/>
<path d="M1179.61 287.731L1168.06 291.531V285.78L1179.61 281.998V287.731Z" fill="#E6E6E6" fill-opacity="0.7"/>
<path d="M1179.61 298.299L1168.06 302.098V296.365L1179.61 292.565V298.299Z" fill="#E6E6E6" fill-opacity="0.7"/>
<path d="M918.482 272.21L906.934 276.01V270.277L918.482 266.477V272.21Z" fill="#E6E6E6" fill-opacity="0.7"/>
<path d="M918.482 155.864L906.934 159.663V153.93L918.482 150.13V155.864Z" fill="#E6E6E6" fill-opacity="0.7"/>
<path d="M918.482 145.296L906.934 149.078V143.345L918.482 139.545V145.296Z" fill="#E6E6E6" fill-opacity="0.7"/>
<path d="M918.482 166.448L906.934 170.248V164.497L918.482 160.698V166.448Z" fill="#E6E6E6" fill-opacity="0.7"/>
<path d="M918.482 187.601L906.934 191.4V185.65L918.482 181.867V187.601Z" fill="#E6E6E6" fill-opacity="0.7"/>
<path d="M918.482 177.016L906.934 180.815V175.082L918.482 171.282V177.016Z" fill="#E6E6E6" fill-opacity="0.7"/>
<path d="M918.482 134.711L906.934 138.511V132.777L918.482 128.978V134.711Z" fill="#E6E6E6" fill-opacity="0.7"/>
<path d="M918.482 261.642L906.934 265.442V259.692L918.482 255.909V261.642Z" fill="#E6E6E6" fill-opacity="0.7"/>
<path d="M1179.61 266.579L1168.06 270.361V264.628L1179.61 260.845V266.579Z" fill="#E6E6E6" fill-opacity="0.7"/>
<path d="M918.482 294.211L906.934 298.011V292.277L918.482 288.478V294.211Z" fill="#E6E6E6" fill-opacity="0.7"/>
<path d="M1203.54 311.581L1191.99 315.38V309.63L1203.54 305.847V311.581Z" fill="#E6E6E6" fill-opacity="0.7"/>
<path d="M918.482 198.168L906.934 201.968V196.234L918.482 192.435V198.168Z" fill="#E6E6E6" fill-opacity="0.7"/>
<path d="M918.482 283.643L906.934 287.443V281.692L918.482 277.91V283.643Z" fill="#E6E6E6" fill-opacity="0.7"/>
<path d="M918.482 240.49L906.934 244.273V238.539L918.482 234.757V240.49Z" fill="#E6E6E6" fill-opacity="0.7"/>
<path d="M918.482 219.338L906.934 223.12V217.387L918.482 213.587V219.338Z" fill="#E6E6E6" fill-opacity="0.7"/>
<path d="M918.482 208.753L906.934 212.553V206.819L918.482 203.02V208.753Z" fill="#E6E6E6" fill-opacity="0.7"/>
<path d="M918.482 229.905L906.934 233.705V227.972L918.482 224.172V229.905Z" fill="#E6E6E6" fill-opacity="0.7"/>
<path d="M918.482 251.058L906.934 254.858V249.124L918.482 245.325V251.058Z" fill="#E6E6E6" fill-opacity="0.7"/>
<path d="M1203.54 322.148L1191.99 325.948V320.215L1203.54 316.415V322.148Z" fill="#E6E6E6" fill-opacity="0.7"/>
<path d="M1203.54 332.733L1191.99 336.533V330.799L1203.54 327V332.733Z" fill="#E6E6E6" fill-opacity="0.7"/>
<path d="M1203.54 343.301L1191.99 347.101V341.367L1203.54 337.568V343.301Z" fill="#E6E6E6" fill-opacity="0.7"/>
<path d="M1331.4 268.937L1319.85 265.154V259.404L1331.4 263.203V268.937Z" fill="#E6E6E6" fill-opacity="0.7"/>
<path d="M1331.4 279.521L1319.85 275.722V269.988L1331.4 273.788V279.521Z" fill="#E6E6E6" fill-opacity="0.7"/>
<path d="M1331.4 258.369L1319.85 254.569V248.836L1331.4 252.635V258.369Z" fill="#E6E6E6" fill-opacity="0.7"/>
<path d="M1331.4 322.674L1319.85 318.875V313.141L1331.4 316.941V322.674Z" fill="#E6E6E6" fill-opacity="0.7"/>
<path d="M1331.4 354.411L1319.85 350.612V344.878L1331.4 348.678V354.411Z" fill="#E6E6E6" fill-opacity="0.7"/>
<path d="M1331.4 343.827L1319.85 340.027V334.294L1331.4 338.093V343.827Z" fill="#E6E6E6" fill-opacity="0.7"/>
<path d="M1331.4 301.522L1319.85 297.722V291.989L1331.4 295.788V301.522Z" fill="#E6E6E6" fill-opacity="0.7"/>
<path d="M1331.4 312.106L1319.85 308.307V302.573L1331.4 306.356V312.106Z" fill="#E6E6E6" fill-opacity="0.7"/>
<path d="M1331.4 290.106L1319.85 286.306V280.573L1331.4 284.355V290.106Z" fill="#E6E6E6" fill-opacity="0.7"/>
<path d="M1331.4 333.259L1319.85 329.459V323.726L1331.4 327.509V333.259Z" fill="#E6E6E6" fill-opacity="0.7"/>
<path d="M918.482 304.795L906.934 308.595V302.862L918.482 299.062V304.795Z" fill="#E6E6E6" fill-opacity="0.7"/>
<path d="M1179.61 245.426L1168.06 249.209V243.476L1179.61 239.676V245.426Z" fill="#E6E6E6" fill-opacity="0.7"/>
<path d="M1179.61 224.257L1168.06 228.057V222.323L1179.61 218.524V224.257Z" fill="#E6E6E6" fill-opacity="0.7"/>
<path d="M1179.61 234.842L1168.06 238.641V232.908L1179.61 229.108V234.842Z" fill="#E6E6E6" fill-opacity="0.7"/>
<path d="M1179.61 203.104L1168.06 206.904V201.171L1179.61 197.371V203.104Z" fill="#E6E6E6" fill-opacity="0.7"/>
<path d="M1179.61 213.689L1168.06 217.489V211.755L1179.61 207.956V213.689Z" fill="#E6E6E6" fill-opacity="0.7"/>
<path d="M1179.61 192.537L1168.06 196.319V190.586L1179.61 186.803V192.537Z" fill="#E6E6E6" fill-opacity="0.7"/>
<path d="M1179.61 181.952L1168.06 185.752V180.018L1179.61 176.219V181.952Z" fill="#E6E6E6" fill-opacity="0.7"/>
<path d="M1203.54 163.632L1191.99 167.415V161.682L1203.54 157.882V163.632Z" fill="#E6E6E6" fill-opacity="0.7"/>
<path d="M1179.61 171.503L1168.06 175.303V169.569L1179.61 165.77V171.503Z" fill="#E6E6E6" fill-opacity="0.7"/>
<path d="M1355.3 297.977L1343.78 294.177V288.444L1355.3 292.243V297.977Z" fill="#E6E6E6" fill-opacity="0.7"/>
<path d="M1355.3 309.41L1343.78 305.61V299.877L1355.3 303.676V309.41Z" fill="#E6E6E6" fill-opacity="0.7"/>
<path d="M1355.3 319.977L1343.78 316.178V310.444L1355.3 314.244V319.977Z" fill="#E6E6E6" fill-opacity="0.7"/>
<path d="M1355.3 341.13L1343.78 337.347V331.597L1355.3 335.396V341.13Z" fill="#E6E6E6" fill-opacity="0.7"/>
<path d="M1355.3 330.562L1343.78 326.762V321.029L1355.3 324.829V330.562Z" fill="#E6E6E6" fill-opacity="0.7"/>
<path d="M1355.3 351.714L1343.78 347.915V342.181L1355.3 345.981V351.714Z" fill="#E6E6E6" fill-opacity="0.7"/>
<path d="M1355.3 266.24L1343.78 262.457V256.724L1355.3 260.506V266.24Z" fill="#E6E6E6" fill-opacity="0.7"/>
<path d="M1355.3 287.409L1343.78 283.609V277.876L1355.3 281.659V287.409Z" fill="#E6E6E6" fill-opacity="0.7"/>
<path d="M1355.3 276.824L1343.78 273.025V267.291L1355.3 271.091V276.824Z" fill="#E6E6E6" fill-opacity="0.7"/>
<path d="M1179.61 255.994L1168.06 259.794V254.06L1179.61 250.26V255.994Z" fill="#E6E6E6" fill-opacity="0.7"/>
<path d="M723.065 328.323L711.518 332.105V326.372L723.065 322.589V328.323Z" fill="#E6E6E6" fill-opacity="0.7"/>
<path d="M699.136 197.965L687.589 201.764V196.014L699.136 192.214V197.965Z" fill="#E6E6E6" fill-opacity="0.7"/>
<path d="M699.136 219.847L687.589 223.646V217.913L699.136 214.113V219.847Z" fill="#E6E6E6" fill-opacity="0.7"/>
<path d="M699.136 209.279L687.589 213.061V207.328L699.136 203.528V209.279Z" fill="#E6E6E6" fill-opacity="0.7"/>
<path d="M699.136 293.889L687.589 297.688V291.955L699.136 288.155V293.889Z" fill="#E6E6E6" fill-opacity="0.7"/>
<path d="M699.136 304.473L687.589 308.256V302.523L699.136 298.723V304.473Z" fill="#E6E6E6" fill-opacity="0.7"/>
<path d="M699.136 283.321L687.589 287.104V281.37L699.136 277.57V283.321Z" fill="#E6E6E6" fill-opacity="0.7"/>
<path d="M699.136 325.626L687.589 329.425V323.675L699.136 319.892V325.626Z" fill="#E6E6E6" fill-opacity="0.7"/>
<path d="M699.136 230.431L687.589 234.231V228.481L699.136 224.698V230.431Z" fill="#E6E6E6" fill-opacity="0.7"/>
<path d="M918.482 315.38L906.934 319.163V313.43L918.482 309.63V315.38Z" fill="#E6E6E6" fill-opacity="0.7"/>
<path d="M699.136 240.999L687.589 244.799V239.065L699.136 235.266V240.999Z" fill="#E6E6E6" fill-opacity="0.7"/>
<path d="M699.136 251.584L687.589 255.383V249.65L699.136 245.85V251.584Z" fill="#E6E6E6" fill-opacity="0.7"/>
<path d="M699.136 262.151L687.589 265.951V260.218L699.136 256.418V262.151Z" fill="#E6E6E6" fill-opacity="0.7"/>
<path d="M699.136 272.736L687.589 276.536V270.803L699.136 267.003V272.736Z" fill="#E6E6E6" fill-opacity="0.7"/>
<path d="M966.309 341.91L954.762 345.71V339.976L966.309 336.177V341.91Z" fill="#E6E6E6" fill-opacity="0.7"/>
<path d="M966.309 352.494L954.762 356.294V350.561L966.309 346.761V352.494Z" fill="#E6E6E6" fill-opacity="0.7"/>
<path d="M966.309 278.452L954.762 282.252V276.519L966.309 272.719V278.452Z" fill="#E6E6E6" fill-opacity="0.7"/>
<path d="M966.309 331.342L954.762 335.142V329.408L966.309 325.609V331.342Z" fill="#E6E6E6" fill-opacity="0.7"/>
<path d="M966.309 299.605L954.762 303.405V297.671L966.309 293.872V299.605Z" fill="#E6E6E6" fill-opacity="0.7"/>
<path d="M966.309 310.19L954.762 313.972V308.239L966.309 304.439V310.19Z" fill="#E6E6E6" fill-opacity="0.7"/>
<path d="M966.309 320.757L954.762 324.557V318.824L966.309 315.024V320.757Z" fill="#E6E6E6" fill-opacity="0.7"/>
<path d="M966.309 289.02L954.762 292.82V287.087L966.309 283.287V289.02Z" fill="#E6E6E6" fill-opacity="0.7"/>
<path d="M699.136 336.193L687.589 339.993V334.26L699.136 330.46V336.193Z" fill="#E6E6E6" fill-opacity="0.7"/>
<path d="M723.065 233.129L711.518 236.911V231.178L723.065 227.378V233.129Z" fill="#E6E6E6" fill-opacity="0.7"/>
<path d="M723.065 275.433L711.518 279.233V273.483L723.065 269.7V275.433Z" fill="#E6E6E6" fill-opacity="0.7"/>
<path d="M723.065 243.696L711.518 247.496V241.762L723.065 237.963V243.696Z" fill="#E6E6E6" fill-opacity="0.7"/>
<path d="M723.065 264.849L711.518 268.648V262.915L723.065 259.115V264.849Z" fill="#E6E6E6" fill-opacity="0.7"/>
<path d="M723.065 254.281L711.518 258.063V252.33L723.065 248.53V254.281Z" fill="#E6E6E6" fill-opacity="0.7"/>
<path d="M723.065 222.544L711.518 226.343V220.61L723.065 216.81V222.544Z" fill="#E6E6E6" fill-opacity="0.7"/>
<path d="M723.065 190.077L711.518 193.877V188.143L723.065 184.344V190.077Z" fill="#E6E6E6" fill-opacity="0.7"/>
<path d="M723.065 201.391L711.518 205.191V199.457L723.065 195.658V201.391Z" fill="#E6E6E6" fill-opacity="0.7"/>
<path d="M723.065 211.959L711.518 215.759V210.025L723.065 206.226V211.959Z" fill="#E6E6E6" fill-opacity="0.7"/>
<path d="M723.065 338.89L711.518 342.69V336.957L723.065 333.157V338.89Z" fill="#E6E6E6" fill-opacity="0.7"/>
<path d="M723.065 286.001L711.518 289.801V284.067L723.065 280.268V286.001Z" fill="#E6E6E6" fill-opacity="0.7"/>
<path d="M723.065 349.475L711.518 353.275V347.525L723.065 343.742V349.475Z" fill="#E6E6E6" fill-opacity="0.7"/>
<path d="M723.065 307.171L711.518 310.953V305.22L723.065 301.42V307.171Z" fill="#E6E6E6" fill-opacity="0.7"/>
<path d="M723.065 296.585L711.518 300.385V294.652L723.065 290.852V296.585Z" fill="#E6E6E6" fill-opacity="0.7"/>
<path d="M723.065 317.738L711.518 321.538V315.804L723.065 312.005V317.738Z" fill="#E6E6E6" fill-opacity="0.7"/>
<path d="M699.136 346.778L687.589 350.578V344.844L699.136 341.045V346.778Z" fill="#E6E6E6" fill-opacity="0.7"/>
<path d="M699.136 315.041L687.589 318.841V313.107L699.136 309.308V315.041Z" fill="#E6E6E6" fill-opacity="0.7"/>
<path d="M942.381 169.128L930.863 172.928V167.195L942.381 163.395V169.128Z" fill="#E6E6E6" fill-opacity="0.7"/>
<path d="M942.381 126.823L930.863 130.623V124.89L942.381 121.09V126.823Z" fill="#E6E6E6" fill-opacity="0.7"/>
<path d="M942.381 137.408L930.863 141.208V135.457L942.381 131.675V137.408Z" fill="#E6E6E6" fill-opacity="0.7"/>
<path d="M942.381 158.56L930.863 162.36V156.627L942.381 152.827V158.56Z" fill="#E6E6E6" fill-opacity="0.7"/>
<path d="M942.381 147.976L930.863 151.775V146.042L942.381 142.242V147.976Z" fill="#E6E6E6" fill-opacity="0.7"/>
<path d="M942.381 232.603L930.863 236.402V230.669L942.381 226.869V232.603Z" fill="#E6E6E6" fill-opacity="0.7"/>
<path d="M942.381 253.755L930.863 257.555V251.821L942.381 248.021V253.755Z" fill="#E6E6E6" fill-opacity="0.7"/>
<path d="M942.381 243.187L930.863 246.97V241.237L942.381 237.437V243.187Z" fill="#E6E6E6" fill-opacity="0.7"/>
<path d="M942.381 275.755L930.863 279.555V273.822L942.381 270.022V275.755Z" fill="#E6E6E6" fill-opacity="0.7"/>
<path d="M942.381 264.34L930.863 268.122V262.389L942.381 258.589V264.34Z" fill="#E6E6E6" fill-opacity="0.7"/>
<path d="M942.381 200.865L930.863 204.665V198.931L942.381 195.132V200.865Z" fill="#E6E6E6" fill-opacity="0.7"/>
<path d="M942.381 190.298L930.863 194.097V188.347L942.381 184.564V190.298Z" fill="#E6E6E6" fill-opacity="0.7"/>
<path d="M942.381 179.713L930.863 183.512V177.779L942.381 173.979V179.713Z" fill="#E6E6E6" fill-opacity="0.7"/>
<path d="M942.381 211.45L930.863 215.25V209.499L942.381 205.717V211.45Z" fill="#E6E6E6" fill-opacity="0.7"/>
<path d="M942.381 222.018L930.863 225.817V220.084L942.381 216.284V222.018Z" fill="#E6E6E6" fill-opacity="0.7"/>
<path d="M942.381 286.34L930.863 290.123V284.39L942.381 280.59V286.34Z" fill="#E6E6E6" fill-opacity="0.7"/>
<path d="M918.482 325.948L906.934 329.748V324.014L918.482 320.215V325.948Z" fill="#E6E6E6" fill-opacity="0.7"/>
<path d="M918.482 336.533L906.934 340.315V334.582L918.482 330.782V336.533Z" fill="#E6E6E6" fill-opacity="0.7"/>
<path d="M918.482 347.1L906.934 350.9V345.167L918.482 341.367V347.1Z" fill="#E6E6E6" fill-opacity="0.7"/>
<path d="M942.381 339.213L930.863 343.013V337.279L942.381 333.479V339.213Z" fill="#E6E6E6" fill-opacity="0.7"/>
<path d="M966.309 118.953L954.762 122.735V117.002L966.309 113.202V118.953Z" fill="#E6E6E6" fill-opacity="0.7"/>
<path d="M966.309 129.52L954.762 133.32V127.587L966.309 123.787V129.52Z" fill="#E6E6E6" fill-opacity="0.7"/>
<path d="M966.309 140.105L954.762 143.905V138.154L966.309 134.355V140.105Z" fill="#E6E6E6" fill-opacity="0.7"/>
<path d="M966.309 150.673L954.762 154.472V148.739L966.309 144.939V150.673Z" fill="#E6E6E6" fill-opacity="0.7"/>
<path d="M966.309 224.715L954.762 228.515V222.781L966.309 218.982V224.715Z" fill="#E6E6E6" fill-opacity="0.7"/>
<path d="M966.309 214.147L954.762 217.93V212.196L966.309 208.414V214.147Z" fill="#E6E6E6" fill-opacity="0.7"/>
<path d="M966.309 235.3L954.762 239.099V233.349L966.309 229.566V235.3Z" fill="#E6E6E6" fill-opacity="0.7"/>
<path d="M966.309 256.452L954.762 260.252V254.518L966.309 250.719V256.452Z" fill="#E6E6E6" fill-opacity="0.7"/>
<path d="M966.309 245.867L954.762 249.667V243.934L966.309 240.134V245.867Z" fill="#E6E6E6" fill-opacity="0.7"/>
<path d="M966.309 161.258L954.762 165.057V159.307L966.309 155.524V161.258Z" fill="#E6E6E6" fill-opacity="0.7"/>
<path d="M966.309 171.825L954.762 175.625V169.891L966.309 166.092V171.825Z" fill="#E6E6E6" fill-opacity="0.7"/>
<path d="M966.309 182.41L954.762 186.21V180.476L966.309 176.677V182.41Z" fill="#E6E6E6" fill-opacity="0.7"/>
<path d="M966.309 192.978L954.762 196.777V191.044L966.309 187.244V192.978Z" fill="#E6E6E6" fill-opacity="0.7"/>
<path d="M966.309 203.562L954.762 207.362V201.629L966.309 197.829V203.562Z" fill="#E6E6E6" fill-opacity="0.7"/>
<path d="M942.381 328.645L930.863 332.445V326.711L942.381 322.912V328.645Z" fill="#E6E6E6" fill-opacity="0.7"/>
<path d="M942.381 349.798L930.863 353.597V347.864L942.381 344.064V349.798Z" fill="#E6E6E6" fill-opacity="0.7"/>
<path d="M942.381 307.493L930.863 311.292V305.542L942.381 301.759V307.493Z" fill="#E6E6E6" fill-opacity="0.7"/>
<path d="M966.309 267.868L954.762 271.668V265.934L966.309 262.135V267.868Z" fill="#E6E6E6" fill-opacity="0.7"/>
<path d="M942.381 318.06L930.863 321.86V316.127L942.381 312.327V318.06Z" fill="#E6E6E6" fill-opacity="0.7"/>
<path d="M942.381 296.908L930.863 300.708V294.974L942.381 291.175V296.908Z" fill="#E6E6E6" fill-opacity="0.7"/>
<path d="M1317.71 244.154L1399.23 217.319L1440 230.737L1358.48 257.555L1317.71 244.154Z" fill="#FAFAFA" fill-opacity="0.7"/>
<path d="M1073.15 136.899L1141.16 114.542L1222.65 141.377L1154.67 163.717L1073.15 136.899Z" fill="#FAFAFA" fill-opacity="0.7"/>
<path d="M1222.62 179.543V206.344L1263.39 192.944L1222.62 179.543Z" fill="#FAFAFA" fill-opacity="0.7"/>
<path d="M801.488 98.818L883.006 72L978.095 103.296L896.577 130.114L801.488 98.818Z" fill="#FAFAFA" fill-opacity="0.7"/>
<path d="M271.667 129.91L393.929 89.675L448.244 107.571L325.982 147.789L271.667 129.91Z" fill="#FAFAFA" fill-opacity="0.7"/>
<path d="M0 244.765L108.601 208.99L190.208 235.842L81.6071 271.617L0 244.765Z" fill="#FAFAFA" fill-opacity="0.7"/>
<path d="M611.28 170.35L665.625 152.471L733.572 174.828L679.227 192.723L611.28 170.35Z" fill="#FAFAFA" fill-opacity="0.7"/>
<path d="M448.244 149.333L502.619 131.437L556.964 149.333L502.619 167.211L448.244 149.333Z" fill="#FAFAFA" fill-opacity="0.7"/>
<path d="M978.095 219.355V246.156L1018.87 232.772L978.095 219.355Z" fill="#FAFAFA" fill-opacity="0.7"/>
<path d="M271.666 292.803V266.002L230.893 279.402L271.666 292.803Z" fill="#FAFAFA" fill-opacity="0.7"/>
</g>
<defs>
<clipPath id="clip0_904_17494">
<rect width="1440" height="347" fill="white"/>
</clipPath>
</defs>
</svg>
