<svg width="191" height="34" viewBox="0 0 191 34" fill="none" xmlns="http://www.w3.org/2000/svg">
<path d="M45.9465 12.7859V10.2712H48.4863V9.17786C48.4863 7.90959 48.8586 6.93287 49.603 6.24771C50.3474 5.56255 51.4202 5.21997 52.8215 5.21997C53.128 5.21997 53.4419 5.2382 53.763 5.27464C54.0841 5.31109 54.3615 5.35846 54.595 5.41677V7.93145C54.3177 7.87314 54.0732 7.82941 53.8615 7.80025C53.6499 7.7711 53.4273 7.75652 53.1937 7.75652C52.6245 7.75652 52.1975 7.88043 51.9129 8.12826C51.6283 8.37608 51.4859 8.74782 51.4859 9.24346V10.2712H54.595V12.7859H51.4859V21.6638H48.4863V12.7859H45.9465ZM57.6603 8.91546C57.1932 8.91546 56.7918 8.74782 56.4561 8.41253C56.1203 8.07724 55.9525 7.67634 55.9525 7.20985C55.9525 6.74336 56.1203 6.34247 56.4561 6.00718C56.7918 5.67189 57.1932 5.50424 57.6603 5.50424C58.1274 5.50424 58.5288 5.67189 58.8645 6.00718C59.2002 6.34247 59.3681 6.74336 59.3681 7.20985C59.3681 7.67634 59.2002 8.07724 58.8645 8.41253C58.5288 8.74782 58.1274 8.91546 57.6603 8.91546ZM56.1714 10.2712H59.171V21.6638H56.1714V10.2712ZM64.5134 21.6638H61.5138V10.2712H64.5134V11.1677C64.9513 10.8033 65.4366 10.5263 65.9694 10.3368C66.5021 10.1473 67.0824 10.0525 67.71 10.0525C69.0237 10.0525 70.1038 10.4753 70.9504 11.3208C71.797 12.1663 72.2204 13.2524 72.2204 14.579V21.6638H69.2208V15.0163C69.2208 14.302 69.0055 13.7262 68.5749 13.2888C68.1443 12.8515 67.5713 12.6328 66.8561 12.6328C66.3598 12.6328 65.911 12.7312 65.5096 12.928C65.1082 13.1248 64.7761 13.4054 64.5134 13.7699V21.6638ZM78.1101 21.8606C76.8839 21.8606 75.8841 21.5362 75.1105 20.8875C74.3369 20.2388 73.95 19.3969 73.95 18.3619C73.95 17.2831 74.366 16.4376 75.198 15.8254C76.0301 15.2131 77.1759 14.907 78.6355 14.907C79.1026 14.907 79.5697 14.9434 80.0368 15.0163C80.5039 15.0892 80.9637 15.1985 81.4162 15.3443V14.5352C81.4162 13.8792 81.2118 13.3836 80.8031 13.0483C80.3944 12.713 79.796 12.5453 79.0077 12.5453C78.5261 12.5453 78.0042 12.6219 77.4423 12.7749C76.8803 12.928 76.2417 13.1649 75.5265 13.4856L74.4317 11.2771C75.3221 10.8689 76.187 10.5628 77.0263 10.3587C77.8656 10.1546 78.6939 10.0525 79.5113 10.0525C81.044 10.0525 82.2372 10.4206 83.0911 11.1568C83.945 11.893 84.372 12.9317 84.372 14.2728V21.6638H81.4162V20.8766C80.9345 21.2119 80.4273 21.4597 79.8945 21.6201C79.3617 21.7804 78.7669 21.8606 78.1101 21.8606ZM76.8183 18.2963C76.8183 18.7336 77.008 19.0799 77.3875 19.335C77.767 19.5901 78.2706 19.7176 78.8983 19.7176C79.3946 19.7176 79.8507 19.6557 80.2667 19.5318C80.6827 19.4079 81.0659 19.2293 81.4162 18.996V17.2904C81.0513 17.1447 80.6681 17.039 80.2667 16.9734C79.8653 16.9078 79.4456 16.875 79.0077 16.875C78.3217 16.875 77.7853 17.0025 77.3985 17.2576C77.0117 17.5127 76.8183 17.859 76.8183 18.2963ZM89.6486 21.6638H86.6491V10.2712H89.6486V11.1677C90.0865 10.8033 90.5719 10.5263 91.1046 10.3368C91.6374 10.1473 92.2176 10.0525 92.8453 10.0525C94.159 10.0525 95.2391 10.4753 96.0857 11.3208C96.9323 12.1663 97.3556 13.2524 97.3556 14.579V21.6638H94.356V15.0163C94.356 14.302 94.1407 13.7262 93.7101 13.2888C93.2795 12.8515 92.7066 12.6328 91.9914 12.6328C91.4951 12.6328 91.0463 12.7312 90.6449 12.928C90.2435 13.1248 89.9114 13.4054 89.6486 13.7699V21.6638ZM105.216 19.2584C105.727 19.2584 106.205 19.1564 106.65 18.9523C107.095 18.7482 107.522 18.4275 107.931 17.9902L109.726 19.8488C109.142 20.4903 108.442 20.9896 107.624 21.3467C106.807 21.7039 105.96 21.8825 105.085 21.8825C104.253 21.8825 103.468 21.7294 102.731 21.4233C101.994 21.1171 101.359 20.7017 100.826 20.1769C100.293 19.652 99.8735 19.0288 99.567 18.3072C99.2605 17.5856 99.1072 16.8094 99.1072 15.9784C99.1072 15.1475 99.2605 14.3712 99.567 13.6496C99.8735 12.928 100.293 12.3012 100.826 11.7691C101.359 11.237 101.994 10.8179 102.731 10.5117C103.468 10.2056 104.253 10.0525 105.085 10.0525C105.989 10.0525 106.858 10.2311 107.69 10.5883C108.522 10.9454 109.23 11.4447 109.814 12.0861L107.975 14.0323C107.566 13.5804 107.128 13.2378 106.661 13.0045C106.194 12.7713 105.69 12.6547 105.15 12.6547C104.289 12.6547 103.563 12.9754 102.972 13.6168C102.381 14.2582 102.085 15.0454 102.085 15.9784C102.085 16.9114 102.388 17.6913 102.994 18.3182C103.599 18.945 104.34 19.2584 105.216 19.2584ZM119.097 18.4494L121.068 20.2425C120.367 20.811 119.648 21.2265 118.911 21.4889C118.174 21.7513 117.353 21.8825 116.448 21.8825C115.587 21.8825 114.78 21.7294 114.029 21.4233C113.277 21.1171 112.627 20.7017 112.08 20.1769C111.533 19.652 111.102 19.0288 110.788 18.3072C110.474 17.5856 110.317 16.8094 110.317 15.9784C110.317 15.1621 110.467 14.3931 110.766 13.6715C111.065 12.9499 111.478 12.323 112.003 11.7909C112.529 11.2589 113.153 10.8397 113.875 10.5336C114.598 10.2275 115.368 10.0744 116.185 10.0744C116.988 10.0744 117.736 10.2311 118.429 10.5445C119.123 10.858 119.721 11.2844 120.225 11.8237C120.728 12.3631 121.122 13.0082 121.407 13.759C121.692 14.5097 121.834 15.3224 121.834 16.1971V16.9843H113.339C113.543 17.6986 113.937 18.2744 114.521 18.7118C115.105 19.1491 115.791 19.3678 116.579 19.3678C117.076 19.3678 117.543 19.2876 117.981 19.1272C118.418 18.9669 118.791 18.7409 119.097 18.4494ZM116.12 12.5453C115.433 12.5453 114.842 12.7531 114.346 13.1686C113.85 13.584 113.507 14.1416 113.317 14.8414H118.9C118.71 14.1708 118.364 13.6205 117.86 13.1904C117.357 12.7604 116.776 12.5453 116.12 12.5453Z" fill="white"/>
<path d="M131.49 18.4493L133.46 20.2423C132.76 20.8109 132.041 21.2263 131.304 21.4887C130.567 21.7512 129.745 21.8823 128.841 21.8823C127.979 21.8823 127.173 21.7293 126.421 21.4231C125.669 21.117 125.02 20.7015 124.472 20.1767C123.925 19.6519 123.495 19.0287 123.181 18.3071C122.867 17.5855 122.71 16.8093 122.71 15.9783C122.71 15.162 122.86 14.393 123.159 13.6714C123.458 12.9498 123.87 12.3229 124.396 11.7908C124.921 11.2587 125.545 10.8396 126.268 10.5335C126.99 10.2274 127.76 10.0743 128.578 10.0743C129.381 10.0743 130.129 10.231 130.822 10.5444C131.515 10.8578 132.114 11.2843 132.617 11.8236C133.121 12.363 133.515 13.0081 133.8 13.7588C134.084 14.5096 134.227 15.3223 134.227 16.197V16.9842H125.731C125.936 17.6985 126.33 18.2743 126.914 18.7117C127.498 19.149 128.184 19.3677 128.972 19.3677C129.468 19.3677 129.935 19.2875 130.373 19.1271C130.811 18.9668 131.183 18.7408 131.49 18.4493ZM128.512 12.5452C127.826 12.5452 127.235 12.753 126.739 13.1684C126.242 13.5839 125.899 14.1415 125.71 14.8412H131.293C131.103 14.1707 130.756 13.6204 130.253 13.1903C129.749 12.7603 129.169 12.5452 128.512 12.5452ZM137.336 21.6637H133.986L138.365 15.869L134.095 10.2711H137.577L140.094 13.6604L142.59 10.2711H145.962L141.758 15.8253L146.225 21.6637H142.722L140.029 18.0338L137.336 21.6637ZM150.363 26.2338H147.364V10.2711H150.319V11.2114C150.772 10.8469 151.275 10.5736 151.83 10.3914C152.385 10.2091 152.961 10.118 153.56 10.118C154.363 10.118 155.118 10.2711 155.826 10.5772C156.534 10.8834 157.151 11.2988 157.676 11.8236C158.201 12.3484 158.614 12.968 158.913 13.6823C159.212 14.3966 159.362 15.162 159.362 15.9783C159.362 16.7947 159.209 17.56 158.902 18.2743C158.596 18.9886 158.18 19.6082 157.654 20.133C157.129 20.6578 156.505 21.0696 155.782 21.3685C155.06 21.6673 154.29 21.8167 153.472 21.8167C152.918 21.8167 152.374 21.7402 151.841 21.5871C151.308 21.4341 150.816 21.2118 150.363 20.9202V26.2338ZM153.078 12.6764C152.538 12.6764 152.034 12.7676 151.567 12.9498C151.1 13.132 150.699 13.398 150.363 13.7479V18.2306C150.684 18.5513 151.082 18.8064 151.556 18.9959C152.031 19.1854 152.538 19.2802 153.078 19.2802C154.012 19.2802 154.8 18.9631 155.443 18.329C156.085 17.6949 156.406 16.9113 156.406 15.9783C156.406 15.0453 156.081 14.2618 155.432 13.6276C154.782 12.9935 153.998 12.6764 153.078 12.6764ZM169.543 18.4493L171.514 20.2423C170.813 20.8109 170.094 21.2263 169.357 21.4887C168.62 21.7512 167.799 21.8823 166.894 21.8823C166.033 21.8823 165.226 21.7293 164.474 21.4231C163.723 21.117 163.073 20.7015 162.526 20.1767C161.978 19.6519 161.548 19.0287 161.234 18.3071C160.92 17.5855 160.763 16.8093 160.763 15.9783C160.763 15.162 160.913 14.393 161.212 13.6714C161.511 12.9498 161.924 12.3229 162.449 11.7908C162.975 11.2587 163.599 10.8396 164.321 10.5335C165.044 10.2274 165.814 10.0743 166.631 10.0743C167.434 10.0743 168.182 10.231 168.875 10.5444C169.569 10.8578 170.167 11.2843 170.671 11.8236C171.174 12.363 171.568 13.0081 171.853 13.7588C172.138 14.5096 172.28 15.3223 172.28 16.197V16.9842H163.785C163.989 17.6985 164.383 18.2743 164.967 18.7117C165.551 19.149 166.237 19.3677 167.025 19.3677C167.521 19.3677 167.989 19.2875 168.426 19.1271C168.864 18.9668 169.237 18.7408 169.543 18.4493ZM166.565 12.5452C165.879 12.5452 165.288 12.753 164.792 13.1684C164.296 13.5839 163.953 14.1415 163.763 14.8412H169.346C169.156 14.1707 168.81 13.6204 168.306 13.1903C167.802 12.7603 167.222 12.5452 166.565 12.5452ZM177.119 21.6637H174.119V10.2711H177.119V11.5175C177.484 11.0219 177.925 10.6465 178.443 10.3914C178.961 10.1362 179.534 10.0087 180.162 10.0087C180.454 10.0233 180.698 10.0488 180.896 10.0852C181.093 10.1217 181.264 10.1836 181.41 10.2711V12.8951C181.191 12.7931 180.95 12.7165 180.688 12.6655C180.425 12.6145 180.155 12.589 179.877 12.589C179.294 12.589 178.757 12.7347 178.268 13.0263C177.779 13.3179 177.396 13.7406 177.119 14.2946V21.6637ZM184.76 18.4493V12.7858H182.417V10.2711H184.76V7.3628L187.76 6.68494V10.2711H191V12.7858H187.76V17.837C187.76 18.3764 187.876 18.7554 188.11 18.9741C188.343 19.1927 188.752 19.3021 189.336 19.3021C189.613 19.3021 189.876 19.2838 190.124 19.2474C190.372 19.211 190.642 19.1417 190.934 19.0397V21.4887C190.613 21.5908 190.226 21.6746 189.774 21.7402C189.321 21.8058 188.935 21.8386 188.613 21.8386C187.344 21.8386 186.384 21.5507 185.734 20.9749C185.085 20.399 184.76 19.5572 184.76 18.4493Z" fill="#34A573"/>
<path d="M27.0791 27.3594L27.1165 19.9945L31.7381 20.0179L32.8621 27.3885L27.0791 27.3594Z" fill="url(#paint0_linear_904_17452)"/>
<path d="M34.9082 14.1774L40.0189 14.2035L39.5545 15.0593L37.9851 17.9515H37.9835L37.5952 18.6667L32.8623 27.3885L31.738 20.0188L32.8744 17.9254L34.4439 15.0335L34.9082 14.1774Z" fill="url(#paint1_linear_904_17452)"/>
<path d="M25.8711 8.59857L25.9103 0.909058L32.997 0.944898L32.9577 8.63472L25.8711 8.59857Z" fill="url(#paint2_linear_904_17452)"/>
<path d="M32.9973 0.944946L37.9306 10.2605L38.6468 11.6117L39.4702 13.1685L40.0188 14.2035L39.5545 15.0593L37.9835 17.9515L37.5952 18.6667L37.1649 17.9473L35.423 15.0384L34.9082 14.1774L34.2891 13.1421L32.549 10.2332L31.5957 8.64114L31.5975 8.62808L32.9973 0.944946Z" fill="url(#paint3_linear_904_17452)"/>
<path d="M12.9393 0.959518L12.9019 8.32437L8.28025 8.30099L7.15601 0.930054L12.9393 0.959518Z" fill="url(#paint4_linear_904_17452)"/>
<path d="M7.15657 0.92981L8.28081 8.30104L7.30193 10.1047L5.73097 12.9969L5.1088 14.1407V14.1425L0 14.1164L0.622178 12.9711L1.35353 11.6224L2.19131 10.0786L2.42212 9.65344L7.15657 0.92981Z" fill="url(#paint5_linear_904_17452)"/>
<path d="M14.1471 19.7203L14.1079 27.4101L7.02124 27.374L7.06047 19.6844L14.1471 19.7203Z" fill="url(#paint6_linear_904_17452)"/>
<path d="M2.42212 9.65332L2.67938 10.0812L4.41972 12.9901L5.1088 14.1406V14.1424L5.55551 14.8865L7.29737 17.7954L8.42313 19.6768L8.41979 19.6917L7.02155 27.3736L1.93374 17.768L1.37208 16.7081L0.393803 14.86L0 14.1163L0.622178 12.971L1.13792 12.018L2.18979 10.0785H2.19131L2.42212 9.65332Z" fill="url(#paint7_linear_904_17452)"/>
<path d="M12.49 19.7124L13.8341 17.8285L20.9199 17.8646L14.1072 27.4095L7.02148 27.3736L12.49 19.7124Z" fill="url(#paint8_linear_904_17452)"/>
<path d="M15.8962 14.9391L17.2403 13.0555L24.3276 13.0917L22.9823 14.9753L15.8962 14.9391Z" fill="url(#paint9_linear_904_17452)"/>
<path d="M25.9098 0.908813L32.9974 0.944951L27.527 8.60744L26.39 10.2019L19.3027 10.1657L25.9098 0.908813Z" fill="url(#paint10_linear_904_17452)"/>
<path d="M7.30191 10.1047L32.5491 10.2332L34.2891 13.1421L5.73096 12.9969L7.30191 10.1047Z" fill="url(#paint11_linear_904_17452)"/>
<path d="M5.55542 14.8866L34.4438 15.0336L32.8744 17.9255L7.29728 17.7955L5.55542 14.8866Z" fill="url(#paint12_linear_904_17452)"/>
<path d="M51.6682 26.0564C52.3039 26.0564 52.8155 26.2465 53.2033 26.6268C53.5973 27.007 53.7944 27.5711 53.7944 28.3189V31.247H52.307V28.5471C52.307 28.1415 52.2181 27.8404 52.0401 27.644C51.8621 27.4412 51.6047 27.3398 51.2678 27.3398C50.8928 27.3398 50.594 27.457 50.3716 27.6915C50.1491 27.9197 50.0379 28.2619 50.0379 28.7182V31.247H48.5505V24.1931H50.0379V26.6648C50.2349 26.4683 50.4733 26.3194 50.753 26.218C51.0326 26.1102 51.3377 26.0564 51.6682 26.0564Z" fill="#34A573"/>
<path d="M55.1426 26.1324H56.6299V31.247H55.1426V26.1324ZM55.8863 25.4194C55.6129 25.4194 55.3905 25.3402 55.2189 25.1818C55.0472 25.0233 54.9614 24.8268 54.9614 24.5923C54.9614 24.3578 55.0472 24.1614 55.2189 24.0029C55.3905 23.8445 55.6129 23.7653 55.8863 23.7653C56.1596 23.7653 56.382 23.8413 56.5537 23.9934C56.7253 24.1455 56.8111 24.3357 56.8111 24.5638C56.8111 24.811 56.7253 25.017 56.5537 25.1818C56.382 25.3402 56.1596 25.4194 55.8863 25.4194Z" fill="#34A573"/>
<path d="M61.0422 26.0564C61.5189 26.0564 61.9511 26.1673 62.3389 26.3891C62.733 26.6046 63.0412 26.912 63.2637 27.3112C63.4862 27.7042 63.5974 28.1637 63.5974 28.6897C63.5974 29.2157 63.4862 29.6784 63.2637 30.0777C63.0412 30.4706 62.733 30.778 62.3389 30.9998C61.9511 31.2153 61.5189 31.3231 61.0422 31.3231C60.3875 31.3231 59.8727 31.1171 59.4977 30.7051V33.0913H58.0103V26.1324H59.4309V26.7218C59.7996 26.2782 60.3367 26.0564 61.0422 26.0564ZM60.7848 30.1062C61.1662 30.1062 61.4776 29.9794 61.7191 29.7259C61.967 29.4661 62.091 29.1207 62.091 28.6897C62.091 28.2587 61.967 27.9165 61.7191 27.663C61.4776 27.4031 61.1662 27.2732 60.7848 27.2732C60.4034 27.2732 60.0888 27.4031 59.8409 27.663C59.5994 27.9165 59.4786 28.2587 59.4786 28.6897C59.4786 29.1207 59.5994 29.4661 59.8409 29.7259C60.0888 29.9794 60.4034 30.1062 60.7848 30.1062Z" fill="#34A573"/>
<path d="M67.0338 31.3231C66.4935 31.3231 66.0073 31.2121 65.5751 30.9903C65.1492 30.7622 64.8155 30.4484 64.574 30.0492C64.3324 29.6499 64.2117 29.1967 64.2117 28.6897C64.2117 28.1827 64.3324 27.7295 64.574 27.3303C64.8155 26.931 65.1492 26.6204 65.5751 26.3986C66.0073 26.1704 66.4935 26.0564 67.0338 26.0564C67.5741 26.0564 68.0572 26.1704 68.483 26.3986C68.9089 26.6204 69.2426 26.931 69.4841 27.3303C69.7257 27.7295 69.8464 28.1827 69.8464 28.6897C69.8464 29.1967 69.7257 29.6499 69.4841 30.0492C69.2426 30.4484 68.9089 30.7622 68.483 30.9903C68.0572 31.2121 67.5741 31.3231 67.0338 31.3231ZM67.0338 30.1062C67.4152 30.1062 67.7266 29.9794 67.9682 29.7259C68.2161 29.4661 68.34 29.1207 68.34 28.6897C68.34 28.2587 68.2161 27.9165 67.9682 27.663C67.7266 27.4031 67.4152 27.2732 67.0338 27.2732C66.6525 27.2732 66.3378 27.4031 66.0899 27.663C65.842 27.9165 65.7181 28.2587 65.7181 28.6897C65.7181 29.1207 65.842 29.4661 66.0899 29.7259C66.3378 29.9794 66.6525 30.1062 67.0338 30.1062Z" fill="#34A573"/>
<path d="M74.149 30.9998C74.0028 31.1076 73.8216 31.19 73.6055 31.247C73.3958 31.2977 73.1733 31.3231 72.9381 31.3231C72.3279 31.3231 71.8544 31.1678 71.5175 30.8572C71.187 30.5467 71.0217 30.0904 71.0217 29.4883V27.3873H70.2304V26.2465H71.0217V25.0011H72.5091V26.2465H73.7867V27.3873H72.5091V29.4693C72.5091 29.6847 72.5631 29.8527 72.6712 29.9731C72.7856 30.0872 72.9445 30.1442 73.1479 30.1442C73.3831 30.1442 73.5833 30.0809 73.7485 29.9541L74.149 30.9998Z" fill="#34A573"/>
<path d="M79.8502 28.7087C79.8502 28.7277 79.8406 28.8608 79.8216 29.108H75.9411C76.0111 29.4249 76.1763 29.6752 76.4369 29.859C76.6975 30.0428 77.0217 30.1347 77.4094 30.1347C77.6764 30.1347 77.9115 30.0967 78.1149 30.0206C78.3247 29.9383 78.5186 29.8115 78.6965 29.6404L79.4879 30.496C79.0048 31.0474 78.2993 31.3231 77.3713 31.3231C76.7929 31.3231 76.2812 31.2121 75.8363 30.9903C75.3913 30.7622 75.0481 30.4484 74.8066 30.0492C74.565 29.6499 74.4443 29.1967 74.4443 28.6897C74.4443 28.189 74.5618 27.739 74.797 27.3398C75.0386 26.9341 75.3659 26.6204 75.779 26.3986C76.1986 26.1704 76.6657 26.0564 77.1806 26.0564C77.6827 26.0564 78.1372 26.1641 78.544 26.3796C78.9508 26.5951 79.2686 26.9056 79.4974 27.3112C79.7326 27.7105 79.8502 28.1764 79.8502 28.7087ZM77.1901 27.1782C76.8532 27.1782 76.5704 27.2732 76.3416 27.4634C76.1127 27.6535 75.9729 27.9133 75.9221 28.2429H78.4486C78.3978 27.9197 78.258 27.663 78.0291 27.4729C77.8003 27.2764 77.5206 27.1782 77.1901 27.1782Z" fill="#34A573"/>
<path d="M83.0428 29.2411L82.3277 29.9446V31.247H80.8404V24.1931H82.3277V28.1859L84.5016 26.1324H86.2749L84.1393 28.2999L86.4656 31.247H84.6636L83.0428 29.2411Z" fill="#34A573"/>
<path d="M89.1103 26.0564C89.9049 26.0564 90.515 26.2465 90.9409 26.6268C91.3668 27.0007 91.5797 27.5679 91.5797 28.3285V31.247H90.1877V30.6101C89.908 31.0854 89.3868 31.3231 88.6241 31.3231C88.23 31.3231 87.8868 31.2565 87.5944 31.1234C87.3084 30.9903 87.0891 30.8065 86.9365 30.572C86.784 30.3375 86.7077 30.0713 86.7077 29.7735C86.7077 29.2981 86.8857 28.9242 87.2416 28.6517C87.6039 28.3792 88.1601 28.2429 88.9101 28.2429H90.0924C90.0924 27.9197 89.9938 27.6725 89.7968 27.5014C89.5998 27.3239 89.3042 27.2352 88.9101 27.2352C88.6368 27.2352 88.3667 27.2796 88.0997 27.3683C87.8391 27.4507 87.6166 27.5648 87.4323 27.7105L86.8984 26.6743C87.1781 26.4778 87.5118 26.3257 87.8995 26.218C88.2936 26.1102 88.6972 26.0564 89.1103 26.0564ZM88.9959 30.3249C89.2502 30.3249 89.4758 30.2678 89.6729 30.1537C89.8699 30.0333 90.0097 29.859 90.0924 29.6309V29.108H89.0722C88.462 29.108 88.1569 29.3076 88.1569 29.7069C88.1569 29.8971 88.23 30.0492 88.3762 30.1632C88.5287 30.271 88.7353 30.3249 88.9959 30.3249Z" fill="#34A573"/>
<defs>
<linearGradient id="paint0_linear_904_17452" x1="29.9707" y1="27.3742" x2="30.0082" y2="20.0093" gradientUnits="userSpaceOnUse">
<stop stop-color="#60E6AF"/>
<stop offset="0.1" stop-color="#5BDEA8"/>
<stop offset="0.2" stop-color="#56D7A1"/>
<stop offset="0.3" stop-color="#50CF9A"/>
<stop offset="0.4" stop-color="#4BC793"/>
<stop offset="0.5" stop-color="#46C08C"/>
<stop offset="0.6" stop-color="#41B884"/>
<stop offset="0.7" stop-color="#3CB07D"/>
<stop offset="0.8" stop-color="#36A876"/>
<stop offset="0.9" stop-color="#31A16F"/>
<stop offset="1" stop-color="#2C9968"/>
</linearGradient>
<linearGradient id="paint1_linear_904_17452" x1="35.826" y1="27.4035" x2="35.8932" y2="14.1823" gradientUnits="userSpaceOnUse">
<stop stop-color="#60E6AF"/>
<stop offset="0.1" stop-color="#68E7A7"/>
<stop offset="0.2" stop-color="#70E79F"/>
<stop offset="0.3" stop-color="#77E897"/>
<stop offset="0.4" stop-color="#7FE88F"/>
<stop offset="0.5" stop-color="#87E988"/>
<stop offset="0.6" stop-color="#8FEA80"/>
<stop offset="0.7" stop-color="#97EA78"/>
<stop offset="0.8" stop-color="#9EEB70"/>
<stop offset="0.9" stop-color="#A6EB68"/>
<stop offset="1" stop-color="#AEEC60"/>
</linearGradient>
<linearGradient id="paint2_linear_904_17452" x1="29.4536" y1="0.927062" x2="29.4143" y2="8.61656" gradientUnits="userSpaceOnUse">
<stop stop-color="#60E6AF"/>
<stop offset="0.1" stop-color="#5BDEA8"/>
<stop offset="0.2" stop-color="#56D7A1"/>
<stop offset="0.3" stop-color="#50CF9A"/>
<stop offset="0.4" stop-color="#4BC793"/>
<stop offset="0.5" stop-color="#46C08C"/>
<stop offset="0.6" stop-color="#41B884"/>
<stop offset="0.7" stop-color="#3CB07D"/>
<stop offset="0.8" stop-color="#36A876"/>
<stop offset="0.9" stop-color="#31A16F"/>
<stop offset="1" stop-color="#2C9968"/>
</linearGradient>
<linearGradient id="paint3_linear_904_17452" x1="35.7703" y1="18.6574" x2="35.8606" y2="0.959069" gradientUnits="userSpaceOnUse">
<stop stop-color="#60E6AF"/>
<stop offset="0.1" stop-color="#68E7A7"/>
<stop offset="0.2" stop-color="#70E79F"/>
<stop offset="0.3" stop-color="#77E897"/>
<stop offset="0.4" stop-color="#7FE88F"/>
<stop offset="0.5" stop-color="#87E988"/>
<stop offset="0.6" stop-color="#8FEA80"/>
<stop offset="0.7" stop-color="#97EA78"/>
<stop offset="0.8" stop-color="#9EEB70"/>
<stop offset="0.9" stop-color="#A6EB68"/>
<stop offset="1" stop-color="#AEEC60"/>
</linearGradient>
<linearGradient id="paint4_linear_904_17452" x1="10.048" y1="0.944735" x2="10.0105" y2="8.30967" gradientUnits="userSpaceOnUse">
<stop stop-color="#60E6AF"/>
<stop offset="0.1" stop-color="#5BDEA8"/>
<stop offset="0.2" stop-color="#56D7A1"/>
<stop offset="0.3" stop-color="#50CF9A"/>
<stop offset="0.4" stop-color="#4BC793"/>
<stop offset="0.5" stop-color="#46C08C"/>
<stop offset="0.6" stop-color="#41B884"/>
<stop offset="0.7" stop-color="#3CB07D"/>
<stop offset="0.8" stop-color="#36A876"/>
<stop offset="0.9" stop-color="#31A16F"/>
<stop offset="1" stop-color="#2C9968"/>
</linearGradient>
<linearGradient id="paint5_linear_904_17452" x1="4.12536" y1="14.1374" x2="4.19252" y2="0.914678" gradientUnits="userSpaceOnUse">
<stop stop-color="#60E6AF"/>
<stop offset="0.1" stop-color="#68E7A7"/>
<stop offset="0.2" stop-color="#70E79F"/>
<stop offset="0.3" stop-color="#77E897"/>
<stop offset="0.4" stop-color="#7FE88F"/>
<stop offset="0.5" stop-color="#87E988"/>
<stop offset="0.6" stop-color="#8FEA80"/>
<stop offset="0.7" stop-color="#97EA78"/>
<stop offset="0.8" stop-color="#9EEB70"/>
<stop offset="0.9" stop-color="#A6EB68"/>
<stop offset="1" stop-color="#AEEC60"/>
</linearGradient>
<linearGradient id="paint6_linear_904_17452" x1="10.5647" y1="27.392" x2="10.6039" y2="19.7025" gradientUnits="userSpaceOnUse">
<stop stop-color="#60E6AF"/>
<stop offset="0.1" stop-color="#5BDEA8"/>
<stop offset="0.2" stop-color="#56D7A1"/>
<stop offset="0.3" stop-color="#50CF9A"/>
<stop offset="0.4" stop-color="#4BC793"/>
<stop offset="0.5" stop-color="#46C08C"/>
<stop offset="0.6" stop-color="#41B884"/>
<stop offset="0.7" stop-color="#3CB07D"/>
<stop offset="0.8" stop-color="#36A876"/>
<stop offset="0.9" stop-color="#31A16F"/>
<stop offset="1" stop-color="#2C9968"/>
</linearGradient>
<linearGradient id="paint7_linear_904_17452" x1="4.15819" y1="27.3591" x2="4.2485" y2="9.66258" gradientUnits="userSpaceOnUse">
<stop stop-color="#60E6AF"/>
<stop offset="0.1" stop-color="#68E7A7"/>
<stop offset="0.2" stop-color="#70E79F"/>
<stop offset="0.3" stop-color="#77E897"/>
<stop offset="0.4" stop-color="#7FE88F"/>
<stop offset="0.5" stop-color="#87E988"/>
<stop offset="0.6" stop-color="#8FEA80"/>
<stop offset="0.7" stop-color="#97EA78"/>
<stop offset="0.8" stop-color="#9EEB70"/>
<stop offset="0.9" stop-color="#A6EB68"/>
<stop offset="1" stop-color="#AEEC60"/>
</linearGradient>
<linearGradient id="paint8_linear_904_17452" x1="13.9462" y1="27.4089" x2="13.9949" y2="17.8295" gradientUnits="userSpaceOnUse">
<stop stop-color="#60E6AF"/>
<stop offset="0.1" stop-color="#5BDEA8"/>
<stop offset="0.2" stop-color="#56D7A1"/>
<stop offset="0.3" stop-color="#50CF9A"/>
<stop offset="0.4" stop-color="#4BC793"/>
<stop offset="0.5" stop-color="#46C08C"/>
<stop offset="0.6" stop-color="#41B884"/>
<stop offset="0.7" stop-color="#3CB07D"/>
<stop offset="0.8" stop-color="#36A876"/>
<stop offset="0.9" stop-color="#31A16F"/>
<stop offset="1" stop-color="#2C9968"/>
</linearGradient>
<linearGradient id="paint9_linear_904_17452" x1="20.107" y1="14.9606" x2="20.1167" y2="13.0701" gradientUnits="userSpaceOnUse">
<stop stop-color="#60E6AF"/>
<stop offset="0.1" stop-color="#5BDEA8"/>
<stop offset="0.2" stop-color="#56D7A1"/>
<stop offset="0.3" stop-color="#50CF9A"/>
<stop offset="0.4" stop-color="#4BC793"/>
<stop offset="0.5" stop-color="#46C08C"/>
<stop offset="0.6" stop-color="#41B884"/>
<stop offset="0.7" stop-color="#3CB07D"/>
<stop offset="0.8" stop-color="#36A876"/>
<stop offset="0.9" stop-color="#31A16F"/>
<stop offset="1" stop-color="#2C9968"/>
</linearGradient>
<linearGradient id="paint10_linear_904_17452" x1="26.1263" y1="10.2006" x2="26.1737" y2="0.910026" gradientUnits="userSpaceOnUse">
<stop stop-color="#60E6AF"/>
<stop offset="0.1" stop-color="#5BDEA8"/>
<stop offset="0.2" stop-color="#56D7A1"/>
<stop offset="0.3" stop-color="#50CF9A"/>
<stop offset="0.4" stop-color="#4BC793"/>
<stop offset="0.5" stop-color="#46C08C"/>
<stop offset="0.6" stop-color="#41B884"/>
<stop offset="0.7" stop-color="#3CB07D"/>
<stop offset="0.8" stop-color="#36A876"/>
<stop offset="0.9" stop-color="#31A16F"/>
<stop offset="1" stop-color="#2C9968"/>
</linearGradient>
<linearGradient id="paint11_linear_904_17452" x1="34.2966" y1="11.692" x2="5.73842" y2="11.5453" gradientUnits="userSpaceOnUse">
<stop stop-color="#60E6AF"/>
<stop offset="0.1" stop-color="#68E7A7"/>
<stop offset="0.2" stop-color="#70E79F"/>
<stop offset="0.3" stop-color="#77E897"/>
<stop offset="0.4" stop-color="#7FE88F"/>
<stop offset="0.5" stop-color="#87E988"/>
<stop offset="0.6" stop-color="#8FEA80"/>
<stop offset="0.7" stop-color="#97EA78"/>
<stop offset="0.8" stop-color="#9EEB70"/>
<stop offset="0.9" stop-color="#A6EB68"/>
<stop offset="1" stop-color="#AEEC60"/>
</linearGradient>
<linearGradient id="paint12_linear_904_17452" x1="34.4364" y1="16.4835" x2="5.54798" y2="16.3351" gradientUnits="userSpaceOnUse">
<stop stop-color="#60E6AF"/>
<stop offset="0.1" stop-color="#68E7A7"/>
<stop offset="0.2" stop-color="#70E79F"/>
<stop offset="0.3" stop-color="#77E897"/>
<stop offset="0.4" stop-color="#7FE88F"/>
<stop offset="0.5" stop-color="#87E988"/>
<stop offset="0.6" stop-color="#8FEA80"/>
<stop offset="0.7" stop-color="#97EA78"/>
<stop offset="0.8" stop-color="#9EEB70"/>
<stop offset="0.9" stop-color="#A6EB68"/>
<stop offset="1" stop-color="#AEEC60"/>
</linearGradient>
</defs>
</svg>
