<svg width="522" height="480" viewBox="0 0 522 480" fill="none" xmlns="http://www.w3.org/2000/svg">
<path d="M84.2198 397.719C181.852 448.728 340.144 448.728 437.776 397.719C535.408 346.709 535.408 264.026 437.776 213.017C340.144 162.007 181.852 162.018 84.2198 213.017C-13.412 264.015 -13.4012 346.72 84.2198 397.719Z" fill="#FAFAFA"/>
<path d="M357.91 391.306C372.36 398.195 395.823 398.195 410.262 391.306C424.702 384.417 424.723 373.249 410.262 366.392C395.801 359.535 372.349 359.502 357.91 366.392C343.47 373.281 343.448 384.471 357.91 391.306Z" fill="#EBEBEB"/>
<path d="M69.7046 236.924L76.0632 233.295C76.0632 233.295 79.1071 216.505 76.8323 202.065C73.5826 181.766 59.8039 174.768 54.7885 176.783C49.7732 178.798 48.5816 184.809 57.6483 196.541C62.9994 203.463 69.878 218.086 69.7046 236.924Z" fill="#E0E0E0"/>
<path d="M72.5858 230.652C72.5023 230.648 72.4205 230.627 72.3451 230.591C72.2697 230.555 72.2023 230.504 72.1468 230.441C72.0913 230.379 72.0489 230.306 72.0219 230.227C71.995 230.147 71.9842 230.064 71.9901 229.98C73.3874 204.654 68.5995 189.738 55.8066 179.946C55.7398 179.896 55.6837 179.833 55.6415 179.761C55.5993 179.689 55.5718 179.609 55.5608 179.527C55.5497 179.444 55.5551 179.36 55.5769 179.279C55.5986 179.199 55.6362 179.123 55.6874 179.058C55.7919 178.927 55.9424 178.843 56.1077 178.82C56.2731 178.798 56.4406 178.84 56.5757 178.938C69.7369 189.012 74.7198 204.308 73.2141 230.056C73.2058 230.217 73.1359 230.369 73.019 230.48C72.9021 230.59 72.747 230.652 72.5858 230.652Z" fill="white"/>
<path d="M50.5311 247.702C49.5237 248.276 47.4547 247.02 46.664 246.489C45.3047 245.563 44.2076 244.302 43.4792 242.827C42.6491 241.151 42.3686 239.256 42.6777 237.411C42.841 236.444 43.0689 235.488 43.3601 234.552C43.6309 233.62 43.8909 232.688 44.1617 231.768C44.4846 230.869 44.6245 229.915 44.5733 228.962C44.3242 227.056 42.6343 225.712 41.0961 224.564C39.5579 223.416 37.6406 221.639 37.6406 219.343C37.7678 217.566 38.4758 215.88 39.6554 214.544C40.7387 213.158 42.0602 211.934 43.046 210.471C43.8254 209.449 44.2341 208.192 44.205 206.907C44.0979 206.122 43.8326 205.367 43.4251 204.687C42.4952 203.266 41.6802 201.774 40.9878 200.224C40.6565 199.441 40.5529 198.58 40.6889 197.741C40.825 196.901 41.1952 196.118 41.7569 195.479C42.3163 195.062 42.9528 194.761 43.6297 194.591C44.3065 194.422 45.0101 194.389 45.6999 194.494C47.0018 194.657 48.2538 195.096 49.372 195.783C53.0117 197.808 55.0915 202.12 58.9478 203.679C60.4869 204.153 62.0532 204.533 63.6382 204.817C64.4285 204.964 65.1792 205.275 65.8416 205.73C66.504 206.185 67.0635 206.775 67.4837 207.46C68.9027 210.287 66.2705 213.775 67.267 216.786C68.1553 219.44 70.7334 220.459 72.1849 222.853C72.7778 223.913 73.0168 225.135 72.8674 226.341C72.7419 228.375 72.2425 230.369 71.3942 232.223C70.446 234.068 69.3596 235.838 68.1445 237.52C68.1445 237.52 50.6394 247.615 50.5311 247.702Z" fill="#F0F0F0"/>
<path d="M60.9304 242.329H60.8545C60.7718 242.32 60.6917 242.294 60.619 242.254C60.5463 242.213 60.4824 242.158 60.431 242.093C60.3796 242.027 60.3417 241.952 60.3196 241.872C60.2975 241.792 60.2915 241.708 60.3021 241.625C62.1436 227.056 55.1892 207.417 44.8227 197.841C44.7622 197.785 44.7134 197.717 44.6791 197.642C44.6447 197.567 44.6255 197.486 44.6225 197.403C44.6195 197.321 44.6327 197.239 44.6615 197.161C44.6903 197.084 44.734 197.013 44.7902 196.953C44.8464 196.892 44.9139 196.843 44.989 196.809C45.064 196.775 45.1451 196.755 45.2276 196.752C45.3101 196.749 45.3924 196.763 45.4697 196.791C45.5471 196.82 45.618 196.864 45.6785 196.92C56.5108 206.897 63.476 226.612 61.5587 241.788C61.5355 241.938 61.4595 242.075 61.3443 242.174C61.2292 242.273 61.0824 242.328 60.9304 242.329Z" fill="white"/>
<path d="M59.1211 223.318C58.9838 223.318 58.8504 223.273 58.742 223.188C53.2067 219.04 44.3892 219.82 44.3025 219.82C44.1359 219.835 43.9698 219.784 43.8408 219.678C43.7118 219.571 43.6304 219.418 43.6146 219.251C43.5988 219.084 43.6499 218.918 43.7565 218.789C43.8632 218.66 44.0167 218.579 44.1833 218.563C44.5625 218.563 53.5858 217.751 59.5002 222.192C59.567 222.242 59.6231 222.305 59.6653 222.377C59.7075 222.449 59.735 222.528 59.7461 222.611C59.7572 222.694 59.7517 222.778 59.7299 222.858C59.7082 222.939 59.6706 223.014 59.6194 223.08C59.5611 223.156 59.4856 223.218 59.399 223.259C59.3123 223.301 59.2171 223.321 59.1211 223.318Z" fill="white"/>
<path d="M58.2224 219.679C58.0558 219.668 57.8998 219.593 57.7869 219.47C57.6739 219.347 57.6127 219.185 57.6158 219.018C57.744 216.77 58.3287 214.571 59.3343 212.556C60.34 210.541 61.7456 208.752 63.4653 207.297C63.5974 207.194 63.7653 207.147 63.9319 207.168C64.0984 207.188 64.2501 207.274 64.3535 207.406C64.457 207.538 64.5037 207.706 64.4833 207.872C64.463 208.039 64.3774 208.191 64.2452 208.294C62.6726 209.641 61.3838 211.288 60.4539 213.139C59.5241 214.989 58.9717 217.006 58.8291 219.072C58.8212 219.23 58.7548 219.38 58.6427 219.492C58.5305 219.604 58.3808 219.671 58.2224 219.679Z" fill="white"/>
<path d="M437.643 167.657L426.484 189.642L428.281 190.554L439.439 168.569L437.643 167.657Z" fill="#37474F"/>
<path d="M416.955 165.884L415.242 166.945L426.121 184.518L427.834 183.458L416.955 165.884Z" fill="#37474F"/>
<path d="M429.089 163.827V216.797C429.073 216.946 429.018 217.088 428.931 217.209C428.843 217.331 428.726 217.428 428.59 217.491C428.221 217.677 427.813 217.774 427.399 217.774C426.985 217.774 426.577 217.677 426.207 217.491C426.07 217.43 425.952 217.333 425.864 217.211C425.777 217.09 425.723 216.947 425.709 216.797V163.827H429.089Z" fill="#37474F"/>
<path d="M454.081 170.032C466.603 164.76 472.48 150.336 467.209 137.814C461.937 125.292 447.513 119.414 434.991 124.686C422.469 129.957 416.591 144.381 421.863 156.903C427.134 169.425 441.559 175.303 454.081 170.032Z" fill="#34A573"/>
<path opacity="0.2" d="M452.237 141.047C455.411 131.059 458.791 127.149 456.646 125.936C452.571 123.628 447.922 122.531 443.245 122.775C438.569 123.018 434.059 124.591 430.245 127.309C426.432 130.028 423.473 133.778 421.718 138.119C419.962 142.461 419.482 147.213 420.334 151.818C421.186 156.423 423.335 160.688 426.528 164.114C429.72 167.54 433.825 169.983 438.358 171.157C442.892 172.331 447.666 172.186 452.12 170.74C456.574 169.294 460.523 166.606 463.503 162.993C456.223 165.127 448.186 154.002 452.237 141.047Z" fill="black"/>
<path d="M418.002 166.525C424.753 159.774 424.753 148.827 418.002 142.076C411.25 135.324 400.304 135.324 393.552 142.076C386.801 148.827 386.801 159.774 393.552 166.525C400.304 173.277 411.25 173.277 418.002 166.525Z" fill="#34A573"/>
<path d="M405.778 137.017C402.151 137.012 398.615 138.149 395.671 140.267C395.205 150.828 404.175 161.13 401.661 164.585C399.148 168.041 392.996 165.929 390.829 162.982C392.352 165.619 394.542 167.809 397.18 169.33C399.817 170.851 402.809 171.651 405.854 171.648C408.899 171.645 411.89 170.84 414.525 169.314C417.159 167.788 419.346 165.595 420.864 162.956C422.382 160.316 423.177 157.323 423.17 154.278C423.164 151.233 422.355 148.244 420.826 145.611C419.296 142.978 417.1 140.794 414.458 139.28C411.817 137.766 408.823 136.974 405.778 136.985V137.017Z" fill="#34A573"/>
<path opacity="0.2" d="M405.778 137.017C402.151 137.012 398.615 138.149 395.671 140.267C395.205 150.828 404.175 161.13 401.661 164.585C399.148 168.041 392.996 165.929 390.829 162.982C392.352 165.619 394.542 167.809 397.18 169.33C399.817 170.851 402.809 171.651 405.854 171.648C408.899 171.645 411.89 170.84 414.525 169.314C417.159 167.788 419.346 165.595 420.864 162.956C422.382 160.316 423.177 157.323 423.17 154.278C423.164 151.233 422.355 148.244 420.826 145.611C419.296 142.978 417.1 140.794 414.458 139.28C411.817 137.766 408.823 136.974 405.778 136.985V137.017Z" fill="black"/>
<path d="M427.399 167.38C444.916 167.38 459.116 153.18 459.116 135.663C459.116 118.146 444.916 103.946 427.399 103.946C409.882 103.946 395.682 118.146 395.682 135.663C395.682 153.18 409.882 167.38 427.399 167.38Z" fill="#34A573"/>
<path opacity="0.1" d="M458.271 142.91C457.067 148.041 454.604 152.791 451.103 156.731C447.603 160.671 443.175 163.677 438.222 165.476C433.268 167.276 427.944 167.812 422.731 167.038C417.518 166.263 412.58 164.202 408.363 161.04C404.147 157.878 400.785 153.715 398.581 148.927C396.377 144.139 395.401 138.878 395.741 133.619C396.081 128.359 397.727 123.267 400.529 118.803C403.331 114.34 407.201 110.644 411.789 108.052C409.041 109.616 406.537 111.576 404.358 113.868C403.809 116.245 403.529 118.676 403.524 121.115C403.522 127.463 405.424 133.666 408.987 138.92C412.549 144.174 417.606 148.238 423.503 150.586C429.401 152.934 435.868 153.458 442.066 152.089C448.265 150.721 453.91 147.523 458.271 142.91Z" fill="black"/>
<path d="M453.19 235.884L229.07 365.276C228.343 365.644 227.539 365.836 226.724 365.836C225.909 365.836 225.106 365.644 224.379 365.276L39.8613 258.751C39.1804 258.304 38.614 257.704 38.2076 256.998C37.8012 256.293 37.5662 255.502 37.5215 254.689V249.944C37.5645 249.131 37.7988 248.339 38.2053 247.633C38.6119 246.927 39.1792 246.327 39.8613 245.882L264.036 116.479C264.763 116.111 265.567 115.919 266.382 115.919C267.196 115.919 268 116.111 268.727 116.479L453.19 223.069C453.871 223.516 454.438 224.116 454.844 224.822C455.25 225.527 455.486 226.318 455.53 227.131V231.876C455.477 232.679 455.238 233.46 454.832 234.155C454.426 234.851 453.864 235.443 453.19 235.884Z" fill="#34A573"/>
<path opacity="0.2" d="M453.19 235.884L229.07 365.276C228.343 365.644 227.539 365.836 226.724 365.836C225.909 365.836 225.106 365.644 224.379 365.276L39.8613 258.751C39.1804 258.304 38.614 257.704 38.2076 256.998C37.8012 256.293 37.5662 255.502 37.5215 254.689V249.944C37.5645 249.131 37.7988 248.339 38.2053 247.633C38.6119 246.927 39.1792 246.327 39.8613 245.882L264.036 116.479C264.763 116.111 265.567 115.919 266.382 115.919C267.196 115.919 268 116.111 268.727 116.479L453.19 223.069C453.871 223.516 454.438 224.116 454.844 224.822C455.25 225.527 455.486 226.318 455.53 227.131V231.876C455.477 232.679 455.238 233.46 454.832 234.155C454.426 234.851 453.864 235.443 453.19 235.884Z" fill="black"/>
<g style="mix-blend-mode:multiply">
<path d="M455.531 227.077C455.486 226.264 455.251 225.473 454.844 224.767C454.438 224.062 453.872 223.462 453.191 223.015L451.133 221.834L226.719 351.389V365.839C227.535 365.856 228.341 365.662 229.059 365.276L453.18 235.884C453.861 235.437 454.427 234.837 454.834 234.131C455.24 233.426 455.475 232.635 455.52 231.822L455.531 227.077Z" fill="#34A573"/>
</g>
<g style="mix-blend-mode:multiply" opacity="0.2">
<path d="M455.531 227.077C455.486 226.264 455.251 225.473 454.844 224.767C454.438 224.062 453.872 223.462 453.191 223.015L451.133 221.834L226.719 351.389V365.839C227.535 365.856 228.341 365.662 229.059 365.276L453.18 235.884C453.861 235.437 454.427 234.837 454.834 234.131C455.24 233.426 455.475 232.635 455.52 231.822L455.531 227.077Z" fill="black"/>
</g>
<path d="M39.8615 248.59L224.379 355.115C225.106 355.484 225.91 355.676 226.725 355.676C227.539 355.676 228.343 355.484 229.07 355.115L453.191 225.723C453.474 225.627 453.719 225.445 453.893 225.202C454.068 224.959 454.161 224.668 454.161 224.369C454.161 224.07 454.068 223.779 453.893 223.536C453.719 223.293 453.474 223.111 453.191 223.015L268.673 116.479C267.946 116.111 267.142 115.919 266.328 115.919C265.513 115.919 264.709 116.111 263.982 116.479L39.8615 245.882C39.5786 245.978 39.3328 246.16 39.1588 246.403C38.9847 246.646 38.8911 246.937 38.8911 247.236C38.8911 247.535 38.9847 247.826 39.1588 248.069C39.3328 248.312 39.5786 248.494 39.8615 248.59Z" fill="#34A573"/>
<path d="M138.143 275.509C143.299 272.53 143.299 267.655 138.143 264.676L114.756 251.233C114.508 251.091 114.303 250.886 114.16 250.638C114.017 250.391 113.942 250.111 113.942 249.825C113.942 249.539 114.017 249.259 114.16 249.012C114.303 248.764 114.508 248.559 114.756 248.417L125.523 242.21L107.921 232.049L86.4944 244.355C81.3382 247.334 81.3491 252.197 86.4944 255.187L109.946 268.662C110.194 268.805 110.399 269.01 110.542 269.257C110.685 269.505 110.761 269.785 110.761 270.071C110.761 270.356 110.685 270.637 110.542 270.884C110.399 271.131 110.194 271.336 109.946 271.479L94.7162 280.264L112.384 290.37L138.143 275.509Z" fill="#F5F5F5"/>
<path d="M200.321 198.967L257.526 165.939V226.915L200.321 259.932V198.967Z" fill="#E0E0E0"/>
<path d="M238.754 192.067L219.093 203.376C218.754 203.602 218.472 203.903 218.269 204.257C218.066 204.61 217.947 205.006 217.923 205.412V228.16C217.923 228.908 218.454 229.244 219.093 228.832L238.754 217.523C239.096 217.3 239.38 216.999 239.583 216.645C239.786 216.291 239.903 215.894 239.924 215.487V192.739C239.924 191.991 239.404 191.655 238.754 192.067Z" fill="#455A64"/>
<path d="M237.671 215.595C237.704 215.525 237.733 215.452 237.757 215.378V195.143L220.177 205.25C220.143 205.32 220.114 205.393 220.09 205.467V225.701L237.671 215.595Z" fill="#F5F5F5"/>
<path d="M239.924 202.813L217.923 215.487V218.021L239.924 205.358V202.813Z" fill="#455A64"/>
<path d="M230.023 197.083V222.538L227.824 223.763V198.361L230.023 197.083Z" fill="#455A64"/>
<path d="M200.321 259.932V265.012L257.526 231.995V226.915L200.321 259.932Z" fill="#263238"/>
<path d="M314.732 198.967L257.526 165.939V226.915L314.732 259.932V198.967Z" fill="#F0F0F0"/>
<path d="M276.299 192.067L295.959 203.376C296.299 203.602 296.581 203.903 296.784 204.257C296.987 204.61 297.105 205.006 297.129 205.412V228.16C297.129 228.908 296.599 229.244 295.959 228.832L276.299 217.523C275.957 217.3 275.673 216.999 275.47 216.645C275.266 216.291 275.15 215.894 275.129 215.487V192.739C275.129 191.991 275.649 191.655 276.299 192.067Z" fill="#455A64"/>
<path d="M277.382 215.595C277.382 215.595 277.306 215.443 277.285 215.378V195.143L294.866 205.25C294.899 205.32 294.928 205.393 294.952 205.467V225.701L277.382 215.595Z" fill="#F5F5F5"/>
<path d="M275.129 202.813L297.129 215.487V218.021L275.129 205.358V202.813Z" fill="#455A64"/>
<path d="M285.019 197.083V222.538L287.228 223.763V198.361L285.019 197.083Z" fill="#455A64"/>
<path d="M314.732 259.932V265.012L257.526 231.995V226.915L314.732 259.932Z" fill="#455A64"/>
<path d="M314.731 198.967L363.13 104.975L398.335 150.698L398.325 211.663L314.731 259.932V198.967Z" fill="#E0E0E0"/>
<path d="M347.684 195.143L328.023 206.452C327.682 206.676 327.398 206.977 327.195 207.331C326.992 207.685 326.875 208.081 326.853 208.489V231.237C326.853 231.984 327.373 232.32 328.023 231.919L347.684 220.599C348.024 220.377 348.307 220.078 348.51 219.726C348.714 219.374 348.831 218.98 348.853 218.574V195.826C348.853 195.078 348.334 194.775 347.684 195.143Z" fill="#455A64"/>
<path d="M346.6 218.671C346.634 218.601 346.663 218.529 346.687 218.455V198.22L329.106 208.337C329.072 208.404 329.043 208.472 329.02 208.543V228.789L346.6 218.671Z" fill="#F5F5F5"/>
<path d="M348.853 205.9L326.853 218.563V221.109L348.853 208.446V205.9Z" fill="#455A64"/>
<path d="M338.953 200.17V225.626L336.754 226.839V201.437L338.953 200.17Z" fill="#455A64"/>
<path d="M387.287 172.266L367.626 183.585C367.284 183.806 367 184.105 366.797 184.457C366.594 184.809 366.477 185.205 366.456 185.611V208.359C366.456 209.106 366.976 209.442 367.626 209.041L387.276 197.732C387.618 197.509 387.904 197.209 388.109 196.855C388.314 196.501 388.433 196.104 388.457 195.696V172.948C388.457 172.157 387.926 171.897 387.287 172.266Z" fill="#455A64"/>
<path d="M386.204 195.793C386.239 195.724 386.268 195.652 386.29 195.577V175.342L368.709 185.459C368.709 185.459 368.633 185.6 368.612 185.676V205.911L386.204 195.793Z" fill="#F5F5F5"/>
<path d="M388.457 183.022L366.456 195.685V198.231L388.457 185.568V183.022Z" fill="#455A64"/>
<path d="M378.556 177.292V202.748L376.357 203.961V178.559L378.556 177.292Z" fill="#455A64"/>
<path d="M353.306 138.577L364.138 132.305C364.777 131.937 365.308 132.24 365.308 132.988V155.736C365.284 156.142 365.166 156.538 364.963 156.891C364.76 157.245 364.477 157.546 364.138 157.772L353.306 164.033C352.656 164.412 352.125 164.109 352.125 163.361V140.614C352.149 140.205 352.268 139.808 352.473 139.455C352.678 139.101 352.963 138.8 353.306 138.577Z" fill="#455A64"/>
<path d="M354.292 140.657L354.432 140.462L363.163 135.425V155.725C363.122 155.79 363.075 155.852 363.022 155.909L354.302 160.946L354.292 140.657Z" fill="#F5F5F5"/>
<path d="M363.163 144.362L354.292 149.485V152.02L363.163 146.896V144.362Z" fill="#455A64"/>
<path d="M314.731 259.932L398.325 211.663L398.335 216.743L314.731 265.012V259.932Z" fill="#263238"/>
<path d="M200.321 198.967L151.922 104.975L116.717 150.698V211.663L200.321 259.932V198.967Z" fill="#F5F5F5"/>
<path d="M125.523 216.743V171.02L143.126 181.181V226.915L125.523 216.743Z" fill="#263238"/>
<path d="M161.899 192.067L181.548 203.376C181.891 203.599 182.176 203.9 182.381 204.254C182.586 204.607 182.706 205.004 182.729 205.412V228.16C182.729 228.908 182.198 229.244 181.548 228.832L161.899 217.523C161.557 217.3 161.273 216.999 161.069 216.645C160.866 216.291 160.749 215.894 160.729 215.487V192.739C160.718 191.991 161.249 191.655 161.899 192.067Z" fill="#455A64"/>
<path d="M162.982 215.595C162.944 215.525 162.911 215.453 162.884 215.378V195.143L180.465 205.25C180.503 205.319 180.536 205.392 180.563 205.467V225.701L162.982 215.595Z" fill="#F5F5F5"/>
<path d="M160.718 202.813L182.729 215.487V218.021L160.718 205.358V202.813Z" fill="#455A64"/>
<path d="M170.619 197.083V222.538L172.818 223.763V198.361L170.619 197.083Z" fill="#455A64"/>
<path d="M161.747 138.577L150.915 132.305C150.265 131.937 149.745 132.24 149.745 132.988V155.736C149.766 156.143 149.883 156.54 150.086 156.893C150.29 157.247 150.573 157.548 150.915 157.772L161.747 164.033C162.397 164.412 162.917 164.109 162.917 163.361V140.614C162.895 140.206 162.778 139.81 162.575 139.456C162.372 139.102 162.088 138.801 161.747 138.577Z" fill="#455A64"/>
<path d="M160.75 140.657L160.62 140.462L151.889 135.425V155.725C151.93 155.79 151.977 155.852 152.03 155.909L160.75 160.946V140.657Z" fill="#F5F5F5"/>
<path d="M151.889 144.362L160.761 149.485V152.02L151.889 146.896V144.362Z" fill="#455A64"/>
<path d="M315.674 202.065L257.526 168.485V46.5348L364.073 108.073L315.674 202.065Z" fill="#455A64"/>
<path d="M363.13 104.975L362.123 106.925L400.719 149.323L402.733 148.153L363.13 104.975Z" fill="#455A64"/>
<path d="M400.719 149.323L398.336 150.698L362.308 111.507L363.748 108.712L400.719 149.323Z" fill="#263238"/>
<path d="M314.732 198.967L257.526 165.94V44L363.131 104.975L314.732 198.967Z" fill="#37474F"/>
<path d="M199.378 202.065L257.526 168.485V46.5348L150.979 108.073L199.378 202.065Z" fill="#455A64"/>
<path d="M151.922 104.975L152.929 106.925L114.334 149.323L112.319 148.153L151.922 104.975Z" fill="#455A64"/>
<path d="M114.333 149.323L116.717 150.698L152.745 111.507L151.304 108.712L114.333 149.323Z" fill="#263238"/>
<path d="M200.321 198.967L257.526 165.94V44L151.922 104.975L200.321 198.967Z" fill="#263238"/>
<path d="M201.426 137.364L213.525 160.859V135.457L201.426 128.47V137.364Z" fill="#F0F0F0"/>
<path d="M213.525 135.457L226.719 112.59L235.526 122.751V148.153L213.525 160.859V135.457Z" fill="#E0E0E0"/>
<path d="M220.458 132.652L228.593 127.951C229.081 127.669 229.471 127.896 229.471 128.46V145.488C229.454 145.792 229.365 146.088 229.213 146.351C229.06 146.615 228.848 146.838 228.593 147.005L220.458 151.706C219.971 151.987 219.57 151.706 219.57 151.208V134.179C219.587 133.873 219.677 133.574 219.831 133.309C219.985 133.044 220.2 132.818 220.458 132.652Z" fill="#455A64"/>
<path d="M221.195 134.179C221.195 134.179 221.271 134.071 221.303 134.038L227.803 130.258V145.488L227.705 145.629L221.206 149.399L221.195 134.179Z" fill="#F5F5F5"/>
<path d="M227.846 136.963L221.195 140.798V142.704L227.846 138.859V136.963Z" fill="#455A64"/>
<path d="M226.719 112.59L231.128 115.136L239.924 125.297L235.526 122.751L226.719 112.59Z" fill="#263238"/>
<path d="M226.719 111.507L231.128 114.042L239.924 124.213L235.526 121.668L226.719 111.507Z" fill="#263238"/>
<path d="M231.128 115.136L213.525 140.538L195.923 130.377L213.525 104.964L231.128 115.136Z" fill="#37474F"/>
<path d="M231.128 114.042L213.525 139.454L195.923 129.294L213.525 103.881L231.128 114.042Z" fill="#37474F"/>
<path d="M231.128 114.042V115.136L239.924 125.297V124.213L231.128 114.042Z" fill="#455A64"/>
<path d="M231.128 114.042L213.525 139.455V140.538L231.128 115.136V114.042Z" fill="#455A64"/>
<path d="M195.923 129.294V130.377L213.525 140.538V139.454L195.923 129.294Z" fill="#263238"/>
<path d="M313.627 137.364L301.527 160.859V135.457L313.627 128.47V137.364Z" fill="#E0E0E0"/>
<path d="M301.527 135.457L288.323 112.59L279.527 122.751V148.153L301.527 160.859V135.457Z" fill="#F5F5F5"/>
<path d="M294.595 132.652L286.46 127.951C285.972 127.669 285.571 127.896 285.571 128.46V145.488C285.59 145.793 285.681 146.089 285.835 146.352C285.989 146.615 286.203 146.839 286.46 147.005L294.595 151.706C295.082 151.987 295.472 151.706 295.472 151.208V134.179C295.457 133.873 295.369 133.576 295.217 133.31C295.064 133.045 294.851 132.819 294.595 132.652Z" fill="#455A64"/>
<path d="M293.847 134.179C293.818 134.13 293.785 134.083 293.749 134.038L287.25 130.258V145.488C287.29 145.532 287.326 145.579 287.358 145.629L293.858 149.399L293.847 134.179Z" fill="#FAFAFA"/>
<path d="M287.196 136.963L293.847 140.798V142.704L287.196 138.859V136.963Z" fill="#455A64"/>
<path d="M288.323 112.59L283.925 115.136L275.129 125.297L279.527 122.751L288.323 112.59Z" fill="#263238"/>
<path d="M288.323 111.507L283.925 114.042L275.129 124.213L279.527 121.668L288.323 111.507Z" fill="#263238"/>
<path d="M283.925 115.136L301.527 140.538L319.13 130.377L301.527 104.964L283.925 115.136Z" fill="#37474F"/>
<path d="M283.925 114.042L301.527 139.454L319.13 129.294L301.527 103.881L283.925 114.042Z" fill="#455A64"/>
<path d="M283.925 114.042V115.136L275.129 125.297V124.213L283.925 114.042Z" fill="#455A64"/>
<path d="M283.925 114.042L301.527 139.455V140.538L283.925 115.136V114.042Z" fill="#455A64"/>
<path d="M319.13 129.294V130.377L301.527 140.538V139.454L319.13 129.294Z" fill="#263238"/>
<path d="M200.321 259.932L182.729 270.103V275.184L200.321 265.012V259.932Z" fill="#263238"/>
<path d="M182.729 270.103L99.125 221.823V226.915L182.729 275.184V270.103Z" fill="#455A64"/>
<path d="M116.717 211.663L99.125 221.824L182.729 270.103L200.321 259.932L116.717 211.663Z" fill="#37474F"/>
<path d="M180.486 263.745C180.506 263.937 180.576 264.121 180.69 264.277C180.805 264.434 180.959 264.556 181.136 264.633C181.628 264.884 182.172 265.015 182.723 265.015C183.275 265.015 183.819 264.884 184.31 264.633C184.488 264.556 184.642 264.434 184.757 264.277C184.871 264.121 184.941 263.937 184.96 263.745V200.917H180.465V263.745H180.486Z" fill="#263238"/>
<path d="M108.051 222.094C108.069 222.29 108.14 222.477 108.256 222.635C108.373 222.794 108.53 222.918 108.712 222.993C109.202 223.239 109.744 223.367 110.293 223.367C110.842 223.367 111.384 223.239 111.875 222.993C112.056 222.918 112.213 222.794 112.33 222.635C112.446 222.477 112.517 222.29 112.535 222.094V159.321H108.051V222.094Z" fill="#263238"/>
<path d="M200.321 198.967L112.319 148.153L94.7163 158.314L182.718 209.128L200.321 198.967Z" fill="#455A64"/>
<path d="M182.718 209.128V211.663L200.321 201.502V198.967L182.718 209.128Z" fill="#263238"/>
<path d="M182.718 209.128L94.7163 158.314V160.859L182.718 211.663V209.128Z" fill="#37474F"/>
<path d="M275.66 375.805C275.709 376.225 275.865 376.624 276.114 376.966C276.362 377.307 276.695 377.579 277.079 377.755C278.151 378.3 279.337 378.584 280.54 378.584C281.742 378.584 282.928 378.3 284.001 377.755C284.385 377.579 284.717 377.307 284.965 376.966C285.214 376.624 285.37 376.225 285.42 375.805V304.517H275.67V375.805H275.66Z" fill="#263238"/>
<path d="M235.32 318.329V275.129L322.607 325.521V368.721L235.32 318.329Z" fill="#F0F0F0"/>
<path d="M235.32 275.129L241.548 271.533L328.846 321.925L322.607 325.521L235.32 275.129Z" fill="#F5F5F5"/>
<path d="M328.846 321.925V365.124L322.607 368.721V325.521L328.846 321.925Z" fill="#E0E0E0"/>
<path d="M242.285 308.309V292.569C242.285 292.245 242.339 292.039 242.458 291.963C242.578 291.887 242.762 291.963 243.011 292.071L248.806 295.418C249.164 295.624 249.337 296.079 249.337 296.794V297.433C249.337 298.137 249.164 298.397 248.806 298.191L245.134 296.025V300.358L248.546 302.319C248.904 302.524 249.077 302.99 249.077 303.694V304.344C249.077 305.048 248.904 305.297 248.546 305.092L245.134 303.131V309.934C245.134 310.183 245.047 310.313 244.885 310.324C244.581 310.3 244.29 310.195 244.04 310.02L243.379 309.63C242.653 309.23 242.285 308.785 242.285 308.309Z" fill="#34A573"/>
<path d="M250.875 305.254C250.875 299.383 252.72 297.509 256.41 299.632C260.101 301.755 261.92 305.752 261.87 311.623C261.87 317.523 260.036 319.415 256.367 317.3C252.698 315.184 250.868 311.168 250.875 305.254ZM258.382 314.267C258.931 312.892 259.15 311.408 259.021 309.934C259.091 308.235 258.879 306.536 258.393 304.907C258.067 303.859 257.37 302.965 256.432 302.394C255.533 301.874 254.861 301.95 254.439 302.622C254.016 303.293 253.789 304.723 253.789 306.955C253.721 308.665 253.941 310.375 254.439 312.013C254.772 313.076 255.48 313.981 256.432 314.559C257.299 315.046 257.949 314.949 258.382 314.267Z" fill="#34A573"/>
<path d="M264.145 320.928V305.189C264.145 304.875 264.199 304.68 264.329 304.604C264.459 304.528 264.632 304.604 264.892 304.702L268.369 306.695C269.696 307.363 270.807 308.393 271.574 309.665C272.341 310.938 272.732 312.402 272.702 313.887C272.702 315.844 272.03 316.852 270.687 316.91V317.007C271.422 318.066 271.921 319.27 272.15 320.539L273.428 326.063C273.434 326.124 273.434 326.186 273.428 326.247C273.438 326.304 273.438 326.363 273.428 326.42C273.428 326.8 273.049 326.767 272.28 326.323L271.619 325.976C270.947 325.586 270.536 325.186 270.536 324.763L269.366 319.347C269.247 318.817 269.046 318.309 268.77 317.841C268.507 317.465 268.158 317.157 267.752 316.942L266.961 316.476V322.597C266.961 323.073 266.582 323.095 265.878 322.597L265.304 322.261C264.513 321.86 264.145 321.405 264.145 320.928ZM268.477 314.31C268.624 314.419 268.807 314.47 268.989 314.452C269.171 314.434 269.34 314.348 269.463 314.212C269.783 313.763 269.929 313.212 269.875 312.663C269.901 311.984 269.763 311.308 269.474 310.692C269.243 310.196 268.865 309.784 268.391 309.511L266.928 308.666V313.411L268.477 314.31Z" fill="#34A573"/>
<path d="M279.115 330.071C278.524 329.549 278.013 328.943 277.599 328.273C277.524 328.111 277.459 327.944 277.404 327.774C277.358 327.631 277.336 327.481 277.339 327.33C277.333 326.953 277.422 326.581 277.599 326.247C277.772 325.922 277.967 325.825 278.184 325.955C278.349 326.073 278.492 326.22 278.606 326.388C278.79 326.615 278.909 326.767 278.974 326.832C279.511 327.571 280.188 328.197 280.967 328.674C281.165 328.814 281.388 328.913 281.624 328.966C281.861 329.018 282.105 329.021 282.343 328.977C282.722 328.869 282.917 328.457 282.917 327.764C282.922 327.097 282.746 326.442 282.408 325.868C281.954 325.103 281.436 324.379 280.859 323.702C280.217 322.947 279.62 322.154 279.072 321.329C278.618 320.622 278.254 319.862 277.989 319.065C277.715 318.245 277.579 317.385 277.588 316.52C277.588 315.036 277.999 314.104 278.834 313.736C279.384 313.571 279.965 313.539 280.53 313.642C281.095 313.746 281.627 313.982 282.083 314.332C282.617 314.64 283.118 315.003 283.578 315.415C284.042 315.811 284.46 316.258 284.824 316.747C285.01 316.986 285.116 317.278 285.127 317.581C285.122 317.955 285.041 318.323 284.889 318.664C284.726 319.011 284.553 319.13 284.347 319.022C284.169 318.884 284.005 318.728 283.86 318.556C283.379 318.067 282.832 317.648 282.235 317.31C281.628 316.964 281.173 316.877 280.87 317.05C280.707 317.162 280.577 317.315 280.495 317.495C280.413 317.674 280.382 317.873 280.404 318.069C280.403 318.557 280.502 319.04 280.697 319.488C280.87 319.899 281.092 320.288 281.357 320.647C281.607 320.972 282.062 321.535 282.722 322.347C283.605 323.377 284.361 324.508 284.975 325.716C285.468 326.782 285.716 327.944 285.701 329.118C285.739 329.916 285.559 330.71 285.181 331.414C285.019 331.688 284.79 331.917 284.515 332.078C284.24 332.239 283.929 332.328 283.611 332.335C282.722 332.332 281.855 332.064 281.119 331.566C280.396 331.146 279.724 330.644 279.115 330.071Z" fill="#34A573"/>
<path d="M286.232 333.906C286.232 333.851 286.232 333.721 286.232 333.505L289.752 319.65C289.839 319.293 290.218 319.304 290.912 319.65L291.995 320.3C292.296 320.414 292.568 320.594 292.791 320.826C293.014 321.059 293.182 321.338 293.284 321.643L296.783 339.549C296.783 339.798 296.783 339.939 296.783 339.993C296.783 340.318 296.49 340.318 295.905 339.993L295.039 339.495C294.432 339.138 294.096 338.791 294.031 338.412L293.349 334.621L289.622 332.454L288.94 335.444C288.875 335.725 288.572 335.704 288.008 335.379L287.153 334.891C286.539 334.559 286.232 334.231 286.232 333.906ZM292.97 331.804L291.811 325.37C291.713 324.785 291.626 324.146 291.551 323.463L291.442 323.398C291.366 324.005 291.28 324.536 291.182 325.012L290.099 330.114L292.97 331.804Z" fill="#34A573"/>
<path d="M298.472 341.207C298.345 340.956 298.285 340.675 298.299 340.394V324.666C298.299 324.189 298.667 324.157 299.382 324.579L300.043 324.958C300.36 325.123 300.643 325.348 300.877 325.619C301.042 325.812 301.134 326.058 301.137 326.312V340.188L304.777 342.29C304.978 342.402 305.132 342.583 305.21 342.799C305.306 343.081 305.35 343.378 305.34 343.676V344.315C305.363 344.568 305.318 344.822 305.21 345.052C305.123 345.171 304.982 345.182 304.777 345.052L299.014 341.727C298.793 341.601 298.607 341.422 298.472 341.207Z" fill="#34A573"/>
<path d="M307.214 346.254C307.086 346.003 307.026 345.723 307.041 345.442V329.952C307.041 329.627 307.095 329.421 307.214 329.345C307.333 329.269 307.517 329.345 307.766 329.464L314.027 333.071C314.222 333.191 314.374 333.369 314.461 333.581C314.552 333.864 314.592 334.161 314.58 334.458V335.108C314.604 335.356 314.563 335.606 314.461 335.834C314.374 335.953 314.222 335.964 314.027 335.834L309.889 333.451V337.783L313.572 339.95C313.773 340.058 313.927 340.235 314.006 340.448C314.101 340.731 314.145 341.028 314.136 341.326V341.976C314.159 342.225 314.114 342.476 314.006 342.701C313.919 342.831 313.778 342.831 313.572 342.701L309.889 340.535V345.236L314.049 347.641C314.239 347.745 314.385 347.914 314.461 348.118C314.554 348.404 314.595 348.705 314.58 349.006V349.656C314.609 349.908 314.568 350.162 314.461 350.392C314.374 350.511 314.233 350.511 314.049 350.392L307.766 346.774C307.542 346.65 307.352 346.471 307.214 346.254Z" fill="#34A573"/>
<path d="M116.847 82.3898L113.716 83.5922V76.7028C113.716 71.2866 109.383 69.9218 104.628 72.6515C99.8943 75.3921 96.0488 82.0323 96.0488 87.5026V88.51C95.3839 88.3006 94.6798 88.2463 93.9906 88.3515C93.3015 88.4566 92.6456 88.7184 92.0734 89.1167C90.2752 90.2869 88.7788 91.8652 87.7059 93.723C86.633 95.5809 86.0139 97.6658 85.899 99.8082V100.263L81.566 102.776C80.3841 103.549 79.4006 104.589 78.6949 105.812C77.9893 107.035 77.5813 108.407 77.5039 109.817C77.5039 112.406 79.3237 113.457 81.566 112.157L116.879 91.7706C118.062 91.0008 119.046 89.963 119.752 88.7415C120.457 87.5199 120.865 86.1491 120.942 84.7404C120.909 82.1515 119.089 81.1007 116.847 82.3898Z" fill="#F0F0F0"/>
<path d="M81.4032 84.6754L75.7379 87.9251C75.7379 87.676 75.7379 87.416 75.7379 87.1777V85.5312C75.7379 82.6064 73.6797 81.4149 71.1449 82.8772C70.0772 83.5551 69.1623 84.4479 68.4585 85.4987C68.0469 81.8157 65.2088 80.4508 61.6558 82.4764C59.6531 83.7809 57.9871 85.5402 56.7936 87.611C55.6001 89.6817 54.9129 92.0052 54.7881 94.392V96.851C54.76 97.8331 54.9602 98.8083 55.3731 99.6999L50.6393 102.44C49.9001 102.923 49.2846 103.572 48.8424 104.336C48.4003 105.1 48.1438 105.957 48.0938 106.838C48.0938 108.463 49.242 109.124 50.6393 108.312L81.4032 90.5574C82.1444 90.0746 82.7613 89.4237 83.2036 88.6576C83.6459 87.8916 83.9012 87.0319 83.9488 86.1486C83.9488 84.5238 82.8114 83.8738 81.4032 84.6754Z" fill="#F0F0F0"/>
<path d="M402.917 368.472H396.819V377.354H402.917V368.472Z" fill="#FFA8A7"/>
<path d="M381.462 357.484L375.367 357.693L375.673 366.571L381.768 366.361L381.462 357.484Z" fill="#FFA8A7"/>
<path d="M402.517 281.748C402.517 287.565 403.275 325.251 403.275 325.251C403.416 326.93 404.987 330.028 404.651 336.462C404.185 345.204 403.427 369.501 403.427 369.501C403.427 369.501 400.567 372.339 396.527 369.501C396.527 369.501 391.002 336.494 389.908 327.829C388.955 320.246 387.341 299.665 387.341 299.665L381.686 323.853C381.686 323.853 382.683 329.54 382.9 333.602C383.116 337.664 381.816 360.791 381.816 360.791C380.83 361.411 379.699 361.759 378.535 361.803C377.371 361.847 376.217 361.584 375.187 361.041C375.187 361.041 370.28 327.179 369.652 323.55C369.023 319.921 373.985 281.748 373.985 281.748H402.517Z" fill="#37474F"/>
<path d="M380.343 241.116C377.841 241.408 375.848 242.762 372.219 248.937C369.316 253.876 363.25 263.344 363.25 263.344C362.686 262.91 349.254 255.1 346.275 251.428C345.665 250.034 344.914 248.705 344.033 247.464C342.885 245.98 341.715 244.517 340.502 243.131C340.411 243.019 340.305 242.921 340.188 242.838C339.743 242.578 339.104 242.968 338.996 243.466C338.897 243.978 338.957 244.507 339.169 244.983C339.386 245.633 340.036 246.532 339.169 246.684C338.375 246.727 337.584 246.551 336.884 246.175C335.714 245.676 334.566 245.091 333.439 244.517C332.749 244.066 331.962 243.784 331.143 243.694C330.543 243.721 329.965 243.931 329.487 244.295C329.009 244.659 328.653 245.159 328.467 245.73C328.293 246.306 328.241 246.911 328.314 247.508C328.386 248.105 328.582 248.68 328.889 249.197C329.505 250.231 330.327 251.127 331.305 251.829C333.352 253.421 336.082 254.158 338.574 254.819C339.829 255.158 341.016 255.711 342.083 256.454C344.066 257.841 354.497 267.536 359.317 271.327C361.614 273.136 364.885 274.144 367.507 271.49C370.128 268.836 380.646 254.808 380.646 254.808L387.265 241.712C384.988 241.249 382.666 241.049 380.343 241.116Z" fill="#FFA8A7"/>
<path d="M379.585 241.246C377.819 241.885 374.613 244.311 370.128 251.461C365.644 258.61 362.676 262.986 362.676 262.986L348.377 252.847C346.323 254.33 344.734 256.366 343.795 258.718C343.795 258.718 359.058 271.923 360.26 272.876C362.903 274.967 364.279 275.357 366.619 273.385C368.958 271.414 376.747 259.834 376.747 259.834L379.585 241.246Z" fill="#263238"/>
<path d="M393.331 241.398H393.418C396.028 242.064 398.342 243.583 399.99 245.715C401.639 247.846 402.528 250.467 402.517 253.161V281.726C398.238 286.373 383.322 288.54 373.984 281.726V252.002C373.984 247.247 376.627 241.538 383.918 241.17L393.331 241.398Z" fill="white"/>
<path d="M395.389 217.079C395.879 217.022 396.376 217.077 396.841 217.24C397.306 217.404 397.729 217.671 398.076 218.021C399.235 219.202 398.996 221.39 398.076 226.416L394.512 226.828L395.389 217.079Z" fill="#263238"/>
<path d="M374.526 215.617C373.76 215.626 372.999 215.475 372.295 215.173C371.212 214.533 370.908 215.779 371.515 216.862C371.911 217.638 372.5 218.299 373.224 218.782C373.949 219.266 374.785 219.556 375.653 219.625C375.653 219.473 376.682 216.841 376.682 216.841L374.526 215.617Z" fill="#263238"/>
<path d="M393.71 226.828C394.241 227.142 394.999 226.124 395.66 225.442C395.917 225.148 396.245 224.926 396.611 224.794C396.978 224.662 397.373 224.626 397.757 224.689C398.142 224.752 398.504 224.912 398.81 225.153C399.116 225.395 399.355 225.71 399.506 226.07C400.589 228.355 398.13 231.388 396.678 232.396C396.274 232.746 395.769 232.959 395.236 233.005C394.704 233.052 394.17 232.93 393.71 232.656L393.331 241.398C393.331 241.398 391.555 244.647 386.431 245.406C383.561 245.839 382.228 243.239 383.918 241.073V237.899C382.634 238.174 381.313 238.24 380.008 238.094C379.336 237.92 377.744 235.992 376.758 233.826C375.599 231.399 373.671 227.099 375.382 219.809C377.224 211.988 385.63 211.749 390.645 214.902C395.66 218.054 393.71 226.828 393.71 226.828Z" fill="#FFA8A7"/>
<path d="M393.71 227.716C393.981 227.716 394.999 226.037 395.66 225.442C396.57 224.607 395.389 217.079 395.389 217.079C395.389 217.079 396.31 214.219 394.512 212.324C392.714 210.428 389.193 210.742 386.637 210.655C383.492 210.673 380.377 210.046 377.483 208.814C373.844 207.243 373.573 207.048 373.15 208.651C372.728 210.255 372.522 213.905 374.7 216.353L376.498 217.014C376.498 217.014 377.473 217.881 380.831 218.292C383.963 218.527 387.111 218.469 390.233 218.119C391.219 217.978 391.425 218.931 391.955 221.542C392.432 223.828 392.822 227.705 393.71 227.716Z" fill="#263238"/>
<path d="M395.389 217.653L398.585 215.931C398.483 215.715 398.338 215.522 398.158 215.364C397.979 215.206 397.77 215.085 397.543 215.01C397.316 214.936 397.077 214.907 396.839 214.928C396.601 214.948 396.369 215.017 396.158 215.129C395.732 215.371 395.414 215.768 395.271 216.238C395.128 216.707 395.17 217.214 395.389 217.653Z" fill="#263238"/>
<path d="M383.929 237.942C386.117 237.522 388.263 236.905 390.341 236.1C391.316 235.588 392.116 234.796 392.638 233.826C392.384 234.799 391.938 235.712 391.327 236.512C390.114 238.061 383.929 239.209 383.929 239.209V237.942Z" fill="#F28F8F"/>
<path d="M385.066 225.636C385.073 225.824 385.134 226.005 385.242 226.157C385.351 226.309 385.502 226.426 385.677 226.494C385.851 226.561 386.042 226.575 386.225 226.535C386.407 226.494 386.574 226.401 386.704 226.267C386.834 226.132 386.922 225.962 386.956 225.778C386.99 225.594 386.97 225.404 386.897 225.232C386.824 225.06 386.701 224.913 386.545 224.809C386.389 224.706 386.207 224.651 386.019 224.651C385.892 224.652 385.766 224.679 385.649 224.729C385.532 224.78 385.426 224.853 385.337 224.945C385.248 225.036 385.179 225.145 385.132 225.263C385.086 225.382 385.063 225.509 385.066 225.636Z" fill="#263238"/>
<path d="M386.073 222.04L388.11 223.123C388.253 222.844 388.285 222.521 388.198 222.219C388.112 221.917 387.914 221.659 387.644 221.499C387.506 221.427 387.355 221.385 387.2 221.373C387.045 221.362 386.889 221.383 386.743 221.433C386.596 221.484 386.461 221.564 386.346 221.668C386.231 221.772 386.138 221.899 386.073 222.04Z" fill="#263238"/>
<path d="M385.142 232.093L382.976 232.916C383.023 233.061 383.099 233.195 383.2 233.311C383.3 233.426 383.423 233.52 383.56 233.586C383.698 233.653 383.847 233.691 384 233.699C384.153 233.707 384.305 233.683 384.449 233.631C384.74 233.512 384.974 233.286 385.103 233C385.232 232.714 385.246 232.389 385.142 232.093Z" fill="#F28F8F"/>
<path d="M376.574 222.831L378.426 221.401C378.343 221.27 378.233 221.159 378.104 221.074C377.975 220.989 377.828 220.933 377.676 220.909C377.523 220.886 377.366 220.895 377.217 220.937C377.068 220.979 376.93 221.052 376.812 221.152C376.565 221.348 376.403 221.632 376.359 221.944C376.315 222.256 376.391 222.574 376.574 222.831Z" fill="#263238"/>
<path d="M377.148 225.366C377.145 225.493 377.167 225.62 377.214 225.739C377.26 225.858 377.33 225.966 377.418 226.058C377.507 226.149 377.613 226.222 377.73 226.273C377.847 226.323 377.973 226.35 378.101 226.351C378.358 226.346 378.602 226.239 378.78 226.054C378.959 225.87 379.057 225.622 379.054 225.366C379.054 225.113 378.954 224.87 378.775 224.692C378.596 224.513 378.354 224.412 378.101 224.412C377.848 224.412 377.606 224.513 377.427 224.692C377.248 224.87 377.148 225.113 377.148 225.366Z" fill="#263238"/>
<path d="M382.001 224.467L381.686 230.197L378.697 229.168L382.001 224.467Z" fill="#F28F8F"/>
<path d="M396.819 374.343V373.476C396.234 373.725 394.88 378.892 392.486 381.059C390.569 382.814 387.937 384.839 387.276 386.8C386.615 388.761 390.926 389.952 392.692 389.638C394.783 389.27 398.401 387.796 399.311 386.388C400.22 384.98 400.643 383.019 401.39 382.055C402.138 381.091 403.828 379.943 404.228 378.806C404.347 377.728 404.228 376.637 403.882 375.61C403.6 374.527 403.286 373.335 402.918 373.444V374.104C402.062 374.812 400.984 375.196 399.874 375.188C398.975 375.209 396.808 375.025 396.819 374.343Z" fill="#263238"/>
<path d="M375.609 364.691C375.284 364.691 375.035 365.146 374.331 365.904C373.287 366.956 372.075 367.828 370.745 368.482C368.46 369.631 364.019 371.386 362.004 372.295C360.747 372.859 360.812 374.375 362.112 375.231C363.412 376.087 366.542 376.726 370.301 375.881C372.349 375.426 375.024 373.53 376.714 373.628C378.404 373.725 381.556 373.704 382.813 372.848C384.069 371.992 383.56 370.151 383.203 368.58C382.845 367.009 382.271 364.247 381.697 364.345V364.875C380.96 365.959 377.223 366.446 375.62 365.623L375.609 364.691Z" fill="#263238"/>
<path d="M387.341 299.708C384.887 298.614 382.528 297.316 380.289 295.83C381.784 297.673 383.624 299.207 385.705 300.347L382.748 319.239L387.341 299.708Z" fill="#263238"/>
<path d="M383.929 241.127C381.884 242.841 380.404 245.133 379.683 247.702C378.773 251.623 378.599 295.364 378.599 295.364C378.599 295.364 373.952 294.498 371.775 292.797V252.826C371.775 247.355 373.096 241.397 383.885 240.488L383.929 241.127Z" fill="#263238"/>
<path d="M393.331 241.246C393.331 241.246 388.11 244.561 388.045 259.726C387.98 272.833 387.72 295.819 387.72 295.819C387.72 295.819 396.819 297.671 403.318 293.793C403.318 293.793 402.582 260.961 402.463 256.032C402.322 250.399 403.968 245.611 400.794 244.019C398.387 242.89 395.891 241.963 393.331 241.246Z" fill="#263238"/>
<path d="M411.562 295.093L405.301 294.01C405.301 295.093 405.301 295.982 405.247 296.74C404.96 297.728 404.427 298.626 403.698 299.35C402.598 300.604 401.689 302.013 401 303.532C400.285 304.767 399.527 305.211 399.733 305.503C400.002 305.803 400.372 305.992 400.772 306.034C401.173 306.076 401.574 305.968 401.899 305.731C402.64 305.213 403.313 304.605 403.903 303.922C403.698 305.528 403.233 307.09 402.528 308.547C400.925 311.894 401.239 313.638 405.842 312.566C408.735 311.894 410.598 309.555 411.259 302.687C411.542 300.166 411.643 297.629 411.562 295.093Z" fill="#FFA8A7"/>
<path d="M397.783 242.73C399.729 243.416 401.584 244.336 403.307 245.47C404.683 246.554 412.688 269.529 413.002 271.587C413.317 273.645 412.125 295.418 412.125 295.418C411.055 296.112 409.824 296.52 408.552 296.601C407.279 296.683 406.006 296.436 404.857 295.884L403.578 274.089L397.274 257.57C397.274 257.57 394.089 248.623 397.783 242.73Z" fill="#263238"/>
<path d="M394.858 249.543L392.02 253.053L393.439 257.05L389.713 266.604L394.208 257.05L392.638 253.281L394.858 249.543Z" fill="#37474F"/>
<path d="M376.075 247.648L376.682 251.277L374.234 254.483L377.646 265.24L375.003 254.602L377.267 251.612L376.075 247.648Z" fill="#37474F"/>
</svg>
