<svg width="140" height="24" viewBox="0 0 140 24" fill="none" xmlns="http://www.w3.org/2000/svg">
<path d="M33.6777 8.91117V7.06795H35.5394V6.26655C35.5394 5.33693 35.8122 4.62101 36.3579 4.1188C36.9035 3.61658 37.6899 3.36548 38.717 3.36548C38.9417 3.36548 39.1717 3.37884 39.4071 3.40555C39.6425 3.43227 39.8457 3.46699 40.0169 3.50973V5.35295C39.8136 5.31021 39.6344 5.27815 39.4793 5.25678C39.3242 5.23541 39.161 5.22473 38.9898 5.22473C38.5726 5.22473 38.2596 5.31556 38.051 5.49721C37.8423 5.67886 37.738 5.95133 37.738 6.31463V7.06795H40.0169V8.91117H37.738V15.4185H35.5394V8.91117H33.6777ZM42.2637 6.07421C41.9214 6.07421 41.6271 5.95133 41.3811 5.70557C41.135 5.45981 41.0119 5.16596 41.0119 4.82403C41.0119 4.4821 41.135 4.18825 41.3811 3.94249C41.6271 3.69673 41.9214 3.57384 42.2637 3.57384C42.6061 3.57384 42.9003 3.69673 43.1464 3.94249C43.3925 4.18825 43.5155 4.4821 43.5155 4.82403C43.5155 5.16596 43.3925 5.45981 43.1464 5.70557C42.9003 5.95133 42.6061 6.07421 42.2637 6.07421ZM41.1724 7.06795H43.3711V15.4185H41.1724V7.06795ZM47.2869 15.4185H45.0883V7.06795H47.2869V7.7251C47.6079 7.45797 47.9636 7.25495 48.3542 7.11604C48.7447 6.97713 49.17 6.90767 49.63 6.90767C50.5929 6.90767 51.3847 7.21754 52.0052 7.83729C52.6258 8.45704 52.936 9.2531 52.936 10.2255V15.4185H50.7374V10.546C50.7374 10.0224 50.5796 9.60038 50.2639 9.27982C49.9483 8.95926 49.5284 8.79898 49.0041 8.79898C48.6404 8.79898 48.3114 8.8711 48.0171 9.01535C47.7229 9.1596 47.4795 9.3653 47.2869 9.63243V15.4185ZM57.2531 15.5628C56.3544 15.5628 55.6215 15.325 55.0544 14.8495C54.4874 14.374 54.2039 13.757 54.2039 12.9983C54.2039 12.2076 54.5088 11.5878 55.1186 11.1391C55.7285 10.6903 56.5684 10.4659 57.6383 10.4659C57.9806 10.4659 58.323 10.4926 58.6654 10.546C59.0077 10.5995 59.3448 10.6796 59.6764 10.7864V10.1934C59.6764 9.71257 59.5266 9.34927 59.2271 9.1035C58.9275 8.85774 58.4888 8.73487 57.9111 8.73487C57.558 8.73487 57.1755 8.79096 56.7636 8.90316C56.3517 9.01535 55.8836 9.18899 55.3594 9.42406L54.5569 7.80524C55.2096 7.50605 55.8435 7.28166 56.4587 7.13206C57.0739 6.98247 57.6811 6.90767 58.2802 6.90767C59.4036 6.90767 60.2783 7.17747 60.9041 7.71708C61.53 8.25669 61.843 9.01802 61.843 10.0011V15.4185H59.6764V14.8415C59.3234 15.0873 58.9516 15.2689 58.5611 15.3865C58.1705 15.504 57.7346 15.5628 57.2531 15.5628ZM56.3062 12.9502C56.3062 13.2708 56.4453 13.5246 56.7235 13.7116C57.0017 13.8986 57.3708 13.9921 57.8308 13.9921C58.1946 13.9921 58.529 13.9466 58.8339 13.8558C59.1388 13.765 59.4197 13.6341 59.6764 13.4631V12.2129C59.409 12.1061 59.1281 12.0286 58.8339 11.9805C58.5397 11.9324 58.2321 11.9084 57.9111 11.9084C57.4082 11.9084 57.015 12.0019 56.7315 12.1889C56.448 12.3759 56.3062 12.6297 56.3062 12.9502ZM65.7107 15.4185H63.512V7.06795H65.7107V7.7251C66.0317 7.45797 66.3874 7.25495 66.7779 7.11604C67.1684 6.97713 67.5937 6.90767 68.0538 6.90767C69.0167 6.90767 69.8084 7.21754 70.429 7.83729C71.0495 8.45704 71.3598 9.2531 71.3598 10.2255V15.4185H69.1611V10.546C69.1611 10.0224 69.0033 9.60038 68.6877 9.27982C68.3721 8.95926 67.9521 8.79898 67.4279 8.79898C67.0641 8.79898 66.7351 8.8711 66.4409 9.01535C66.1467 9.1596 65.9033 9.3653 65.7107 9.63243V15.4185ZM77.1212 13.6555C77.4957 13.6555 77.8461 13.5807 78.1724 13.4311C78.4987 13.2815 78.8117 13.0464 79.1113 12.7258L80.4272 14.0882C79.9993 14.5584 79.4857 14.9243 78.8866 15.1861C78.2874 15.4479 77.6669 15.5788 77.0249 15.5788C76.4151 15.5788 75.84 15.4666 75.2997 15.2422C74.7594 15.0178 74.294 14.7133 73.9035 14.3286C73.513 13.944 73.2054 13.4872 72.9807 12.9582C72.756 12.4293 72.6437 11.8603 72.6437 11.2513C72.6437 10.6422 72.756 10.0732 72.9807 9.54428C73.2054 9.01535 73.513 8.55589 73.9035 8.16587C74.294 7.77586 74.7594 7.46865 75.2997 7.24426C75.84 7.01987 76.4151 6.90767 77.0249 6.90767C77.6883 6.90767 78.3249 7.03857 78.9347 7.30036C79.5446 7.56215 80.0635 7.92812 80.4914 8.39827L79.1434 9.82477C78.8438 9.49352 78.5228 9.24242 78.1804 9.07145C77.8381 8.90049 77.469 8.815 77.0731 8.815C76.4418 8.815 75.9096 9.05008 75.4763 9.52023C75.0429 9.99039 74.8263 10.5674 74.8263 11.2513C74.8263 11.9351 75.0483 12.5068 75.4923 12.9663C75.9363 13.4257 76.4793 13.6555 77.1212 13.6555ZM87.296 13.0624L88.7404 14.3767C88.2269 14.7934 87.6999 15.098 87.1596 15.2903C86.6193 15.4827 86.0175 15.5788 85.3542 15.5788C84.7229 15.5788 84.1318 15.4666 83.5808 15.2422C83.0298 15.0178 82.5537 14.7133 82.1525 14.3286C81.7513 13.944 81.4356 13.4872 81.2056 12.9582C80.9756 12.4293 80.8606 11.8603 80.8606 11.2513C80.8606 10.6529 80.9702 10.0892 81.1895 9.5603C81.4089 9.03138 81.7111 8.57191 82.0963 8.1819C82.4815 7.79188 82.9388 7.48468 83.4684 7.26028C83.9981 7.03589 84.5624 6.9237 85.1616 6.9237C85.75 6.9237 86.2983 7.03857 86.8066 7.2683C87.3148 7.49803 87.7534 7.81058 88.1225 8.20594C88.4917 8.6013 88.7805 9.07413 88.9892 9.62442C89.1978 10.1747 89.3021 10.7704 89.3021 11.4115V11.9885H83.0753C83.225 12.5121 83.5139 12.9342 83.9419 13.2548C84.3698 13.5753 84.8727 13.7356 85.4504 13.7356C85.8142 13.7356 86.1566 13.6768 86.4776 13.5593C86.7985 13.4418 87.0714 13.2761 87.296 13.0624ZM85.1134 8.73487C84.6106 8.73487 84.1773 8.88713 83.8135 9.19166C83.4497 9.4962 83.1983 9.90491 83.0592 10.4178H87.1516C87.0125 9.92628 86.7584 9.52291 86.3893 9.20769C86.0202 8.89247 85.5949 8.73487 85.1134 8.73487Z" fill="white"/>
<path d="M96.3798 13.0624L97.8242 14.3767C97.3106 14.7934 96.7837 15.098 96.2434 15.2903C95.7031 15.4826 95.1013 15.5788 94.4379 15.5788C93.8067 15.5788 93.2156 15.4666 92.6646 15.2422C92.1136 15.0178 91.6375 14.7133 91.2362 14.3286C90.835 13.9439 90.5194 13.4871 90.2894 12.9582C90.0593 12.4293 89.9443 11.8603 89.9443 11.2512C89.9443 10.6529 90.054 10.0892 90.2733 9.56028C90.4927 9.03135 90.7949 8.57189 91.1801 8.18187C91.5652 7.79186 92.0226 7.48465 92.5522 7.26026C93.0818 7.03587 93.6462 6.92367 94.2453 6.92367C94.8338 6.92367 95.3821 7.03854 95.8903 7.26828C96.3985 7.49801 96.8372 7.81056 97.2063 8.20591C97.5754 8.60127 97.8643 9.0741 98.0729 9.6244C98.2816 10.1747 98.3859 10.7704 98.3859 11.4115V11.9885H92.159C92.3088 12.5121 92.5977 12.9342 93.0257 13.2547C93.4536 13.5753 93.9565 13.7356 94.5342 13.7356C94.898 13.7356 95.2404 13.6768 95.5613 13.5593C95.8823 13.4417 96.1551 13.2761 96.3798 13.0624ZM94.1972 8.73484C93.6943 8.73484 93.261 8.88711 92.8973 9.19164C92.5335 9.49617 92.2821 9.90488 92.143 10.4178H96.2354C96.0963 9.92625 95.8422 9.52288 95.4731 9.20766C95.1039 8.89245 94.6787 8.73484 94.1972 8.73484ZM100.665 15.4185H98.2093L101.419 11.1711L98.2896 7.06793H100.841L102.687 9.55227L104.516 7.06793H106.988L103.907 11.139L107.181 15.4185H104.613L102.639 12.7579L100.665 15.4185ZM110.214 18.7684H108.015V7.06793H110.182V7.75713C110.513 7.49 110.882 7.28965 111.289 7.15608C111.695 7.02251 112.118 6.95573 112.557 6.95573C113.145 6.95573 113.699 7.06793 114.218 7.29232C114.737 7.51671 115.189 7.82124 115.574 8.20591C115.959 8.59059 116.261 9.04471 116.481 9.56829C116.7 10.0919 116.81 10.6529 116.81 11.2512C116.81 11.8496 116.697 12.4106 116.473 12.9342C116.248 13.4578 115.943 13.9119 115.558 14.2966C115.173 14.6812 114.715 14.9831 114.186 15.2021C113.656 15.4212 113.092 15.5307 112.493 15.5307C112.086 15.5307 111.687 15.4746 111.297 15.3624C110.906 15.2502 110.545 15.0873 110.214 14.8736V18.7684ZM112.204 8.831C111.808 8.831 111.439 8.89779 111.096 9.03136C110.754 9.16493 110.46 9.35993 110.214 9.61638V12.9021C110.449 13.1372 110.741 13.3242 111.088 13.4631C111.436 13.602 111.808 13.6715 112.204 13.6715C112.888 13.6715 113.466 13.4391 113.937 12.9742C114.408 12.5094 114.643 11.9351 114.643 11.2512C114.643 10.5674 114.405 9.99304 113.929 9.52823C113.453 9.06341 112.878 8.831 112.204 8.831ZM124.272 13.0624L125.717 14.3767C125.203 14.7934 124.676 15.098 124.136 15.2903C123.596 15.4826 122.994 15.5788 122.33 15.5788C121.699 15.5788 121.108 15.4666 120.557 15.2422C120.006 15.0178 119.53 14.7133 119.129 14.3286C118.727 13.9439 118.412 13.4871 118.182 12.9582C117.952 12.4293 117.837 11.8603 117.837 11.2512C117.837 10.6529 117.946 10.0892 118.166 9.56028C118.385 9.03135 118.687 8.57189 119.073 8.18187C119.458 7.79186 119.915 7.48465 120.445 7.26026C120.974 7.03587 121.539 6.92367 122.138 6.92367C122.726 6.92367 123.275 7.03854 123.783 7.26828C124.291 7.49801 124.73 7.81056 125.099 8.20591C125.468 8.60127 125.757 9.0741 125.965 9.6244C126.174 10.1747 126.278 10.7704 126.278 11.4115V11.9885H120.051C120.201 12.5121 120.49 12.9342 120.918 13.2547C121.346 13.5753 121.849 13.7356 122.427 13.7356C122.79 13.7356 123.133 13.6768 123.454 13.5593C123.775 13.4417 124.048 13.2761 124.272 13.0624ZM122.09 8.73484C121.587 8.73484 121.153 8.88711 120.79 9.19164C120.426 9.49617 120.175 9.90488 120.035 10.4178H124.128C123.989 9.92625 123.735 9.52288 123.366 9.20766C122.996 8.89245 122.571 8.73484 122.09 8.73484ZM129.825 15.4185H127.626V7.06793H129.825V7.98152C130.093 7.61822 130.416 7.34307 130.796 7.15608C131.176 6.96909 131.596 6.87559 132.056 6.87559C132.27 6.88627 132.449 6.90498 132.593 6.93169C132.738 6.9584 132.864 7.00381 132.971 7.06793V8.99128C132.81 8.91649 132.634 8.86039 132.441 8.82299C132.248 8.78559 132.05 8.76689 131.847 8.76689C131.419 8.76689 131.026 8.87375 130.668 9.08745C130.309 9.30116 130.028 9.61103 129.825 10.0171V15.4185ZM135.426 13.0624V8.91115H133.709V7.06793H135.426V4.9362L137.625 4.43933V7.06793H140V8.91115H137.625V12.6136C137.625 13.009 137.71 13.2868 137.881 13.4471C138.053 13.6074 138.352 13.6875 138.78 13.6875C138.983 13.6875 139.176 13.6741 139.358 13.6474C139.54 13.6207 139.738 13.57 139.952 13.4952V15.2903C139.716 15.3651 139.433 15.4265 139.101 15.4746C138.769 15.5227 138.486 15.5467 138.251 15.5467C137.32 15.5467 136.616 15.3357 136.14 14.9136C135.664 14.4916 135.426 13.8745 135.426 13.0624Z" fill="#34A573"/>
<path d="M19.8486 19.5934L19.876 14.1951L23.2636 14.2122L24.0875 19.6148L19.8486 19.5934Z" fill="url(#paint0_linear_926_10420)"/>
<path d="M25.5869 9.93115L29.3329 9.9503L28.9925 10.5776L27.8422 12.6975H27.841L27.5564 13.2218L24.0872 19.6147L23.2632 14.2129L24.0961 12.6784L25.2465 10.5587L25.5869 9.93115Z" fill="url(#paint1_linear_926_10420)"/>
<path d="M18.9629 5.84186L18.9916 0.205566L24.186 0.231837L24.1573 5.86835L18.9629 5.84186Z" fill="url(#paint2_linear_926_10420)"/>
<path d="M24.187 0.231934L27.8031 7.06009L28.328 8.05048L28.9316 9.19159L29.3337 9.95025L28.9933 10.5776L27.8418 12.6975L27.5572 13.2217L27.2418 12.6944L25.965 10.5622L25.5877 9.9311L25.1339 9.17222L23.8584 7.04005L23.1597 5.87312L23.161 5.86355L24.187 0.231934Z" fill="url(#paint3_linear_926_10420)"/>
<path d="M9.48466 0.242544L9.45724 5.64086L6.06966 5.62372L5.24561 0.220947L9.48466 0.242544Z" fill="url(#paint4_linear_926_10420)"/>
<path d="M5.24566 0.220825L6.06971 5.62382L5.3522 6.94591L4.20071 9.06583L3.74467 9.90419V9.90552L0 9.88637L0.456047 9.04691L0.992114 8.0583L1.6062 6.92676L1.77537 6.61511L5.24566 0.220825Z" fill="url(#paint5_linear_926_10420)"/>
<path d="M10.3701 13.994L10.3414 19.6306L5.14697 19.6041L5.17573 13.9678L10.3701 13.994Z" fill="url(#paint6_linear_926_10420)"/>
<path d="M1.77537 6.61499L1.96394 6.92865L3.23958 9.06082L3.74467 9.90407V9.90541L4.0721 10.4508L5.34886 12.583L6.17402 13.962L6.17157 13.973L5.14669 19.6037L1.4174 12.5629L1.00571 11.786L0.288651 10.4314L0 9.88626L0.456047 9.04679L0.83408 8.34824L1.60508 6.92664H1.6062L1.77537 6.61499Z" fill="url(#paint7_linear_926_10420)"/>
<path d="M9.15533 13.9883L10.1405 12.6074L15.3343 12.6339L10.3407 19.6301L5.14697 19.6039L9.15533 13.9883Z" fill="url(#paint8_linear_926_10420)"/>
<path d="M11.6519 10.4893L12.6371 9.10864L17.8319 9.13513L16.8458 10.5158L11.6519 10.4893Z" fill="url(#paint9_linear_926_10420)"/>
<path d="M18.9908 0.205444L24.1859 0.231932L20.1762 5.84841L19.3428 7.01712L14.1479 6.99063L18.9908 0.205444Z" fill="url(#paint10_linear_926_10420)"/>
<path d="M5.35217 6.9458L23.858 7.03997L25.1334 9.17214L4.20068 9.06573L5.35217 6.9458Z" fill="url(#paint11_linear_926_10420)"/>
<path d="M4.07178 10.4509L25.2465 10.5587L24.0962 12.6784L5.34853 12.5831L4.07178 10.4509Z" fill="url(#paint12_linear_926_10420)"/>
<path d="M37.8726 18.6381C38.3385 18.6381 38.7136 18.7774 38.9978 19.0562C39.2866 19.3349 39.4311 19.7484 39.4311 20.2965V22.4427H38.3409V20.4638C38.3409 20.1665 38.2756 19.9458 38.1452 19.8018C38.0147 19.6531 37.826 19.5788 37.5791 19.5788C37.3042 19.5788 37.0853 19.6647 36.9222 19.8366C36.7591 20.0039 36.6776 20.2547 36.6776 20.5892V22.4427H35.5874V17.2723H36.6776V19.0841C36.822 18.94 36.9967 18.8309 37.2017 18.7565C37.4067 18.6776 37.6304 18.6381 37.8726 18.6381Z" fill="#34A573"/>
<path d="M40.4193 18.6938H41.5095V22.4427H40.4193V18.6938ZM40.9644 18.1712C40.764 18.1712 40.601 18.1131 40.4752 17.997C40.3494 17.8809 40.2865 17.7369 40.2865 17.565C40.2865 17.3931 40.3494 17.2491 40.4752 17.1329C40.601 17.0168 40.764 16.9587 40.9644 16.9587C41.1647 16.9587 41.3278 17.0145 41.4536 17.126C41.5794 17.2375 41.6423 17.3768 41.6423 17.5441C41.6423 17.7252 41.5794 17.8762 41.4536 17.997C41.3278 18.1131 41.1647 18.1712 40.9644 18.1712Z" fill="#34A573"/>
<path d="M44.7436 18.6381C45.093 18.6381 45.4098 18.7194 45.694 18.882C45.9829 19.0399 46.2088 19.2652 46.3719 19.5579C46.535 19.8459 46.6165 20.1827 46.6165 20.5683C46.6165 20.9539 46.535 21.293 46.3719 21.5856C46.2088 21.8737 45.9829 22.099 45.694 22.2616C45.4098 22.4195 45.093 22.4985 44.7436 22.4985C44.2637 22.4985 43.8863 22.3475 43.6115 22.0456V23.7946H42.5213V18.6938H43.5626V19.1259C43.8328 18.8007 44.2265 18.6381 44.7436 18.6381ZM44.5549 21.6066C44.8345 21.6066 45.0627 21.5136 45.2398 21.3278C45.4215 21.1374 45.5123 20.8842 45.5123 20.5683C45.5123 20.2524 45.4215 20.0015 45.2398 19.8157C45.0627 19.6253 44.8345 19.53 44.5549 19.53C44.2754 19.53 44.0448 19.6253 43.8631 19.8157C43.686 20.0015 43.5975 20.2524 43.5975 20.5683C43.5975 20.8842 43.686 21.1374 43.8631 21.3278C44.0448 21.5136 44.2754 21.6066 44.5549 21.6066Z" fill="#34A573"/>
<path d="M49.1354 22.4985C48.7393 22.4985 48.3829 22.4172 48.0661 22.2546C47.754 22.0874 47.5094 21.8574 47.3323 21.5647C47.1553 21.2721 47.0668 20.9399 47.0668 20.5683C47.0668 20.1966 47.1553 19.8645 47.3323 19.5718C47.5094 19.2792 47.754 19.0515 48.0661 18.8889C48.3829 18.7217 48.7393 18.6381 49.1354 18.6381C49.5314 18.6381 49.8855 18.7217 50.1976 18.8889C50.5098 19.0515 50.7544 19.2792 50.9314 19.5718C51.1084 19.8645 51.197 20.1966 51.197 20.5683C51.197 20.9399 51.1084 21.2721 50.9314 21.5647C50.7544 21.8574 50.5098 22.0874 50.1976 22.2546C49.8855 22.4172 49.5314 22.4985 49.1354 22.4985ZM49.1354 21.6066C49.4149 21.6066 49.6432 21.5136 49.8202 21.3278C50.0019 21.1374 50.0928 20.8842 50.0928 20.5683C50.0928 20.2524 50.0019 20.0015 49.8202 19.8157C49.6432 19.6253 49.4149 19.53 49.1354 19.53C48.8558 19.53 48.6252 19.6253 48.4435 19.8157C48.2618 20.0015 48.171 20.2524 48.171 20.5683C48.171 20.8842 48.2618 21.1374 48.4435 21.3278C48.6252 21.5136 48.8558 21.6066 49.1354 21.6066Z" fill="#34A573"/>
<path d="M54.3507 22.2616C54.2435 22.3405 54.1107 22.4009 53.9523 22.4427C53.7986 22.4799 53.6355 22.4985 53.4631 22.4985C53.0159 22.4985 52.6688 22.3847 52.4218 22.157C52.1796 21.9294 52.0584 21.5949 52.0584 21.1536V19.6136H51.4784V18.7774H52.0584V17.8646H53.1486V18.7774H54.0851V19.6136H53.1486V21.1397C53.1486 21.2976 53.1882 21.4207 53.2675 21.509C53.3513 21.5926 53.4678 21.6344 53.6169 21.6344C53.7893 21.6344 53.936 21.588 54.0571 21.4951L54.3507 22.2616Z" fill="#34A573"/>
<path d="M58.5295 20.5822C58.5295 20.5962 58.5226 20.6937 58.5086 20.8749H55.6643C55.7155 21.1072 55.8367 21.2907 56.0277 21.4254C56.2187 21.5601 56.4563 21.6275 56.7405 21.6275C56.9362 21.6275 57.1086 21.5996 57.2576 21.5438C57.4114 21.4834 57.5535 21.3905 57.6839 21.2651L58.264 21.8923C57.9099 22.2964 57.3928 22.4985 56.7125 22.4985C56.2886 22.4985 55.9135 22.4172 55.5874 22.2546C55.2613 22.0874 55.0097 21.8574 54.8326 21.5647C54.6556 21.2721 54.5671 20.9399 54.5671 20.5683C54.5671 20.2013 54.6533 19.8715 54.8257 19.5788C55.0027 19.2815 55.2426 19.0515 55.5455 18.8889C55.853 18.7217 56.1954 18.6381 56.5728 18.6381C56.9408 18.6381 57.274 18.7171 57.5721 18.875C57.8703 19.033 58.1033 19.2606 58.271 19.5579C58.4434 19.8506 58.5295 20.192 58.5295 20.5822ZM56.5798 19.4603C56.3328 19.4603 56.1255 19.53 55.9578 19.6694C55.7901 19.8087 55.6876 19.9992 55.6503 20.2408H57.5022C57.465 20.0039 57.3625 19.8157 57.1948 19.6764C57.027 19.5323 56.822 19.4603 56.5798 19.4603Z" fill="#34A573"/>
<path d="M60.8697 20.9724L60.3456 21.4881V22.4427H59.2554V17.2723H60.3456V20.199L61.9389 18.6938H63.2388L61.6734 20.2826L63.3786 22.4427H62.0577L60.8697 20.9724Z" fill="#34A573"/>
<path d="M65.3171 18.6381C65.8995 18.6381 66.3467 18.7774 66.6589 19.0562C66.971 19.3303 67.1271 19.746 67.1271 20.3035V22.4427H66.1068V21.9759C65.9018 22.3243 65.5198 22.4985 64.9607 22.4985C64.6718 22.4985 64.4202 22.4497 64.2059 22.3522C63.9963 22.2546 63.8355 22.1199 63.7237 21.948C63.6119 21.7761 63.556 21.581 63.556 21.3627C63.556 21.0143 63.6865 20.7402 63.9474 20.5404C64.2129 20.3407 64.6206 20.2408 65.1703 20.2408H66.0369C66.0369 20.0039 65.9647 19.8227 65.8203 19.6973C65.6758 19.5672 65.4592 19.5021 65.1703 19.5021C64.97 19.5021 64.772 19.5347 64.5763 19.5997C64.3853 19.6601 64.2222 19.7437 64.0871 19.8506L63.6958 19.091C63.9008 18.947 64.1454 18.8355 64.4296 18.7565C64.7184 18.6776 65.0143 18.6381 65.3171 18.6381ZM65.2332 21.7668C65.4196 21.7668 65.585 21.725 65.7294 21.6414C65.8738 21.5531 65.9763 21.4254 66.0369 21.2581V20.8749H65.2891C64.8419 20.8749 64.6182 21.0212 64.6182 21.3139C64.6182 21.4533 64.6718 21.5647 64.779 21.6484C64.8908 21.7273 65.0422 21.7668 65.2332 21.7668Z" fill="#34A573"/>
<defs>
<linearGradient id="paint0_linear_926_10420" x1="21.9681" y1="19.6043" x2="21.9956" y2="14.2059" gradientUnits="userSpaceOnUse">
<stop stop-color="#60E6AF"/>
<stop offset="0.1" stop-color="#5BDEA8"/>
<stop offset="0.2" stop-color="#56D7A1"/>
<stop offset="0.3" stop-color="#50CF9A"/>
<stop offset="0.4" stop-color="#4BC793"/>
<stop offset="0.5" stop-color="#46C08C"/>
<stop offset="0.6" stop-color="#41B884"/>
<stop offset="0.7" stop-color="#3CB07D"/>
<stop offset="0.8" stop-color="#36A876"/>
<stop offset="0.9" stop-color="#31A16F"/>
<stop offset="1" stop-color="#2C9968"/>
</linearGradient>
<linearGradient id="paint1_linear_926_10420" x1="26.2596" y1="19.6257" x2="26.3088" y2="9.93475" gradientUnits="userSpaceOnUse">
<stop stop-color="#60E6AF"/>
<stop offset="0.1" stop-color="#68E7A7"/>
<stop offset="0.2" stop-color="#70E79F"/>
<stop offset="0.3" stop-color="#77E897"/>
<stop offset="0.4" stop-color="#7FE88F"/>
<stop offset="0.5" stop-color="#87E988"/>
<stop offset="0.6" stop-color="#8FEA80"/>
<stop offset="0.7" stop-color="#97EA78"/>
<stop offset="0.8" stop-color="#9EEB70"/>
<stop offset="0.9" stop-color="#A6EB68"/>
<stop offset="1" stop-color="#AEEC60"/>
</linearGradient>
<linearGradient id="paint2_linear_926_10420" x1="21.5888" y1="0.218763" x2="21.56" y2="5.85505" gradientUnits="userSpaceOnUse">
<stop stop-color="#60E6AF"/>
<stop offset="0.1" stop-color="#5BDEA8"/>
<stop offset="0.2" stop-color="#56D7A1"/>
<stop offset="0.3" stop-color="#50CF9A"/>
<stop offset="0.4" stop-color="#4BC793"/>
<stop offset="0.5" stop-color="#46C08C"/>
<stop offset="0.6" stop-color="#41B884"/>
<stop offset="0.7" stop-color="#3CB07D"/>
<stop offset="0.8" stop-color="#36A876"/>
<stop offset="0.9" stop-color="#31A16F"/>
<stop offset="1" stop-color="#2C9968"/>
</linearGradient>
<linearGradient id="paint3_linear_926_10420" x1="26.2196" y1="13.2149" x2="26.2858" y2="0.242285" gradientUnits="userSpaceOnUse">
<stop stop-color="#60E6AF"/>
<stop offset="0.1" stop-color="#68E7A7"/>
<stop offset="0.2" stop-color="#70E79F"/>
<stop offset="0.3" stop-color="#77E897"/>
<stop offset="0.4" stop-color="#7FE88F"/>
<stop offset="0.5" stop-color="#87E988"/>
<stop offset="0.6" stop-color="#8FEA80"/>
<stop offset="0.7" stop-color="#97EA78"/>
<stop offset="0.8" stop-color="#9EEB70"/>
<stop offset="0.9" stop-color="#A6EB68"/>
<stop offset="1" stop-color="#AEEC60"/>
</linearGradient>
<linearGradient id="paint4_linear_926_10420" x1="7.36542" y1="0.231709" x2="7.33793" y2="5.63009" gradientUnits="userSpaceOnUse">
<stop stop-color="#60E6AF"/>
<stop offset="0.1" stop-color="#5BDEA8"/>
<stop offset="0.2" stop-color="#56D7A1"/>
<stop offset="0.3" stop-color="#50CF9A"/>
<stop offset="0.4" stop-color="#4BC793"/>
<stop offset="0.5" stop-color="#46C08C"/>
<stop offset="0.6" stop-color="#41B884"/>
<stop offset="0.7" stop-color="#3CB07D"/>
<stop offset="0.8" stop-color="#36A876"/>
<stop offset="0.9" stop-color="#31A16F"/>
<stop offset="1" stop-color="#2C9968"/>
</linearGradient>
<linearGradient id="paint5_linear_926_10420" x1="3.02382" y1="9.90178" x2="3.07306" y2="0.209734" gradientUnits="userSpaceOnUse">
<stop stop-color="#60E6AF"/>
<stop offset="0.1" stop-color="#68E7A7"/>
<stop offset="0.2" stop-color="#70E79F"/>
<stop offset="0.3" stop-color="#77E897"/>
<stop offset="0.4" stop-color="#7FE88F"/>
<stop offset="0.5" stop-color="#87E988"/>
<stop offset="0.6" stop-color="#8FEA80"/>
<stop offset="0.7" stop-color="#97EA78"/>
<stop offset="0.8" stop-color="#9EEB70"/>
<stop offset="0.9" stop-color="#A6EB68"/>
<stop offset="1" stop-color="#AEEC60"/>
</linearGradient>
<linearGradient id="paint6_linear_926_10420" x1="7.74426" y1="19.6173" x2="7.77301" y2="13.981" gradientUnits="userSpaceOnUse">
<stop stop-color="#60E6AF"/>
<stop offset="0.1" stop-color="#5BDEA8"/>
<stop offset="0.2" stop-color="#56D7A1"/>
<stop offset="0.3" stop-color="#50CF9A"/>
<stop offset="0.4" stop-color="#4BC793"/>
<stop offset="0.5" stop-color="#46C08C"/>
<stop offset="0.6" stop-color="#41B884"/>
<stop offset="0.7" stop-color="#3CB07D"/>
<stop offset="0.8" stop-color="#36A876"/>
<stop offset="0.9" stop-color="#31A16F"/>
<stop offset="1" stop-color="#2C9968"/>
</linearGradient>
<linearGradient id="paint7_linear_926_10420" x1="3.04789" y1="19.593" x2="3.11408" y2="6.62178" gradientUnits="userSpaceOnUse">
<stop stop-color="#60E6AF"/>
<stop offset="0.1" stop-color="#68E7A7"/>
<stop offset="0.2" stop-color="#70E79F"/>
<stop offset="0.3" stop-color="#77E897"/>
<stop offset="0.4" stop-color="#7FE88F"/>
<stop offset="0.5" stop-color="#87E988"/>
<stop offset="0.6" stop-color="#8FEA80"/>
<stop offset="0.7" stop-color="#97EA78"/>
<stop offset="0.8" stop-color="#9EEB70"/>
<stop offset="0.9" stop-color="#A6EB68"/>
<stop offset="1" stop-color="#AEEC60"/>
</linearGradient>
<linearGradient id="paint8_linear_926_10420" x1="10.2227" y1="19.6297" x2="10.2584" y2="12.6081" gradientUnits="userSpaceOnUse">
<stop stop-color="#60E6AF"/>
<stop offset="0.1" stop-color="#5BDEA8"/>
<stop offset="0.2" stop-color="#56D7A1"/>
<stop offset="0.3" stop-color="#50CF9A"/>
<stop offset="0.4" stop-color="#4BC793"/>
<stop offset="0.5" stop-color="#46C08C"/>
<stop offset="0.6" stop-color="#41B884"/>
<stop offset="0.7" stop-color="#3CB07D"/>
<stop offset="0.8" stop-color="#36A876"/>
<stop offset="0.9" stop-color="#31A16F"/>
<stop offset="1" stop-color="#2C9968"/>
</linearGradient>
<linearGradient id="paint9_linear_926_10420" x1="14.7383" y1="10.505" x2="14.7454" y2="9.11933" gradientUnits="userSpaceOnUse">
<stop stop-color="#60E6AF"/>
<stop offset="0.1" stop-color="#5BDEA8"/>
<stop offset="0.2" stop-color="#56D7A1"/>
<stop offset="0.3" stop-color="#50CF9A"/>
<stop offset="0.4" stop-color="#4BC793"/>
<stop offset="0.5" stop-color="#46C08C"/>
<stop offset="0.6" stop-color="#41B884"/>
<stop offset="0.7" stop-color="#3CB07D"/>
<stop offset="0.8" stop-color="#36A876"/>
<stop offset="0.9" stop-color="#31A16F"/>
<stop offset="1" stop-color="#2C9968"/>
</linearGradient>
<linearGradient id="paint10_linear_926_10420" x1="19.1495" y1="7.01616" x2="19.1842" y2="0.206333" gradientUnits="userSpaceOnUse">
<stop stop-color="#60E6AF"/>
<stop offset="0.1" stop-color="#5BDEA8"/>
<stop offset="0.2" stop-color="#56D7A1"/>
<stop offset="0.3" stop-color="#50CF9A"/>
<stop offset="0.4" stop-color="#4BC793"/>
<stop offset="0.5" stop-color="#46C08C"/>
<stop offset="0.6" stop-color="#41B884"/>
<stop offset="0.7" stop-color="#3CB07D"/>
<stop offset="0.8" stop-color="#36A876"/>
<stop offset="0.9" stop-color="#31A16F"/>
<stop offset="1" stop-color="#2C9968"/>
</linearGradient>
<linearGradient id="paint11_linear_926_10420" x1="25.1388" y1="8.10924" x2="4.20615" y2="8.00169" gradientUnits="userSpaceOnUse">
<stop stop-color="#60E6AF"/>
<stop offset="0.1" stop-color="#68E7A7"/>
<stop offset="0.2" stop-color="#70E79F"/>
<stop offset="0.3" stop-color="#77E897"/>
<stop offset="0.4" stop-color="#7FE88F"/>
<stop offset="0.5" stop-color="#87E988"/>
<stop offset="0.6" stop-color="#8FEA80"/>
<stop offset="0.7" stop-color="#97EA78"/>
<stop offset="0.8" stop-color="#9EEB70"/>
<stop offset="0.9" stop-color="#A6EB68"/>
<stop offset="1" stop-color="#AEEC60"/>
</linearGradient>
<linearGradient id="paint12_linear_926_10420" x1="25.2411" y1="11.6215" x2="4.06632" y2="11.5127" gradientUnits="userSpaceOnUse">
<stop stop-color="#60E6AF"/>
<stop offset="0.1" stop-color="#68E7A7"/>
<stop offset="0.2" stop-color="#70E79F"/>
<stop offset="0.3" stop-color="#77E897"/>
<stop offset="0.4" stop-color="#7FE88F"/>
<stop offset="0.5" stop-color="#87E988"/>
<stop offset="0.6" stop-color="#8FEA80"/>
<stop offset="0.7" stop-color="#97EA78"/>
<stop offset="0.8" stop-color="#9EEB70"/>
<stop offset="0.9" stop-color="#A6EB68"/>
<stop offset="1" stop-color="#AEEC60"/>
</linearGradient>
</defs>
</svg>
