<svg width="25" height="25" viewBox="0 0 25 25" fill="none" xmlns="http://www.w3.org/2000/svg">
<path d="M12.5 16.5C11.7044 16.5 10.9413 16.1839 10.3787 15.6213C9.81607 15.0587 9.5 14.2956 9.5 13.5C9.5 12.38 10.11 11.4 11 10.89L20.71 5.27L15.18 14.85C14.68 15.83 13.67 16.5 12.5 16.5ZM12.5 3.5C14.31 3.5 16 4 17.47 4.82L15.37 6.03C14.5 5.69 13.5 5.5 12.5 5.5C10.3783 5.5 8.34344 6.34285 6.84315 7.84315C5.34285 9.34344 4.5 11.3783 4.5 13.5C4.5 15.71 5.39 17.71 6.84 19.15H6.85C7.24 19.54 7.24 20.17 6.85 20.56C6.46 20.95 5.82 20.95 5.43 20.57C3.62 18.76 2.5 16.26 2.5 13.5C2.5 10.8478 3.55357 8.3043 5.42893 6.42893C7.3043 4.55357 9.84784 3.5 12.5 3.5ZM22.5 13.5C22.5 16.26 21.38 18.76 19.57 20.57C19.18 20.95 18.55 20.95 18.16 20.56C17.77 20.17 17.77 19.54 18.16 19.15C19.61 17.7 20.5 15.71 20.5 13.5C20.5 12.5 20.31 11.5 19.96 10.6L21.17 8.5C22 10 22.5 11.68 22.5 13.5Z" fill="white"/>
</svg>
