<svg width="261" height="200" viewBox="0 0 261 200" fill="none" xmlns="http://www.w3.org/2000/svg">
<path d="M45.0243 166.487C89.7261 189.838 162.196 189.838 206.893 166.487C251.589 143.137 251.595 105.276 206.893 81.925C162.191 58.5745 89.7208 58.5745 45.0243 81.925C0.327891 105.276 0.322556 143.137 45.0243 166.487Z" fill="#FAFAFA"/>
<path d="M152.317 134.873C141.801 140.939 141.801 150.781 152.317 156.852C162.832 162.923 179.872 162.923 190.387 156.852C200.902 150.781 200.897 140.939 190.387 134.873C179.877 128.807 162.827 128.802 152.317 134.873Z" fill="#EBEBEB"/>
<path d="M41.605 47.8621L69.7728 39.1023L48.1028 54.1145L41.605 47.8621Z" fill="#34A573"/>
<path d="M69.7731 39.1024L39.4331 44.1065L32.9351 37.8488L69.7731 39.1024Z" fill="#34A573"/>
<path d="M39.4331 44.1064V51.6124L41.6044 47.8621L69.7722 39.1023L39.4331 44.1064Z" fill="#455A64"/>
<path d="M39.4331 51.6124L43.7703 49.948L41.6044 47.8621L39.4331 51.6124Z" fill="#34A573"/>
<path d="M41.605 47.8621L43.7709 49.948L43.0774 50.2094L41.605 47.8621Z" fill="#455A64"/>
<path d="M34.765 50.4816C34.6753 50.4833 34.5877 50.4548 34.5161 50.4007C34.4446 50.3465 34.3933 50.2699 34.3705 50.1832C34.3478 50.0964 34.3548 50.0045 34.3906 49.9222C34.4263 49.8399 34.4887 49.772 34.5676 49.7294C35.0478 49.4627 35.5332 49.1959 36.0134 48.9879C36.061 48.9621 36.1133 48.9463 36.1672 48.9414C36.2211 48.9364 36.2755 48.9425 36.327 48.9591C36.3785 48.9758 36.426 49.0028 36.4668 49.0384C36.5076 49.074 36.5408 49.1175 36.5642 49.1662C36.5877 49.215 36.6011 49.268 36.6034 49.3221C36.6058 49.3762 36.5972 49.4302 36.5782 49.4808C36.5591 49.5315 36.5299 49.5778 36.4924 49.6168C36.455 49.6559 36.4099 49.6869 36.3601 49.7081C35.896 49.9322 35.4212 50.1722 34.9571 50.4336C34.8977 50.4645 34.8319 50.4809 34.765 50.4816Z" fill="#E0E0E0"/>
<path d="M29.8411 93.5657C29.7593 93.5666 29.6793 93.5424 29.6117 93.4964C28.744 92.8847 27.9221 92.2108 27.1523 91.4798C27.1035 91.4481 27.0622 91.4062 27.0313 91.357C27.0004 91.3077 26.9806 91.2523 26.9732 91.1946C26.9659 91.1369 26.9712 91.0783 26.9889 91.0229C27.0065 90.9675 27.036 90.9166 27.0753 90.8737C27.1146 90.8308 27.1628 90.7971 27.2165 90.7747C27.2702 90.7524 27.3282 90.7421 27.3863 90.7444C27.4444 90.7467 27.5013 90.7617 27.553 90.7883C27.6047 90.8149 27.6501 90.8524 27.6858 90.8983C28.4283 91.6031 29.2218 92.2522 30.0598 92.8402C30.1289 92.8896 30.1804 92.9597 30.207 93.0403C30.2336 93.121 30.2338 93.208 30.2077 93.2888C30.1816 93.3696 30.1304 93.4399 30.0616 93.4897C29.9928 93.5395 29.91 93.5661 29.8251 93.5657H29.8411ZM25.6586 89.682C25.5995 89.6826 25.541 89.67 25.4875 89.6451C25.4339 89.6202 25.3867 89.5835 25.3492 89.5379C24.6769 88.7175 24.0654 87.8492 23.5193 86.9399C23.4641 86.8486 23.4475 86.7392 23.473 86.6356C23.4985 86.5321 23.5641 86.4429 23.6554 86.3877C23.7466 86.3325 23.8561 86.3159 23.9596 86.3414C24.0632 86.3669 24.1523 86.4325 24.2075 86.5238C24.7335 87.4006 25.3218 88.2386 25.968 89.0311C26.0346 89.1127 26.0664 89.2173 26.0564 89.3222C26.0464 89.427 25.9955 89.5237 25.9146 89.5913C25.8432 89.6517 25.7521 89.6839 25.6586 89.682ZM22.6551 84.8273C22.5776 84.828 22.5015 84.8062 22.4362 84.7645C22.3708 84.7229 22.319 84.6631 22.287 84.5926C21.851 83.6268 21.4768 82.6343 21.1667 81.6211C21.1439 81.5225 21.1593 81.419 21.2098 81.3313C21.2603 81.2436 21.3422 81.1784 21.4388 81.1486C21.5355 81.1189 21.6399 81.1268 21.731 81.1709C21.822 81.2151 21.893 81.292 21.9295 81.3863C22.2245 82.3663 22.5808 83.3267 22.9965 84.2618C23.0189 84.3097 23.0315 84.3616 23.0337 84.4145C23.0358 84.4674 23.0275 84.5201 23.0091 84.5697C22.9908 84.6193 22.9628 84.6648 22.9267 84.7035C22.8907 84.7422 22.8473 84.7734 22.7991 84.7953C22.7537 84.8154 22.7047 84.8263 22.6551 84.8273ZM20.9213 79.3804C20.8287 79.3796 20.7393 79.3467 20.6683 79.2874C20.5973 79.228 20.5491 79.1459 20.5318 79.055C20.3282 78.0185 20.1839 76.9711 20.0997 75.9181C20.0912 75.812 20.1252 75.7069 20.1943 75.6258C20.2633 75.5448 20.3617 75.4945 20.4678 75.486C20.5739 75.4775 20.6791 75.5115 20.7601 75.5806C20.8411 75.6496 20.8914 75.748 20.8999 75.8541C20.9784 76.8768 21.1173 77.894 21.316 78.9003C21.3269 78.9519 21.3273 79.005 21.3173 79.0567C21.3072 79.1085 21.2869 79.1576 21.2576 79.2014C21.2283 79.2451 21.1905 79.2826 21.1465 79.3115C21.1024 79.3404 21.0531 79.3602 21.0013 79.3698L20.9213 79.3804ZM20.4145 73.6829C20.3617 73.6829 20.3095 73.6723 20.2609 73.6518C20.2123 73.6313 20.1683 73.6013 20.1315 73.5635C20.0947 73.5257 20.0658 73.4809 20.0466 73.4318C20.0274 73.3826 20.0182 73.3301 20.0197 73.2774C20.0322 72.2215 20.1034 71.1672 20.2331 70.1192C20.2337 70.0629 20.2461 70.0075 20.2697 69.9563C20.2932 69.9052 20.3272 69.8597 20.3695 69.8226C20.4118 69.7855 20.4615 69.7578 20.5152 69.7412C20.569 69.7246 20.6256 69.7196 20.6815 69.7264C20.7373 69.7332 20.7911 69.7516 20.8393 69.7806C20.8875 69.8096 20.9291 69.8484 20.9613 69.8946C20.9935 69.9407 21.0156 69.9931 21.0261 70.0484C21.0367 70.1036 21.0355 70.1605 21.0226 70.2152C20.8993 71.2351 20.8316 72.2609 20.8199 73.2881C20.8192 73.3406 20.8082 73.3925 20.7874 73.4408C20.7667 73.4891 20.7366 73.5328 20.6989 73.5695C20.6613 73.6061 20.6168 73.635 20.568 73.6545C20.5192 73.6739 20.467 73.6836 20.4145 73.6829ZM21.0653 68.0013C21.0353 68.0065 21.0046 68.0065 20.9746 68.0013C20.8715 67.9783 20.7817 67.9155 20.7247 67.8265C20.6678 67.7376 20.6483 67.6297 20.6705 67.5265C20.9043 66.4931 21.2036 65.4756 21.5668 64.4803C21.5845 64.4284 21.6126 64.3806 21.6495 64.34C21.6865 64.2994 21.7313 64.2669 21.7814 64.2444C21.8314 64.2218 21.8855 64.2099 21.9404 64.2091C21.9952 64.2084 22.0497 64.219 22.1003 64.2402C22.1517 64.2586 22.199 64.2871 22.2391 64.3242C22.2793 64.3612 22.3116 64.406 22.334 64.4558C22.3564 64.5056 22.3685 64.5595 22.3696 64.6141C22.3707 64.6687 22.3607 64.723 22.3403 64.7737C21.9903 65.7361 21.7016 66.7196 21.4761 67.7185C21.4497 67.8052 21.3947 67.8804 21.3201 67.9317C21.2455 67.9831 21.1557 68.0076 21.0653 68.0013ZM22.9645 62.6131C22.903 62.6155 22.842 62.6008 22.7884 62.5704C22.7407 62.5482 22.6979 62.5166 22.6626 62.4775C22.6272 62.4385 22.6 62.3928 22.5826 62.3431C22.5652 62.2933 22.558 62.2406 22.5612 62.1881C22.5645 62.1355 22.5783 62.0841 22.6017 62.037C23.0674 61.0862 23.5912 60.1651 24.1702 59.2789C24.2285 59.1962 24.3159 59.1387 24.4149 59.1179C24.5138 59.0972 24.617 59.1146 24.7036 59.1668C24.7882 59.2235 24.8476 59.3106 24.8695 59.41C24.8914 59.5094 24.874 59.6134 24.821 59.7003C24.2582 60.5564 23.7504 61.4473 23.3006 62.3677C23.273 62.4359 23.2269 62.4949 23.1675 62.5383C23.1081 62.5817 23.0378 62.6076 22.9645 62.6131ZM26.032 57.8118C25.9428 57.8127 25.856 57.7825 25.7866 57.7264C25.745 57.6937 25.7103 57.653 25.6846 57.6068C25.6588 57.5605 25.6425 57.5096 25.6365 57.457C25.6306 57.4045 25.6351 57.3512 25.6499 57.3004C25.6647 57.2495 25.6894 57.2021 25.7226 57.1609C26.3893 56.3374 27.1017 55.5519 27.8565 54.8083C27.9315 54.7334 28.0332 54.6913 28.1393 54.6913C28.2453 54.6913 28.347 54.7334 28.422 54.8083C28.4969 54.8833 28.539 54.985 28.539 55.091C28.539 55.1971 28.4969 55.2988 28.422 55.3738C27.695 56.0991 27.0076 56.8631 26.3628 57.6624C26.3214 57.7081 26.27 57.7434 26.2126 57.7657C26.1551 57.7879 26.0933 57.7964 26.032 57.7904V57.8118ZM30.0438 53.7146C29.9856 53.7145 29.9282 53.7015 29.8756 53.6766C29.8231 53.6517 29.7767 53.6155 29.7397 53.5706C29.6721 53.4888 29.6393 53.3838 29.6483 53.2781C29.6573 53.1723 29.7073 53.0743 29.7877 53.0051C30.5999 52.3298 31.4456 51.6959 32.3218 51.1059C32.4078 51.0532 32.5105 51.0349 32.6094 51.0546C32.7083 51.0744 32.7961 51.1309 32.8552 51.2126C32.9148 51.3012 32.937 51.4097 32.917 51.5146C32.897 51.6195 32.8365 51.7123 32.7485 51.7728C31.8938 52.3467 31.0693 52.9646 30.2785 53.624C30.2115 53.6777 30.1295 53.7094 30.0438 53.7146Z" fill="#E0E0E0"/>
<path d="M33.5109 95.6514C33.4537 95.6518 33.3971 95.639 33.3456 95.614C32.8494 95.39 32.3586 95.1499 31.8892 94.8938C31.8433 94.8697 31.8026 94.8367 31.7694 94.7968C31.7363 94.7569 31.7113 94.7109 31.6959 94.6614C31.6806 94.6118 31.6751 94.5597 31.6799 94.5081C31.6847 94.4564 31.6996 94.4062 31.7238 94.3604C31.7736 94.2687 31.8572 94.2001 31.9569 94.1692C32.0566 94.1383 32.1643 94.1476 32.2573 94.195C32.7161 94.4404 33.1909 94.6751 33.671 94.8938C33.7533 94.9321 33.8202 94.9973 33.8606 95.0787C33.901 95.16 33.9125 95.2526 33.8933 95.3414C33.874 95.4301 33.8252 95.5097 33.7547 95.567C33.6843 95.6243 33.5964 95.656 33.5056 95.6567L33.5109 95.6514Z" fill="#E0E0E0"/>
<path d="M215.995 76.2914L238.561 61.8447L248.5 65.0349L215.995 76.2914Z" fill="#34A573"/>
<path d="M215.995 76.2912L235.499 60.0307L231.162 55.0266L215.995 76.2912Z" fill="#34A573"/>
<path d="M235.499 60.031V63.8027L215.995 76.2915L235.499 60.031Z" fill="#455A64"/>
<path d="M239.901 58.457C239.804 58.4573 239.711 58.4211 239.639 58.3556C239.56 58.2849 239.512 58.1862 239.505 58.0805C239.498 57.9748 239.533 57.8706 239.602 57.7901C240.297 57.0152 240.913 56.1735 241.442 55.2774C241.496 55.1855 241.584 55.1186 241.687 55.0916C241.79 55.0646 241.9 55.0796 241.992 55.1334C242.084 55.1872 242.151 55.2752 242.178 55.3783C242.205 55.4813 242.19 55.5909 242.136 55.6829C241.577 56.6222 240.931 57.5065 240.205 58.3236C240.167 58.3663 240.12 58.4003 240.067 58.4233C240.015 58.4463 239.958 58.4578 239.901 58.457ZM242.952 53.4849C242.905 53.4925 242.856 53.4925 242.808 53.4849C242.758 53.4656 242.712 53.4363 242.673 53.3987C242.634 53.3611 242.603 53.316 242.582 53.2661C242.561 53.2162 242.551 53.1626 242.551 53.1086C242.551 53.0545 242.563 53.001 242.584 52.9515C242.961 51.9797 243.243 50.9739 243.427 49.9479C243.446 49.8432 243.506 49.7504 243.594 49.6899C243.681 49.6294 243.789 49.6061 243.894 49.6252C243.999 49.6443 244.091 49.7042 244.152 49.7917C244.212 49.8793 244.236 49.9873 244.217 50.092C244.02 51.167 243.722 52.221 243.326 53.2395C243.296 53.3134 243.244 53.3763 243.177 53.4202C243.11 53.464 243.032 53.4865 242.952 53.4849ZM244.094 47.7607C244.042 47.76 243.99 47.7489 243.942 47.7281C243.894 47.7073 243.851 47.6771 243.814 47.6394C243.778 47.6017 243.75 47.5571 243.731 47.5083C243.712 47.4596 243.703 47.4075 243.705 47.3552C243.705 47.2165 243.705 47.0778 243.705 46.9391C243.702 46.0334 243.631 45.1292 243.491 44.2344C243.476 44.1291 243.502 44.022 243.565 43.9362C243.628 43.8503 243.722 43.7926 243.827 43.7756C243.932 43.7616 244.039 43.7887 244.124 43.8514C244.21 43.914 244.268 44.0073 244.286 44.1117C244.43 45.0473 244.503 45.9925 244.505 46.9391C244.505 47.0832 244.505 47.2272 244.505 47.3712C244.501 47.4769 244.455 47.5767 244.379 47.6495C244.302 47.7223 244.2 47.7621 244.094 47.7607ZM243.288 41.9777C243.203 41.9774 243.119 41.9492 243.051 41.8972C242.982 41.8452 242.933 41.7723 242.91 41.6897C242.604 40.6887 242.22 39.713 241.763 38.7715C241.739 38.7243 241.725 38.673 241.722 38.6204C241.719 38.5678 241.726 38.5151 241.743 38.4654C241.761 38.4157 241.788 38.37 241.823 38.3309C241.859 38.2919 241.902 38.2603 241.949 38.238C242.045 38.1922 242.155 38.1861 242.255 38.2211C242.355 38.2561 242.437 38.3293 242.483 38.4247C242.96 39.4031 243.358 40.4182 243.673 41.4603C243.688 41.5103 243.693 41.563 243.688 41.6152C243.683 41.6674 243.668 41.7181 243.643 41.7643C243.618 41.8105 243.585 41.8512 243.544 41.8842C243.503 41.9172 243.456 41.9417 243.406 41.9564C243.368 41.9712 243.329 41.9784 243.288 41.9777ZM240.813 36.6803C240.746 36.6809 240.679 36.664 240.62 36.6313C240.561 36.5985 240.512 36.5511 240.477 36.4935C239.905 35.6156 239.276 34.7762 238.594 33.9809C238.559 33.941 238.533 33.8947 238.516 33.8446C238.5 33.7946 238.493 33.7418 238.497 33.6892C238.501 33.6367 238.516 33.5855 238.54 33.5385C238.563 33.4915 238.596 33.4496 238.636 33.4154C238.676 33.3811 238.722 33.355 238.771 33.3385C238.821 33.3221 238.873 33.3157 238.925 33.3197C238.977 33.3236 239.028 33.3379 239.075 33.3617C239.121 33.3854 239.163 33.4182 239.196 33.458C239.905 34.2813 240.557 35.1511 241.149 36.0614C241.198 36.1493 241.214 36.2521 241.192 36.3505C241.17 36.4489 241.113 36.5358 241.032 36.5949C240.968 36.6419 240.892 36.6696 240.813 36.6749V36.6803ZM237.078 32.1937C236.977 32.1934 236.879 32.1531 236.806 32.0817C236.038 31.3627 235.231 30.6859 234.39 30.0544C234.348 30.0229 234.312 29.9834 234.285 29.9382C234.259 29.893 234.241 29.8429 234.234 29.7909C234.226 29.7389 234.229 29.6859 234.242 29.635C234.255 29.5841 234.278 29.5363 234.31 29.4943C234.341 29.4522 234.381 29.4168 234.426 29.3901C234.471 29.3633 234.521 29.3457 234.573 29.3382C234.625 29.3308 234.678 29.3337 234.729 29.3467C234.78 29.3598 234.828 29.3827 234.87 29.4142C235.737 30.0624 236.567 30.7588 237.356 31.5002C237.415 31.5551 237.456 31.6268 237.474 31.7057C237.492 31.7847 237.485 31.8671 237.455 31.9422C237.425 32.0173 237.373 32.0816 237.306 32.1264C237.239 32.1713 237.159 32.1948 237.078 32.1937ZM232.4 28.6407C232.324 28.64 232.25 28.6178 232.186 28.5767C231.824 28.3526 231.445 28.1286 231.061 27.9098C230.527 27.6111 229.994 27.3123 229.428 27.0296C229.376 27.0089 229.33 26.9777 229.291 26.9379C229.252 26.8981 229.222 26.8507 229.202 26.7986C229.183 26.7465 229.174 26.6909 229.178 26.6354C229.181 26.5799 229.195 26.5256 229.221 26.4761C229.246 26.4266 229.281 26.3829 229.325 26.3478C229.368 26.3127 229.418 26.287 229.471 26.2723C229.525 26.2576 229.581 26.2543 229.636 26.2625C229.691 26.2707 229.744 26.2903 229.791 26.3201C230.351 26.6081 230.911 26.9069 231.455 27.2163C231.85 27.435 232.234 27.6644 232.608 27.8992C232.694 27.9542 232.756 28.0401 232.781 28.1394C232.805 28.2386 232.791 28.3435 232.741 28.4326C232.707 28.4935 232.657 28.5446 232.597 28.581C232.538 28.6174 232.47 28.638 232.4 28.6407ZM184.572 28.3686C184.501 28.3679 184.432 28.3488 184.371 28.3132C184.311 28.2777 184.26 28.2269 184.225 28.1659C184.174 28.0758 184.161 27.9695 184.188 27.8698C184.215 27.77 184.28 27.6848 184.369 27.6324C185.297 27.0989 186.252 26.5655 187.218 26.1173C187.313 26.0711 187.422 26.0642 187.522 26.0982C187.622 26.1322 187.704 26.2042 187.751 26.2987C187.796 26.3945 187.801 26.5037 187.766 26.6034C187.731 26.703 187.659 26.7851 187.565 26.8322C186.615 27.2963 185.676 27.7925 184.764 28.3206C184.704 28.3497 184.638 28.3625 184.572 28.358V28.3686ZM227.198 25.9306C227.143 25.931 227.088 25.9182 227.038 25.8933C226.078 25.4718 225.085 25.077 224.093 24.7249C223.993 24.6889 223.911 24.6144 223.865 24.5178C223.82 24.4213 223.814 24.3106 223.85 24.2101C223.886 24.1097 223.961 24.0277 224.058 23.9821C224.154 23.9366 224.265 23.9313 224.365 23.9674C225.374 24.3302 226.382 24.7303 227.363 25.1624C227.449 25.1988 227.519 25.2639 227.562 25.3464C227.605 25.429 227.618 25.5239 227.598 25.6148C227.578 25.7057 227.528 25.787 227.455 25.8446C227.382 25.9023 227.291 25.9327 227.198 25.9306ZM189.827 25.7652C189.748 25.7658 189.671 25.7427 189.605 25.6989C189.539 25.6552 189.488 25.5928 189.458 25.5198C189.437 25.4709 189.425 25.4181 189.424 25.3645C189.423 25.3109 189.432 25.2577 189.452 25.2079C189.472 25.1582 189.502 25.1129 189.54 25.0749C189.577 25.0368 189.622 25.0067 189.672 24.9864C190.659 24.5702 191.672 24.1861 192.686 23.8394C192.737 23.8183 192.792 23.8079 192.847 23.809C192.902 23.81 192.956 23.8225 193.006 23.8455C193.057 23.8686 193.101 23.9017 193.138 23.9429C193.175 23.984 193.202 24.0324 193.22 24.0848C193.239 24.1362 193.248 24.191 193.246 24.2459C193.244 24.3008 193.23 24.3548 193.207 24.4045C193.184 24.4543 193.151 24.4988 193.11 24.5355C193.069 24.5722 193.021 24.6004 192.969 24.6183C191.971 24.9597 190.968 25.3385 190.003 25.7439C189.945 25.7598 189.885 25.7635 189.827 25.7546V25.7652ZM221.692 23.9194C221.655 23.9246 221.618 23.9246 221.58 23.9194C220.572 23.626 219.537 23.3859 218.507 23.1352C218.456 23.124 218.407 23.1027 218.364 23.0727C218.321 23.0426 218.284 23.0043 218.255 22.96C218.227 22.9156 218.207 22.8661 218.198 22.8143C218.188 22.7624 218.189 22.7092 218.201 22.6577C218.212 22.6062 218.233 22.5574 218.263 22.5142C218.293 22.4709 218.332 22.4339 218.376 22.4054C218.42 22.377 218.47 22.3575 218.522 22.3481C218.573 22.3388 218.627 22.3397 218.678 22.351C219.745 22.5804 220.78 22.8524 221.804 23.1512C221.897 23.1781 221.977 23.2376 222.029 23.3185C222.081 23.3995 222.102 23.4965 222.088 23.5919C222.075 23.6872 222.027 23.7744 221.955 23.8375C221.882 23.9007 221.789 23.9354 221.692 23.9354V23.9194ZM195.364 23.8394C195.277 23.839 195.192 23.8102 195.123 23.7572C195.054 23.7042 195.003 23.6301 194.98 23.546C194.966 23.4959 194.961 23.4434 194.967 23.3915C194.972 23.3396 194.989 23.2894 195.014 23.2438C195.039 23.1982 195.073 23.158 195.114 23.1256C195.155 23.0932 195.202 23.0693 195.252 23.0552C196.282 22.7671 197.338 22.5217 198.389 22.2869C198.442 22.2699 198.499 22.2643 198.554 22.2704C198.61 22.2764 198.664 22.2941 198.712 22.3221C198.76 22.3502 198.802 22.3881 198.835 22.4334C198.868 22.4787 198.891 22.5303 198.902 22.585C198.914 22.6397 198.914 22.6962 198.902 22.7509C198.891 22.8056 198.868 22.8572 198.835 22.9025C198.802 22.9478 198.76 22.9858 198.712 23.0139C198.664 23.042 198.61 23.0597 198.555 23.0658C197.52 23.2845 196.485 23.5406 195.471 23.8234L195.364 23.8394ZM215.973 22.6337H215.893C214.853 22.4683 213.791 22.335 212.746 22.2389C212.691 22.2383 212.636 22.2263 212.586 22.2037C212.536 22.1811 212.491 22.1484 212.454 22.1076C212.417 22.0667 212.388 22.0187 212.371 21.9665C212.353 21.9143 212.347 21.859 212.351 21.8041C212.356 21.7492 212.372 21.6958 212.399 21.6475C212.425 21.5991 212.461 21.5566 212.505 21.5228C212.548 21.489 212.598 21.4646 212.652 21.451C212.705 21.4375 212.761 21.4351 212.815 21.444C213.882 21.5401 214.949 21.6734 216.016 21.8441C216.12 21.8625 216.213 21.9207 216.275 22.0063C216.336 22.092 216.362 22.1985 216.347 22.3029C216.328 22.3893 216.281 22.467 216.214 22.5239C216.146 22.5808 216.062 22.6138 215.973 22.6177V22.6337ZM201.094 22.5964C200.999 22.5963 200.907 22.5625 200.835 22.5009C200.763 22.4393 200.714 22.354 200.699 22.2603C200.684 22.155 200.711 22.0479 200.773 21.9621C200.836 21.8762 200.93 21.8186 201.035 21.8015C202.102 21.6414 203.169 21.5081 204.236 21.4174C204.289 21.4128 204.342 21.4187 204.392 21.4346C204.442 21.4505 204.489 21.4761 204.529 21.51C204.57 21.544 204.603 21.5855 204.627 21.6323C204.652 21.6791 204.667 21.7303 204.671 21.7828C204.676 21.8353 204.67 21.8883 204.654 21.9386C204.638 21.9888 204.612 22.0355 204.578 22.0759C204.545 22.1162 204.503 22.1495 204.456 22.1739C204.409 22.1982 204.358 22.213 204.306 22.2176C203.239 22.3083 202.198 22.431 201.158 22.5964H201.094ZM210.137 22.0629C209.07 22.0255 208.003 22.0202 206.963 22.0629C206.91 22.0658 206.858 22.058 206.808 22.0401C206.759 22.0221 206.714 21.9944 206.675 21.9585C206.637 21.9226 206.606 21.8793 206.585 21.8312C206.564 21.7832 206.552 21.7313 206.552 21.6788C206.55 21.626 206.558 21.5734 206.577 21.524C206.595 21.4746 206.623 21.4294 206.66 21.3911C206.696 21.3528 206.74 21.3222 206.788 21.3011C206.836 21.2799 206.888 21.2687 206.941 21.268C208.008 21.2306 209.075 21.236 210.142 21.268C210.195 21.2694 210.246 21.2811 210.294 21.3025C210.343 21.3239 210.386 21.3545 210.422 21.3927C210.458 21.4308 210.486 21.4757 210.505 21.5248C210.524 21.5739 210.533 21.6262 210.532 21.6788C210.524 21.7788 210.479 21.8724 210.406 21.9414C210.333 22.0104 210.237 22.0499 210.137 22.0522V22.0629Z" fill="#E0E0E0"/>
<path d="M208.125 84.091V83.2374H207.917C207.6 82.6593 207.119 82.1878 206.535 81.8824C205.343 81.2774 204.025 80.9621 202.689 80.9621C201.352 80.9621 200.034 81.2774 198.842 81.8824C198.258 82.1878 197.777 82.6593 197.461 83.2374H197.252V84.0643C197.252 84.8805 197.786 85.7021 198.853 86.3263C200.046 86.9284 201.363 87.242 202.699 87.242C204.035 87.242 205.353 86.9284 206.546 86.3263C207.602 85.7234 208.13 84.9019 208.125 84.091Z" fill="#37474F"/>
<path d="M202.689 86.3794C205.691 86.3794 208.125 84.9726 208.125 83.2372C208.125 81.5018 205.691 80.095 202.689 80.095C199.686 80.095 197.252 81.5018 197.252 83.2372C197.252 84.9726 199.686 86.3794 202.689 86.3794Z" fill="#455A64"/>
<path d="M201.292 57.0754V82.8693C201.303 82.9917 201.347 83.1089 201.418 83.2091C201.489 83.3093 201.586 83.389 201.697 83.4401C202.004 83.5953 202.343 83.6761 202.687 83.6761C203.031 83.6761 203.37 83.5953 203.677 83.4401C203.79 83.3902 203.888 83.311 203.96 83.2106C204.032 83.1102 204.076 82.9924 204.087 82.8693V57.0754H201.292Z" fill="#37474F"/>
<path d="M208.957 37.7688C207.597 36.9846 206.359 36.9206 205.431 37.438L188.151 47.4248L196.82 64.811L214.159 54.7815V47.1741C214.159 43.6371 211.827 39.4279 208.957 37.7688Z" fill="#455A64"/>
<path d="M196.821 57.198V64.8108L186.423 58.8038V51.1963C186.423 47.6594 188.749 46.1389 191.619 47.7981C193.46 48.865 195.076 50.9669 195.999 53.2716C196.516 54.5177 196.794 55.8494 196.821 57.198Z" fill="#37474F"/>
<path d="M196.821 57.1982V64.811L186.423 58.804L195.999 53.2718C196.516 54.5179 196.794 55.8496 196.821 57.1982Z" fill="#263238"/>
<path d="M195.087 59.8069C194.132 57.0434 191.028 53.4585 188.152 51.8047C185.277 50.1509 183.73 51.0418 184.684 53.8052L186.418 58.8093L196.821 64.8163C196.821 64.8163 196.048 62.5703 195.087 59.8069Z" fill="#455A64"/>
<path d="M202.242 57.4863L201.66 57.1502C201.536 57.0929 201.398 57.0695 201.261 57.0827C201.124 57.0958 200.993 57.1449 200.882 57.2249C200.56 57.4352 200.293 57.7181 200.101 58.0508C199.909 58.3835 199.798 58.7566 199.777 59.1401C199.763 59.2775 199.785 59.4162 199.842 59.5419C199.9 59.6676 199.99 59.7757 200.103 59.855L200.636 60.1644L200.737 59.999C200.848 59.9751 200.955 59.9337 201.052 59.8763C201.373 59.6672 201.641 59.3853 201.833 59.0534C202.025 58.7216 202.136 58.3492 202.157 57.9664C202.156 57.871 202.143 57.776 202.119 57.6837L202.242 57.4863Z" fill="#263238"/>
<path d="M201.436 57.5503C201.115 57.7594 200.848 58.0413 200.656 58.3732C200.464 58.705 200.353 59.0774 200.332 59.4602C200.332 60.1643 200.828 60.4471 201.436 60.095C201.758 59.8862 202.026 59.6043 202.217 59.2724C202.409 58.9405 202.52 58.568 202.541 58.1851C202.557 57.4809 202.023 57.1982 201.436 57.5503Z" fill="#37474F"/>
<path d="M201.436 59.1239C201.394 59.1239 201.353 59.1156 201.314 59.0996C201.275 59.0835 201.24 59.0599 201.21 59.0302C201.18 59.0005 201.157 58.9652 201.141 58.9263C201.124 58.8875 201.116 58.8459 201.116 58.8038V47.7981C201.116 47.7132 201.15 47.6318 201.21 47.5718C201.27 47.5118 201.351 47.478 201.436 47.478C201.521 47.478 201.603 47.5118 201.663 47.5718C201.723 47.6318 201.756 47.7132 201.756 47.7981V58.8038C201.756 58.8887 201.723 58.9701 201.663 59.0302C201.603 59.0902 201.521 59.1239 201.436 59.1239Z" fill="#263238"/>
<path d="M201.724 48.0862V50.9563L204.802 47.7981L201.724 48.0862Z" fill="#37474F"/>
<path d="M39.8806 143.291C39.6138 143.435 34.7165 144.822 32.9026 142.427C31.0888 140.032 34.103 136.297 32.4012 134.921C30.6994 133.544 25.93 134.921 24.7831 132.029C23.6361 129.138 27.0344 127.889 25.1245 124.971C23.9188 123.131 20.5472 122.117 20.7019 120.405C20.926 117.903 25.5353 117.204 29.5577 119.909C33.5802 122.613 35.458 120.394 36.733 120.213C38.0081 120.031 40.7608 120.431 40.6755 124.913C40.5901 129.394 39.8806 143.291 39.8806 143.291Z" fill="#34A573"/>
<path d="M40.2058 136.937C40.1422 136.937 40.0806 136.914 40.0319 136.874C39.9832 136.833 39.9503 136.776 39.9391 136.713C38.536 128.177 28.6506 121.28 23.5079 119.796C23.4738 119.787 23.442 119.771 23.4143 119.75C23.3866 119.728 23.3636 119.701 23.3467 119.67C23.3297 119.639 23.3192 119.605 23.3157 119.57C23.3123 119.535 23.3159 119.499 23.3265 119.466C23.3463 119.398 23.3923 119.341 23.4543 119.307C23.5163 119.273 23.5893 119.265 23.6572 119.284C28.912 120.805 39.0268 127.895 40.4672 136.628C40.478 136.697 40.4612 136.768 40.4202 136.825C40.3793 136.882 40.3176 136.92 40.2485 136.932L40.2058 136.937Z" fill="white"/>
<path d="M28.5447 129.794C28.4861 129.795 28.4289 129.776 28.3819 129.741C28.335 129.706 28.301 129.656 28.2852 129.599C28.2694 129.543 28.2727 129.483 28.2946 129.428C28.3164 129.374 28.3556 129.328 28.406 129.298C28.5661 129.202 32.3751 126.977 36.1202 128.018C36.1909 128.036 36.2515 128.082 36.2885 128.145C36.3255 128.208 36.336 128.283 36.3176 128.354C36.2992 128.425 36.2534 128.485 36.1904 128.522C36.1274 128.559 36.0522 128.57 35.9815 128.551C32.4498 127.57 28.7155 129.752 28.6781 129.773C28.6366 129.793 28.5903 129.8 28.5447 129.794Z" fill="white"/>
<path d="M179.349 98.2174C181.451 98.5055 185.03 97.2892 185.286 93.7895C185.543 90.2899 186.988 89.3403 189.64 88.7695C192.291 88.1987 193.07 87.2757 193.374 85.6113C193.678 83.9468 191.662 81.9569 192.227 79.4496C192.793 76.9422 194.681 76.9475 196.538 74.1148C197.727 72.2903 195.289 69.5055 191.229 70.7005C187.17 71.8955 187.495 74.5149 183.435 74.851C179.376 75.187 176.831 77.6517 176.751 80.7193C176.671 83.7868 179.349 98.2174 179.349 98.2174Z" fill="#34A573"/>
<path opacity="0.2" d="M179.349 98.2174C181.451 98.5055 185.03 97.2892 185.286 93.7895C185.543 90.2899 186.988 89.3403 189.64 88.7695C192.291 88.1987 193.07 87.2757 193.374 85.6113C193.678 83.9468 191.662 81.9569 192.227 79.4496C192.793 76.9422 194.681 76.9475 196.538 74.1148C197.727 72.2903 195.289 69.5055 191.229 70.7005C187.17 71.8955 187.495 74.5149 183.435 74.851C179.376 75.187 176.831 77.6517 176.751 80.7193C176.671 83.7868 179.349 98.2174 179.349 98.2174Z" fill="black"/>
<path d="M178.58 91.5063H178.548C178.514 91.4993 178.481 91.4856 178.452 91.466C178.423 91.4464 178.399 91.4212 178.379 91.392C178.36 91.3628 178.346 91.33 178.34 91.2956C178.333 91.2612 178.333 91.2258 178.34 91.1915C180.304 81.4875 191.011 72.605 193.619 71.6981C193.69 71.6748 193.767 71.6805 193.834 71.714C193.9 71.7475 193.951 71.8061 193.974 71.8768C193.997 71.9476 193.992 72.0247 193.958 72.0912C193.925 72.1578 193.866 72.2082 193.795 72.2316C191.245 73.1172 180.784 81.8343 178.858 91.3249C178.838 91.3815 178.8 91.4299 178.75 91.4627C178.7 91.4955 178.64 91.5108 178.58 91.5063Z" fill="white"/>
<path d="M37.6406 88.0655C37.6667 87.5844 37.8059 87.1163 38.0469 86.6992C38.2879 86.282 38.624 85.9276 39.0277 85.6648L109.935 44.7254C110.364 44.5096 110.839 44.3972 111.319 44.3972C111.8 44.3972 112.274 44.5096 112.704 44.7254L114.267 45.6324C114.672 45.8943 115.008 46.2484 115.249 46.6657C115.491 47.0831 115.629 47.5517 115.654 48.033V102.384C115.627 102.865 115.487 103.333 115.246 103.749C115.005 104.166 114.67 104.521 114.267 104.785L43.3597 145.719C42.9299 145.937 42.4547 146.051 41.9726 146.051C41.4906 146.051 41.0153 145.937 40.5855 145.719L39.0277 144.817C38.6246 144.554 38.289 144.199 38.048 143.782C37.8071 143.365 37.6675 142.897 37.6406 142.417V88.0655Z" fill="#34A573"/>
<path opacity="0.3" d="M37.6406 88.0655C37.6667 87.5844 37.8059 87.1163 38.0469 86.6992C38.2879 86.282 38.624 85.9276 39.0277 85.6648L109.935 44.7254C110.364 44.5096 110.839 44.3972 111.319 44.3972C111.8 44.3972 112.274 44.5096 112.704 44.7254L114.267 45.6324C114.672 45.8943 115.008 46.2484 115.249 46.6657C115.491 47.0831 115.629 47.5517 115.654 48.033V102.384C115.627 102.865 115.487 103.333 115.246 103.749C115.005 104.166 114.67 104.521 114.267 104.785L43.3597 145.719C42.9299 145.937 42.4547 146.051 41.9726 146.051C41.4906 146.051 41.0153 145.937 40.5855 145.719L39.0277 144.817C38.6246 144.554 38.289 144.199 38.048 143.782C37.8071 143.365 37.6675 142.897 37.6406 142.417V88.0655Z" fill="black"/>
<path d="M44.1384 90.2207L38.0461 86.6997C37.797 87.1131 37.6575 87.5831 37.6406 88.0654V142.416C37.6675 142.897 37.8071 143.365 38.048 143.782C38.2889 144.199 38.6245 144.554 39.0277 144.817L40.5854 145.719C41.0152 145.937 41.4904 146.051 41.9725 146.051C42.4545 146.051 42.9298 145.937 43.3595 145.719L44.1384 145.271V90.2207Z" fill="#34A573"/>
<path opacity="0.5" d="M44.1384 90.2207L38.0461 86.6997C37.797 87.1131 37.6575 87.5831 37.6406 88.0654V142.416C37.6675 142.897 37.8071 143.365 38.048 143.782C38.2889 144.199 38.6245 144.554 39.0277 144.817L40.5854 145.719C41.0152 145.937 41.4904 146.051 41.9725 146.051C42.4545 146.051 42.9298 145.937 43.3595 145.719L44.1384 145.271V90.2207Z" fill="black"/>
<path d="M115.654 48.0328V102.384C115.636 102.881 115.487 103.365 115.222 103.787C115.017 104.142 114.741 104.451 114.411 104.694L114.357 104.726L114.267 104.785L43.3595 145.719C43.2238 145.814 43.0661 145.874 42.901 145.893C42.736 145.912 42.5689 145.888 42.4152 145.825C42.2675 145.732 42.1481 145.6 42.0701 145.444C41.992 145.288 41.9582 145.114 41.9724 144.94V90.5673C41.9603 90.3727 41.9956 90.1781 42.0753 90.0001C42.1549 89.8222 42.2766 89.6662 42.4297 89.5455C42.5829 89.4249 42.763 89.3432 42.9547 89.3074C43.1464 89.2717 43.3439 89.283 43.5302 89.3403L73.3474 96.4302L77.2526 97.3585C77.7135 97.4448 78.1893 97.4035 78.6284 97.2389C79.0676 97.0744 79.4534 96.7929 79.744 96.4249L84.2681 90.1245L114.72 47.7287C115.232 47.0138 115.654 47.1472 115.654 48.0328Z" fill="#34A573"/>
<path opacity="0.2" d="M115.654 48.0328V102.384C115.636 102.881 115.487 103.365 115.222 103.787C115.017 104.142 114.741 104.451 114.411 104.694L114.357 104.726L114.267 104.785L43.3595 145.719C43.2238 145.814 43.0661 145.874 42.901 145.893C42.736 145.912 42.5689 145.888 42.4152 145.825C42.2675 145.732 42.1481 145.6 42.0701 145.444C41.992 145.288 41.9582 145.114 41.9724 144.94V90.5673C41.9603 90.3727 41.9956 90.1781 42.0753 90.0001C42.1549 89.8222 42.2766 89.6662 42.4297 89.5455C42.5829 89.4249 42.763 89.3432 42.9547 89.3074C43.1464 89.2717 43.3439 89.283 43.5302 89.3403L73.3474 96.4302L77.2526 97.3585C77.7135 97.4448 78.1893 97.4035 78.6284 97.2389C79.0676 97.0744 79.4534 96.7929 79.744 96.4249L84.2681 90.1245L114.72 47.7287C115.232 47.0138 115.654 47.1472 115.654 48.0328Z" fill="black"/>
<path d="M114.267 104.785L114.357 104.726L114.411 104.694C114.741 104.451 115.017 104.142 115.222 103.787C115.484 103.372 115.633 102.896 115.654 102.405L84.269 90.1353L105.288 109.981L114.267 104.785Z" fill="#34A573"/>
<path opacity="0.6" d="M114.267 104.785L114.357 104.726L114.411 104.694C114.741 104.451 115.017 104.142 115.222 103.787C115.484 103.372 115.633 102.896 115.654 102.405L84.269 90.1353L105.288 109.981L114.267 104.785Z" fill="black"/>
<path d="M41.9726 144.94C41.9522 145.117 41.9819 145.296 42.0582 145.458C42.1346 145.619 42.2546 145.756 42.4047 145.852C42.5583 145.915 42.7254 145.938 42.8905 145.92C43.0556 145.901 43.2132 145.841 43.3489 145.745L67.7717 131.603L73.3466 96.393L41.9726 144.017V144.94Z" fill="#34A573"/>
<path opacity="0.6" d="M41.9726 144.94C41.9522 145.117 41.9819 145.296 42.0582 145.458C42.1346 145.619 42.2546 145.756 42.4047 145.852C42.5583 145.915 42.7254 145.938 42.8905 145.92C43.0556 145.901 43.2132 145.841 43.3489 145.745L67.7717 131.603L73.3466 96.393L41.9726 144.017V144.94Z" fill="black"/>
<path d="M115.222 103.787C115.018 104.142 114.741 104.451 114.412 104.694L114.358 104.726L43.3603 145.719C43.2246 145.815 43.0669 145.875 42.9018 145.893C42.7368 145.912 42.5697 145.889 42.416 145.825L76.3731 91.6184C77.0556 90.5326 78.1064 89.729 79.3331 89.3548C80.5597 88.9805 81.8801 89.0607 83.0525 89.5805L115.222 103.787Z" fill="#34A573"/>
<path opacity="0.2" d="M115.222 103.787C115.018 104.142 114.741 104.451 114.412 104.694L114.358 104.726L43.3603 145.719C43.2246 145.815 43.0669 145.875 42.9018 145.893C42.7368 145.912 42.5697 145.889 42.416 145.825L76.3731 91.6184C77.0556 90.5326 78.1064 89.729 79.3331 89.3548C80.5597 88.9805 81.8801 89.0607 83.0525 89.5805L115.222 103.787Z" fill="black"/>
<path d="M41.9727 88.9671L74.5854 103.371C75.7596 103.89 77.0813 103.967 78.3082 103.59C79.535 103.213 80.5847 102.406 81.2648 101.317L115.51 46.5127L41.9727 88.9671Z" fill="#34A573"/>
<path opacity="0.6" d="M41.9727 88.9671L74.5854 103.371C75.7596 103.89 77.0813 103.967 78.3082 103.59C79.535 103.213 80.5847 102.406 81.2648 101.317L115.51 46.5127L41.9727 88.9671Z" fill="black"/>
<path d="M41.9727 88.9671L74.8148 101.237C75.9497 101.661 77.1951 101.686 78.346 101.308C79.497 100.929 80.4849 100.171 81.1474 99.1566L115.51 46.5127L41.9727 88.9671Z" fill="#34A573"/>
<path opacity="0.2" d="M41.9727 88.9671L74.8148 101.237C75.9497 101.661 77.1951 101.686 78.346 101.308C79.497 100.929 80.4849 100.171 81.1474 99.1566L115.51 46.5127L41.9727 88.9671Z" fill="black"/>
<path d="M49.7505 94.7606C49.7753 94.2793 49.9139 93.8107 50.1551 93.3933C50.3962 92.976 50.7329 92.6218 51.1376 92.36L122.045 51.4206C122.475 51.2022 122.95 51.0884 123.432 51.0884C123.914 51.0884 124.389 51.2022 124.819 51.4206L126.382 52.3222C126.785 52.5856 127.12 52.9403 127.36 53.3574C127.6 53.7745 127.738 54.2423 127.764 54.7228V109.074C127.738 109.554 127.599 110.022 127.359 110.439C127.119 110.856 126.784 111.211 126.382 111.475L55.4696 152.409C55.04 152.624 54.5659 152.737 54.0852 152.737C53.6044 152.737 53.1303 152.624 52.7007 152.409L51.1376 151.507C50.7347 151.243 50.3993 150.889 50.1584 150.472C49.9175 150.055 49.7778 149.587 49.7505 149.106V94.7606Z" fill="#455A64"/>
<path d="M49.7505 94.7606C49.7753 94.2793 49.9139 93.8107 50.1551 93.3933C50.3962 92.976 50.7329 92.6218 51.1376 92.36L122.045 51.4206C122.475 51.2022 122.95 51.0884 123.432 51.0884C123.914 51.0884 124.389 51.2022 124.819 51.4206L126.382 52.3222C126.785 52.5856 127.12 52.9403 127.36 53.3574C127.6 53.7745 127.738 54.2423 127.764 54.7228V109.074C127.738 109.554 127.599 110.022 127.359 110.439C127.119 110.856 126.784 111.211 126.382 111.475L55.4696 152.409C55.04 152.624 54.5659 152.737 54.0852 152.737C53.6044 152.737 53.1303 152.624 52.7007 152.409L51.1376 151.507C50.7347 151.243 50.3993 150.889 50.1584 150.472C49.9175 150.055 49.7778 149.587 49.7505 149.106V94.7606Z" fill="#455A64"/>
<path d="M56.2536 96.9265L50.1559 93.4108C49.9062 93.8239 49.7666 94.2941 49.7505 94.7765V149.112C49.7778 149.592 49.9175 150.06 50.1584 150.477C50.3993 150.894 50.7347 151.249 51.1375 151.512L52.7006 152.414C53.1302 152.63 53.6043 152.742 54.085 152.742C54.5658 152.742 55.0398 152.63 55.4694 152.414L56.2536 151.96V96.9265Z" fill="#263238"/>
<path d="M127.77 54.7228V109.074C127.752 109.571 127.603 110.055 127.338 110.477C127.133 110.832 126.857 111.141 126.527 111.384L126.473 111.416L126.383 111.475L55.4754 152.409C55.3397 152.504 55.1821 152.564 55.017 152.583C54.8519 152.602 54.6848 152.578 54.5312 152.515C54.3811 152.419 54.2611 152.282 54.1847 152.121C54.1083 151.96 54.0786 151.78 54.099 151.603V97.2573C54.087 97.0627 54.1223 96.868 54.2019 96.6901C54.2816 96.5121 54.4032 96.3562 54.5564 96.2355C54.7095 96.1149 54.8897 96.0332 55.0813 95.9974C55.273 95.9617 55.4705 95.9729 55.6568 96.0303L85.474 103.12L89.3792 104.048C89.8402 104.135 90.3159 104.093 90.7551 103.929C91.1942 103.764 91.58 103.483 91.8707 103.115L96.3894 96.8145L126.841 54.4187C127.332 53.7145 127.77 53.8372 127.77 54.7228Z" fill="#37474F"/>
<path d="M126.381 111.474L126.472 111.416L126.525 111.384C126.855 111.141 127.132 110.832 127.336 110.477C127.595 110.063 127.742 109.588 127.763 109.1L96.3838 96.8303L117.398 116.665L126.381 111.474Z" fill="#263238"/>
<path d="M54.0888 151.608C54.0684 151.786 54.0981 151.965 54.1745 152.126C54.2508 152.288 54.3709 152.424 54.5209 152.521C54.6746 152.584 54.8417 152.607 55.0067 152.588C55.1718 152.57 55.3295 152.51 55.4652 152.414L79.8773 138.319L85.4522 103.11L54.0781 150.696L54.0888 151.608Z" fill="#263238"/>
<path d="M127.332 110.477C127.127 110.832 126.851 111.141 126.521 111.384L126.468 111.416L55.4755 152.409C55.3398 152.504 55.1821 152.564 55.0171 152.583C54.852 152.602 54.6849 152.578 54.5312 152.515L88.483 98.3135C89.1639 97.2259 90.214 96.4201 91.4407 96.0438C92.6675 95.6676 93.9888 95.7461 95.1624 96.265L127.332 110.477Z" fill="#37474F"/>
<path d="M54.0889 95.6623L86.7016 110.066C87.8752 110.583 89.1957 110.66 90.4213 110.283C91.647 109.906 92.6958 109.1 93.3756 108.012L127.621 53.1812L54.0889 95.6623Z" fill="#263238"/>
<path d="M54.0889 95.6623L86.9256 107.932C88.0613 108.357 89.3078 108.383 90.4599 108.005C91.612 107.627 92.6009 106.867 93.2636 105.852L127.621 53.1812L54.0889 95.6623Z" fill="#37474F"/>
<path d="M101.762 137.903V83.552C101.812 82.5208 102.134 81.5212 102.696 80.6552L136.514 33.5648C137.131 32.7044 137.991 32.0472 138.982 31.6767C139.974 31.3062 141.054 31.2392 142.084 31.4842L173.886 39.0436C174.911 39.3164 175.899 39.7104 176.831 40.2173L178.394 41.1189C178.796 41.3832 179.13 41.7381 179.37 42.155C179.61 42.5719 179.749 43.0392 179.776 43.5195V97.8706C179.748 98.3507 179.609 98.8177 179.369 99.2345C179.129 99.6513 178.795 100.006 178.394 100.271L107.481 141.205C107.052 141.422 106.578 141.535 106.097 141.535C105.616 141.535 105.142 141.422 104.712 141.205L103.149 140.304C102.746 140.04 102.411 139.686 102.17 139.269C101.929 138.852 101.789 138.384 101.762 137.903Z" fill="#34A573"/>
<path opacity="0.3" d="M101.762 137.903V83.552C101.812 82.5208 102.134 81.5212 102.696 80.6552L136.514 33.5648C137.131 32.7044 137.991 32.0472 138.982 31.6767C139.974 31.3062 141.054 31.2392 142.084 31.4842L173.886 39.0436C174.911 39.3164 175.899 39.7104 176.831 40.2173L178.394 41.1189C178.796 41.3832 179.13 41.7381 179.37 42.155C179.61 42.5719 179.749 43.0392 179.776 43.5195V97.8706C179.748 98.3507 179.609 98.8177 179.369 99.2345C179.129 99.6513 178.795 100.006 178.394 100.271L107.481 141.205C107.052 141.422 106.578 141.535 106.097 141.535C105.616 141.535 105.142 141.422 104.712 141.205L103.149 140.304C102.746 140.04 102.411 139.686 102.17 139.269C101.929 138.852 101.789 138.384 101.762 137.903Z" fill="white"/>
<path d="M108.26 57.2835V126.636C108.26 127.516 108.884 127.879 109.647 127.436L176.223 89.0257C176.627 88.7632 176.963 88.4088 177.204 87.9916C177.445 87.5744 177.584 87.1062 177.61 86.625V17.2724C177.61 16.3868 176.991 16.0294 176.223 16.4722L109.647 54.8829C109.244 55.1457 108.908 55.5001 108.667 55.9172C108.426 56.3344 108.286 56.8025 108.26 57.2835Z" fill="#FAFAFA"/>
<path d="M109.029 127.9C108.857 127.902 108.687 127.858 108.538 127.772C108.355 127.651 108.209 127.482 108.115 127.283C108.021 127.085 107.983 126.865 108.004 126.647V57.2942C108.03 56.7656 108.181 56.2506 108.445 55.7923C108.71 55.3339 109.08 54.9453 109.525 54.6588L176.1 16.2481C176.274 16.1065 176.486 16.0212 176.71 16.0035C176.933 15.9857 177.157 16.0364 177.351 16.1487C177.545 16.261 177.7 16.4297 177.796 16.6323C177.892 16.8349 177.923 17.0619 177.887 17.283V86.6356C177.862 87.1636 177.711 87.6779 177.447 88.1355C177.182 88.5931 176.812 88.9807 176.367 89.2657L109.792 127.676C109.562 127.817 109.298 127.895 109.029 127.9ZM176.841 16.5202C176.669 16.53 176.502 16.5832 176.356 16.6749L109.781 55.1122C109.418 55.3527 109.117 55.674 108.899 56.0507C108.682 56.4274 108.554 56.8493 108.527 57.2835V126.636C108.495 126.761 108.505 126.893 108.555 127.012C108.605 127.131 108.693 127.231 108.804 127.295C108.916 127.36 109.046 127.386 109.174 127.37C109.302 127.354 109.422 127.297 109.514 127.207L176.089 88.7962C176.452 88.556 176.754 88.2348 176.972 87.8581C177.189 87.4813 177.316 87.0592 177.343 86.625V17.2724C177.358 17.1473 177.341 17.0204 177.293 16.9037C177.246 16.787 177.169 16.6844 177.071 16.6055C177.004 16.5568 176.924 16.5273 176.841 16.5202Z" fill="#E0E0E0"/>
<path d="M106.825 84.8749L102.024 82.1008C101.869 82.5695 101.782 83.0583 101.768 83.5519V137.903C101.795 138.384 101.935 138.852 102.175 139.269C102.416 139.686 102.752 140.04 103.155 140.304L104.713 141.205C105.142 141.424 105.616 141.537 106.097 141.537C106.578 141.537 107.053 141.424 107.482 141.205L108.148 140.826L106.825 84.8749Z" fill="#34A573"/>
<g opacity="0.1">
<path d="M106.825 84.8749L102.024 82.1008C101.869 82.5695 101.782 83.0583 101.768 83.5519V137.903C101.795 138.384 101.935 138.852 102.175 139.269C102.416 139.686 102.752 140.04 103.155 140.304L104.713 141.205C105.142 141.424 105.616 141.537 106.097 141.537C106.578 141.537 107.053 141.424 107.482 141.205L108.148 140.826L106.825 84.8749Z" fill="black"/>
</g>
<path d="M179.781 43.5197V97.8708C179.763 98.3683 179.614 98.8523 179.349 99.2738C179.144 99.6288 178.868 99.9376 178.538 100.181L178.485 100.213L178.394 100.271L107.487 141.205C107.351 141.301 107.193 141.361 107.028 141.38C106.863 141.399 106.696 141.375 106.542 141.312C106.392 141.216 106.272 141.079 106.196 140.918C106.12 140.757 106.09 140.577 106.11 140.4V86.0541C106.098 85.8595 106.134 85.6649 106.213 85.487C106.293 85.309 106.414 85.153 106.568 85.0324C106.721 84.9118 106.901 84.8301 107.093 84.7943C107.284 84.7586 107.482 84.7698 107.668 84.8271L137.469 91.9171L141.374 92.8454C141.836 92.9327 142.313 92.8919 142.753 92.7273C143.193 92.5627 143.58 92.2807 143.871 91.9118L148.395 85.6113L178.847 43.2156C179.359 42.5114 179.781 42.6341 179.781 43.5197Z" fill="#34A573"/>
<path opacity="0.3" d="M179.781 43.5197V97.8708C179.763 98.3683 179.614 98.8523 179.349 99.2738C179.144 99.6288 178.868 99.9376 178.538 100.181L178.485 100.213L178.394 100.271L107.487 141.205C107.351 141.301 107.193 141.361 107.028 141.38C106.863 141.399 106.696 141.375 106.542 141.312C106.392 141.216 106.272 141.079 106.196 140.918C106.12 140.757 106.09 140.577 106.11 140.4V86.0541C106.098 85.8595 106.134 85.6649 106.213 85.487C106.293 85.309 106.414 85.153 106.568 85.0324C106.721 84.9118 106.901 84.8301 107.093 84.7943C107.284 84.7586 107.482 84.7698 107.668 84.8271L137.469 91.9171L141.374 92.8454C141.836 92.9327 142.313 92.8919 142.753 92.7273C143.193 92.5627 143.58 92.2807 143.871 91.9118L148.395 85.6113L178.847 43.2156C179.359 42.5114 179.781 42.6341 179.781 43.5197Z" fill="white"/>
<path d="M178.393 100.271L178.484 100.213L178.537 100.181C178.867 99.9376 179.143 99.6289 179.348 99.2739C179.607 98.8579 179.754 98.3818 179.775 97.8921L148.396 85.6221L169.409 105.462L178.393 100.271Z" fill="#34A573"/>
<path d="M106.1 140.405C106.08 140.583 106.109 140.762 106.186 140.923C106.262 141.084 106.382 141.221 106.532 141.318C106.686 141.381 106.853 141.404 107.018 141.385C107.183 141.367 107.341 141.307 107.476 141.211L131.889 127.116L137.463 91.9065L106.089 139.493L106.1 140.405Z" fill="#34A573"/>
<path d="M179.349 99.2736C179.144 99.6286 178.868 99.9374 178.538 100.181L178.485 100.213L107.487 141.205C107.351 141.301 107.193 141.361 107.028 141.38C106.863 141.398 106.696 141.375 106.542 141.312L140.494 87.1103C141.175 86.0239 142.224 85.219 143.45 84.8428C144.675 84.4666 145.995 84.5443 147.168 85.0617L179.349 99.2736Z" fill="#34A573"/>
<path opacity="0.3" d="M179.349 99.2736C179.144 99.6286 178.868 99.9374 178.538 100.181L178.485 100.213L107.487 141.205C107.351 141.301 107.193 141.361 107.028 141.38C106.863 141.398 106.696 141.375 106.542 141.312L140.494 87.1103C141.175 86.0239 142.224 85.219 143.45 84.8428C144.675 84.4666 145.995 84.5443 147.168 85.0617L179.349 99.2736Z" fill="white"/>
<path d="M137.576 73.2559C136.954 73.3523 136.317 73.2958 135.722 73.0913C135.126 72.8868 134.589 72.5405 134.157 72.0823C133.346 71.1807 132.94 69.7883 132.94 67.9158C132.942 65.803 133.395 63.7149 134.269 61.7914C135.166 59.8121 136.405 58.0063 137.928 56.4566C139.567 54.7579 141.434 53.2962 143.477 52.1141C145.479 50.9618 147.188 50.3234 148.603 50.1989C150.028 50.0708 151.1 50.4389 151.836 51.2925C152.573 52.1461 152.935 53.4531 152.935 55.2029C152.966 56.9383 152.555 58.6531 151.74 60.1856C151.022 61.5736 149.928 62.731 148.582 63.5252C148.118 63.8553 147.548 64.0034 146.982 63.9414C146.78 63.9015 146.594 63.8042 146.447 63.6613C146.299 63.5184 146.196 63.3359 146.149 63.1358C145.705 63.976 145.141 64.747 144.474 65.4244C143.8 66.1203 143.031 66.7182 142.191 67.2009C140.74 68.0225 139.582 68.2679 138.729 67.9851C137.875 67.7024 137.47 66.8382 137.47 65.3978C137.482 63.5876 138.04 61.8232 139.07 60.335C140.192 58.6851 141.682 57.3189 143.423 56.3446C144.15 55.9116 144.941 55.5948 145.765 55.4057C146.378 55.2395 147.025 55.2395 147.638 55.4057V61.0232C147.638 61.4767 147.718 61.7541 147.873 61.8608C148.027 61.9675 148.283 61.9141 148.646 61.7061C149.322 61.2665 149.822 60.6039 150.06 59.8335C150.421 58.793 150.592 57.6963 150.567 56.5953C150.567 55.194 150.261 54.1751 149.649 53.5385C149.322 53.2189 148.923 52.9823 148.486 52.8487C148.049 52.715 147.586 52.6881 147.136 52.7703C145.834 52.9692 144.586 53.4341 143.471 54.136C141.113 55.4443 139.079 57.2679 137.523 59.4708C136.085 61.5381 135.321 63.9996 135.336 66.5181C135.336 68.0509 135.651 69.1695 136.28 69.8737C136.606 70.2261 137.015 70.4924 137.469 70.6488C137.923 70.8052 138.409 70.8468 138.883 70.7699C140.211 70.5818 141.484 70.1146 142.618 69.3989C143.4 68.9462 144.141 68.4249 144.832 67.8411C145.474 67.3104 146.059 66.7131 146.576 66.0593C146.63 65.9904 146.693 65.9294 146.763 65.8779C146.811 65.8512 146.859 65.8779 146.902 65.9419L147.488 67.0089C147.51 67.0512 147.526 67.096 147.536 67.1422C147.518 67.2611 147.46 67.3701 147.371 67.4517C146.726 68.2267 146.012 68.941 145.237 69.5856C144.421 70.2702 143.548 70.8841 142.628 71.4208C141.096 72.3886 139.373 73.0145 137.576 73.2559ZM144.512 63.2265C145.019 62.6271 145.316 61.8772 145.355 61.0926V57.8383C144.593 57.9026 143.86 58.1556 143.221 58.5745C142.203 59.147 141.336 59.9534 140.692 60.9272C140.088 61.8205 139.763 62.8735 139.758 63.952C139.758 64.8536 139.982 65.3924 140.436 65.5525C140.889 65.7125 141.588 65.5525 142.543 64.9816C143.316 64.5344 143.993 63.9377 144.533 63.2265H144.512Z" fill="#E0E0E0"/>
<path d="M69.6285 78.6014L64.427 75.5872H64.3897C62.6132 74.5843 60.1645 74.7337 57.4544 76.2968C52.0076 79.439 47.5957 87.0838 47.5957 93.3682C47.5957 96.5104 48.6947 98.703 50.4712 99.77L55.3098 102.539L56.1848 101.082C57.177 100.86 58.1302 100.489 59.0122 99.9833C64.4537 96.8358 68.8709 89.191 68.8709 82.9119C68.868 82.0633 68.7641 81.218 68.5615 80.3939L69.6285 78.6014Z" fill="#F28F8F"/>
<path d="M69.6285 78.6014L64.427 75.5872H64.3897C62.6132 74.5843 60.1645 74.7337 57.4544 76.2968C52.0076 79.439 47.5957 87.0838 47.5957 93.3682C47.5957 96.5104 48.6947 98.703 50.4712 99.77L55.3098 102.539L56.1848 101.082C57.177 100.86 58.1302 100.489 59.0122 99.9833C64.4537 96.8358 68.8709 89.191 68.8709 82.9119C68.868 82.0633 68.7641 81.218 68.5615 80.3939L69.6285 78.6014Z" fill="#34A573"/>
<path opacity="0.4" d="M69.6285 78.6014L64.427 75.5872H64.3897C62.6132 74.5843 60.1645 74.7337 57.4544 76.2968C52.0076 79.439 47.5957 87.0838 47.5957 93.3682C47.5957 96.5104 48.6947 98.703 50.4712 99.77L55.3098 102.539L56.1848 101.082C57.177 100.86 58.1302 100.489 59.0122 99.9833C64.4537 96.8358 68.8709 89.191 68.8709 82.9119C68.868 82.0633 68.7641 81.218 68.5615 80.3939L69.6285 78.6014Z" fill="black"/>
<path d="M62.4539 79.1615C57.0071 82.309 52.5952 89.9538 52.5952 96.2329C52.5952 102.512 57.0071 105.067 62.4539 101.925C67.9008 98.7829 72.3127 91.1381 72.3127 84.8537C72.3127 78.5693 67.9008 76.0193 62.4539 79.1615Z" fill="#34A573"/>
<path d="M58.602 97.7373C58.5006 97.7373 58.4473 97.6787 58.4473 97.588C58.4578 97.4875 58.4867 97.3898 58.5326 97.2999L59.0288 96.1849C59.0616 96.0757 59.1267 95.979 59.2155 95.9075C59.2893 95.8741 59.3692 95.856 59.4502 95.8541C59.8941 95.8277 60.3322 95.7397 60.7519 95.5927C61.31 95.4047 61.8465 95.1579 62.3523 94.8565C63.1395 94.4301 63.8297 93.8452 64.3796 93.1387C64.792 92.6043 65.022 91.9517 65.0358 91.2769C65.0358 90.0979 64.3156 89.9272 62.8752 90.7434L61.4721 91.5916C61.2427 91.7197 61.0827 91.7677 60.9866 91.725C60.8906 91.6823 60.8426 91.5543 60.8426 91.3409V90.8981C60.835 90.7097 60.8853 90.5236 60.9866 90.3646C61.1151 90.1912 61.2811 90.0489 61.4721 89.9485L62.8645 89.1429C63.4224 88.8393 63.8956 88.401 64.2409 87.8679C64.5302 87.4206 64.6891 86.9015 64.6997 86.3688C64.6997 85.2272 63.8959 85.1205 62.2883 86.0488C61.2997 86.6121 60.4096 87.3329 59.6529 88.1827C59.5818 88.2629 59.5032 88.3362 59.4182 88.4014C59.3868 88.4163 59.3513 88.4202 59.3174 88.4124C59.2836 88.4047 59.2533 88.3858 59.2315 88.3587L58.7567 87.8252C58.7302 87.8007 58.709 87.771 58.6943 87.738C58.6796 87.705 58.6718 87.6693 58.6713 87.6332C58.6821 87.5108 58.7349 87.3958 58.8207 87.3078C59.2933 86.7167 59.8301 86.1799 60.4211 85.7073C61.1094 85.1465 61.8428 84.6433 62.6138 84.2029C63.3098 83.7697 64.0776 83.4644 64.8811 83.3013C65.1339 83.2397 65.3971 83.234 65.6524 83.2847C65.9076 83.3354 66.1487 83.4412 66.3588 83.5947C66.5482 83.7774 66.6945 84.0001 66.7868 84.2466C66.8791 84.493 66.9151 84.757 66.8923 85.0191C66.8802 85.6065 66.7496 86.1854 66.5082 86.7209C66.2503 87.3391 65.8896 87.9091 65.4412 88.4067C65.6715 88.3296 65.9175 88.3121 66.1564 88.3559C66.3953 88.3998 66.6191 88.5035 66.8069 88.6575C66.9713 88.8488 67.096 89.0709 67.1739 89.3108C67.2517 89.5508 67.2811 89.8038 67.2604 90.0552C67.2196 91.2379 66.805 92.3772 66.076 93.3094C65.1813 94.5096 64.0386 95.503 62.7258 96.2222C60.8479 97.3212 59.4733 97.8262 58.602 97.7373Z" fill="white"/>
<path d="M170.477 155.657L170.578 155.567C170.653 155.503 170.733 155.439 170.802 155.369L171.042 155.135L171.282 154.905C171.423 154.773 171.556 154.635 171.682 154.489L173.582 155.908L174.846 156.852C174.386 157.351 174.011 157.923 173.736 158.543C173.736 158.543 173.357 159.157 172.072 158.848C170.482 158.479 170.231 156.143 170.477 155.657Z" fill="#FFA8A7"/>
<path d="M151.874 155.006C150.423 153.321 151.714 150.52 153.122 146.887C154.67 142.891 157.06 136.1 157.06 136.1L174.03 132.595C174.03 132.595 192.11 132.248 193.77 135.705C195.114 138.474 183.206 142.64 181.499 142.79L171.048 143.339L169.949 143.873L162.608 153.161L151.874 155.006Z" fill="#34A573"/>
<path d="M183.142 138.538C181.824 139.878 180.596 141.304 179.466 142.806C176.409 147.074 171.571 154.825 171.571 154.825C171.571 154.825 172.323 157.279 174.633 157.172C174.633 157.172 190.531 142.326 191.832 140.955C193.801 138.874 195.38 135.444 191.976 135.161C188.573 134.878 184.465 137.108 183.142 138.538Z" fill="#34A573"/>
<path d="M179.381 142.891C179.381 142.891 182.219 138.741 185.159 137.023C185.159 137.023 182.235 137.599 177.807 142.987L179.381 142.891Z" fill="#34A573"/>
<path opacity="0.1" d="M179.381 142.891C179.381 142.891 182.219 138.741 185.159 137.023C185.159 137.023 182.235 137.599 177.807 142.987L179.381 142.891Z" fill="black"/>
<path d="M181.313 148.14L180.198 148.354L181.233 152.179C181.233 152.179 182.236 152.083 182.582 152.104C183.088 151.984 183.574 151.796 184.028 151.544L183.761 149.207L182.534 147.927L181.313 148.14Z" fill="#FFA8A7"/>
<path d="M190.115 149.042C190.647 149.257 191.129 149.579 191.531 149.988C191.933 150.398 192.247 150.886 192.452 151.422C192.689 151.982 192.884 152.56 193.033 153.15C193.209 153.769 193.124 154.82 192.34 154.991C192.085 155.021 191.827 154.974 191.598 154.857C190.024 154.249 188.488 153.545 186.877 153.033C185.496 152.521 184.05 152.207 182.582 152.099C182.916 151.586 183.083 150.981 183.06 150.369C183.037 149.757 182.825 149.167 182.454 148.68C182.138 148.387 181.739 148.201 181.312 148.146C181.718 147.965 182.097 147.73 182.486 147.511C183.211 147.004 184.1 146.785 184.978 146.898C185.65 147.042 186.162 147.575 186.733 147.965C187.821 148.674 188.872 148.626 190.115 149.042Z" fill="#263238"/>
<path d="M154.163 151.341C155.566 150.909 157.806 150.525 164.453 150.184C171.101 149.842 180.196 148.349 180.196 148.349C181.744 149.837 181.231 152.174 181.231 152.174C181.231 152.174 169.425 155.908 165.579 156.404C159.455 157.194 157.342 157.135 154.579 156.543C151.474 155.876 149.516 152.766 154.163 151.341Z" fill="#34A573"/>
<path d="M178.457 119.679L183.45 131.613L179.876 133.811L173.005 122.176L178.457 119.679Z" fill="#F28F8F"/>
<path d="M168.128 108.434C170.86 108.466 173.863 109.458 174.898 111.597L179.166 120.4C179.166 120.4 176.755 123.931 172.924 123.681L168.128 108.434Z" fill="#E0E0E0"/>
<path d="M149.969 126.983C150.001 126.519 150.668 124.251 151.383 121.808L156.568 123.6L155.176 127.991L150.807 132.136C149.861 130.595 149.56 128.744 149.969 126.983Z" fill="#FFA8A7"/>
<path d="M162.544 108.599C159.289 109.383 154.856 110.402 153.571 113.934C152.285 117.465 150.444 123.702 150.444 123.702C151.159 124.94 155.08 125.964 156.441 125.249L157.081 123.115V136.089C159.626 138.858 172.178 138.149 174.051 132.584V114.91C174.051 112.083 172.482 108.684 168.145 108.434L162.544 108.599Z" fill="#FAFAFA"/>
<path d="M157.065 123.126L158.697 117.988L157.065 125.425V123.126Z" fill="#E0E0E0"/>
<path d="M161.306 94.1363C161.016 94.0987 160.721 94.1272 160.444 94.2196C160.167 94.3119 159.914 94.4658 159.705 94.6697C159.017 95.3739 159.172 96.6756 159.705 99.6631L161.839 99.9032L161.306 94.1363Z" fill="#263238"/>
<path d="M173.689 93.272C174.145 93.274 174.598 93.1814 175.017 92.9999C175.668 92.6265 175.838 93.368 175.481 94.0082C175.245 94.4698 174.894 94.8631 174.463 95.1508C174.031 95.4384 173.533 95.6107 173.016 95.6513C173.016 95.5606 172.408 93.9922 172.408 93.9922L173.689 93.272Z" fill="#263238"/>
<path d="M162.303 99.9352C161.988 100.122 161.535 99.5191 161.145 99.1083C160.993 98.9336 160.798 98.8007 160.579 98.7222C160.361 98.6436 160.126 98.622 159.897 98.6594C159.668 98.6968 159.453 98.7919 159.27 98.9358C159.088 99.0796 158.946 99.2675 158.857 99.4817C158.211 100.842 159.678 102.651 160.537 103.248C160.778 103.456 161.079 103.582 161.396 103.609C161.713 103.636 162.03 103.562 162.303 103.397L162.527 108.599C162.908 109.432 163.489 110.159 164.219 110.713C164.949 111.267 165.804 111.631 166.71 111.773C169.761 112.184 169.132 109.666 168.129 108.434V106.529C168.893 106.692 169.678 106.732 170.455 106.646C170.849 106.54 171.799 105.393 172.412 104.107C173.101 102.667 174.248 100.106 173.229 95.7687C172.13 91.1167 167.131 90.9674 164.16 92.8505C161.188 94.7337 162.303 99.9352 162.303 99.9352Z" fill="#FFA8A7"/>
<path d="M162.303 100.463C162.143 100.463 161.54 99.4659 161.146 99.1084C160.612 98.6123 161.306 94.1364 161.306 94.1364C161.306 94.1364 160.772 92.4346 161.839 91.3089C162.906 90.1833 164.997 90.37 166.523 90.3167C168.392 90.3269 170.244 89.9547 171.965 89.223C174.13 88.2841 174.291 88.1561 174.557 89.1217C174.824 90.0873 174.931 92.2479 173.64 93.7043L172.935 94.8513C172.935 94.8513 172.279 95.3847 170.268 95.6515C168.257 95.9182 164.811 94.8139 164.4 94.7552C163.813 94.6752 163.69 95.2407 163.375 96.7878C163.077 98.1482 162.837 100.453 162.303 100.463Z" fill="#263238"/>
<path d="M161.311 94.4832L159.401 93.4589C159.464 93.332 159.552 93.2188 159.659 93.126C159.766 93.0332 159.89 92.9627 160.025 92.9185C160.159 92.8743 160.301 92.8573 160.443 92.8686C160.584 92.8799 160.721 92.9192 160.847 92.9841C161.101 93.1273 161.291 93.3625 161.378 93.6413C161.464 93.9201 161.44 94.2214 161.311 94.4832Z" fill="#263238"/>
<path d="M168.124 106.529C168.124 106.529 165.296 105.958 164.31 105.462C163.729 105.157 163.253 104.685 162.944 104.107C163.094 104.687 163.359 105.231 163.723 105.707C164.443 106.63 168.124 107.308 168.124 107.308V106.529Z" fill="#F28F8F"/>
<path d="M168.215 99.8285C168.21 99.9394 168.174 100.047 168.109 100.137C168.044 100.227 167.955 100.296 167.851 100.336C167.747 100.375 167.635 100.383 167.526 100.359C167.418 100.335 167.319 100.279 167.242 100.2C167.165 100.12 167.114 100.019 167.093 99.9099C167.073 99.8008 167.086 99.6882 167.129 99.5861C167.172 99.4841 167.245 99.397 167.337 99.3357C167.43 99.2745 167.538 99.2418 167.649 99.2417C167.725 99.2431 167.799 99.2594 167.869 99.2896C167.938 99.3199 168.001 99.3635 168.053 99.418C168.106 99.4725 168.147 99.5368 168.175 99.6072C168.202 99.6777 168.216 99.7529 168.215 99.8285Z" fill="#263238"/>
<path d="M167.617 97.6945L166.4 98.3614C166.316 98.1946 166.298 98.002 166.351 97.8227C166.403 97.6434 166.522 97.4908 166.683 97.3958C166.763 97.3519 166.852 97.3249 166.943 97.3162C167.034 97.3075 167.126 97.3175 167.214 97.3454C167.301 97.3733 167.382 97.4187 167.451 97.4787C167.52 97.5387 167.577 97.6121 167.617 97.6945Z" fill="#263238"/>
<path d="M167.878 103.616L169.175 104.107C169.146 104.194 169.1 104.273 169.04 104.342C168.98 104.411 168.907 104.466 168.825 104.506C168.743 104.546 168.653 104.569 168.562 104.574C168.471 104.578 168.38 104.565 168.294 104.534C168.12 104.465 167.979 104.33 167.901 104.159C167.824 103.988 167.815 103.793 167.878 103.616Z" fill="#F28F8F"/>
<path d="M173.267 98.1639L172.163 97.3103C172.215 97.2362 172.282 97.1735 172.359 97.1259C172.436 97.0783 172.522 97.0468 172.612 97.0333C172.702 97.0199 172.793 97.0247 172.881 97.0476C172.969 97.0704 173.051 97.1108 173.123 97.1663C173.27 97.2823 173.368 97.4506 173.394 97.6363C173.421 97.822 173.376 98.0109 173.267 98.1639Z" fill="#263238"/>
<path d="M172.925 99.6686C172.921 99.7795 172.885 99.8866 172.82 99.9768C172.755 100.067 172.666 100.136 172.562 100.176C172.458 100.215 172.345 100.223 172.237 100.199C172.129 100.175 172.03 100.12 171.953 100.04C171.876 99.9598 171.824 99.8591 171.804 99.75C171.784 99.6409 171.797 99.5283 171.84 99.4262C171.883 99.3241 171.956 99.2371 172.048 99.1758C172.141 99.1146 172.249 99.0819 172.36 99.0818C172.436 99.0832 172.51 99.0995 172.58 99.1297C172.649 99.16 172.712 99.2036 172.764 99.2581C172.817 99.3126 172.858 99.3769 172.886 99.4473C172.913 99.5178 172.927 99.593 172.925 99.6686Z" fill="#263238"/>
<path d="M170.258 99.5991L169.725 102.971L171.592 102.752L170.258 99.5991Z" fill="#F28F8F"/>
<path d="M189.719 137.887L178.223 131.251C178.122 131.193 178.008 131.163 177.892 131.163C177.776 131.163 177.662 131.193 177.561 131.251L157.401 142.891L169.223 149.741L189.719 137.887Z" fill="#37474F"/>
<path d="M169.116 148.743L162.917 145.169L181.044 134.702L187.275 138.261L169.116 148.743Z" fill="#263238"/>
<path d="M166.071 138.799L166.188 138.863L169.224 140.619L174.628 137.498L174.74 137.434L171.587 135.615L166.071 138.799Z" fill="#263238"/>
<path d="M166.188 138.864L169.223 140.619L174.628 137.498L171.587 135.743L166.188 138.864Z" fill="#263238"/>
<path d="M157.4 142.891V143.163C157.399 143.356 157.447 143.545 157.541 143.714C157.634 143.882 157.77 144.023 157.934 144.124L168.646 150.307C168.815 150.405 169.006 150.456 169.201 150.456C169.396 150.456 169.587 150.405 169.756 150.307L189.143 139.104C189.306 139.003 189.442 138.861 189.535 138.693C189.629 138.525 189.677 138.336 189.676 138.143V137.871L169.222 149.741L157.4 142.891Z" fill="#263238"/>
<path d="M169.223 149.741V150.477C169.411 150.475 169.595 150.424 169.757 150.328L189.143 139.125C189.307 139.024 189.442 138.883 189.536 138.714C189.629 138.546 189.678 138.357 189.677 138.164V137.892L169.223 149.741Z" fill="#263238"/>
<path d="M169.538 149.885C169.721 149.955 169.918 149.983 170.113 149.968C170.309 149.952 170.499 149.893 170.669 149.794L189.97 138.65C190.137 138.554 190.281 138.422 190.391 138.263C190.501 138.104 190.574 137.923 190.605 137.732L192.739 125.137C192.744 125.064 192.744 124.991 192.739 124.918C192.738 124.567 192.598 124.232 192.349 123.984L172.29 135.566C172.167 135.638 172.061 135.735 171.98 135.852C171.899 135.97 171.844 136.103 171.821 136.244L169.538 149.885Z" fill="#263238"/>
<path d="M169.223 149.741L169.357 149.816C169.415 149.849 169.476 149.879 169.538 149.906L171.821 136.265C171.845 136.125 171.899 135.991 171.98 135.874C172.061 135.757 172.167 135.659 172.291 135.588L192.35 124.006C192.268 123.93 192.178 123.862 192.083 123.803L171.987 135.385C171.863 135.456 171.756 135.554 171.674 135.671C171.592 135.788 171.536 135.922 171.512 136.063L169.223 149.741Z" fill="#455A64"/>
<path d="M180.406 138.25C180.709 137.197 181.407 136.301 182.353 135.748C183.286 135.215 183.927 135.455 183.788 136.281C183.484 137.335 182.787 138.23 181.841 138.783C180.907 139.344 180.267 139.072 180.406 138.25Z" fill="#37474F"/>
<path d="M155.176 127.981C155.176 127.981 158.639 141.318 160.1 142.272C161.562 143.227 164.283 143.926 165.585 144.406C166.886 144.887 167.478 145.543 167.254 145.724C167.03 145.905 165.152 146.103 164.502 146.332C163.851 146.562 164.694 147.613 166.134 148.728C167.574 149.843 168.801 149.741 168.641 150.483C168.481 151.224 165.27 151.966 162.56 150.376C159.85 148.786 159.028 146.642 157.412 144.823C155.795 143.003 152.103 135.444 150.807 132.136C150.807 132.136 150.93 125.991 152.941 126.38C154.952 126.77 155.176 127.981 155.176 127.981Z" fill="#FFA8A7"/>
<path d="M171.65 155.007C171.895 155.599 172.744 157.231 174.632 157.141L179.273 152.798L171.65 155.007Z" fill="#34A573"/>
<path opacity="0.1" d="M171.65 155.007C171.895 155.599 172.744 157.231 174.632 157.141L179.273 152.798L171.65 155.007Z" fill="black"/>
<path d="M173.053 162.646C173.009 161.249 173.239 159.857 173.731 158.549C173.508 158.705 173.25 158.805 172.98 158.84C172.709 158.875 172.435 158.845 172.179 158.752C170.626 158.288 170.237 156.122 170.482 155.652C170.258 155.849 170.023 156.036 169.794 156.228C169.058 156.722 168.535 157.474 168.327 158.336C168.22 159.013 168.535 159.68 168.69 160.352C168.988 161.632 168.69 162.966 168.642 164.279C168.652 164.851 168.781 165.416 169.018 165.937C169.256 166.458 169.598 166.925 170.023 167.309C170.461 167.735 170.932 168.126 171.432 168.477C171.614 168.682 171.855 168.825 172.121 168.887C172.388 168.948 172.667 168.926 172.921 168.822C173.174 168.719 173.389 168.539 173.536 168.308C173.683 168.077 173.755 167.806 173.742 167.533C173.539 165.868 173.149 164.38 173.053 162.646Z" fill="#263238"/>
<path d="M174.814 156.863C174.67 157.135 174.542 157.397 174.43 157.658C174.563 157.402 174.691 157.135 174.814 156.863Z" fill="#37474F"/>
</svg>
